<svg width="129" height="129" viewBox="0 0 129 129" fill="none" xmlns="http://www.w3.org/2000/svg">
<path d="M124 0H5C2.23858 0 0 2.23858 0 5V124C0 126.761 2.23858 129 5 129H124C126.761 129 129 126.761 129 124V5C129 2.23858 126.761 0 124 0Z" fill="#007A3D"/>
<path d="M97.8728 63.0977C96.9871 64.049 95.7815 64.9921 94.2562 65.9269C92.7308 66.8619 90.8364 67.7147 88.573 68.4856C86.3095 69.2565 83.6771 69.9044 80.6756 70.4292C77.6741 70.9541 74.2543 71.2821 70.4164 71.4133C70.0555 72.4302 69.6864 73.5209 69.3092 74.6855C68.9319 75.85 68.5629 77.1211 68.2021 78.4989H67.9561C67.792 78.3348 67.6526 78.1298 67.5378 77.8838C67.423 77.6378 67.3164 77.2851 67.218 76.8259C67.382 75.9074 67.5624 75.0053 67.7593 74.1196C67.956 73.2339 68.1693 72.3318 68.3989 71.4133C66.7259 71.4133 65.1514 71.2001 63.6752 70.7737C63.5768 77.1375 62.0514 82.9765 59.0992 88.2907C55.8844 94.0969 49.1761 97 38.9743 97C34.8738 97 31.5279 95.8027 28.9364 93.408C26.3121 90.9806 25 87.9462 25 84.3051C25 80.4671 26.8042 75.7598 30.4126 70.1832L31.3475 70.5276C28.92 75.0217 27.7063 78.6465 27.7063 81.402C27.7063 82.8453 28.0589 84.1328 28.7642 85.2646C29.4695 86.3963 30.47 87.364 31.7657 88.1677C33.0614 88.9713 34.6524 89.5864 36.5386 90.0129C38.4248 90.4393 40.5488 90.6525 42.9107 90.6525C46.519 90.6525 49.865 90.0293 52.9485 88.7827C56.032 87.569 58.1314 86.0108 59.2468 84.1082C60.2637 82.2713 60.7721 79.565 60.7721 75.9894C60.7721 74.054 60.4687 72.1268 59.8618 70.2078C59.2549 68.2888 58.4267 66.5912 57.377 65.1151L60.0833 59.3089C60.6409 60.0962 61.1657 60.9572 61.6578 61.8921C62.1498 62.827 62.5271 63.6225 62.7896 64.2786C63.7408 64.705 64.6921 65.0003 65.6435 65.1643C66.5947 65.3283 67.5952 65.4103 68.645 65.4103C69.0058 65.4103 69.383 65.4103 69.7767 65.4103C70.1703 65.4103 70.5803 65.3775 71.0068 65.3119C72.811 62.3268 74.7546 59.6041 76.8376 57.1438C78.9206 54.6836 81.0938 52.535 83.3573 50.698C85.2926 49.1234 87.1624 47.8933 88.9667 47.0076C90.7708 46.1219 92.247 45.6791 93.3952 45.679C94.576 45.6791 95.7077 45.9005 96.7903 46.3433C97.8727 46.7862 98.8322 47.3274 99.6688 47.9671C100.505 48.6068 101.169 49.2792 101.662 49.9845C102.154 50.6898 102.4 51.3212 102.4 51.8789C102.4 53.2238 102.268 54.454 102.006 55.5693C101.744 56.6846 101.399 57.6933 100.973 58.5954C100.546 59.4975 100.062 60.3176 99.5212 61.0556C98.9799 61.7937 98.4304 62.4744 97.8728 63.0977ZM91.6238 52.2233C90.7052 52.2233 89.5489 52.5186 88.1548 53.109C86.7606 53.6995 85.2516 54.5442 83.6279 55.6431C82.0041 56.742 80.3393 58.1033 78.6336 59.7271C76.9278 61.3509 75.304 63.1961 73.7623 65.2627C74.3199 65.2627 74.853 65.2463 75.3615 65.2135C75.8699 65.1807 76.4685 65.1315 77.1575 65.0659C79.5192 64.9019 81.8401 64.5492 84.12 64.0079C86.3998 63.4667 88.8518 62.6876 91.4762 61.6707C93.5427 60.8834 95.2157 60.0551 96.4951 59.1858C97.7743 58.3166 98.5944 57.5867 98.9553 56.9962C98.5616 56.4386 98.086 55.8727 97.5284 55.2986C96.9707 54.7246 96.3638 54.2079 95.7078 53.7487C95.0517 53.2895 94.371 52.9204 93.6658 52.6416C92.9604 52.3628 92.2798 52.2233 91.6238 52.2233ZM82.816 35.838L79.3225 41.0045L74.648 37.0681L78.0924 32L82.816 35.838Z" fill="white"/>
</svg>
