<svg xmlns="http://www.w3.org/2000/svg" viewBox="0 0 512 512"><path fill="#f5f5f5" d="M0 0h512v512H0z"/><g fill="#73af00"><path d="M238.335 415.571c7.454-5.568 13.931-7.388 23.954-9.209 10.025-1.82 20.614-4.926 26.167-6.426 5.601-1.552-18.816 7.388-25.036 9.157-6.116 1.872-25.085 6.478-25.085 6.478zM278.689 399.892c-2.006-12.594 2.979-25.857 14.392-31.152 2.674 9.151-5.501 24.674-14.392 31.152zM298.171 393.364c-6.117-10.539 4.164-24.059 11.823-30.639 3.548 6.322-2.674 25.189-11.823 30.639zM316.111 385.242c-6.477-8.996 1.234-24.728 9.459-30.947 3.187 8.893 0 24.828-9.459 30.947zM334.103 373.932c-5.961-8.483-1.798-21.643 6.785-30.229 6.12 7.097.874 22.415-6.785 30.229zM348.55 362.623c-4.988-8.02 1.129-27.194 9.149-32.49 3.445 7.093.874 27.144-9.149 32.49zM360.013 359.59c-1.44-11.465 18.608-24.162 26.783-23.801-.874 9.354-9.459 19.635-26.783 23.801zM348.806 372.543c9.459-9.662 27.71-9.662 34.185-7.659-1.696 5.656-23.286 17.942-34.185 7.659z"/><path d="M335.851 382.26c13.263-3.548 21.848-6.427 29.765 1.798-5.603 7.096-27.091 4.987-29.765-1.798zM316.935 390.846c12.697-6.788 28.068 3.237 30.381 9.046-14.137 5.911-30.639-7.557-30.381-9.046zM299.558 400.56c11.568-4.422 24.83 1.44 30.073 7.917-6.169 2.983-22.311 6.22-30.073-7.917zM283.726 405.545c13.263-1.49 25.96 8.586 28.736 14.292-16.863 1.645-23.39-3.442-28.736-14.292zM279.46 415.571c-7.351-5.568-13.829-7.388-23.854-9.209-10.025-1.82-20.614-4.926-26.267-6.426-5.501-1.552 18.916 7.388 25.136 9.157 6.169 1.872 24.985 6.478 24.985 6.478zM239.106 399.892c2.106-12.594-2.879-25.857-14.394-31.152-2.572 9.151 5.603 24.674 14.394 31.152zM219.724 393.364c6.222-10.539-4.164-24.059-11.823-30.639-3.548 6.322 2.674 25.189 11.823 30.639zM201.681 385.242c6.58-8.996-1.132-24.728-9.357-30.947-3.237 8.893.001 24.828 9.357 30.947zM183.739 373.932c5.911-8.483 1.8-21.643-6.733-30.229-6.116 7.097-.874 22.415 6.733 30.229zM169.347 362.623c5.088-8.02-1.132-27.194-9.152-32.49-3.547 7.093-.873 27.144 9.152 32.49zM157.779 359.59c1.542-11.465-18.506-24.162-26.681-23.801.875 9.354 9.308 19.635 26.681 23.801zM169.089 372.543c-9.459-9.662-27.707-9.662-34.185-7.659 1.798 5.656 23.286 17.942 34.185 7.659z"/><path d="M182.044 382.26c-13.263-3.548-21.848-6.427-29.765 1.798 5.5 7.096 27.091 4.987 29.765-1.798zM200.858 390.846c-12.644-6.788-27.965 3.237-30.279 9.046 14.136 5.911 30.537-7.557 30.279-9.046zM218.181 400.56c-11.515-4.422-24.725 1.44-29.968 7.917 6.22 2.983 22.362 6.22 29.968-7.917zM234.221 405.545c-13.365-1.49-26.062 8.586-28.786 14.292 16.963 1.645 23.44-3.442 28.786-14.292z"/></g><path d="M91.105 215.085s-3.681 4.801 2.571 16.963c6.253 12.162 1.762 26.197 8.499 30.688s.284 13.398 8.002 19.33c7.718 5.933 27.999 19.585 41.999 21.18s27.6-12.548 35.677-2.108 6.312 17.799 13.931 18.611c7.619.812 7.619-2.557 7.058-7.609s5.053-19.088 17.965-19.088 26.592-1.537 48.384-9.751c21.792-8.214 32.458-12.144 35.265-25.056 2.807-12.912 10.788-28.178 26.166-21.107 15.378 7.072 14.344 3.755 19.072.361s20.579 6.424 24.162 1.234c3.583-5.19-28.048-30.868-26.267-44.415s6.047-24.799 19.072-25.91c13.025-1.111 9.656-15.707 23.13-23.006 13.474-7.298 19.68-8.132 30.331-18.943s38.659-32.695 38.659-32.695-54.491 26.096-65.39 28.481-15.39 18.105-45.706 26.526-32 11.789-55.018 16.842c-20.729 4.55-67.555 3.022-95.254-5.866-3.82-1.226-7.616 1.791-7.277 5.788 1.141 13.463.821 37.671-15.531 41.426 0 0-22.288-16.647-36.324-9.349-14.035 7.298-24.016 33.325-34.464 29.294S98 206.17 91.105 215.085z" fill="#ffc850"/></svg>