<svg width="24" height="24" viewBox="0 0 24 24" fill="none" xmlns="http://www.w3.org/2000/svg">
<path d="M10.6265 11.707C10.814 11.895 11.0684 12 11.3335 12H11.3555C11.6279 11.9937 11.8862 11.877 12.0708 11.6758L15.7373 7.67579C16.1103 7.26856 16.083 6.63624 15.6758 6.2627C15.2676 5.88965 14.6357 5.91699 14.2627 6.32422L11.3022 9.5542L9.70703 7.95947C9.31641 7.56885 8.68359 7.56885 8.29297 7.95947C7.90235 8.35009 7.90235 8.98291 8.29297 9.37353L10.6265 11.707Z" fill="#545454"/>
<path d="M13 18C13 18.5523 12.5523 19 12 19C11.4477 19 11 18.5523 11 18C11 17.4477 11.4477 17 12 17C12.5523 17 13 17.4477 13 18Z" fill="#545454"/>
<path fill-rule="evenodd" clip-rule="evenodd" d="M4 18C4 20.2061 5.79443 22 8 22H16C18.2061 22 20 20.2061 20 18V6C20 3.79443 18.2061 2 16 2H8C5.79443 2 4 3.79443 4 6V18ZM18 6V14H6V6C6 4.89697 6.89697 4 8 4H16C17.1025 4 18 4.89697 18 6ZM18 16H6V18C6 19.1025 6.89697 20 8 20H16C17.1025 20 18 19.1025 18 18V16Z" fill="#545454"/>
</svg>
