<svg width="24" height="24" viewBox="0 0 24 24" fill="none" xmlns="http://www.w3.org/2000/svg">
<path d="M9.22609 11.1109C10.1271 11.1109 11.0079 10.8437 11.7571 10.3431C12.5063 9.8425 13.0902 9.131 13.435 8.29856C13.7798 7.46612 13.87 6.55012 13.6942 5.66641C13.5184 4.7827 13.0845 3.97096 12.4474 3.33384C11.8103 2.69671 10.9986 2.26283 10.1148 2.08705C9.23113 1.91127 8.31514 2.00149 7.4827 2.34629C6.65026 2.6911 5.93876 3.27501 5.43818 4.02419C4.93759 4.77337 4.67041 5.65416 4.67041 6.55518C4.67165 7.76304 5.15202 8.92108 6.00611 9.77516C6.86019 10.6292 8.01823 11.1096 9.22609 11.1109ZM9.22609 3.99952C9.73155 3.99953 10.2257 4.14942 10.6459 4.43024C11.0662 4.71106 11.3938 5.1102 11.5872 5.57719C11.7806 6.04418 11.8313 6.55804 11.7326 7.05379C11.634 7.54954 11.3906 8.00492 11.0332 8.36233C10.6758 8.71975 10.2204 8.96315 9.72465 9.06176C9.2289 9.16037 8.71504 9.10976 8.24806 8.91632C7.78107 8.72289 7.38193 8.39532 7.10111 7.97504C6.82029 7.55476 6.67041 7.06065 6.67041 6.55518C6.67113 5.8776 6.94061 5.22797 7.41974 4.74884C7.89887 4.26972 8.5485 4.00024 9.22609 3.99952ZM13.9038 14.5718C14.0234 14.335 14.044 14.0605 13.9613 13.8085C13.8785 13.5566 13.6991 13.3478 13.4624 13.228C12.7316 12.8591 11.9246 12.6665 11.106 12.6655H7.2417C5.85287 12.667 4.52135 13.2194 3.53931 14.2014C2.55726 15.1835 2.0049 16.515 2.00342 17.9038V18.9995C2.00342 19.2647 2.10877 19.5191 2.29631 19.7066C2.48385 19.8942 2.7382 19.9995 3.00342 19.9995C3.26863 19.9995 3.52299 19.8942 3.71052 19.7066C3.89806 19.5191 4.00342 19.2647 4.00342 18.9995V17.9038C4.00454 17.0453 4.34607 16.2223 4.95312 15.6152C5.56018 15.0082 6.3832 14.6667 7.2417 14.6655H11.106C11.6113 14.6648 12.1097 14.784 12.5601 15.0132C12.6772 15.0727 12.805 15.1085 12.936 15.1185C13.067 15.1285 13.1987 15.1125 13.3236 15.0715C13.4484 15.0305 13.564 14.9652 13.6635 14.8795C13.7631 14.7937 13.8447 14.6892 13.9038 14.5718H13.9038ZM21.0015 16.5015H18.5015V14.0015C18.5015 13.7363 18.3961 13.4819 18.2086 13.2944C18.021 13.1068 17.7667 13.0015 17.5015 13.0015C17.2363 13.0015 16.9819 13.1068 16.7944 13.2944C16.6068 13.4819 16.5015 13.7363 16.5015 14.0015V16.5015H14.0015C13.7363 16.5015 13.4819 16.6068 13.2944 16.7944C13.1068 16.9819 13.0015 17.2363 13.0015 17.5015C13.0015 17.7667 13.1068 18.021 13.2944 18.2086C13.4819 18.3961 13.7363 18.5015 14.0015 18.5015H16.5015V21.0015C16.5015 21.2667 16.6068 21.521 16.7944 21.7086C16.9819 21.8961 17.2363 22.0015 17.5015 22.0015C17.7667 22.0015 18.021 21.8961 18.2086 21.7086C18.3961 21.521 18.5015 21.2667 18.5015 21.0015V18.5015H21.0015C21.2667 18.5015 21.521 18.3961 21.7086 18.2086C21.8961 18.021 22.0015 17.7667 22.0015 17.5015C22.0015 17.2363 21.8961 16.9819 21.7086 16.7944C21.521 16.6068 21.2667 16.5015 21.0015 16.5015Z" fill="#545454"/>
</svg>
