<svg width="24" height="24" viewBox="0 0 24 24" fill="none" xmlns="http://www.w3.org/2000/svg">
<path d="M21.9743 16.1271C21.9858 16.0854 21.9944 16.0429 22 16V8.00001C21.9976 7.88185 21.9741 7.76507 21.9305 7.65522C21.9196 7.62592 21.9082 7.59888 21.8948 7.57099C21.8506 7.47581 21.7916 7.38825 21.7199 7.31159C21.7135 7.30488 21.7096 7.29639 21.7029 7.2898C21.6383 7.22546 21.5651 7.17033 21.4853 7.12598L12.4858 2.12598C12.3372 2.04336 12.17 2 12 2C11.83 2 11.6628 2.04336 11.5142 2.12598L2.51416 7.12598C2.43418 7.17055 2.36076 7.22597 2.29596 7.29066L2.28387 7.3061C2.20998 7.38447 2.14937 7.47438 2.10443 7.57227C2.09143 7.59943 2.08043 7.62574 2.06982 7.65418C2.02601 7.76434 2.00236 7.88148 2 8.00001V16C2.00564 16.0431 2.01424 16.0857 2.02576 16.1276C2.03219 16.1963 2.04587 16.2641 2.06659 16.3298C2.08965 16.3892 2.1186 16.4462 2.15301 16.4998C2.18275 16.5548 2.21779 16.6068 2.25763 16.6549C2.30546 16.7056 2.35861 16.751 2.41614 16.7903C2.44685 16.8204 2.47959 16.8484 2.51414 16.874L11.5141 21.874C11.5347 21.8855 11.5574 21.8899 11.5784 21.8997C11.6039 21.9117 11.6292 21.9207 11.6559 21.9306C11.7648 21.9764 11.8818 22 12 22C12.1182 22 12.2352 21.9764 12.3441 21.9306C12.3707 21.9207 12.3961 21.9117 12.4216 21.8997C12.4426 21.8899 12.4653 21.8855 12.4858 21.874L21.4853 16.874C21.5192 16.8489 21.5513 16.8215 21.5815 16.792C21.6402 16.7522 21.6943 16.7061 21.7429 16.6545C21.8194 16.5544 21.8834 16.4454 21.9335 16.3299C21.9543 16.264 21.968 16.196 21.9743 16.1271ZM3.99997 9.69951L11 13.5884V19.3009L3.99997 15.4117V9.69951ZM13 13.5884L20 9.69933V15.412L13 19.301V13.5884ZM12 4.1436L18.9404 8.00001L16.6426 9.2768L9.74512 5.39643L12 4.1436ZM7.69284 6.53663L14.5901 10.4172L12 11.8564L5.05905 8.00001L7.69284 6.53663Z" fill="#545454"/>
</svg>
