<svg width="24" height="24" viewBox="0 0 24 24" fill="none" xmlns="http://www.w3.org/2000/svg">
<path d="M21.3 16.8L19.83 16.34C19.64 16.28 19.49 16.14 19.43 15.95L18.96 14.5C18.83 14.09 18.44 13.81 18.01 13.81C17.58 13.81 17.19 14.09 17.06 14.51L16.6 15.96C16.54 16.14 16.39 16.29 16.2 16.35L14.73 16.81C14.31 16.94 14.03 17.33 14.03 17.77C14.03 18.21 14.32 18.59 14.73 18.73L16.2 19.19C16.39 19.25 16.54 19.39 16.6 19.58L17.06 21.03C17.19 21.44 17.58 21.73 18.01 21.73C18.44 21.73 18.83 21.45 18.96 21.04L19.43 19.59C19.49 19.41 19.64 19.26 19.83 19.2L21.3 18.74C21.72 18.61 22 18.22 22 17.78C22 17.34 21.72 16.96 21.3 16.82V16.8ZM18.01 18.07C17.92 17.96 17.81 17.85 17.7 17.76C17.81 17.66 17.92 17.56 18.01 17.45C18.1 17.56 18.21 17.67 18.32 17.76C18.21 17.86 18.1 17.96 18.01 18.07ZM9.7 4.93997L10.17 5.08997L10.32 5.54997C10.45 5.95997 10.84 6.24997 11.27 6.24997C11.7 6.24997 12.09 5.96997 12.22 5.54997L12.37 5.08997L12.84 4.93997C13.26 4.80997 13.54 4.41997 13.54 3.98997C13.54 3.55997 13.26 3.16997 12.84 3.02997L12.37 2.87997L12.22 2.41997C12.09 2.00997 11.7 1.71997 11.27 1.71997C10.84 1.71997 10.45 1.99997 10.32 2.41997L10.17 2.87997L9.7 3.02997C9.28 3.15997 9 3.54997 9 3.98997C9 4.42997 9.28 4.80997 9.7 4.93997ZM22 6.33997C22 5.80997 21.79 5.30997 21.41 4.92997L19.82 3.36997C19.04 2.59997 17.78 2.59997 17 3.36997L3.42 16.77C3.04 17.15 2.83 17.65 2.83 18.18C2.83 18.71 3.04 19.21 3.42 19.59L5.01 21.16C5.4 21.54 5.91 21.73 6.42 21.73C6.93 21.73 7.44 21.54 7.83 21.16L21.41 7.74997C21.79 7.36997 22 6.86997 22 6.33997ZM6.41 19.72L4.82 18.18L13.42 9.71997L14.99 11.27L6.41 19.72ZM16.41 9.85997L14.84 8.30997L18.42 4.77997L19.99 6.32997L16.41 9.85997ZM4.57 9.71997L5.04 11.17C5.17 11.58 5.56 11.86 5.99 11.86C6.42 11.86 6.81 11.58 6.94 11.17L7.41 9.71997C7.47 9.53997 7.62 9.38997 7.81 9.32997L9.28 8.86997C9.7 8.73997 9.98 8.34997 9.98 7.91997C9.98 7.48997 9.7 7.09997 9.28 6.96997L7.81 6.50997C7.62 6.44997 7.47 6.30997 7.41 6.11997L6.94 4.66997C6.81 4.25997 6.42 3.97997 5.99 3.97997C5.56 3.97997 5.17 4.25997 5.04 4.66997L4.57 6.11997C4.51 6.29997 4.36 6.44997 4.17 6.50997L2.7 6.96997C2.28 7.09997 2 7.48997 2 7.91997C2 8.34997 2.28 8.73997 2.7 8.86997L4.17 9.32997C4.36 9.38997 4.51 9.52997 4.57 9.71997ZM5.99 7.60997C6.09 7.71997 6.19 7.82997 6.3 7.91997C6.19 8.01997 6.08 8.11997 5.99 8.22997C5.89 8.11997 5.79 8.00997 5.68 7.91997C5.79 7.81997 5.9 7.71997 5.99 7.60997Z" fill="#545454"/>
</svg>
