<svg width="24" height="24" viewBox="0 0 24 24" fill="none" xmlns="http://www.w3.org/2000/svg">
<path d="M17.6699 13.7001V10.2601C17.6699 6.81012 15.0599 4.00012 11.8499 4.00012C8.63985 4.00012 6.02985 6.81012 6.02985 10.2601V13.7101L5.26985 15.0101C4.90985 15.6401 4.90985 16.4201 5.26985 17.0501C5.60985 17.6501 6.21985 18.0001 6.88985 18.0001H16.7899C17.4499 18.0001 18.0599 17.6501 18.3999 17.0601C18.7599 16.4401 18.7699 15.6601 18.4199 15.0301L17.6799 13.7001H17.6699ZM7.00985 16.0001L7.75985 14.7101C7.93985 14.4001 8.02985 14.0501 8.02985 13.6901V10.2501C8.02985 7.90012 9.73985 5.99012 11.8499 5.99012C13.9599 5.99012 15.6699 7.90012 15.6699 10.2501V13.6901C15.6699 14.0401 15.7599 14.3901 15.9299 14.6901L16.6399 15.9901H7.00985V16.0001ZM14.0299 19.2601C13.5599 18.9701 12.9499 19.1101 12.6499 19.5801C12.3299 20.1001 11.3299 20.1001 11.0099 19.5801C10.7199 19.1101 10.0999 18.9701 9.62985 19.2601C9.15985 19.5501 9.01985 20.1701 9.30985 20.6401C9.82985 21.4801 10.7999 22.0001 11.8299 22.0001C12.8599 22.0001 13.8199 21.4801 14.3499 20.6401C14.6399 20.1701 14.4999 19.5601 14.0299 19.2601ZM21.4099 5.35012C20.5799 3.56012 18.9399 2.28012 17.1499 2.01012C16.5999 1.93012 16.0899 2.30012 16.0099 2.85012C15.9299 3.40012 16.2999 3.91012 16.8499 3.99012C17.9899 4.16012 19.0399 5.01012 19.5999 6.20012C20.1599 7.39012 20.1299 8.74012 19.5299 9.73012C19.2399 10.2001 19.3899 10.8201 19.8599 11.1001C20.0199 11.2001 20.1999 11.2501 20.3799 11.2501C20.7199 11.2501 21.0499 11.0801 21.2399 10.7701C22.1799 9.22012 22.2499 7.15012 21.4099 5.36012V5.35012ZM4.39985 6.19012C4.94985 5.00012 6.00985 4.15012 7.14985 3.98012C7.69985 3.90012 8.06985 3.39012 7.98985 2.84012C7.90985 2.29012 7.38985 1.92012 6.84985 2.00012C5.05985 2.27012 3.42985 3.56012 2.58985 5.34012C1.75985 7.13012 1.81985 9.20012 2.75985 10.7501C2.94985 11.0601 3.27985 11.2301 3.61985 11.2301C3.79985 11.2301 3.97985 11.1801 4.13985 11.0801C4.60985 10.7901 4.75985 10.1801 4.46985 9.71012C3.86985 8.72012 3.84985 7.37012 4.39985 6.18012V6.19012Z" fill="#545454"/>
</svg>
