<svg width="24" height="24" viewBox="0 0 24 24" fill="none" xmlns="http://www.w3.org/2000/svg">
<path d="M12.0002 11.9976C12.8903 11.9976 13.7603 11.7336 14.5003 11.2392C15.2403 10.7447 15.8171 10.0419 16.1577 9.21964C16.4983 8.39737 16.5874 7.49257 16.4138 6.61965C16.2401 5.74674 15.8116 4.94492 15.1822 4.31558C14.5529 3.68624 13.7511 3.25766 12.8782 3.08403C12.0052 2.91039 11.1004 2.99951 10.2782 3.3401C9.4559 3.6807 8.7531 4.25747 8.25863 4.99749C7.76416 5.73752 7.50024 6.60754 7.50024 7.49756C7.50154 8.69064 7.97607 9.83447 8.8197 10.6781C9.66333 11.5217 10.8072 11.9963 12.0002 11.9976ZM12.0002 4.99756C12.4947 4.99756 12.978 5.14418 13.3892 5.41889C13.8003 5.69359 14.1207 6.08404 14.3099 6.54085C14.4992 6.99767 14.5487 7.50033 14.4522 7.98529C14.3557 8.47024 14.1176 8.9157 13.768 9.26533C13.4184 9.61496 12.9729 9.85306 12.488 9.94952C12.003 10.046 11.5004 9.99648 11.0435 9.80726C10.5867 9.61804 10.1963 9.29761 9.92157 8.88649C9.64687 8.47536 9.50024 7.99201 9.50024 7.49756C9.50086 6.83471 9.76445 6.19918 10.2332 5.73047C10.7019 5.26176 11.3374 4.99817 12.0002 4.99756ZM13.6672 13.9976H10.3332C8.9635 13.9993 7.65037 14.5443 6.68191 15.5129C5.71344 16.4816 5.16873 17.7948 5.16724 19.1646V19.9976C5.16724 20.2628 5.2726 20.5171 5.46014 20.7047C5.64767 20.8922 5.90203 20.9976 6.16724 20.9976C6.43246 20.9976 6.68681 20.8922 6.87435 20.7047C7.06189 20.5171 7.16724 20.2628 7.16724 19.9976V19.1646C7.16804 18.325 7.50182 17.5201 8.09536 16.9264C8.6889 16.3327 9.49372 15.9986 10.3332 15.9976H13.6672C14.5068 15.9986 15.3116 16.3327 15.9051 16.9264C16.4987 17.5201 16.8325 18.325 16.8332 19.1646V19.9976C16.8332 20.2628 16.9386 20.5171 17.1261 20.7047C17.3137 20.8922 17.568 20.9976 17.8332 20.9976C18.0985 20.9976 18.3528 20.8922 18.5404 20.7047C18.7279 20.5171 18.8332 20.2628 18.8332 19.9976V19.1646C18.8318 17.7948 18.287 16.4816 17.3186 15.5129C16.3501 14.5443 15.037 13.9993 13.6672 13.9976H13.6672ZM17.4495 12.9976C18.2155 12.9982 18.9611 12.7509 19.575 12.2927C20.1888 11.8344 20.6378 11.1898 20.8548 10.4552C21.0719 9.72055 21.0454 8.93541 20.7792 8.21712C20.513 7.49884 20.0215 6.886 19.3782 6.47022C19.1557 6.32627 18.8852 6.27654 18.626 6.33194C18.3669 6.38734 18.1404 6.54335 17.9962 6.76569C17.852 6.98803 17.802 7.2585 17.8572 7.51769C17.9123 7.77688 18.0681 8.00357 18.2903 8.14796C18.5716 8.32908 18.7867 8.59649 18.9033 8.91012C19.0199 9.22375 19.0318 9.56673 18.9371 9.88765C18.8424 10.2086 18.6462 10.4902 18.3781 10.6903C18.1099 10.8904 17.7841 10.9982 17.4495 10.9976C17.1843 10.9976 16.9299 11.1029 16.7424 11.2905C16.5548 11.478 16.4495 11.7323 16.4495 11.9976C16.4495 12.2628 16.5548 12.5171 16.7424 12.7047C16.9299 12.8922 17.1843 12.9976 17.4495 12.9976ZM20.4758 14.3423C20.2658 14.1802 19.9999 14.1081 19.7368 14.142C19.4736 14.1759 19.2346 14.3129 19.0725 14.523C18.9104 14.733 18.8383 14.9989 18.8722 15.262C18.9061 15.5252 19.0431 15.7642 19.2532 15.9263C19.4842 16.1007 19.6719 16.3261 19.8014 16.5849C19.931 16.8437 19.9991 17.129 20.0003 17.4185V17.9976C20.0003 18.2628 20.1056 18.5171 20.2931 18.7047C20.4807 18.8922 20.735 18.9976 21.0003 18.9976C21.2655 18.9976 21.5198 18.8922 21.7074 18.7047C21.8949 18.5171 22.0003 18.2628 22.0003 17.9976V17.4185C22.0001 16.823 21.8625 16.2356 21.598 15.702C21.3336 15.1684 20.9496 14.7031 20.4758 14.3423H20.4758ZM6.55102 12.9976C6.81624 12.9976 7.07059 12.8922 7.25813 12.7047C7.44567 12.5171 7.55102 12.2628 7.55102 11.9976C7.55102 11.7323 7.44567 11.478 7.25813 11.2905C7.07059 11.1029 6.81624 10.9976 6.55102 10.9976C6.21634 10.9984 5.89039 10.8907 5.62205 10.6907C5.3537 10.4907 5.15741 10.2091 5.06259 9.88812C4.96777 9.56714 4.97953 9.22408 5.09611 8.91035C5.2127 8.59662 5.42782 8.32913 5.70923 8.14796C5.93172 8.0037 6.08778 7.77696 6.14309 7.51763C6.19839 7.2583 6.14842 6.98762 6.00415 6.76514C5.85989 6.54266 5.63315 6.3866 5.37382 6.33129C5.1145 6.27598 4.84382 6.32596 4.62133 6.47022C3.97791 6.88605 3.48638 7.49898 3.22024 8.21736C2.9541 8.93574 2.92764 9.72097 3.14483 10.4556C3.36202 11.1903 3.81119 11.8349 4.42516 12.2931C5.03914 12.7513 5.78493 12.9984 6.55102 12.9976ZM3.52563 14.3423C3.05136 14.7027 2.66688 15.1679 2.40226 15.7015C2.13764 16.2352 2.00005 16.8228 2.00024 17.4185V17.9976C2.00024 18.2628 2.1056 18.5171 2.29314 18.7047C2.48067 18.8922 2.73503 18.9976 3.00024 18.9976C3.26546 18.9976 3.51981 18.8922 3.70735 18.7047C3.89489 18.5171 4.00024 18.2628 4.00024 17.9976V17.4185C4.00125 17.1291 4.06911 16.8438 4.19853 16.585C4.32794 16.3261 4.51542 16.1007 4.74633 15.9263C4.95639 15.7644 5.09353 15.5257 5.1276 15.2627C5.16166 14.9997 5.08986 14.734 4.92798 14.5239C4.76611 14.3139 4.52742 14.1767 4.26443 14.1427C4.00144 14.1086 3.73569 14.1804 3.52563 14.3423V14.3423Z" fill="#545454"/>
</svg>
