<svg width="24" height="24" viewBox="0 0 24 24" fill="none" xmlns="http://www.w3.org/2000/svg">
<path d="M10 14H14C14.5527 14 15 13.5527 15 13C15 12.4478 14.5527 12 14 12H10C9.44775 12 9 12.4478 9 13C9 13.5527 9.44775 14 10 14Z" fill="#545454"/>
<path fill-rule="evenodd" clip-rule="evenodd" d="M21 10H20.875V17C20.875 19.7568 18.6318 22 15.875 22H8.125C5.36816 22 3.125 19.7568 3.125 17V10H3C2.44775 10 2 9.55225 2 9V4C2 3.44775 2.44775 3 3 3H21C21.5527 3 22 3.44775 22 4V9C22 9.55225 21.5527 10 21 10ZM5.125 10H18.875V17C18.875 18.6543 17.5293 20 15.875 20H8.125C6.4707 20 5.125 18.6543 5.125 17V10ZM20 8H4V5H20V8Z" fill="#545454"/>
</svg>
