<svg width="24" height="24" viewBox="0 0 24 24" fill="none" xmlns="http://www.w3.org/2000/svg">
<path d="M9.21631 11.1109C10.1173 11.1109 10.9981 10.8437 11.7473 10.3431C12.4965 9.84251 13.0804 9.13101 13.4252 8.29857C13.77 7.46613 13.8602 6.55014 13.6845 5.66642C13.5087 4.78271 13.0748 3.97097 12.4377 3.33384C11.8006 2.69672 10.9888 2.26283 10.1051 2.08705C9.22138 1.91127 8.30539 2.00148 7.47295 2.34629C6.6405 2.6911 5.92901 3.27501 5.42842 4.02419C4.92784 4.77336 4.66065 5.65416 4.66065 6.55518C4.66211 7.76297 5.14255 8.92087 5.99659 9.77491C6.85062 10.6289 8.00852 11.1094 9.21631 11.1109ZM9.21631 3.99952C9.72178 3.99952 10.2159 4.14941 10.6362 4.43023C11.0564 4.71105 11.384 5.11019 11.5775 5.57718C11.7709 6.04416 11.8215 6.55803 11.7229 7.05378C11.6243 7.54953 11.3809 8.00491 11.0235 8.36233C10.666 8.71974 10.2107 8.96315 9.71491 9.06176C9.21915 9.16037 8.70529 9.10976 8.23831 8.91632C7.77132 8.72289 7.37218 8.39532 7.09136 7.97504C6.81054 7.55476 6.66065 7.06065 6.66065 6.55518C6.66142 5.87762 6.93093 5.22802 7.41004 4.74891C7.88915 4.2698 8.53875 4.00029 9.21631 3.99952ZM12.5483 15.0132C12.6654 15.0729 12.7932 15.109 12.9242 15.1194C13.0553 15.1297 13.1871 15.1141 13.3121 15.0734C13.4372 15.0328 13.553 14.9679 13.6529 14.8824C13.7528 14.797 13.8349 14.6927 13.8945 14.5755C13.954 14.4583 13.9899 14.3305 14 14.1994C14.0102 14.0683 13.9943 13.9365 13.9535 13.8115C13.9126 13.6866 13.8475 13.5709 13.7619 13.4711C13.6763 13.3713 13.5719 13.2894 13.4546 13.23C12.7238 12.8601 11.9163 12.6671 11.0972 12.6665H7.23193C5.84311 12.668 4.51159 13.2204 3.52954 14.2024C2.54749 15.1845 1.99513 16.516 1.99365 17.9048V18.9995C1.99365 19.2648 2.09901 19.5191 2.28655 19.7066C2.47408 19.8942 2.72844 19.9995 2.99365 19.9995C3.25887 19.9995 3.51322 19.8942 3.70076 19.7066C3.8883 19.5191 3.99365 19.2648 3.99365 18.9995V17.9048C3.99477 17.0463 4.33631 16.2233 4.94336 15.6162C5.55041 15.0092 6.37343 14.6676 7.23193 14.6665H11.0972C11.6016 14.665 12.0991 14.7839 12.5483 15.0132H12.5483ZM21.6626 14.2739C21.4668 14.0952 21.2082 14.0013 20.9433 14.0128C20.6785 14.0244 20.429 14.1404 20.2495 14.3355L15.4643 19.5562L12.7085 16.8003C12.521 16.6128 12.2667 16.5074 12.0015 16.5074C11.7363 16.5074 11.482 16.6128 11.2944 16.8003C11.1069 16.9878 11.0016 17.2421 11.0016 17.5073C11.0016 17.7725 11.1069 18.0268 11.2944 18.2144L14.7886 21.7085C14.9761 21.896 15.2304 22.0013 15.4956 22.0015H15.5171C15.6521 21.9985 15.7851 21.9683 15.9081 21.9126C16.0312 21.8568 16.1416 21.7768 16.2329 21.6773L21.7241 15.687C21.9033 15.4914 21.9975 15.2327 21.9859 14.9677C21.9744 14.7027 21.8581 14.4532 21.6626 14.2739H21.6626Z" fill="#545454"/>
</svg>
