<svg width="24" height="24" viewBox="0 0 24 24" fill="none" xmlns="http://www.w3.org/2000/svg">
<path d="M6.00049 20.984C5.20934 20.9844 4.43586 20.7501 3.77793 20.3107C3.12 19.8713 2.6072 19.2467 2.30442 18.5157C2.00164 17.7848 1.92249 16.9805 2.07699 16.2046C2.23149 15.4287 2.6127 14.716 3.17236 14.1568L12.7183 4.61094C13.7497 3.57947 15.1487 3 16.6074 3C18.0661 3 19.4651 3.57947 20.4966 4.61094C21.5281 5.64241 22.1075 7.04139 22.1075 8.5001C22.1075 9.95882 21.5281 11.3578 20.4966 12.3893L15.1929 17.693C15.0054 17.8805 14.751 17.9859 14.4858 17.9859C14.2206 17.9859 13.9663 17.8805 13.7788 17.693C13.5913 17.5055 13.4859 17.2511 13.4859 16.986C13.4859 16.7208 13.5913 16.4664 13.7788 16.2789L19.0825 10.9752C19.739 10.3188 20.1077 9.42846 20.1077 8.50011C20.1078 7.57177 19.739 6.68145 19.0825 6.02501C18.4261 5.36857 17.5358 4.99978 16.6074 4.99978C15.6791 4.99978 14.7888 5.36856 14.1323 6.02499L4.58643 15.5709C4.21178 15.9462 4.00144 16.4548 4.00166 16.9851C4.00188 17.5154 4.21262 18.0239 4.58759 18.3988C4.96255 18.7738 5.47104 18.9845 6.00132 18.9848C6.53159 18.985 7.04026 18.7746 7.41553 18.4L15.5464 10.2682C15.6375 10.1739 15.6879 10.0476 15.6867 9.91645C15.6856 9.78535 15.633 9.65995 15.5403 9.56724C15.4476 9.47454 15.3222 9.42195 15.1911 9.42082C15.06 9.41968 14.9337 9.47007 14.8394 9.56115L10.9507 13.4498C10.8579 13.5426 10.7476 13.6163 10.6263 13.6665C10.505 13.7168 10.375 13.7426 10.2437 13.7426C10.1124 13.7427 9.98235 13.7168 9.86104 13.6665C9.73972 13.6163 9.62949 13.5426 9.53664 13.4498C9.44379 13.3569 9.37014 13.2467 9.31989 13.1254C9.26963 13.0041 9.24377 12.8741 9.24377 12.7428C9.24376 12.4776 9.34911 12.2232 9.53662 12.0357L13.4253 8.14704C13.902 7.693 14.5352 7.43983 15.1936 7.44002C15.8519 7.44021 16.485 7.69373 16.9614 8.14804C17.4295 8.61732 17.6923 9.2532 17.6919 9.91604C17.6915 10.5789 17.4281 11.2145 16.9594 11.6832L8.82959 19.814C8.4584 20.1858 8.01736 20.4806 7.53184 20.6814C7.04632 20.8822 6.52589 20.985 6.00049 20.984Z" fill="#545454"/>
</svg>
