<svg width="24" height="24" viewBox="0 0 24 24" fill="none" xmlns="http://www.w3.org/2000/svg">
<path d="M21.7065 8.293L15.7065 2.293C15.6137 2.2001 15.5035 2.12641 15.3822 2.07614C15.2609 2.02586 15.1308 1.99999 14.9995 2H6.99951C5.67391 2.00156 4.40304 2.52884 3.4657 3.46618C2.52835 4.40353 2.00107 5.6744 1.99951 7V17C2.00107 18.3256 2.52835 19.5965 3.4657 20.5338C4.40304 21.4712 5.67391 21.9984 6.99951 22H16.9995C18.3251 21.9984 19.596 21.4712 20.5333 20.5338C21.4707 19.5965 21.998 18.3256 21.9995 17V9C21.9995 8.86868 21.9737 8.73865 21.9234 8.61734C21.8731 8.49603 21.7994 8.38581 21.7065 8.293ZM14.9995 4.41409L19.5855 9.00003H17.9995C17.2041 8.99916 16.4415 8.68281 15.8791 8.12039C15.3167 7.55797 15.0003 6.79541 14.9995 6.00003L14.9995 4.41409ZM19.9995 17C19.9986 17.7954 19.6823 18.558 19.1199 19.1204C18.5575 19.6828 17.7949 19.9992 16.9995 20H6.99951C6.20413 19.9992 5.44157 19.6828 4.87915 19.1204C4.31673 18.558 4.00038 17.7954 3.99951 17V7.00003C4.00038 6.20465 4.31673 5.44209 4.87915 4.87967C5.44157 4.31725 6.20413 4.0009 6.99951 4.00003H12.9995V6.00003C13.0011 7.32564 13.5284 8.5965 14.4657 9.53385C15.403 10.4712 16.6739 10.9985 17.9995 11H19.9995V17ZM11.5239 9.14749C11.3791 9.05747 11.2136 9.00615 11.0433 8.99846C10.873 8.99076 10.7036 9.02695 10.5512 9.10355L6.55124 11.1035C6.38516 11.1867 6.24548 11.3143 6.14786 11.4723C6.05024 11.6303 5.99852 11.8124 5.9985 11.9981V14.9981C5.99852 15.1838 6.05024 15.3658 6.14786 15.5238C6.24549 15.6818 6.38516 15.8095 6.55124 15.8926L10.5512 17.8926C10.7037 17.9687 10.8731 18.0047 11.0434 17.9969C11.2136 17.9892 11.3791 17.9382 11.5241 17.8485C11.6691 17.7589 11.7887 17.6338 11.8718 17.4849C11.9548 17.3361 11.9984 17.1685 11.9985 16.9981V9.99808C11.9984 9.82761 11.9548 9.65999 11.8717 9.51112C11.7886 9.36225 11.6689 9.23708 11.5239 9.14749ZM9.9985 15.3799L7.9985 14.3799V12.6162L9.9985 11.6162V15.3799ZM13.9985 10.998C13.8672 10.998 13.7371 11.0238 13.6157 11.074C13.4944 11.1242 13.3841 11.1979 13.2912 11.2908C13.1984 11.3836 13.1247 11.4939 13.0745 11.6153C13.0242 11.7366 12.9984 11.8667 12.9985 11.998V14.998C12.9985 15.2633 13.1039 15.5176 13.2914 15.7052C13.4789 15.8927 13.7333 15.998 13.9985 15.998C14.2637 15.998 14.5181 15.8927 14.7056 15.7052C14.8931 15.5176 14.9985 15.2633 14.9985 14.998V11.998C14.9986 11.8667 14.9728 11.7366 14.9225 11.6153C14.8723 11.4939 14.7986 11.3837 14.7058 11.2908C14.6129 11.1979 14.5026 11.1243 14.3813 11.074C14.2599 11.0238 14.1298 10.998 13.9985 10.9981V10.998ZM16.9985 11.998C16.8672 11.998 16.7371 12.0238 16.6157 12.074C16.4944 12.1242 16.3841 12.1979 16.2912 12.2908C16.1984 12.3836 16.1247 12.4939 16.0745 12.6153C16.0242 12.7366 15.9984 12.8667 15.9985 12.998V13.998C15.9985 14.2633 16.1039 14.5176 16.2914 14.7052C16.4789 14.8927 16.7333 14.998 16.9985 14.998C17.2637 14.998 17.5181 14.8927 17.7056 14.7052C17.8931 14.5176 17.9985 14.2633 17.9985 13.998V12.998C17.9986 12.8667 17.9728 12.7366 17.9225 12.6153C17.8723 12.4939 17.7986 12.3837 17.7058 12.2908C17.6129 12.1979 17.5026 12.1243 17.3813 12.074C17.2599 12.0238 17.1298 11.998 16.9985 11.9981V11.998Z" fill="#545454"/>
</svg>
