<svg width="24" height="24" viewBox="0 0 24 24" fill="none" xmlns="http://www.w3.org/2000/svg">
<path d="M8.16675 19.8543H16.8751" stroke="#545454" stroke-width="2" stroke-linecap="round" stroke-linejoin="round"/>
<path d="M4 2.66675L20.6667 19.3334" stroke="#545454" stroke-width="2" stroke-linecap="round" stroke-linejoin="round"/>
<path d="M18.075 12.0252C18.1351 11.6868 18.1658 11.3438 18.1666 11.0002V9.3335" stroke="#545454" stroke-width="2" stroke-linecap="round" stroke-linejoin="round"/>
<path d="M6.49988 9.3335V11.0002C6.48293 12.1661 6.81582 13.3104 7.45558 14.2854C8.09534 15.2603 9.01262 16.0211 10.089 16.4696C11.1654 16.9181 12.3515 17.0337 13.4943 16.8015C14.637 16.5693 15.6839 15.9999 16.4999 15.1668" stroke="#545454" stroke-width="2" stroke-linecap="round" stroke-linejoin="round"/>
<path d="M14.8334 8.78325V5.16658C14.83 4.60522 14.6378 4.06134 14.2877 3.62251C13.9376 3.18369 13.45 2.87547 12.9034 2.74748C12.3569 2.6195 11.7831 2.6792 11.2746 2.91697C10.7661 3.15474 10.3524 3.55675 10.1001 4.05825" stroke="#545454" stroke-width="2" stroke-linecap="round" stroke-linejoin="round"/>
<path d="M9.8335 8.5V11C9.83393 11.4941 9.98079 11.9771 10.2555 12.3878C10.5303 12.7985 10.9205 13.1186 11.3771 13.3076C11.8336 13.4967 12.336 13.5462 12.8206 13.4499C13.3053 13.3536 13.7505 13.1159 14.1002 12.7667" stroke="#545454" stroke-width="2" stroke-linecap="round" stroke-linejoin="round"/>
<path d="M12.3333 16.8333C12.3333 17.8096 12.3333 19.3333 12.3333 19.3333" stroke="#545454" stroke-width="2" stroke-linecap="round" stroke-linejoin="round"/>
</svg>
