<svg width="24" height="24" viewBox="0 0 24 24" fill="none" xmlns="http://www.w3.org/2000/svg">
<path d="M12 2C10.0222 2 8.08879 2.58649 6.4443 3.6853C4.79981 4.78412 3.51809 6.3459 2.76121 8.17317C2.00433 10.0004 1.8063 12.0111 2.19215 13.9509C2.578 15.8907 3.53041 17.6725 4.92894 19.0711C6.32746 20.4696 8.10929 21.422 10.0491 21.8079C11.9889 22.1937 13.9996 21.9957 15.8268 21.2388C17.6541 20.4819 19.2159 19.2002 20.3147 17.5557C21.4135 15.9112 22 13.9778 22 12C21.9969 9.34879 20.9423 6.80706 19.0676 4.93237C17.1929 3.05768 14.6512 2.00311 12 2ZM4 12C3.99753 10.5022 4.41627 9.03391 5.20842 7.76274C6.00056 6.49157 7.13419 5.46877 8.47987 4.8111C9.82555 4.15344 11.329 3.88742 12.8187 4.04343C14.3083 4.19943 15.7241 4.77117 16.9043 5.69336L5.69336 16.9043C4.59642 15.5049 4.00021 13.7781 4 12ZM12 20C10.2277 19.9997 8.50622 19.4072 7.10909 18.3167L18.3167 7.10907C19.2356 8.29005 19.8043 9.70544 19.9578 11.1939C20.1114 12.6824 19.8437 14.1841 19.1853 15.5278C18.5268 16.8715 17.5041 18.0032 16.2337 18.7939C14.9634 19.5846 13.4964 20.0025 12 20Z" fill="#545454"/>
</svg>
