<svg width="24" height="24" viewBox="0 0 24 24" fill="none" xmlns="http://www.w3.org/2000/svg">
<path d="M12.6479 12.9443L12.6516 12.9443C13.9473 12.9463 15 14.0002 15 15.2959C15 16.4828 14.1165 17.4677 12.9722 17.6262V18C12.9722 18.5527 12.5244 19 11.9722 19C11.4199 19 10.9722 18.5527 10.9722 18V17.6484H10.3501C9.79785 17.6484 9.3501 17.2012 9.3501 16.6484C9.3501 16.0957 9.79785 15.6484 10.3501 15.6484H12.6479C12.8389 15.6484 13 15.4873 13 15.2959C13 15.1055 12.8389 14.9443 12.6479 14.9443L11.2932 14.9443C9.99775 14.9426 8.94434 13.8886 8.94434 12.5928C8.94434 11.4059 9.82814 10.4214 10.9722 10.263V9.88867C10.9722 9.33642 11.4199 8.88867 11.9722 8.88867C12.5244 8.88867 12.9722 9.33642 12.9722 9.88867V10.2407H13.5947C14.1475 10.2407 14.5947 10.6885 14.5947 11.2407C14.5947 11.793 14.1475 12.2407 13.5947 12.2407H11.2964C11.1055 12.2407 10.9443 12.4019 10.9443 12.5928C10.9443 12.7832 11.1055 12.9443 11.2964 12.9443H12.6479Z" fill="#545454"/>
<path fill-rule="evenodd" clip-rule="evenodd" d="M7 4V3C7 2.44775 7.44775 2 8 2H16C16.5527 2 17 2.44775 17 3V4H18.2227C19.7539 4 21 5.29297 21 6.88232V17.2353C21 19.8623 18.956 22 16.4443 22H7.55566C5.04346 22 3 19.8623 3 17.2353V6.88232C3 5.29297 4.24609 4 5.77783 4H7ZM8 8H16C16.5527 8 17 7.55225 17 7V6H18.2227C18.6436 6 19 6.4043 19 6.88232V17.2353C19 18.7598 17.8535 20 16.4443 20H7.55566C6.14648 20 5 18.7598 5 17.2353V6.88232C5 6.4043 5.35596 6 5.77783 6H7V7C7 7.55225 7.44775 8 8 8ZM15 4H9V6H15V4Z" fill="#545454"/>
</svg>
