<svg width="24" height="24" viewBox="0 0 24 24" fill="none" xmlns="http://www.w3.org/2000/svg">
<path d="M17.1083 10.8808C17.9199 10.2378 18.5107 9.35763 18.7986 8.363C19.0865 7.36836 19.0571 6.30872 18.7145 5.33157C18.372 4.35442 17.7333 3.5084 16.8873 2.91127C16.0414 2.31413 15.0303 1.99561 13.9949 2.00005H6.99487C6.19949 2.00091 5.43693 2.31726 4.87451 2.87968C4.31209 3.44211 3.99574 4.20466 3.99487 5.00005V19C3.99574 19.7954 4.31209 20.558 4.87451 21.1204C5.43693 21.6828 6.19949 21.9992 6.99487 22H13.9949C15.3039 22.0014 16.5773 21.5742 17.6207 20.7837C18.664 19.9933 19.4199 18.8829 19.7729 17.6224C20.1258 16.3619 20.0564 15.0205 19.5753 13.8032C19.0941 12.5858 18.2277 11.5594 17.1083 10.8808ZM5.99487 5.00005C5.99505 4.73488 6.10046 4.48063 6.28796 4.29313C6.47546 4.10564 6.72971 4.00022 6.99487 4.00005H13.9949C14.7905 4.00005 15.5536 4.31612 16.1162 4.87873C16.6788 5.44133 16.9949 6.2044 16.9949 7.00005C16.9949 7.7957 16.6788 8.55876 16.1162 9.12137C15.5536 9.68397 14.7905 10 13.9949 10H5.99487V5.00005ZM13.9949 20H6.99487C6.72971 19.9999 6.47546 19.8945 6.28796 19.707C6.10046 19.5195 5.99505 19.2652 5.99487 19V12H13.9949C15.0557 12 16.0732 12.4215 16.8233 13.1716C17.5734 13.9218 17.9949 14.9392 17.9949 16C17.9949 17.0609 17.5734 18.0783 16.8233 18.8285C16.0732 19.5786 15.0557 20 13.9949 20Z" fill="#545454"/>
</svg>
