<svg width="24" height="24" viewBox="0 0 24 24" fill="none" xmlns="http://www.w3.org/2000/svg">
<path d="M11.9998 2.00006C7.93982 2.00006 4.63982 5.30006 4.63982 9.36006C4.63982 11.5301 5.55982 13.5301 7.17982 14.9301V17.0001C7.17982 17.4901 7.53982 17.8801 7.99982 17.9601V21.0001C7.99982 21.5501 8.44982 22.0001 8.99982 22.0001H14.9998C15.5498 22.0001 15.9998 21.5501 15.9998 21.0001V17.9601C16.4598 17.8701 16.8198 17.4801 16.8198 17.0001V14.9301C18.4398 13.5301 19.3598 11.5301 19.3598 9.36006C19.3598 5.30006 16.0598 2.00006 11.9998 2.00006ZM13.9998 20.0001H9.99982V18.0001H13.9998V20.0001ZM15.2198 13.6601C14.9698 13.8501 14.8198 14.1501 14.8198 14.4601V16.0001H9.17982V14.4501C9.17982 14.1401 9.02982 13.8401 8.77982 13.6501C7.41982 12.6301 6.62983 11.0601 6.62983 9.36006C6.62983 6.40006 9.03983 4.00006 11.9898 4.00006C14.9398 4.00006 17.3498 6.41006 17.3498 9.36006C17.3498 11.0601 16.5698 12.6301 15.1998 13.6501L15.2198 13.6601ZM14.0098 7.37006L11.3498 10.2701L9.94983 8.87006C9.55983 8.48006 8.92983 8.48006 8.53983 8.87006C8.14983 9.26006 8.14983 9.89006 8.53983 10.2801L10.6798 12.4201C10.8698 12.6101 11.1198 12.7101 11.3898 12.7101H11.4098C11.6798 12.7101 11.9398 12.5901 12.1298 12.3901L15.4898 8.72006C15.8598 8.31006 15.8398 7.68006 15.4298 7.31006C15.0198 6.94006 14.3898 6.96006 14.0198 7.37006H14.0098Z" fill="#545454"/>
<path d="M3.70982 2.29006C3.31982 1.90006 2.68982 1.90006 2.29982 2.29006C1.90982 2.68006 1.90982 3.31006 2.29982 3.70006L3.29982 4.70006C3.49982 4.90006 3.74982 4.99006 4.00982 4.99006C4.26982 4.99006 4.51983 4.89006 4.71983 4.70006C5.10983 4.31006 5.10983 3.68006 4.71983 3.29006L3.71983 2.29006H3.70982ZM19.9998 5.00006C20.2598 5.00006 20.5098 4.90006 20.7098 4.71006L21.7098 3.71006C22.0998 3.32006 22.0998 2.69006 21.7098 2.30006C21.3198 1.91006 20.6898 1.91006 20.2998 2.30006L19.2998 3.30006C18.9098 3.69006 18.9098 4.32006 19.2998 4.71006C19.4998 4.91006 19.7498 5.00006 20.0098 5.00006H19.9998ZM20.7098 14.2901C20.3198 13.9001 19.6898 13.9001 19.2998 14.2901C18.9098 14.6801 18.9098 15.3101 19.2998 15.7001L20.2998 16.7001C20.4998 16.9001 20.7498 16.9901 21.0098 16.9901C21.2698 16.9901 21.5198 16.8901 21.7198 16.7001C22.1098 16.3101 22.1098 15.6801 21.7198 15.2901L20.7198 14.2901H20.7098ZM3.29982 14.2901L2.29982 15.2901C1.90982 15.6801 1.90982 16.3101 2.29982 16.7001C2.49982 16.9001 2.74982 16.9901 3.00982 16.9901C3.26982 16.9901 3.51983 16.8901 3.71983 16.7001L4.71983 15.7001C5.10983 15.3101 5.10983 14.6801 4.71983 14.2901C4.32983 13.9001 3.69983 13.9001 3.30983 14.2901H3.29982Z" fill="#545454"/>
</svg>
