<svg width="24" height="24" viewBox="0 0 24 24" fill="none" xmlns="http://www.w3.org/2000/svg">
<path d="M12.0001 5.00005C12.0013 4.60008 11.9224 4.20391 11.7683 3.83485C11.6141 3.46579 11.3877 3.13128 11.1023 2.851C10.817 2.57072 10.4785 2.35032 10.1067 2.20278C9.73497 2.05524 9.33745 1.98353 8.93757 1.99186C8.53769 2.0002 8.14351 2.08841 7.77821 2.25132C7.41292 2.41422 7.08389 2.64853 6.81048 2.94045C6.53706 3.23238 6.32478 3.57604 6.18613 3.9512C6.04747 4.32637 5.98523 4.72548 6.00307 5.12505C5.41528 5.27619 4.86958 5.5591 4.40731 5.95236C3.94503 6.34562 3.57831 6.83892 3.33492 7.3949C3.09152 7.95087 2.97783 8.55494 3.00246 9.16136C3.02709 9.76778 3.18939 10.3606 3.47707 10.8951C2.97125 11.306 2.5735 11.8343 2.31841 12.434C2.06333 13.0337 1.95863 13.6866 2.01344 14.336C2.06824 14.9854 2.28089 15.6116 2.63288 16.1601C2.98487 16.7085 3.46554 17.1627 4.03307 17.4831C3.96299 18.0253 4.00481 18.5761 4.15596 19.1016C4.30711 19.627 4.56437 20.1159 4.91186 20.538C5.25935 20.9601 5.68968 21.3065 6.17629 21.5558C6.6629 21.8051 7.19545 21.952 7.74105 21.9874C8.28665 22.0228 8.83372 21.946 9.34846 21.7617C9.86321 21.5774 10.3347 21.2895 10.7338 20.9158C11.133 20.5421 11.4512 20.0906 11.669 19.5891C11.8868 19.0876 11.9995 18.5468 12.0001 18V5.00005Z" stroke="#545454" stroke-width="2" stroke-linecap="round" stroke-linejoin="round"/>
<path d="M12 5.00005C11.9988 4.60008 12.0776 4.20391 12.2318 3.83485C12.386 3.46579 12.6124 3.13128 12.8977 2.851C13.1831 2.57072 13.5216 2.35032 13.8934 2.20278C14.2651 2.05524 14.6626 1.98353 15.0625 1.99186C15.4624 2.0002 15.8566 2.08841 16.2219 2.25132C16.5872 2.41422 16.9162 2.64853 17.1896 2.94045C17.463 3.23238 17.6753 3.57604 17.814 3.9512C17.9526 4.32637 18.0149 4.72548 17.997 5.12505C18.5848 5.27619 19.1305 5.5591 19.5928 5.95236C20.0551 6.34562 20.4218 6.83892 20.6652 7.3949C20.9086 7.95087 21.0223 8.55494 20.9976 9.16136C20.973 9.76778 20.8107 10.3606 20.523 10.8951C21.0288 11.306 21.4266 11.8343 21.6817 12.434C21.9368 13.0337 22.0415 13.6866 21.9867 14.336C21.9318 14.9854 21.7192 15.6116 21.3672 16.1601C21.0152 16.7085 20.5345 17.1627 19.967 17.4831C20.0371 18.0253 19.9953 18.5761 19.8441 19.1016C19.693 19.627 19.4357 20.1159 19.0882 20.538C18.7407 20.9601 18.3104 21.3065 17.8238 21.5558C17.3372 21.8051 16.8046 21.952 16.259 21.9874C15.7134 22.0228 15.1664 21.946 14.6516 21.7617C14.1369 21.5774 13.6654 21.2895 13.2663 20.9158C12.8671 20.5421 12.5488 20.0906 12.331 19.5891C12.1133 19.0876 12.0006 18.5468 12 18V5.00005Z" stroke="#545454" stroke-width="2" stroke-linecap="round" stroke-linejoin="round"/>
<path d="M15 13C14.1604 12.7047 13.4273 12.167 12.8933 11.455C12.3593 10.743 12.0485 9.88867 12 9C11.9515 9.88867 11.6407 10.743 11.1067 11.455C10.5727 12.167 9.83956 12.7047 9 13" stroke="#545454" stroke-width="2" stroke-linecap="round" stroke-linejoin="round"/>
<path d="M17.5991 6.5C17.8411 6.08059 17.978 5.60882 17.9981 5.125" stroke="#545454" stroke-width="2" stroke-linecap="round" stroke-linejoin="round"/>
<path d="M6.00293 5.125C6.0227 5.60873 6.15926 6.0805 6.40093 6.5" stroke="#545454" stroke-width="2" stroke-linecap="round" stroke-linejoin="round"/>
<path d="M3.47705 10.896C3.65999 10.747 3.85575 10.6145 4.06205 10.5" stroke="#545454" stroke-width="2" stroke-linecap="round" stroke-linejoin="round"/>
<path d="M19.938 10.5C20.1443 10.6145 20.34 10.747 20.523 10.896" stroke="#545454" stroke-width="2" stroke-linecap="round" stroke-linejoin="round"/>
<path d="M5.99996 17.9999C5.31079 18.0002 4.63323 17.8225 4.03296 17.4839" stroke="#545454" stroke-width="2" stroke-linecap="round" stroke-linejoin="round"/>
<path d="M19.967 17.4839C19.3667 17.8225 18.6892 18.0002 18 17.9999" stroke="#545454" stroke-width="2" stroke-linecap="round" stroke-linejoin="round"/>
</svg>
