<svg width="24" height="24" viewBox="0 0 24 24" fill="none" xmlns="http://www.w3.org/2000/svg">
<path d="M19 5H17V4C16.9993 3.46978 16.7884 2.96147 16.4135 2.58655C16.0385 2.21163 15.5302 2.00069 15 2H9C8.46978 2.00069 7.96147 2.21162 7.58655 2.58655C7.21162 2.96147 7.00069 3.46978 7 4V5H5C4.20462 5.00087 3.44206 5.31722 2.87964 5.87964C2.31722 6.44206 2.00087 7.20462 2 8V17C2.00156 18.3256 2.52884 19.5965 3.46619 20.5338C4.40353 21.4712 5.6744 21.9984 7 22H17C18.3256 21.9984 19.5965 21.4712 20.5338 20.5338C21.4712 19.5965 21.9984 18.3256 22 17V8C21.9991 7.20462 21.6828 6.44206 21.1204 5.87964C20.5579 5.31722 19.7954 5.00087 19 5ZM9 4H15L15.002 5H9V4ZM5 7H19C19.2652 7.00018 19.5194 7.1056 19.7069 7.29309C19.8944 7.48059 19.9998 7.73484 20 8V11H4V8C4.00018 7.73484 4.10559 7.48059 4.29309 7.29309C4.48059 7.10559 4.73484 7.00018 5 7ZM14.002 15H10V13H14.001L14.002 15ZM17 20H7C6.20462 19.9991 5.44206 19.6828 4.87964 19.1204C4.31722 18.5579 4.00087 17.7954 4 17V13H8V15C8.00069 15.5302 8.21163 16.0385 8.58655 16.4135C8.96147 16.7884 9.46978 16.9993 10 17H14C14.5302 16.9993 15.0385 16.7884 15.4134 16.4134C15.7884 16.0385 15.9993 15.5302 16 15V13H20V17C19.9991 17.7954 19.6828 18.5579 19.1204 19.1204C18.5579 19.6828 17.7954 19.9991 17 20Z" fill="#545454"/>
</svg>
