<svg width="24" height="24" viewBox="0 0 24 24" fill="none" xmlns="http://www.w3.org/2000/svg">
<path d="M21.9947 11.999C21.9907 9.39055 20.9682 6.88675 19.1452 5.02111C17.3221 3.15546 14.8426 2.07546 12.2349 2.01122C12.2055 2.01189 12.1767 2.00353 12.1474 2.00677C12.0961 2.00597 12.0462 1.99902 11.9947 1.99902C11.9432 1.99902 11.8933 2.00602 11.842 2.00677C11.8127 2.00353 11.7839 2.01189 11.7544 2.01122C9.15686 2.07058 6.68462 3.13974 4.86233 4.99183C3.04003 6.84391 2.0111 9.33316 1.99387 11.9314C1.97664 14.5296 2.97246 17.0323 4.77003 18.9083C6.56759 20.7844 9.02543 21.8863 11.622 21.9801C11.6586 21.9885 11.6957 21.9948 11.733 21.999C11.7498 21.999 11.7653 21.9891 11.7821 21.9882C11.8535 21.9897 11.9229 21.999 11.9947 21.999C12.0665 21.999 12.1359 21.9897 12.2074 21.9882C12.2241 21.9891 12.2396 21.999 12.2564 21.999C12.2938 21.9948 12.3308 21.9885 12.3674 21.9801C14.9508 21.8826 17.3961 20.7889 19.1909 18.9281C20.9856 17.0674 21.9904 14.5842 21.9947 11.999ZM12.0269 12.999C11.3612 13.0016 10.696 13.0378 10.034 13.1075C10.0154 12.7446 9.99468 12.3838 9.99468 11.999C9.99468 11.6143 10.0154 11.2535 10.034 10.8906C10.696 10.9602 11.3612 10.9964 12.0269 10.999C12.6861 10.999 13.3277 10.9579 13.9556 10.8967C13.974 11.2577 13.9947 11.6164 13.9947 11.999C13.9947 12.3817 13.974 12.7403 13.9556 13.1014C13.3277 13.0402 12.6861 12.999 12.0269 12.999ZM13.7628 15.0886C13.5846 16.796 12.9763 18.4303 11.9947 19.8386C11.0141 18.432 10.4062 16.7996 10.2277 15.0942C10.8109 15.0359 11.4111 14.999 12.0269 14.999C12.6205 14.999 13.199 15.0344 13.7628 15.0886ZM3.99468 11.999C3.9966 11.0484 4.16912 10.1059 4.50402 9.2163C5.59522 9.87397 6.79336 10.335 8.04393 10.5785C8.01525 11.045 7.99468 11.517 7.99468 11.999C7.99468 12.4811 8.01525 12.953 8.04393 13.4195C6.79336 13.663 5.59522 14.1241 4.50402 14.7817C4.16912 13.8921 3.9966 12.9496 3.99468 11.999ZM10.2277 8.9038C10.4062 7.1984 11.0141 5.56609 11.9947 4.15942C12.9763 5.56772 13.5847 7.20203 13.7628 8.90942C13.199 8.96368 12.6205 8.99902 12.0269 8.99902C11.4112 8.99902 10.8109 8.96209 10.2277 8.9038H10.2277ZM15.9459 10.5936C17.1985 10.3545 18.4004 9.90088 19.4987 9.25274C20.16 11.0239 20.16 12.9742 19.4987 14.7453C18.4004 14.0972 17.1985 13.6435 15.9459 13.4044C15.974 12.9427 15.9946 12.4759 15.9946 11.999C15.9946 11.5221 15.974 11.0553 15.946 10.5936H15.9459ZM18.571 7.45513C17.705 8.01208 16.7412 8.39971 15.7307 8.59747C15.5239 7.14327 15.1015 5.72801 14.4774 4.39837C16.1383 4.9445 17.5756 6.01775 18.571 7.45513H18.571ZM9.51195 4.39837C8.88984 5.72384 8.4683 7.13445 8.26116 8.58392C7.25513 8.38311 6.29746 7.98953 5.44097 7.42487C6.43527 6.00264 7.86357 4.94079 9.51195 4.39837ZM5.44095 16.5732C6.29744 16.0085 7.25511 15.6149 8.26114 15.4141C8.46829 16.8636 8.88984 18.2742 9.51195 19.5997C7.86355 19.0573 6.43524 17.9954 5.44097 16.5732H5.44095ZM14.4774 19.5997C15.1015 18.27 15.5239 16.8547 15.7307 15.4005C16.7412 15.5983 17.705 15.9859 18.571 16.5429C17.5757 17.9803 16.1383 19.0536 14.4774 19.5997H14.4774Z" fill="#545454"/>
</svg>
