<svg width="24" height="24" viewBox="0 0 24 24" fill="none" xmlns="http://www.w3.org/2000/svg">
<path d="M12.9897 6.99451H6.98987C6.43762 6.99451 5.98987 6.54675 5.98987 5.99451C5.98987 5.4422 6.43762 4.99445 6.98987 4.99445H12.9897C13.5419 4.99445 13.9902 5.4422 13.9902 5.99451C13.9902 6.54676 13.5419 6.99451 12.9897 6.99451Z" fill="#545454"/>
<path fill-rule="evenodd" clip-rule="evenodd" d="M6.98987 1.99438H16.9901C19.7469 1.99438 21.99 4.23761 21.99 6.99451V16.9943C21.99 19.7512 19.7469 21.9944 16.9901 21.9944H6.98987C4.23309 21.9944 1.98999 19.7512 1.98999 16.9943V6.9945C1.98999 4.23761 4.2331 1.99438 6.98987 1.99438ZM16.9901 3.99445H6.98987C5.33563 3.99445 3.98993 5.34015 3.98993 6.99451V7.99451H19.99V6.99451C19.99 5.34015 18.6444 3.99445 16.9901 3.99445ZM16.9901 19.9943C18.6444 19.9943 19.99 18.6486 19.99 16.9943V9.99457H3.98993V16.9943C3.98993 18.6486 5.33563 19.9943 6.98987 19.9943H16.9901Z" fill="#545454"/>
</svg>
