<svg width="24" height="24" viewBox="0 0 24 24" fill="none" xmlns="http://www.w3.org/2000/svg">
<path d="M12.0001 2C7.9001 2 4.6001 5.3 4.6001 9.4C4.6001 11.6 5.5001 13.6 7.1001 15V17C7.1001 17.5 7.5001 17.9 7.9001 18V21C7.9001 21.6 8.3001 22 8.9001 22H14.9001C15.5001 22 15.9001 21.6 15.9001 21V18C16.4001 17.9 16.7001 17.5 16.7001 17V14.9C18.3001 13.5 19.2001 11.5 19.2001 9.3C19.4001 5.3 16.1001 2 12.0001 2ZM14.0001 20H10.0001V18H14.0001V20ZM15.2001 13.7C14.9001 13.9 14.8001 14.2 14.8001 14.5V16H9.2001V14.5C9.2001 14.2 9.1001 13.9 8.8001 13.7C7.4001 12.7 6.7001 11.1 6.7001 9.4C6.6001 6.4 9.0001 4 12.0001 4C15.0001 4 17.4001 6.4 17.4001 9.4C17.4001 11.1 16.6001 12.6 15.2001 13.7Z" fill="#545454"/>
</svg>
