<svg width="24" height="24" viewBox="0 0 24 24" fill="none" xmlns="http://www.w3.org/2000/svg">
<path d="M4 4C3.60444 4 3.21776 4.1173 2.88886 4.33706C2.55996 4.55682 2.30362 4.86918 2.15224 5.23463C2.00087 5.60009 1.96126 6.00222 2.03843 6.39018C2.1156 6.77814 2.30608 7.13451 2.58579 7.41421C2.86549 7.69392 3.22186 7.8844 3.60982 7.96157C3.99778 8.03874 4.39992 7.99913 4.76537 7.84776C5.13082 7.69638 5.44318 7.44004 5.66294 7.11114C5.8827 6.78224 6 6.39556 6 6C6 5.46957 5.78929 4.96086 5.41421 4.58579C5.03914 4.21071 4.53043 4 4 4ZM4 10C3.60444 10 3.21776 10.1173 2.88886 10.3371C2.55996 10.5568 2.30362 10.8692 2.15224 11.2346C2.00087 11.6001 1.96126 12.0022 2.03843 12.3902C2.1156 12.7781 2.30608 13.1345 2.58579 13.4142C2.86549 13.6939 3.22186 13.8844 3.60982 13.9616C3.99778 14.0387 4.39992 13.9991 4.76537 13.8478C5.13082 13.6964 5.44318 13.44 5.66294 13.1111C5.8827 12.7822 6 12.3956 6 12C6 11.4696 5.78929 10.9609 5.41421 10.5858C5.03914 10.2107 4.53043 10 4 10ZM4 16C3.60444 16 3.21776 16.1173 2.88886 16.3371C2.55996 16.5568 2.30362 16.8692 2.15224 17.2346C2.00087 17.6001 1.96126 18.0022 2.03843 18.3902C2.1156 18.7781 2.30608 19.1345 2.58579 19.4142C2.86549 19.6939 3.22186 19.8844 3.60982 19.9616C3.99778 20.0387 4.39992 19.9991 4.76537 19.8478C5.13082 19.6964 5.44318 19.44 5.66294 19.1111C5.8827 18.7822 6 18.3956 6 18C6 17.4696 5.78929 16.9609 5.41421 16.5858C5.03914 16.2107 4.53043 16 4 16ZM9 7H21C21.2652 7 21.5196 6.89464 21.7071 6.70711C21.8946 6.51957 22 6.26522 22 6C22 5.73478 21.8946 5.48043 21.7071 5.29289C21.5196 5.10536 21.2652 5 21 5H9C8.73478 5 8.48043 5.10536 8.29289 5.29289C8.10536 5.48043 8 5.73478 8 6C8 6.26522 8.10536 6.51957 8.29289 6.70711C8.48043 6.89464 8.73478 7 9 7ZM21 11H9C8.73478 11 8.48043 11.1054 8.29289 11.2929C8.10536 11.4804 8 11.7348 8 12C8 12.2652 8.10536 12.5196 8.29289 12.7071C8.48043 12.8946 8.73478 13 9 13H21C21.2652 13 21.5196 12.8946 21.7071 12.7071C21.8946 12.5196 22 12.2652 22 12C22 11.7348 21.8946 11.4804 21.7071 11.2929C21.5196 11.1054 21.2652 11 21 11ZM21 17H9C8.73478 17 8.48043 17.1054 8.29289 17.2929C8.10536 17.4804 8 17.7348 8 18C8 18.2652 8.10536 18.5196 8.29289 18.7071C8.48043 18.8946 8.73478 19 9 19H21C21.2652 19 21.5196 18.8946 21.7071 18.7071C21.8946 18.5196 22 18.2652 22 18C22 17.7348 21.8946 17.4804 21.7071 17.2929C21.5196 17.1054 21.2652 17 21 17Z" fill="#545454"/>
</svg>
