<svg width="24" height="24" viewBox="0 0 24 24" fill="none" xmlns="http://www.w3.org/2000/svg">
<path d="M9 6H21C21.55 6 22 5.55 22 5C22 4.45 21.55 4 21 4H9C8.45 4 8 4.45 8 5C8 5.55 8.45 6 9 6ZM21 10H9C8.45 10 8 10.45 8 11C8 11.55 8.45 12 9 12H21C21.55 12 22 11.55 22 11C22 10.45 21.55 10 21 10ZM11 16H9C8.45 16 8 16.45 8 17C8 17.55 8.45 18 9 18H11C11.55 18 12 17.55 12 17C12 16.45 11.55 16 11 16Z" fill="#545454"/>
<path d="M4 3C2.9 3 2 3.9 2 5C2 6.1 2.9 7 4 7C5.1 7 6 6.1 6 5C6 3.9 5.1 3 4 3ZM4 9C2.9 9 2 9.9 2 11C2 12.1 2.9 13 4 13C5.1 13 6 12.1 6 11C6 9.9 5.1 9 4 9ZM4 15C2.9 15 2 15.9 2 17C2 18.1 2.9 19 4 19C5.1 19 6 18.1 6 17C6 15.9 5.1 15 4 15ZM21 15.98H19.02V14C19.02 13.45 18.57 13 18.02 13C17.47 13 17.02 13.45 17.02 14V15.98H15.04C14.49 15.98 14.04 16.43 14.04 16.98C14.04 17.53 14.49 17.98 15.04 17.98H17.02V19.96C17.02 20.51 17.47 20.96 18.02 20.96C18.57 20.96 19.02 20.51 19.02 19.96V17.98H21C21.55 17.98 22 17.53 22 16.98C22 16.43 21.55 15.98 21 15.98Z" fill="#545454"/>
</svg>
