<svg width="24" height="24" viewBox="0 0 24 24" fill="none" xmlns="http://www.w3.org/2000/svg">
<path d="M6.25 19.9C5.60682 19.7339 5.03694 19.3591 4.62974 18.8343C4.22254 18.3094 4.00105 17.6643 4 17V12H9C9.26522 12 9.51957 11.8946 9.70711 11.7071C9.89465 11.5196 10 11.2652 10 11C10 10.7348 9.89465 10.4804 9.70711 10.2929C9.51957 10.1054 9.26522 10 9 10H4V9C4 8.20435 4.31607 7.44129 4.87868 6.87868C5.44129 6.31607 6.20435 6 7 6V7C7 7.26522 7.10536 7.51957 7.2929 7.70711C7.48043 7.89464 7.73479 8 8 8C8.26522 8 8.51957 7.89464 8.70711 7.70711C8.89465 7.51957 9 7.26522 9 7V3C9 2.73478 8.89465 2.48043 8.70711 2.29289C8.51957 2.10536 8.26522 2 8 2C7.73479 2 7.48043 2.10536 7.2929 2.29289C7.10536 2.48043 7 2.73478 7 3V4C5.67392 4 4.40215 4.52678 3.46447 5.46447C2.52679 6.40215 2 7.67392 2 9V17C1.99863 18.1113 2.36752 19.1914 3.04842 20.0697C3.72932 20.948 4.68341 21.5744 5.76 21.85C5.84305 21.8598 5.92696 21.8598 6.01 21.85C6.27522 21.8832 6.54274 21.8096 6.75372 21.6455C6.9647 21.4814 7.10185 21.2402 7.135 20.975C7.16816 20.7098 7.09459 20.4423 6.9305 20.2313C6.7664 20.0203 6.52522 19.8832 6.26 19.85L6.25 19.9ZM16 8C16.2652 8 16.5196 7.89464 16.7071 7.70711C16.8946 7.51957 17 7.26522 17 7V6C17.7957 6 18.5587 6.31607 19.1213 6.87868C19.6839 7.44129 20 8.20435 20 9V10H19C18.7348 10 18.4804 10.1054 18.2929 10.2929C18.1054 10.4804 18 10.7348 18 11C18 11.2652 18.1054 11.5196 18.2929 11.7071C18.4804 11.8946 18.7348 12 19 12H20C20 12.2652 20.1054 12.5196 20.2929 12.7071C20.4804 12.8946 20.7348 13 21 13C21.2652 13 21.5196 12.8946 21.7071 12.7071C21.8946 12.5196 22 12.2652 22 12V9C22 7.67392 21.4732 6.40215 20.5355 5.46447C19.5979 4.52678 18.3261 4 17 4V3C17 2.73478 16.8946 2.48043 16.7071 2.29289C16.5196 2.10536 16.2652 2 16 2C15.7348 2 15.4804 2.10536 15.2929 2.29289C15.1054 2.48043 15 2.73478 15 3V7C15 7.26522 15.1054 7.51957 15.2929 7.70711C15.4804 7.89464 15.7348 8 16 8ZM11 6H13C13.2652 6 13.5196 5.89464 13.7071 5.70711C13.8946 5.51957 14 5.26522 14 5C14 4.73478 13.8946 4.48043 13.7071 4.29289C13.5196 4.10536 13.2652 4 13 4H11C10.7348 4 10.4804 4.10536 10.2929 4.29289C10.1054 4.48043 10 4.73478 10 5C10 5.26522 10.1054 5.51957 10.2929 5.70711C10.4804 5.89464 10.7348 6 11 6ZM21.9 16.55C21.1158 15.1498 19.9675 13.9877 18.5768 13.1867C17.1861 12.3857 15.6047 11.9757 14 12C12.3959 11.9789 10.8158 12.3903 9.42563 13.1909C8.0355 13.9916 6.88671 15.1519 6.1 16.55C6.02967 16.6896 5.99303 16.8437 5.99303 17C5.99303 17.1563 6.02967 17.3104 6.1 17.45C6.88671 18.8481 8.0355 20.0084 9.42563 20.8091C10.8158 21.6097 12.3959 22.0211 14 22C15.603 22.0225 17.1823 21.6116 18.5711 20.8107C19.9599 20.0099 21.1066 18.8487 21.89 17.45C21.962 17.3091 21.9995 17.1532 21.9995 16.995C21.9995 16.8368 21.962 16.6809 21.89 16.54L21.9 16.55ZM14 20C12.8558 20.0218 11.7241 19.7591 10.7065 19.2355C9.68895 18.7119 8.81735 17.9437 8.17 17C8.81735 16.0563 9.68895 15.2881 10.7065 14.7645C11.7241 14.2409 12.8558 13.9782 14 14C15.1428 13.9861 16.2717 14.2523 17.288 14.7752C18.3042 15.2982 19.177 16.062 19.83 17C19.177 17.938 18.3042 18.7018 17.288 19.2248C16.2717 19.7477 15.1428 20.0139 14 20ZM14 15C13.6044 15 13.2178 15.1173 12.8889 15.3371C12.56 15.5568 12.3036 15.8692 12.1522 16.2346C12.0009 16.6001 11.9613 17.0022 12.0384 17.3902C12.1156 17.7781 12.3061 18.1345 12.5858 18.4142C12.8655 18.6939 13.2219 18.8844 13.6098 18.9616C13.9978 19.0387 14.3999 18.9991 14.7654 18.8478C15.1308 18.6964 15.4432 18.44 15.6629 18.1111C15.8827 17.7822 16 17.3956 16 17C16 16.4696 15.7893 15.9609 15.4142 15.5858C15.0391 15.2107 14.5304 15 14 15Z" fill="#545454"/>
</svg>
