<svg width="24" height="24" viewBox="0 0 24 24" fill="none" xmlns="http://www.w3.org/2000/svg">
<path d="M17 4V3C17 2.73478 16.8946 2.48043 16.7071 2.29289C16.5196 2.10536 16.2652 2 16 2C15.7348 2 15.4804 2.10536 15.2929 2.29289C15.1054 2.48043 15 2.73478 15 3V7C15 7.26522 15.1054 7.51957 15.2929 7.70711C15.4804 7.89464 15.7348 8 16 8C16.2652 8 16.5196 7.89464 16.7071 7.70711C16.8946 7.51957 17 7.26522 17 7V6C17.7954 6.00087 18.5579 6.31722 19.1204 6.87964C19.6828 7.44206 19.9991 8.20462 20 9V10H4V9C4.00087 8.20462 4.31722 7.44206 4.87964 6.87964C5.44206 6.31722 6.20462 6.00087 7 6V7C7 7.26522 7.10536 7.51957 7.29289 7.70711C7.48043 7.89464 7.73478 8 8 8C8.26522 8 8.51957 7.89464 8.70711 7.70711C8.89464 7.51957 9 7.26522 9 7V3C9 2.73478 8.89464 2.48043 8.70711 2.29289C8.51957 2.10536 8.26522 2 8 2C7.73478 2 7.48043 2.10536 7.29289 2.29289C7.10536 2.48043 7 2.73478 7 3V4C5.6744 4.00156 4.40353 4.52884 3.46618 5.46618C2.52884 6.40353 2.00156 7.6744 2 9V17C2.00156 18.3256 2.52884 19.5965 3.46619 20.5338C4.40353 21.4712 5.6744 21.9984 7 22H17C18.3256 21.9984 19.5965 21.4712 20.5338 20.5338C21.4712 19.5965 21.9984 18.3256 22 17V9C21.9984 7.6744 21.4712 6.40353 20.5338 5.46619C19.5965 4.52884 18.3256 4.00156 17 4ZM20 17C19.9991 17.7954 19.6828 18.5579 19.1204 19.1204C18.5579 19.6828 17.7954 19.9991 17 20H7C6.20462 19.9991 5.44206 19.6828 4.87964 19.1204C4.31722 18.5579 4.00087 17.7954 4 17V12H20V17ZM11 6H13C13.2652 6 13.5196 5.89464 13.7071 5.70711C13.8946 5.51957 14 5.26522 14 5C14 4.73478 13.8946 4.48043 13.7071 4.29289C13.5196 4.10536 13.2652 4 13 4H11C10.7348 4 10.4804 4.10536 10.2929 4.29289C10.1054 4.48043 10 4.73478 10 5C10 5.26522 10.1054 5.51957 10.2929 5.70711C10.4804 5.89464 10.7348 6 11 6Z" fill="#545454"/>
</svg>
