<svg width="24" height="24" viewBox="0 0 24 24" fill="none" xmlns="http://www.w3.org/2000/svg">
<path d="M19.2 17.5999H16.5C15 17.5999 13.7 16.2999 13.7 14.7999V12.9999C13.7 12.4999 13.1 11.9999 12.4 11.9999H11.5C10.8 11.9999 10.2 12.3999 10.2 12.9999V14.6999C10.2 16.2999 8.9 17.4999 7.4 17.4999H4.8C3.3 17.4999 2 16.1999 2 14.6999V11.0999C2 7.9999 7 6.3999 12 6.3999C17 6.3999 22 7.9999 22 11.0999V14.6999C22 16.2999 20.8 17.5999 19.2 17.5999ZM11.5 10.0999H12.4C14.2 10.0999 15.7 11.3999 15.7 13.0999V14.7999C15.7 15.2999 16.1 15.5999 16.5 15.5999H19.2C19.6 15.5999 20 15.1999 20 14.7999V11.1999C20 10.0999 16.8 8.4999 12 8.4999C7.2 8.4999 4 9.9999 4 11.0999V14.6999C4 15.1999 4.4 15.4999 4.8 15.4999H7.5C7.9 15.4999 8.3 15.0999 8.3 14.6999V12.9999C8.3 11.3999 9.8 10.0999 11.5 10.0999Z" fill="#545454"/>
</svg>
