<svg width="24" height="24" viewBox="0 0 24 24" fill="none" xmlns="http://www.w3.org/2000/svg">
<path d="M19.0098 11.99C18.4498 11.43 17.6998 11.12 16.9098 11.12C16.8998 11.12 16.8998 11.12 16.8898 11.12C16.0898 11.12 15.3398 11.44 14.7798 12L13.4698 13.31C13.2098 13.57 12.8598 13.59 12.6698 13.58C12.2998 13.55 11.9198 13.37 11.6298 13.08L10.9298 12.38C10.3598 11.81 10.2598 10.97 10.6898 10.53L11.9998 9.22001C13.1698 8.05001 13.1798 6.15001 12.0098 4.99001L9.90983 2.89001C8.73983 1.73001 6.83983 1.73001 5.67983 2.90001L2.84983 5.73001C0.549833 8.03001 3.28983 13.24 7.01983 16.97C9.80983 19.76 13.4098 21.98 16.0198 21.98C16.9098 21.98 17.6798 21.72 18.2598 21.14L21.0898 18.31C22.2598 17.14 22.2698 15.24 21.0998 14.08L19.0098 11.99ZM19.6798 16.9L16.8498 19.73C15.9798 20.6 12.2798 19.4 8.43983 15.56C4.58983 11.72 3.39983 8.01001 4.25983 7.15001L7.08983 4.32001C7.28983 4.12001 7.54983 4.02001 7.79983 4.02001C8.04983 4.02001 8.29983 4.11001 8.48983 4.30001L10.5898 6.40001C10.7698 6.58001 10.8698 6.83001 10.8698 7.09001C10.8698 7.36001 10.7598 7.61001 10.5698 7.80001L9.25983 9.12001C8.03983 10.35 8.13983 12.45 9.49983 13.8L10.1998 14.5C10.8398 15.14 11.6598 15.52 12.5198 15.58C13.4198 15.65 14.2798 15.34 14.8798 14.73L16.1898 13.42C16.3798 13.23 16.6298 13.12 16.8998 13.12C17.1598 13.12 17.3998 13.22 17.5898 13.4L19.6898 15.5C20.0698 15.89 20.0698 16.51 19.6798 16.9ZM21.9198 2.63001C21.8198 2.38001 21.6198 2.19001 21.3798 2.09001C21.2598 2.04001 21.1298 2.01001 20.9998 2.01001H15.2698C14.7198 2.01001 14.2698 2.46001 14.2698 3.01001C14.2698 3.56001 14.7198 4.01001 15.2698 4.01001H18.5798L15.3398 7.25001C14.9498 7.64001 14.9498 8.27001 15.3398 8.66001C15.5398 8.86001 15.7898 8.95001 16.0498 8.95001C16.3098 8.95001 16.5598 8.85001 16.7598 8.66001L19.9998 5.42001V8.66001C19.9998 9.21001 20.4498 9.66001 20.9998 9.66001C21.5498 9.66001 21.9998 9.21001 21.9998 8.66001V3.01001C21.9998 2.88001 21.9698 2.75001 21.9198 2.63001Z" fill="#545454"/>
</svg>
