<svg width="24" height="24" viewBox="0 0 24 24" fill="none" xmlns="http://www.w3.org/2000/svg">
<path d="M19 12C17.8 10.8 15.9 10.8 14.8 12L13.5 13.3C13.1 13.7 12.2 13.6 11.6 13.1L10.9 12.4C10.3 11.8 10.2 11 10.7 10.5L12 9.2C13.2 8 13.2 6.1 12 5L9.90001 2.9C9.30001 2.3 8.60001 2 7.80001 2C7.00001 2 6.20001 2.3 5.70001 2.9L2.80001 5.7C0.600007 8 3.30001 13.2 7.00001 17C9.00001 19 11.1 20.5 13.1 21.3C14.2 21.8 15.1 22 16 22C16.9 22 17.7 21.7 18.3 21.2L21.1 18.4C22.3 17.2 22.3 15.3 21.1 14.2L19 12ZM19.7 16.9L16.9 19.7C16.5 20.1 15.3 20 13.9 19.4C12.2 18.7 10.2 17.3 8.40001 15.5C4.60001 11.7 3.40001 8 4.20001 7.1L7.00001 4.3C7.30001 4.1 7.50001 4 7.80001 4C8.10001 4 8.30001 4.1 8.50001 4.3L10.6 6.4C10.8 6.6 10.9 6.8 10.9 7.1C10.9 7.4 10.8 7.6 10.6 7.8L9.30001 9.1C8.10001 10.3 8.20001 12.4 9.50001 13.8L10.2 14.5C11.6 15.9 13.7 16 14.9 14.7L16.2 13.4C16.6 13 17.2 13 17.6 13.4L19.7 15.5C20.1 15.9 20.1 16.5 19.7 16.9ZM14.9 9.6C15 9.7 15.2 9.7 15.3 9.7H21C21.6 9.7 22 9.3 22 8.7C22 8.1 21.6 7.7 21 7.7H17.7L20.9 4.5C21.3 4.1 21.3 3.5 20.9 3.1C20.5 2.7 19.9 2.7 19.5 3.1L16.3 6.3V3C16.3 2.4 15.9 2 15.3 2C14.7 2 14.3 2.4 14.3 3V8.7C14.3 8.8 14.3 9 14.4 9.1C14.4 9.3 14.6 9.5 14.9 9.6Z" fill="#545454"/>
</svg>
