<svg width="24" height="24" viewBox="0 0 24 24" fill="none" xmlns="http://www.w3.org/2000/svg">
<path d="M15.9845 21.9648C14.99 21.9313 14.0121 21.7006 13.1075 21.2861C10.8254 20.2309 8.75911 18.761 7.01377 16.9511C5.20394 15.2058 3.73402 13.1395 2.67877 10.8574C1.72077 8.60055 1.77838 6.77239 2.84185 5.70895L5.67002 2.88086C6.22954 2.31966 6.98858 2.00295 7.78105 2.00002C8.57351 1.99709 9.33487 2.30819 9.89853 2.86524L11.9981 4.9668C12.2749 5.2421 12.4943 5.56964 12.6435 5.9304C12.7927 6.29116 12.8688 6.67796 12.8673 7.06836C12.8681 7.46366 12.7905 7.85521 12.639 8.22032C12.4875 8.58542 12.265 8.91684 11.9845 9.19536L10.67 10.5088C10.4663 10.7893 10.3773 11.1369 10.421 11.4808C10.4647 11.8246 10.638 12.1389 10.9054 12.3594L11.6056 13.0596C11.8263 13.3271 12.1408 13.5003 12.4849 13.5439C12.829 13.5874 13.1767 13.4981 13.4571 13.294L14.0616 12.6885L14.0626 12.6866L14.7706 11.9796C15.3387 11.4344 16.095 11.1289 16.8823 11.1265C17.6697 11.1242 18.4278 11.4251 18.9991 11.9669L21.0987 14.0665C21.6564 14.6298 21.9679 15.3912 21.9652 16.1838C21.9624 16.9764 21.6456 17.7356 21.0841 18.295L18.256 21.1231C17.9534 21.4089 17.5963 21.6308 17.206 21.7754C16.8157 21.92 16.4002 21.9845 15.9845 21.9648ZM7.79795 3.99805C7.66528 3.99813 7.53393 4.0244 7.41143 4.07535C7.28893 4.12629 7.17769 4.20091 7.08408 4.29493L4.25596 7.12305C3.83408 7.54493 3.9376 8.70411 4.51963 10.0762C5.4747 12.1218 6.7997 13.9732 8.42783 15.5371C9.99174 17.1652 11.8432 18.4902 13.8888 19.4453C15.2589 20.0273 16.419 20.1328 16.8419 19.709L19.67 16.8809C19.8573 16.6968 19.9639 16.446 19.9665 16.1835C19.9691 15.9209 19.8673 15.6681 19.6837 15.4805L17.5841 13.3809C17.394 13.2027 17.1426 13.1047 16.8821 13.1072C16.6216 13.1098 16.3722 13.2127 16.1856 13.3945L14.8722 14.707C14.2191 15.2938 13.3606 15.5985 12.4837 15.5548C11.6069 15.5111 10.7829 15.1225 10.1915 14.4736L9.49131 13.7734C8.84312 13.182 8.45473 12.3584 8.41066 11.482C8.36658 10.6056 8.67038 9.74729 9.25596 9.09376L10.5694 7.78028C10.6638 7.68731 10.7388 7.57649 10.7899 7.45426C10.8411 7.33204 10.8674 7.20085 10.8673 7.06836C10.868 6.94086 10.8433 6.81451 10.7947 6.69664C10.746 6.57878 10.6745 6.47177 10.5841 6.38184L8.48447 4.28028C8.39431 4.19028 8.28723 4.11901 8.16941 4.07057C8.05158 4.02214 7.92534 3.99749 7.79795 3.99805Z" fill="#545454"/>
</svg>
