<svg width="24" height="24" viewBox="0 0 24 24" fill="none" xmlns="http://www.w3.org/2000/svg">
<path d="M18.9949 1.99902H4.99487C4.86353 1.99895 4.73346 2.02476 4.6121 2.07499C4.49074 2.12522 4.38047 2.19887 4.2876 2.29175C4.19472 2.38462 4.12107 2.49489 4.07084 2.61625C4.02061 2.73761 3.9948 2.86768 3.99487 2.99902V6.99902C3.99487 7.26424 4.10023 7.51859 4.28777 7.70613C4.4753 7.89367 4.72966 7.99902 4.99487 7.99902C5.26009 7.99902 5.51444 7.89367 5.70198 7.70613C5.88952 7.51859 5.99487 7.26424 5.99487 6.99902V3.99902H10.9998V20H8.99975C8.73454 20 8.48018 20.1054 8.29265 20.2929C8.10511 20.4805 7.99975 20.7348 7.99975 21C7.99975 21.2652 8.10511 21.5196 8.29265 21.7071C8.48018 21.8947 8.73454 22 8.99975 22H14.9998C15.265 22 15.5193 21.8947 15.7069 21.7071C15.8944 21.5196 15.9998 21.2652 15.9998 21C15.9998 20.7348 15.8944 20.4805 15.7069 20.2929C15.5193 20.1054 15.265 20 14.9998 20H12.9998V3.99902H17.9949V6.99902C17.9949 7.26424 18.1002 7.51859 18.2878 7.70613C18.4753 7.89367 18.7297 7.99902 18.9949 7.99902C19.2601 7.99902 19.5144 7.89367 19.702 7.70613C19.8895 7.51859 19.9949 7.26424 19.9949 6.99902V2.99902C19.9949 2.86768 19.9691 2.73761 19.9189 2.61625C19.8687 2.49489 19.795 2.38462 19.7021 2.29175C19.6093 2.19887 19.499 2.12522 19.3776 2.07499C19.2563 2.02476 19.1262 1.99895 18.9949 1.99902Z" fill="#545454"/>
</svg>
