<svg width="24" height="24" viewBox="0 0 24 24" fill="none" xmlns="http://www.w3.org/2000/svg">
<path d="M21 2H14C13.45 2 13 2.45 13 3V10C13 10.55 13.45 11 14 11H21C21.55 11 22 10.55 22 10V3C22 2.45 21.55 2 21 2ZM20 9H15V4H20V9ZM10 13H3C2.45 13 2 13.45 2 14V21C2 21.55 2.45 22 3 22H10C10.55 22 11 21.55 11 21V14C11 13.45 10.55 13 10 13ZM9 20H4V15H9V20ZM21 14H14C13.45 14 13 14.45 13 15C13 15.55 13.45 16 14 16H21C21.55 16 22 15.55 22 15C22 14.45 21.55 14 21 14ZM21 19H14C13.45 19 13 19.45 13 20C13 20.55 13.45 21 14 21H21C21.55 21 22 20.55 22 20C22 19.45 21.55 19 21 19ZM10 8H3C2.45 8 2 8.45 2 9C2 9.55 2.45 10 3 10H10C10.55 10 11 9.55 11 9C11 8.45 10.55 8 10 8ZM10 3H3C2.45 3 2 3.45 2 4C2 4.55 2.45 5 3 5H10C10.55 5 11 4.55 11 4C11 3.45 10.55 3 10 3Z" fill="#545454"/>
</svg>
