<svg width="24" height="24" viewBox="0 0 24 24" fill="none" xmlns="http://www.w3.org/2000/svg">
<path d="M16.9128 9.3706C16.8342 9.19401 16.7062 9.04397 16.5441 8.93867C16.3821 8.83337 16.1929 8.77733 15.9997 8.77734H7.99966C7.8064 8.77745 7.6173 8.83354 7.45524 8.93884C7.29318 9.04414 7.1651 9.19413 7.08649 9.37069C7.00787 9.54724 6.98209 9.74279 7.01226 9.93368C7.04244 10.1246 7.12727 10.3026 7.2565 10.4463L11.2565 14.8912C11.3502 14.9954 11.4648 15.0787 11.5929 15.1357C11.7209 15.1927 11.8595 15.2222 11.9997 15.2222C12.1398 15.2222 12.2784 15.1927 12.4064 15.1357C12.5345 15.0787 12.6491 14.9954 12.7428 14.8912L16.7428 10.4463C16.8723 10.3028 16.9573 10.1247 16.9875 9.9337C17.0176 9.74272 16.9917 9.5471 16.9128 9.3706Z" fill="#545454"/>
</svg>
