<svg width="24" height="24" viewBox="0 0 24 24" fill="none" xmlns="http://www.w3.org/2000/svg">
<path d="M16.7429 13.5542L12.7429 9.10938C12.6467 9.00933 12.5313 8.92973 12.4036 8.87536C12.2759 8.82099 12.1386 8.79297 11.9998 8.79297C11.861 8.79297 11.7236 8.82099 11.5959 8.87536C11.4682 8.92973 11.3528 9.00933 11.2566 9.10938L7.25662 13.5542C7.12734 13.6979 7.04247 13.8759 7.01228 14.0669C6.98208 14.2578 7.00786 14.4533 7.08648 14.6299C7.1651 14.8065 7.2932 14.9565 7.45529 15.0617C7.61738 15.167 7.8065 15.2231 7.99978 15.2232H15.9998C16.1931 15.2231 16.3822 15.167 16.5443 15.0617C16.7064 14.9565 16.8345 14.8065 16.9131 14.6299C16.9917 14.4533 17.0175 14.2578 16.9873 14.0669C16.9571 13.8759 16.8722 13.6979 16.7429 13.5542Z" fill="#545454"/>
</svg>
