<svg width="24" height="24" viewBox="0 0 24 24" fill="none" xmlns="http://www.w3.org/2000/svg">
<path d="M14.6299 7.08615C14.4532 7.00773 14.2576 6.9821 14.0666 7.01233C13.8757 7.04257 13.6975 7.12739 13.5537 7.25656L9.1084 11.2566C9.00421 11.3503 8.92089 11.4649 8.86385 11.5929C8.80682 11.721 8.77734 11.8596 8.77734 11.9997C8.77734 12.1399 8.80682 12.2785 8.86385 12.4065C8.92089 12.5345 9.00421 12.6491 9.1084 12.7429L13.5537 16.7429C13.6974 16.8722 13.8755 16.957 14.0664 16.9872C14.2573 17.0174 14.4528 16.9916 14.6294 16.913C14.806 16.8344 14.956 16.7063 15.0613 16.5442C15.1665 16.3821 15.2226 16.193 15.2227 15.9997V7.99972C15.2227 7.80645 15.1667 7.61732 15.0615 7.45519C14.9563 7.29306 14.8064 7.16488 14.6299 7.08615Z" fill="#545454"/>
</svg>
