<svg width="24" height="24" viewBox="0 0 24 24" fill="none" xmlns="http://www.w3.org/2000/svg">
<path d="M14.8916 11.257L10.4463 7.25699C10.3027 7.12758 10.1246 7.0426 9.93362 7.01233C9.74267 6.98206 9.54704 7.00781 9.37042 7.08645C9.1938 7.1651 9.04378 7.29327 8.93851 7.45544C8.83325 7.6176 8.77727 7.80682 8.77734 8.00015V16.0002C8.77732 16.1935 8.83333 16.3826 8.93861 16.5448C9.04388 16.7069 9.1939 16.8351 9.37049 16.9137C9.54709 16.9923 9.7427 17.0181 9.93363 16.9878C10.1246 16.9576 10.3026 16.8727 10.4463 16.7433L14.8916 12.7433C14.9958 12.6496 15.0791 12.535 15.1362 12.4069C15.1932 12.2789 15.2227 12.1403 15.2227 12.0002C15.2227 11.86 15.1932 11.7214 15.1362 11.5934C15.0791 11.4653 14.9958 11.3507 14.8916 11.257Z" fill="#545454"/>
</svg>
