<svg width="24" height="24" viewBox="0 0 24 24" fill="none" xmlns="http://www.w3.org/2000/svg">
<path fill-rule="evenodd" clip-rule="evenodd" d="M8 2H5C4.20462 2.00087 3.44206 2.31722 2.87964 2.87964C2.31722 3.44206 2.00087 4.20462 2 5V8C2.00087 8.79538 2.31722 9.55794 2.87964 10.1204C3.44206 10.6828 4.20462 10.9991 5 11H8C8.79538 10.9991 9.55794 10.6828 10.1204 10.1204C10.6828 9.55794 10.9991 8.79538 11 8V5C10.9991 4.20462 10.6828 3.44206 10.1204 2.87964C9.55794 2.31722 8.79538 2.00087 8 2ZM9 8C8.99982 8.26516 8.89441 8.51941 8.70691 8.70691C8.51941 8.89441 8.26516 8.99982 8 9H5C4.73484 8.99982 4.48059 8.89441 4.29309 8.70691C4.10559 8.51941 4.00018 8.26516 4 8V5C4.00018 4.73484 4.10559 4.48059 4.29309 4.29309C4.48059 4.10559 4.73484 4.00018 5 4H8C8.26516 4.00018 8.51941 4.10559 8.70691 4.29309C8.89441 4.48059 8.99982 4.73484 9 5V8ZM19 2H16C15.2046 2.00087 14.4421 2.31722 13.8796 2.87964C13.3172 3.44206 13.0009 4.20462 13 5V8C13.0009 8.79538 13.3172 9.55794 13.8796 10.1204C14.4421 10.6828 15.2046 10.9991 16 11H19C19.7954 10.9991 20.5579 10.6828 21.1204 10.1204C21.6828 9.55794 21.9991 8.79538 22 8V5C21.9991 4.20462 21.6828 3.44206 21.1204 2.87964C20.5579 2.31722 19.7954 2.00087 19 2ZM20 8C19.9998 8.26516 19.8944 8.51941 19.7069 8.70691C19.5194 8.89441 19.2652 8.99982 19 9H16C15.7348 8.99982 15.4806 8.89441 15.2931 8.70691C15.1056 8.51941 15.0002 8.26516 15 8V5C15.0002 4.73484 15.1056 4.48059 15.2931 4.29309C15.4806 4.10559 15.7348 4.00018 16 4H19C19.2652 4.00018 19.5194 4.10559 19.7069 4.29309C19.8944 4.48059 19.9998 4.73484 20 5V8ZM8 13H5C4.20462 13.0009 3.44206 13.3172 2.87964 13.8796C2.31722 14.4421 2.00087 15.2046 2 16V19C2.00087 19.7954 2.31722 20.5579 2.87964 21.1204C3.44206 21.6828 4.20462 21.9991 5 22H8C8.79538 21.9991 9.55794 21.6828 10.1204 21.1204C10.6828 20.5579 10.9991 19.7954 11 19V16C10.9991 15.2046 10.6828 14.4421 10.1204 13.8796C9.55794 13.3172 8.79538 13.0009 8 13ZM9 19C8.99982 19.2652 8.89441 19.5194 8.70691 19.7069C8.51941 19.8944 8.26516 19.9998 8 20H5C4.73484 19.9998 4.48059 19.8944 4.29309 19.7069C4.10559 19.5194 4.00018 19.2652 4 19V16C4.00018 15.7348 4.10559 15.4806 4.29309 15.2931C4.48059 15.1056 4.73484 15.0002 5 15H8C8.26516 15.0002 8.51941 15.1056 8.70691 15.2931C8.89441 15.4806 8.99982 15.7348 9 16V19ZM17.4775 13C16.5875 13 15.7175 13.2639 14.9775 13.7584C14.2375 14.2529 13.6607 14.9557 13.3201 15.7779C12.9795 16.6002 12.8904 17.505 13.064 18.3779C13.2376 19.2508 13.6662 20.0526 14.2956 20.682C14.9249 21.3113 15.7267 21.7399 16.5996 21.9135C17.4725 22.0872 18.3773 21.9981 19.1996 21.6575C20.0219 21.3169 20.7247 20.7401 21.2192 20.0001C21.7136 19.26 21.9775 18.39 21.9775 17.5C21.9775 16.3065 21.5034 15.1619 20.6595 14.318C19.8156 13.4741 18.671 13 17.4775 13Z" fill="#545454"/>
</svg>
