<svg width="24" height="24" viewBox="0 0 24 24" fill="none" xmlns="http://www.w3.org/2000/svg">
<path d="M2.97754 12.9998C3.10888 12.9999 3.23895 12.9741 3.36031 12.9239C3.48167 12.8736 3.59194 12.8 3.68481 12.7071C3.77769 12.6142 3.85134 12.504 3.90157 12.3826C3.9518 12.2612 3.97761 12.1312 3.97754 11.9998V9.99984C3.97841 9.20445 4.29476 8.44189 4.85718 7.87947C5.4196 7.31705 6.18216 7.0007 6.97754 6.99984H18.5859L17.2929 8.29284C17.1996 8.38557 17.1254 8.49583 17.0748 8.61728C17.0241 8.73872 16.9979 8.86898 16.9977 9.00057C16.9975 9.13216 17.0233 9.2625 17.0735 9.38411C17.1238 9.50572 17.1975 9.61622 17.2906 9.70927C17.3836 9.80231 17.4942 9.87607 17.6158 9.92633C17.7374 9.97658 17.8677 10.0023 17.9993 10.0021C18.1309 10.0019 18.2612 9.97568 18.3826 9.92501C18.504 9.87434 18.6143 9.8002 18.707 9.70683L21.7057 6.70812C21.8932 6.52006 21.9985 6.26535 21.9985 5.99981C21.9985 5.73426 21.8932 5.47955 21.7057 5.2915L18.707 2.29284C18.5191 2.10726 18.2654 2.00357 18.0013 2.0044C17.7372 2.00522 17.4842 2.1105 17.2974 2.29724C17.1107 2.48398 17.0054 2.73702 17.0046 3.00112C17.0037 3.26521 17.1074 3.51891 17.293 3.70684L18.5859 4.99984H6.97754C5.65193 5.00139 4.38107 5.52868 3.44372 6.46602C2.50638 7.40337 1.9791 8.67423 1.97754 9.99984V11.9998C1.97746 12.1312 2.00328 12.2612 2.0535 12.3826C2.10373 12.504 2.17739 12.6142 2.27026 12.7071C2.36314 12.8 2.47341 12.8736 2.59477 12.9239C2.71613 12.9741 2.8462 12.9999 2.97754 12.9998ZM21 9.99984C20.8687 9.99976 20.7386 10.0256 20.6172 10.0758C20.4959 10.126 20.3856 10.1997 20.2927 10.2926C20.1998 10.3854 20.1262 10.4957 20.076 10.6171C20.0257 10.7384 19.9999 10.8685 20 10.9998V13.9998C19.9991 14.7952 19.6828 15.5578 19.1204 16.1202C18.5579 16.6826 17.7954 16.999 17 16.9998H5.3916L6.6846 15.7068C6.7781 15.6141 6.85237 15.5039 6.90314 15.3824C6.95391 15.2609 6.9802 15.1306 6.98047 14.9989C6.98075 14.8672 6.95502 14.7368 6.90476 14.6151C6.8545 14.4934 6.7807 14.3829 6.68759 14.2898C6.59449 14.1967 6.48391 14.1229 6.36221 14.0726C6.24051 14.0224 6.11008 13.9966 5.97841 13.9969C5.84674 13.9972 5.71643 14.0235 5.59495 14.0743C5.47347 14.1251 5.36321 14.1993 5.27051 14.2928L2.27179 17.2915C2.08429 17.4796 1.979 17.7343 1.979 17.9998C1.979 18.2654 2.08429 18.5201 2.27179 18.7081L5.27051 21.7068C5.36314 21.8006 5.47341 21.8752 5.59497 21.9262C5.71653 21.9773 5.84699 22.0038 5.97882 22.0042C6.11066 22.0046 6.24127 21.9789 6.36316 21.9287C6.48504 21.8784 6.59578 21.8046 6.689 21.7113C6.78223 21.6181 6.8561 21.5074 6.90636 21.3855C6.95662 21.2636 6.98229 21.133 6.98187 21.0012C6.98146 20.8693 6.95498 20.7389 6.90396 20.6173C6.85293 20.4957 6.77838 20.3855 6.68457 20.2928L5.3916 18.9998H17C18.3256 18.9983 19.5965 18.471 20.5338 17.5336C21.4712 16.5963 21.9984 15.3254 22 13.9998V10.9998C22.0001 10.8685 21.9743 10.7384 21.924 10.6171C21.8738 10.4957 21.8001 10.3854 21.7073 10.2926C21.6144 10.1997 21.5041 10.126 21.3828 10.0758C21.2614 10.0256 21.1313 9.99976 21 9.99984Z" fill="#545454"/>
</svg>
