<svg width="24" height="24" viewBox="0 0 24 24" fill="none" xmlns="http://www.w3.org/2000/svg">
<path d="M19 12.999C18.2507 12.999 17.5731 13.2848 17.0468 13.7407L15 12.3396V11.7073L17.0792 10.2841C17.6011 10.7236 18.2657 10.999 19 10.999C20.6543 10.999 22 9.65331 22 7.99901C22 6.34471 20.6543 4.99901 19 4.99901C17.3457 4.99901 16 6.34471 16 7.99901C16 8.19139 16.022 8.3784 16.0568 8.56078L14.7961 9.4237C14.6144 9.1729 14.3337 8.99901 14 8.99901H13V7.81475C14.1615 7.40063 15 6.30096 15 4.99902C15 3.34472 13.6543 1.99902 12 1.99902C10.3457 1.99902 9 3.34472 9 4.99902C9 6.30096 9.8385 7.40057 11 7.81469V8.99902H10C9.62988 8.99902 9.31982 9.20947 9.14697 9.50842L7.91425 8.6646C8.01587 8.2213 8.02735 7.75988 7.91895 7.30468C7.73291 6.52489 7.25488 5.86474 6.57275 5.44481H6.57227C6.57227 5.44481 6.57227 5.44481 6.57227 5.44432C5.89014 5.02489 5.08497 4.895 4.30567 5.08104C3.52588 5.26659 2.86523 5.74462 2.44531 6.42724C1.57861 7.83593 2.01953 9.68749 3.42773 10.5542C3.90673 10.8491 4.4458 11.0005 4.99462 11.0005C5.22753 11.0005 5.46239 10.9731 5.69482 10.918C6.12249 10.8162 6.5086 10.6194 6.84448 10.3562L9 11.8316V12.2153L6.87085 13.6727C6.3562 13.2579 5.711 12.999 5 12.999C3.3457 12.999 2 14.3447 2 15.999C2 17.6533 3.3457 18.999 5 18.999C6.6543 18.999 8 17.6533 8 15.999C8 15.7833 7.97485 15.5737 7.93134 15.3707L9.16956 14.5233C9.34686 14.8029 9.64441 14.999 10 14.999H11V16.1833C9.8385 16.5974 9 17.6971 9 18.999C9 20.6533 10.3457 21.999 12 21.999C13.6543 21.999 15 20.6533 15 18.999C15 17.6971 14.1615 16.5974 13 16.1833V14.999H14C14.3191 14.999 14.5905 14.8403 14.7735 14.608L16.0522 15.483C16.0228 15.6514 16 15.8223 16 15.999C16 17.6533 17.3457 18.999 19 18.999C20.6543 18.999 22 17.6533 22 15.999C22 14.3447 20.6543 12.999 19 12.999ZM12 3.99901C12.5513 3.99901 13 4.44774 13 4.99901C13 5.55028 12.5513 5.99901 12 5.99901C11.4487 5.99901 11 5.55028 11 4.99901C11 4.44774 11.4487 3.99901 12 3.99901ZM12 19.999C11.4487 19.999 11 19.5508 11 18.999C11 18.4473 11.4487 17.999 12 17.999C12.5513 17.999 13 18.4473 13 18.999C13 19.5508 12.5513 19.999 12 19.999ZM19 6.99901C19.5518 6.99901 20 7.44774 20 7.99901C20 8.55028 19.5518 8.99901 19 8.99901C18.4482 8.99901 18 8.55028 18 7.99901C18 7.44774 18.4482 6.99901 19 6.99901ZM5.23193 8.97216C4.97119 9.03466 4.70361 8.99071 4.47607 8.85107C4.00684 8.562 3.85986 7.94481 4.14844 7.47509C4.28858 7.24755 4.50879 7.08837 4.76856 7.02685C4.8462 7.0083 4.92432 6.99902 5.00196 6.99902C5.18458 6.99902 5.36426 7.0498 5.52393 7.14795C5.52393 7.14795 5.52442 7.14795 5.52442 7.14844C5.75195 7.28808 5.91113 7.50829 5.97314 7.76806C6.03515 8.02783 5.99218 8.29638 5.85205 8.52343C5.71191 8.75097 5.4917 8.91015 5.23193 8.97216ZM5 16.999C4.44873 16.999 4 16.5508 4 15.999C4 15.4473 4.44873 14.999 5 14.999C5.37347 14.999 5.68732 15.2135 5.85901 15.5178C5.86792 15.5323 5.86865 15.5492 5.87842 15.5635C5.89105 15.582 5.90814 15.5951 5.92175 15.6124C5.9718 15.7314 6 15.8619 6 15.999C6 16.5508 5.55127 16.999 5 16.999ZM13 12.999H12.0048C12.0031 12.999 12.0017 12.998 12 12.998C11.9983 12.998 11.9969 12.999 11.9952 12.999H11V10.999H11.9952C11.9969 10.999 11.9983 11 12 11C12.0017 11 12.0031 10.999 12.0048 10.999H13V12.999ZM19 16.999C18.4482 16.999 18 16.5508 18 15.999C18 15.4473 18.4482 14.999 19 14.999C19.5518 14.999 20 15.4473 20 15.999C20 16.5508 19.5518 16.999 19 16.999Z" fill="#545454"/>
</svg>
