<svg width="24" height="24" viewBox="0 0 24 24" fill="none" xmlns="http://www.w3.org/2000/svg">
<path d="M21.98 3.91C21.98 3.91 21.98 3.85 21.98 3.82C21.98 3.78 21.95 3.76 21.94 3.72C21.92 3.65 21.9 3.59 21.86 3.53C21.83 3.48 21.8 3.43 21.76 3.38C21.72 3.33 21.67 3.28 21.62 3.24C21.57 3.2 21.53 3.17 21.47 3.14C21.41 3.11 21.35 3.08 21.28 3.06C21.22 3.04 21.16 3.03 21.1 3.02C21.06 3.02 21.03 3 20.99 3C20.96 3 20.93 3.02 20.9 3.02C20.87 3.02 20.84 3.02 20.81 3.02L9.81 5.02C9.81 5.02 9.74 5.05 9.71 5.06C9.64 5.08 9.58 5.1 9.52 5.13C9.46 5.16 9.41 5.19 9.36 5.23C9.31 5.27 9.27 5.31 9.22 5.36C9.18 5.41 9.14 5.46 9.11 5.52C9.08 5.58 9.05 5.63 9.03 5.69C9.01 5.75 9 5.82 8.99 5.89C8.99 5.93 8.97 5.96 8.97 6V14.58C10.13 15.17 10.89 16.18 10.95 17.35C10.95 17.32 10.97 17.29 10.97 17.25V10.83L19.97 9.19V13.57C21.13 14.16 21.89 15.17 21.95 16.34C21.95 16.31 21.97 16.28 21.97 16.24V4C21.97 4 21.95 3.94 21.95 3.91H21.98ZM20 7.17L11 8.81V6.84L20 5.2V7.17Z" fill="#545454"/>
<path d="M21.98 16.35C21.92 15.18 21.16 14.17 20 13.58C19.29 13.22 18.43 13 17.5 13C14.98 13 13 14.54 13 16.5C13 18.46 14.98 20 17.5 20C20.02 20 22 18.46 22 16.5C22 16.45 21.98 16.4 21.98 16.35ZM17.5 18C16.03 18 15 17.21 15 16.5C15 15.79 16.03 15 17.5 15C18.97 15 20 15.79 20 16.5C20 17.21 18.97 18 17.5 18ZM9 14.58C8.29 14.22 7.43 14 6.5 14C3.98 14 2 15.54 2 17.5C2 19.46 3.98 21 6.5 21C9.02 21 11 19.46 11 17.5C11 17.45 10.98 17.4 10.98 17.35C10.92 16.18 10.16 15.17 9 14.58ZM6.5 19C5.03 19 4 18.21 4 17.5C4 16.79 5.03 16 6.5 16C7.97 16 9 16.79 9 17.5C9 18.21 7.97 19 6.5 19Z" fill="#545454"/>
</svg>
