<svg width="24" height="24" viewBox="0 0 24 24" fill="none" xmlns="http://www.w3.org/2000/svg">
<path d="M9.22 11.11C10.1223 11.11 11.0043 10.8423 11.7544 10.3408C12.5045 9.83929 13.089 9.12652 13.4338 8.29271C13.7787 7.4589 13.8684 6.54152 13.6916 5.6567C13.5149 4.77187 13.0796 3.95938 12.4409 3.32205C11.8021 2.68472 10.9887 2.25121 10.1035 2.0764C9.21826 1.90158 8.30108 1.99331 7.46802 2.33998C6.63497 2.68665 5.92349 3.27267 5.42363 4.02387C4.92378 4.77508 4.65802 5.65769 4.66 6.55999C4.66 7.15835 4.77802 7.75083 5.0073 8.30351C5.23659 8.8562 5.57263 9.35823 5.9962 9.78087C6.41976 10.2035 6.92253 10.5384 7.47572 10.7665C8.02891 10.9946 8.62164 11.1113 9.22 11.11ZM9.22 3.99999C9.72632 3.99999 10.2213 4.15013 10.6423 4.43143C11.0632 4.71273 11.3914 5.11254 11.5851 5.58032C11.7789 6.0481 11.8296 6.56283 11.7308 7.05942C11.632 7.55602 11.3882 8.01216 11.0302 8.37019C10.6722 8.72821 10.216 8.97202 9.71943 9.0708C9.22284 9.16958 8.70811 9.11888 8.24033 8.92512C7.77255 8.73136 7.37273 8.40324 7.09144 7.98225C6.81014 7.56126 6.66 7.06631 6.66 6.55999C6.66 5.88104 6.92971 5.22989 7.40981 4.7498C7.8899 4.26971 8.54105 3.99999 9.22 3.99999ZM8.33 12.67H7.23C5.84373 12.6726 4.51499 13.2245 3.53475 14.2047C2.55451 15.185 2.00264 16.5137 2 17.9V19C2 19.2652 2.10536 19.5196 2.29289 19.7071C2.48043 19.8946 2.73478 20 3 20C3.26522 20 3.51957 19.8946 3.70711 19.7071C3.89464 19.5196 4 19.2652 4 19V17.9C4.00265 17.0424 4.34517 16.2209 4.9525 15.6154C5.55983 15.01 6.38243 14.67 7.24 14.67H8.34C8.60522 14.67 8.85957 14.5646 9.04711 14.3771C9.23464 14.1896 9.34 13.9352 9.34 13.67C9.34 13.4048 9.23464 13.1504 9.04711 12.9629C8.85957 12.7753 8.60522 12.67 8.34 12.67H8.33ZM21.06 16.45C20.8054 16.3757 20.5317 16.4057 20.2992 16.5332C20.0666 16.6607 19.8943 16.8754 19.82 17.13C19.6711 17.6369 19.4232 18.1093 19.0907 18.5199C18.7582 18.9305 18.3477 19.2711 17.8828 19.5222C17.4179 19.7732 16.9079 19.9297 16.3822 19.9825C15.8565 20.0353 15.3255 19.9835 14.82 19.83C14.2852 19.6797 13.7901 19.4134 13.37 19.05C13.5305 18.9895 13.6728 18.8888 13.7831 18.7574C13.8934 18.6261 13.9681 18.4685 14 18.3C14.0371 18.0374 13.9684 17.7709 13.809 17.559C13.6496 17.3471 13.4125 17.2072 13.15 17.17L11.41 16.92C11.1474 16.8829 10.8809 16.9516 10.669 17.111C10.4571 17.2704 10.3172 17.5074 10.28 17.77L10 19.51C9.96291 19.7726 10.0316 20.0391 10.191 20.251C10.3504 20.4629 10.5875 20.6028 10.85 20.64H11C11.1493 20.6366 11.296 20.5998 11.4292 20.5323C11.5625 20.4649 11.6789 20.3684 11.77 20.25C12.4713 20.9457 13.3334 21.4575 14.28 21.74C14.8373 21.9115 15.4169 21.9991 16 22C17.2952 21.9985 18.5552 21.5778 19.5916 20.801C20.628 20.0241 21.3852 18.9328 21.75 17.69C21.7866 17.5633 21.7977 17.4306 21.7828 17.2995C21.7679 17.1685 21.7272 17.0417 21.6631 16.9264C21.5989 16.8111 21.5126 16.7097 21.4091 16.6279C21.3056 16.5462 21.187 16.4857 21.06 16.45ZM10.23 14.31C10.1557 14.5646 10.1857 14.8383 10.3132 15.0708C10.4407 15.3034 10.6554 15.4757 10.91 15.55C11.0029 15.5631 11.0971 15.5631 11.19 15.55C11.4131 15.5589 11.6328 15.4928 11.8141 15.3623C11.9953 15.2318 12.1276 15.0444 12.19 14.83C12.3389 14.3231 12.5868 13.8507 12.9193 13.4401C13.2518 13.0295 13.6623 12.6889 14.1272 12.4378C14.5921 12.1868 15.1021 12.0303 15.6278 11.9775C16.1535 11.9247 16.6845 11.9765 17.19 12.13C17.7456 12.2914 18.2581 12.5749 18.69 12.96C18.537 13.0259 18.4028 13.1291 18.2998 13.2601C18.1967 13.3911 18.1281 13.5457 18.1 13.71C18.0801 13.84 18.0861 13.9727 18.1176 14.1004C18.1491 14.2281 18.2054 14.3484 18.2835 14.4543C18.3615 14.5602 18.4597 14.6496 18.5723 14.7175C18.685 14.7854 18.8099 14.8305 18.94 14.85L20.68 15.1H20.83C21.0727 15.1024 21.3079 15.0165 21.4919 14.8582C21.6759 14.7 21.796 14.4803 21.83 14.24L22 12.55C22.0371 12.2874 21.9684 12.0209 21.809 11.809C21.6496 11.5971 21.4125 11.4572 21.15 11.42C20.9818 11.3988 20.8109 11.4207 20.6535 11.4837C20.496 11.5466 20.3572 11.6486 20.25 11.78C19.539 11.0627 18.6585 10.5364 17.69 10.25C16.1637 9.80061 14.5214 9.97588 13.1243 10.7373C11.7272 11.4986 10.6897 12.7838 10.24 14.31H10.23Z" fill="#545454"/>
</svg>
