<svg width="24" height="24" viewBox="0 0 24 24" fill="none" xmlns="http://www.w3.org/2000/svg">
<path d="M3 22C2.83529 22.0003 2.67313 21.9593 2.52832 21.8808C2.36878 21.7956 2.23537 21.6686 2.14233 21.5135C2.04928 21.3584 2.00009 21.1809 2 21V7C2.00156 5.6744 2.52884 4.40353 3.46618 3.46618C4.40353 2.52884 5.6744 2.00156 7 2H17C18.3256 2.00156 19.5965 2.52884 20.5338 3.46618C21.4712 4.40353 21.9984 5.6744 22 7V15C21.9984 16.3256 21.4712 17.5965 20.5338 18.5338C19.5965 19.4712 18.3256 19.9984 17 20H8C6.61328 20 4.32031 21.3223 3.55469 21.832C3.39032 21.9413 3.19739 21.9997 3 22ZM7 4C6.20462 4.00087 5.44206 4.31722 4.87964 4.87964C4.31722 5.44206 4.00087 6.20462 4 7V19.2558C5.22471 18.5481 6.59051 18.1193 8 18H17C17.7954 17.9991 18.5579 17.6828 19.1204 17.1204C19.6828 16.5579 19.9991 15.7954 20 15V7C19.9991 6.20462 19.6828 5.44206 19.1204 4.87964C18.5579 4.31722 17.7954 4.00087 17 4H7Z" fill="#545454"/>
</svg>
