<svg width="24" height="24" viewBox="0 0 24 24" fill="none" xmlns="http://www.w3.org/2000/svg">
<path d="M3 22C2.83789 22 2.67578 21.9609 2.52783 21.8809C2.20312 21.707 2 21.3682 2 21V7C2 4.24316 4.24316 2 7 2H17C19.7568 2 22 4.24316 22 7V8C22 8.55225 21.5527 9 21 9C20.4473 9 20 8.55225 20 8V7C20 5.3457 18.6543 4 17 4H7C5.3457 4 4 5.3457 4 7V19.2559C5.13867 18.6611 6.6958 18 8 18H14C14.5527 18 15 18.4473 15 19C15 19.5527 14.5527 20 14 20H8C6.61328 20 4.3208 21.3223 3.5542 21.832C3.38721 21.9434 3.19385 22 3 22Z" fill="#545454"/>
<path d="M21 19H18C17.4473 19 17 18.5527 17 18C17 17.4473 17.4473 17 18 17H21C21.5527 17 22 17.4473 22 18C22 18.5527 21.5527 19 21 19Z" fill="#545454"/>
<path d="M18 13H21C21.5527 13 22 12.5522 22 12C22 11.4478 21.5527 11 21 11H18C17.4473 11 17 11.4478 17 12C17 12.5522 17.4473 13 18 13Z" fill="#545454"/>
<path d="M21 16H20C19.4473 16 19 15.5527 19 15C19 14.4473 19.4473 14 20 14H21C21.5527 14 22 14.4473 22 15C22 15.5527 21.5527 16 21 16Z" fill="#545454"/>
<path d="M20 22H21C21.5527 22 22 21.5527 22 21C22 20.4473 21.5527 20 21 20H20C19.4473 20 19 20.4473 19 21C19 21.5527 19.4473 22 20 22Z" fill="#545454"/>
</svg>
