<svg width="24" height="24" viewBox="0 0 24 24" fill="none" xmlns="http://www.w3.org/2000/svg">
<path fill-rule="evenodd" clip-rule="evenodd" d="M17 2H7C5.6744 2.00156 4.40353 2.52884 3.46619 3.46619C2.52884 4.40353 2.00156 5.6744 2 7V21C2.0001 21.1809 2.04929 21.3584 2.14233 21.5135C2.23538 21.6686 2.36878 21.7956 2.52832 21.8809C2.67314 21.9593 2.83529 22.0003 3 22C3.19739 21.9997 3.39032 21.9413 3.55469 21.832C4.32032 21.3222 6.61329 20 8 20H17C18.3256 19.9984 19.5965 19.4712 20.5338 18.5338C21.4712 17.5965 21.9984 16.3256 22 15V7C21.9984 5.6744 21.4712 4.40353 20.5338 3.46618C19.5965 2.52884 18.3256 2.00156 17 2ZM20 15C19.9991 15.7954 19.6828 16.5579 19.1204 17.1204C18.5579 17.6828 17.7954 17.9991 17 18H8C6.59051 18.1193 5.22471 18.5481 4 19.2559V7C4.00087 6.20462 4.31722 5.44206 4.87964 4.87964C5.44206 4.31722 6.20462 4.00087 7 4H17C17.7954 4.00087 18.5579 4.31722 19.1204 4.87964C19.6828 5.44206 19.9991 6.20462 20 7V15ZM7.99024 9.99414C7.79246 9.99414 7.59912 10.0528 7.43467 10.1627C7.27022 10.2726 7.14205 10.4287 7.06636 10.6115C6.99067 10.7942 6.97087 10.9952 7.00945 11.1892C7.04804 11.3832 7.14328 11.5614 7.28313 11.7012C7.42299 11.8411 7.60117 11.9363 7.79515 11.9749C7.98913 12.0135 8.1902 11.9937 8.37292 11.918C8.55565 11.8423 8.71183 11.7142 8.82171 11.5497C8.93159 11.3853 8.99024 11.1919 8.99024 10.9941C8.99024 10.8628 8.96437 10.7328 8.91412 10.6115C8.86386 10.4901 8.79021 10.3799 8.69735 10.287C8.60449 10.1942 8.49425 10.1205 8.37292 10.0703C8.2516 10.02 8.12156 9.99414 7.99024 9.99414ZM11.9902 9.99414C11.7925 9.99414 11.5991 10.0528 11.4347 10.1627C11.2702 10.2726 11.142 10.4287 11.0664 10.6115C10.9907 10.7942 10.9709 10.9952 11.0095 11.1892C11.048 11.3832 11.1433 11.5614 11.2831 11.7012C11.423 11.8411 11.6012 11.9363 11.7951 11.9749C11.9891 12.0135 12.1902 11.9937 12.3729 11.918C12.5556 11.8423 12.7118 11.7142 12.8217 11.5497C12.9316 11.3853 12.9902 11.1919 12.9902 10.9941C12.9902 10.7289 12.8849 10.4746 12.6973 10.287C12.5098 10.0995 12.2555 9.99414 11.9902 9.99414ZM15.9902 9.99414C15.7925 9.99414 15.5991 10.0528 15.4347 10.1627C15.2702 10.2726 15.142 10.4287 15.0664 10.6115C14.9907 10.7942 14.9709 10.9952 15.0095 11.1892C15.048 11.3832 15.1433 11.5614 15.2831 11.7012C15.423 11.8411 15.6012 11.9363 15.7951 11.9749C15.9891 12.0135 16.1902 11.9937 16.3729 11.918C16.5556 11.8423 16.7118 11.7142 16.8217 11.5497C16.9316 11.3853 16.9902 11.1919 16.9902 10.9941C16.9902 10.7289 16.8849 10.4746 16.6973 10.287C16.5098 10.0995 16.2555 9.99414 15.9902 9.99414Z" fill="#545454"/>
</svg>
