<svg width="24" height="24" viewBox="0 0 24 24" fill="none" xmlns="http://www.w3.org/2000/svg">
<path d="M11.9999 18.1H7.23994C6.40994 18.1 5.73994 17.42 5.73994 16.59V9.92001C5.73994 9.09001 6.40994 8.41001 7.23994 8.41001H14.7699C15.5999 8.41001 16.2699 9.09001 16.2699 9.92001V12.01C16.2699 12.56 16.7199 13.01 17.2699 13.01H19.0599C19.6099 13.01 20.0599 12.56 20.0599 12.01V11.01C20.0599 10.46 19.6099 10.01 19.0599 10.01H18.2699V9.92001C18.2699 7.98001 16.6999 6.41001 14.7699 6.41001H11.9999V5.30001C12.4799 4.98001 12.7899 4.43001 12.7899 3.81001C12.7899 2.82001 11.9899 2.01001 10.9999 2.01001C10.0099 2.01001 9.20994 2.82001 9.20994 3.81001C9.20994 4.43001 9.51994 4.98001 9.99994 5.30001V6.41001H7.22994C5.29994 6.41001 3.72994 7.99001 3.72994 9.92001V10.01H2.93994C2.38994 10.01 1.93994 10.46 1.93994 11.01V14.61C1.93994 15.16 2.38994 15.61 2.93994 15.61H3.72994V16.6C3.72994 18.54 5.29994 20.11 7.22994 20.11H11.9899C12.5399 20.11 12.9899 19.66 12.9899 19.11C12.9899 18.56 12.5399 18.11 11.9899 18.11L11.9999 18.1ZM19.6199 14H16.3099C15.0299 14 13.9799 15.05 13.9799 16.33V21C13.9799 21.37 14.1799 21.71 14.5099 21.88C14.6599 21.96 14.8199 22 14.9799 22C15.1699 22 15.3699 21.94 15.5399 21.83C15.9199 21.58 16.4599 21.33 16.6399 21.33H19.6199C20.8999 21.33 21.9499 20.28 21.9499 19V16.33C21.9499 15.04 20.9099 14 19.6199 14ZM19.9499 19C19.9499 19.18 19.7999 19.33 19.6199 19.33H16.6399C16.4199 19.33 16.1999 19.37 15.9799 19.43V16.33C15.9799 16.15 16.1299 16 16.3099 16H19.6199C19.7999 16 19.9499 16.15 19.9499 16.33V19ZM14.5899 11.9C14.5899 11.4 14.1899 11 13.6899 11C13.1899 11 12.7899 11.4 12.7899 11.9C12.7899 12.4 13.1899 12.8 13.6899 12.8C14.1899 12.8 14.5899 12.4 14.5899 11.9ZM8.31994 11C7.82994 11 7.41994 11.4 7.41994 11.9C7.41994 12.4 7.81994 12.8 8.31994 12.8C8.81994 12.8 9.21994 12.4 9.21994 11.9C9.21994 11.4 8.81994 11 8.31994 11ZM10.1099 16.5H11.8999C12.4499 16.5 12.8999 16.05 12.8999 15.5C12.8999 14.95 12.4499 14.5 11.8999 14.5H10.1099C9.55994 14.5 9.10994 14.95 9.10994 15.5C9.10994 16.05 9.55994 16.5 10.1099 16.5Z" fill="#545454"/>
</svg>
