<svg width="24" height="24" viewBox="0 0 24 24" fill="none" xmlns="http://www.w3.org/2000/svg">
<path d="M3 22C2.83789 22 2.67578 21.9609 2.52783 21.8809C2.20312 21.707 2 21.3682 2 21V7C2 4.24316 4.24316 2 7 2H17C19.7568 2 22 4.24316 22 7V9.99805C22 10.5503 21.5527 10.998 21 10.998C20.4473 10.998 20 10.5503 20 9.99805V7C20 5.3457 18.6543 4 17 4H7C5.3457 4 4 5.3457 4 7V19.2559C5.13867 18.6611 6.6958 18 8 18H9C9.55225 18 10 18.4473 10 19C10 19.5527 9.55225 20 9 20H8C6.61328 20 4.3208 21.3223 3.5542 21.832C3.38721 21.9434 3.19385 22 3 22Z" fill="#545454"/>
<path d="M15 17C15 17.5527 15.4473 18 16 18H18C18.5527 18 19 17.5527 19 17C19 16.4473 18.5527 16 18 16H17V15C17 14.4473 16.5527 14 16 14C15.4473 14 15 14.4473 15 15V17Z" fill="#545454"/>
<path fill-rule="evenodd" clip-rule="evenodd" d="M16.5 22C13.4678 22 11 19.5322 11 16.5C11 13.4678 13.4678 11 16.5 11C19.5322 11 22 13.4678 22 16.5C22 19.5322 19.5322 22 16.5 22ZM16.5 13C14.5703 13 13 14.5703 13 16.5C13 18.4297 14.5703 20 16.5 20C18.4297 20 20 18.4297 20 16.5C20 14.5703 18.4297 13 16.5 13Z" fill="#545454"/>
</svg>
