<svg width="24" height="24" viewBox="0 0 24 24" fill="none" xmlns="http://www.w3.org/2000/svg">
<path d="M9.99471 19.0015C9.72953 19.0013 9.47526 18.896 9.28771 18.7085L2.28771 11.7085C2.10246 11.5205 1.99904 11.2669 2.00001 11.003C2.00097 10.7391 2.10624 10.4863 2.29285 10.2997C2.47947 10.113 2.73229 10.0078 2.99621 10.0068C3.26013 10.0058 3.51372 10.1092 3.70171 10.2945L9.96343 16.5562L20.2574 5.32572C20.3461 5.22862 20.453 5.14996 20.5721 5.09423C20.6912 5.03851 20.8202 5.00683 20.9515 5.00099C21.0829 4.99515 21.2141 5.01527 21.3377 5.0602C21.4613 5.10514 21.5748 5.174 21.6717 5.26285C21.7687 5.3517 21.8471 5.45879 21.9026 5.578C21.9581 5.69721 21.9896 5.82619 21.9952 5.95757C22.0008 6.08895 21.9804 6.22014 21.9353 6.34363C21.8901 6.46713 21.821 6.58051 21.732 6.67729L10.732 18.6773C10.6407 18.7768 10.5303 18.8568 10.4072 18.9126C10.2842 18.9683 10.1512 18.9985 10.0162 19.0015H9.99471Z" fill="#545454"/>
</svg>
