<svg width="24" height="24" viewBox="0 0 24 24" fill="none" xmlns="http://www.w3.org/2000/svg">
<path d="M12 2C6.49 2 2 6.49 2 12C2 17.51 6.49 22 12 22C17.51 22 22 17.51 22 12C22 6.49 17.51 2 12 2ZM12 20C7.59 20 4 16.41 4 12C4 7.59 7.59 4 12 4C16.41 4 20 7.59 20 12C20 16.41 16.41 20 12 20ZM15.76 8.32L10.97 13.55L8.21 10.79C7.82 10.4 7.19 10.4 6.8 10.79C6.41 11.18 6.41 11.81 6.8 12.2L10.3 15.7C10.48 15.89 10.74 16 11 16C11.01 16 11.01 16 11.02 16C11.29 15.99 11.55 15.88 11.74 15.68L17.24 9.68C17.61 9.27 17.59 8.64 17.18 8.27C16.77 7.89 16.14 7.92 15.76 8.32Z" fill="#545454"/>
</svg>
