<svg width="24" height="24" viewBox="0 0 24 24" fill="none" xmlns="http://www.w3.org/2000/svg">
<path d="M11.9937 2C10.0158 2 8.08245 2.58649 6.43795 3.6853C4.79346 4.78412 3.51174 6.3459 2.75486 8.17317C1.99799 10.0004 1.79995 12.0111 2.1858 13.9509C2.57166 15.8907 3.52406 17.6725 4.92259 19.0711C6.32111 20.4696 8.10294 21.422 10.0428 21.8079C11.9826 22.1937 13.9932 21.9957 15.8205 21.2388C17.6478 20.4819 19.2095 19.2002 20.3084 17.5557C21.4072 15.9112 21.9937 13.9778 21.9937 12C21.9905 9.34879 20.936 6.80706 19.0613 4.93237C17.1866 3.05768 14.6449 2.00311 11.9937 2ZM11.9937 20C10.4114 20 8.86469 19.5308 7.5491 18.6518C6.2335 17.7727 5.20812 16.5233 4.60262 15.0615C3.99712 13.5997 3.83869 11.9911 4.14737 10.4393C4.45606 8.88743 5.21798 7.46197 6.3368 6.34315C7.45562 5.22433 8.88109 4.4624 10.4329 4.15372C11.9848 3.84504 13.5933 4.00346 15.0551 4.60896C16.5169 5.21447 17.7664 6.23984 18.6454 7.55544C19.5245 8.87103 19.9937 10.4177 19.9937 12C19.9912 14.121 19.1476 16.1544 17.6478 17.6542C16.1481 19.1539 14.1146 19.9976 11.9937 20ZM15.9937 11H12.9937V8C12.9937 7.73478 12.8883 7.48043 12.7008 7.29289C12.5132 7.10536 12.2589 7 11.9937 7C11.7284 7 11.4741 7.10536 11.2865 7.29289C11.099 7.48043 10.9937 7.73478 10.9937 8V12C10.9936 12.1313 11.0194 12.2614 11.0696 12.3828C11.1199 12.5041 11.1935 12.6144 11.2864 12.7073C11.3793 12.8002 11.4895 12.8738 11.6109 12.924C11.7322 12.9743 11.8623 13.0001 11.9937 13H15.9937C16.2589 13 16.5132 12.8946 16.7008 12.7071C16.8883 12.5196 16.9937 12.2652 16.9937 12C16.9937 11.7348 16.8883 11.4804 16.7008 11.2929C16.5132 11.1054 16.2589 11 15.9937 11Z" fill="#545454"/>
</svg>
