<svg width="24" height="24" viewBox="0 0 24 24" fill="none" xmlns="http://www.w3.org/2000/svg">
<path d="M11.9937 2C10.0158 2 8.08245 2.58649 6.43795 3.6853C4.79346 4.78412 3.51174 6.3459 2.75486 8.17317C1.99799 10.0004 1.79995 12.0111 2.1858 13.9509C2.57166 15.8907 3.52406 17.6725 4.92259 19.0711C6.32111 20.4696 8.10294 21.422 10.0428 21.8079C11.9826 22.1937 13.9932 21.9957 15.8205 21.2388C17.6478 20.4819 19.2095 19.2002 20.3084 17.5557C21.4072 15.9112 21.9937 13.9778 21.9937 12C21.9905 9.34879 20.936 6.80706 19.0613 4.93237C17.1866 3.05768 14.6449 2.00311 11.9937 2ZM11.9937 20C10.4114 20 8.86469 19.5308 7.5491 18.6518C6.2335 17.7727 5.20812 16.5233 4.60262 15.0615C3.99712 13.5997 3.83869 11.9911 4.14737 10.4393C4.45606 8.88743 5.21798 7.46197 6.3368 6.34315C7.45562 5.22433 8.88109 4.4624 10.4329 4.15372C11.9848 3.84504 13.5933 4.00346 15.0551 4.60896C16.5169 5.21447 17.7664 6.23984 18.6454 7.55544C19.5245 8.87103 19.9937 10.4177 19.9937 12C19.9912 14.121 19.1476 16.1544 17.6478 17.6542C16.1481 19.1539 14.1146 19.9976 11.9937 20ZM15.7007 8.293C15.6078 8.20012 15.4976 8.12644 15.3763 8.07617C15.255 8.0259 15.1249 8.00003 14.9936 8.00003C14.8623 8.00003 14.7323 8.0259 14.611 8.07617C14.4896 8.12644 14.3794 8.20012 14.2866 8.293L11.9936 10.586L9.70059 8.293C9.60809 8.1986 9.49779 8.12348 9.37608 8.07198C9.25436 8.02047 9.12365 7.99361 8.99149 7.99294C8.85933 7.99227 8.72834 8.01781 8.60611 8.06807C8.48389 8.11834 8.37283 8.19234 8.27938 8.28579C8.18593 8.37925 8.11193 8.4903 8.06167 8.61253C8.0114 8.73476 7.98587 8.86575 7.98654 8.99791C7.98721 9.13007 8.01408 9.26078 8.06559 9.3825C8.11709 9.50421 8.19222 9.6145 8.28662 9.707L10.5796 12L8.28659 14.293C8.19323 14.3857 8.1191 14.496 8.06844 14.6174C8.01778 14.7389 7.99159 14.8691 7.99137 15.0007C7.99115 15.1323 8.01691 15.2627 8.06717 15.3843C8.11743 15.5059 8.1912 15.6164 8.28426 15.7094C8.37731 15.8025 8.48781 15.8762 8.60943 15.9265C8.73104 15.9767 8.86139 16.0025 8.99298 16.0023C9.12457 16.002 9.25482 15.9758 9.37626 15.9252C9.49771 15.8745 9.60796 15.8004 9.70069 15.707L11.9937 13.414L14.2867 15.707C14.4748 15.8917 14.7282 15.9947 14.9918 15.9935C15.2554 15.9923 15.5079 15.887 15.6943 15.7006C15.8807 15.5142 15.986 15.2617 15.9872 14.9981C15.9884 14.7345 15.8854 14.4811 15.7007 14.293L13.4077 12L15.7007 9.707C15.7936 9.61417 15.8673 9.50395 15.9175 9.38264C15.9678 9.26133 15.9936 9.1313 15.9936 8.99999C15.9936 8.86868 15.9678 8.73866 15.9175 8.61735C15.8672 8.49605 15.7936 8.38583 15.7007 8.293H15.7007Z" fill="#545454"/>
</svg>
