<svg width="24" height="24" viewBox="0 0 24 24" fill="none" xmlns="http://www.w3.org/2000/svg">
<path d="M17 2H7C5.6744 2.00156 4.40353 2.52884 3.46618 3.46618C2.52884 4.40353 2.00156 5.6744 2 7V17C2.00156 18.3256 2.52884 19.5965 3.46619 20.5338C4.40353 21.4712 5.6744 21.9984 7 22H17C18.3256 21.9984 19.5965 21.4712 20.5338 20.5338C21.4712 19.5965 21.9984 18.3256 22 17V7C21.9984 5.6744 21.4712 4.40353 20.5338 3.46619C19.5965 2.52884 18.3256 2.00156 17 2ZM4 10H8V14H4V10ZM10 10H20V14H10V10ZM20 7V8H10V4H17C17.7954 4.00087 18.5579 4.31722 19.1204 4.87964C19.6828 5.44206 19.9991 6.20462 20 7ZM7 4H8V8H4V7C4.00087 6.20462 4.31722 5.44206 4.87964 4.87964C5.44206 4.31722 6.20462 4.00087 7 4ZM4 17V16H8V20H7C6.20462 19.9991 5.44206 19.6828 4.87964 19.1204C4.31722 18.5579 4.00087 17.7954 4 17ZM17 20H10V16H20V17C19.9991 17.7954 19.6828 18.5579 19.1204 19.1204C18.5579 19.6828 17.7954 19.9991 17 20Z" fill="#545454"/>
</svg>
