<svg width="24" height="24" viewBox="0 0 24 24" fill="none" xmlns="http://www.w3.org/2000/svg">
<path d="M2.99951 22C2.83613 22 2.67524 21.9599 2.53092 21.8833C2.3866 21.8067 2.26324 21.696 2.17161 21.5607C2.07998 21.4254 2.02289 21.2698 2.00532 21.1073C1.98774 20.9449 2.01022 20.7807 2.0708 20.6289L3.92139 16.0019C3.35869 14.5651 3.04686 13.0423 2.99951 11.5C2.99951 9.62108 3.55667 7.78435 4.60054 6.22209C5.64442 4.65982 7.12811 3.44218 8.86401 2.72315C10.5999 2.00412 12.51 1.81598 14.3529 2.18254C16.1957 2.5491 17.8884 3.45389 19.217 4.78249C20.5456 6.11109 21.4504 7.80383 21.817 9.64665C22.1835 11.4895 21.9954 13.3996 21.2764 15.1355C20.5573 16.8714 19.3397 18.3551 17.7774 19.399C16.2152 20.4428 14.3784 21 12.4995 21C10.9572 20.9527 9.43438 20.6408 7.99756 20.0781L3.37056 21.9287C3.25251 21.9758 3.12659 22 2.99951 22ZM12.4995 4C10.511 4.00217 8.60465 4.79305 7.1986 6.1991C5.79255 7.60515 5.00168 9.51155 4.99951 11.5C5.06025 12.9089 5.37004 14.2959 5.91451 15.5967C5.96815 15.7184 5.997 15.8495 5.99934 15.9825C6.00169 16.1155 5.9775 16.2476 5.92819 16.3711L4.7944 19.2051L7.6284 18.0713C7.75192 18.022 7.88403 17.9978 8.01701 18.0002C8.14999 18.0025 8.28117 18.0313 8.40286 18.085C9.70368 18.6295 11.0906 18.9393 12.4995 19C14.4886 19 16.3963 18.2098 17.8028 16.8033C19.2093 15.3968 19.9995 13.4891 19.9995 11.5C19.9995 9.51088 19.2093 7.60323 17.8028 6.1967C16.3963 4.79018 14.4886 4 12.4995 4Z" fill="#545454"/>
</svg>
