<svg width="24" height="24" viewBox="0 0 24 24" fill="none" xmlns="http://www.w3.org/2000/svg">
<path d="M16.9548 1.99902H6.97729C5.65169 2.00058 4.38083 2.52787 3.44348 3.46521C2.50614 4.40256 1.97885 5.67342 1.97729 6.99902V13.124C1.97885 14.4496 2.50614 15.7205 3.44348 16.6578C4.38083 17.5952 5.65169 18.1225 6.97729 18.124H10.9656V19.9756H6.82983C6.56462 19.9756 6.31026 20.0809 6.12273 20.2685C5.93519 20.456 5.82983 20.7104 5.82983 20.9756C5.82983 21.2408 5.93519 21.4952 6.12273 21.6827C6.31026 21.8702 6.56462 21.9756 6.82983 21.9756H17.1023C17.3675 21.9756 17.6219 21.8702 17.8094 21.6827C17.9969 21.4952 18.1023 21.2408 18.1023 20.9756C18.1023 20.7104 17.9969 20.456 17.8094 20.2685C17.6219 20.0809 17.3675 19.9756 17.1023 19.9756H12.9656V18.124H16.9548C18.2804 18.1225 19.5513 17.5952 20.4886 16.6578C21.426 15.7205 21.9533 14.4496 21.9548 13.124V6.99902C21.9533 5.67342 21.426 4.40255 20.4887 3.46521C19.5513 2.52786 18.2804 2.00058 16.9548 1.99902ZM19.9548 13.124C19.954 13.9194 19.6376 14.682 19.0752 15.2444C18.5128 15.8068 17.7502 16.1232 16.9548 16.124H6.97729C6.18191 16.1232 5.41935 15.8068 4.85693 15.2444C4.29451 14.682 3.97816 13.9194 3.97729 13.124V6.99902C3.97816 6.20364 4.29451 5.44108 4.85693 4.87866C5.41935 4.31624 6.18191 3.99989 6.97729 3.99902H16.9548C17.7502 3.99989 18.5128 4.31624 19.0752 4.87866C19.6376 5.44108 19.954 6.20364 19.9548 6.99902V13.124Z" fill="#545454"/>
</svg>
