<svg width="24" height="24" viewBox="0 0 24 24" fill="none" xmlns="http://www.w3.org/2000/svg">
<path d="M17 2H8C6.89116 1.99955 5.81364 2.36777 4.93696 3.04671C4.06028 3.72566 3.4342 4.6768 3.15723 5.75049C3.09215 6.00705 3.1314 6.27894 3.26638 6.50662C3.40136 6.73429 3.62107 6.8992 3.87739 6.96521C4.13371 7.03123 4.40574 6.99297 4.63391 6.85882C4.86208 6.72467 5.02778 6.50557 5.09473 6.24949C5.26068 5.60528 5.63623 5.0346 6.16222 4.62733C6.68822 4.22006 7.33476 3.99936 8 4H17C17.7954 4.00087 18.5579 4.31722 19.1204 4.87964C19.6828 5.44206 19.9991 6.20462 20 7V17C19.9991 17.7954 19.6828 18.5579 19.1204 19.1204C18.5579 19.6828 17.7954 19.9991 17 20H8C7.33483 20.0006 6.68835 19.78 6.16237 19.3728C5.63638 18.9657 5.26079 18.3951 5.09473 17.751C5.0622 17.6236 5.00487 17.5039 4.92602 17.3986C4.84717 17.2934 4.74835 17.2048 4.63521 17.1378C4.52207 17.0708 4.39683 17.0268 4.26666 17.0082C4.13648 16.9897 4.00393 16.997 3.87659 17.0297C3.74924 17.0625 3.6296 17.12 3.5245 17.199C3.4194 17.278 3.33092 17.377 3.2641 17.4902C3.19729 17.6035 3.15346 17.7288 3.13512 17.859C3.11678 17.9892 3.1243 18.1217 3.15723 18.249C3.43401 19.3228 4.06001 20.2742 4.93672 20.9532C5.81343 21.6323 6.89106 22.0005 8 22H17C18.3256 21.9984 19.5965 21.4712 20.5338 20.5338C21.4712 19.5965 21.9984 18.3256 22 17V7C21.9984 5.6744 21.4712 4.40353 20.5338 3.46619C19.5965 2.52884 18.3256 2.00156 17 2ZM16 8.5C16 7.80777 15.7947 7.13108 15.4101 6.5555C15.0256 5.97993 14.4789 5.53133 13.8394 5.26642C13.1999 5.00152 12.4961 4.9322 11.8172 5.06725C11.1383 5.2023 10.5146 5.53564 10.0251 6.02513C9.53564 6.51461 9.2023 7.13825 9.06725 7.81718C8.9322 8.49612 9.00151 9.19985 9.26642 9.83939C9.53133 10.4789 9.97993 11.0256 10.5555 11.4101C11.1311 11.7947 11.8078 12 12.5 12C13.4279 11.9989 14.3175 11.6298 14.9736 10.9736C15.6298 10.3175 15.9989 9.42791 16 8.5ZM11 8.5C11 8.20333 11.088 7.91332 11.2528 7.66665C11.4176 7.41997 11.6519 7.22771 11.926 7.11418C12.2001 7.00065 12.5017 6.97094 12.7926 7.02882C13.0836 7.0867 13.3509 7.22956 13.5607 7.43934C13.7704 7.64912 13.9133 7.91639 13.9712 8.20736C14.0291 8.49834 13.9994 8.79994 13.8858 9.07403C13.7723 9.34811 13.58 9.58238 13.3334 9.74721C13.0867 9.91203 12.7967 10 12.5 10C12.1023 9.99957 11.721 9.84139 11.4398 9.56018C11.1586 9.27897 11.0004 8.89769 11 8.5ZM7 17.1787V18C7 18.2652 7.10536 18.5196 7.29289 18.7071C7.48043 18.8946 7.73478 19 8 19C8.26522 19 8.51957 18.8946 8.70711 18.7071C8.89464 18.5196 9 18.2652 9 18V17.1787C8.98609 16.6162 9.19563 16.0711 9.58274 15.6628C9.96985 15.2544 10.503 15.0161 11.0654 15H13.9346C14.497 15.0161 15.0301 15.2544 15.4173 15.6628C15.8044 16.0711 16.0139 16.6162 16 17.1787V18C16 18.2652 16.1054 18.5196 16.2929 18.7071C16.4804 18.8946 16.7348 19 17 19C17.2652 19 17.5196 18.8946 17.7071 18.7071C17.8946 18.5196 18 18.2652 18 18V17.1787C18.0134 16.0859 17.593 15.0324 16.8309 14.2491C16.0689 13.4658 15.0273 13.0166 13.9346 13H11.0654C9.9727 13.0166 8.93114 13.4658 8.16906 14.2491C7.40699 15.0324 6.98658 16.0859 7 17.1787ZM3 10H5C5.26522 10 5.51957 9.89464 5.70711 9.70711C5.89464 9.51957 6 9.26522 6 9C6 8.73478 5.89464 8.48043 5.70711 8.29289C5.51957 8.10536 5.26522 8 5 8H3C2.73478 8 2.48043 8.10536 2.29289 8.29289C2.10536 8.48043 2 8.73478 2 9C2 9.26522 2.10536 9.51957 2.29289 9.70711C2.48043 9.89464 2.73478 10 3 10ZM3 13H5C5.26522 13 5.51957 12.8946 5.70711 12.7071C5.89464 12.5196 6 12.2652 6 12C6 11.7348 5.89464 11.4804 5.70711 11.2929C5.51957 11.1054 5.26522 11 5 11H3C2.73478 11 2.48043 11.1054 2.29289 11.2929C2.10536 11.4804 2 11.7348 2 12C2 12.2652 2.10536 12.5196 2.29289 12.7071C2.48043 12.8946 2.73478 13 3 13ZM6 15C6.00007 14.8687 5.97426 14.7386 5.92403 14.6172C5.8738 14.4959 5.80015 14.3856 5.70727 14.2927C5.6144 14.1999 5.50413 14.1262 5.38277 14.076C5.26141 14.0257 5.13134 13.9999 5 14H3C2.73478 14 2.48043 14.1054 2.29289 14.2929C2.10536 14.4804 2 14.7348 2 15C2 15.2652 2.10536 15.5196 2.29289 15.7071C2.48043 15.8946 2.73478 16 3 16H5C5.13134 16.0001 5.26141 15.9743 5.38277 15.924C5.50413 15.8738 5.6144 15.8001 5.70727 15.7073C5.80015 15.6144 5.8738 15.5041 5.92403 15.3828C5.97426 15.2614 6.00007 15.1313 6 15Z" fill="#545454"/>
</svg>
