<svg width="24" height="24" viewBox="0 0 24 24" fill="none" xmlns="http://www.w3.org/2000/svg">
<path d="M17 22H7.99999C5.71728 22 3.72606 20.458 3.1577 18.249C3.02 17.7148 3.34178 17.1689 3.87645 17.0312C4.41405 16.8945 4.95653 17.2158 5.09422 17.751C5.43554 19.0752 6.63036 20 7.99999 20H17C18.6543 20 20 18.6543 20 17V7C20 5.3457 18.6543 4 17 4H7.99999C6.62987 4 5.43505 4.9248 5.09423 6.24902C4.95751 6.78418 4.41405 7.10645 3.87694 6.96826C3.34179 6.83105 3.02001 6.28564 3.1577 5.75098C3.72558 3.54248 5.71679 2 7.99999 2H17C19.7568 2 22 4.24316 22 7V17C22 19.7568 19.7568 22 17 22Z" fill="#545454"/>
<path d="M5 10H3C2.44775 10 2 9.55225 2 9C2 8.44775 2.44775 8 3 8H5C5.55225 8 6 8.44775 6 9C6 9.55225 5.55225 10 5 10Z" fill="#545454"/>
<path d="M3 13H5C5.55225 13 6 12.5522 6 12C6 11.4478 5.55225 11 5 11H3C2.44775 11 2 11.4478 2 12C2 12.5522 2.44775 13 3 13Z" fill="#545454"/>
<path d="M5 16H3C2.44775 16 2 15.5527 2 15C2 14.4473 2.44775 14 3 14H5C5.55225 14 6 14.4473 6 15C6 15.5527 5.55225 16 5 16Z" fill="#545454"/>
<path d="M17.0615 14.0653C17.7329 14.7366 17.7329 15.8251 17.0615 16.4965C16.3902 17.1679 15.3017 17.1679 14.6303 16.4965L11.5983 13.4645C11.5211 13.3873 11.4125 13.3559 11.3044 13.371C10.4402 13.4917 9.52569 13.2153 8.85448 12.544C8.18712 11.8767 7.91002 10.9688 8.02548 10.109L8.14263 9.38105L9.73236 10.9708C9.86642 11.1048 10.0838 11.1048 10.2178 10.9708L11.5358 9.65279C11.6699 9.51873 11.6699 9.30138 11.5358 9.16732L9.94609 7.57759L10.6741 7.46044C11.5338 7.34499 12.4417 7.62209 13.1091 8.28944C13.7803 8.96064 14.0567 9.87518 13.936 10.7393C13.9209 10.8474 13.9523 10.9561 14.0295 11.0332L17.0615 14.0653Z" fill="#545454"/>
</svg>
