<svg width="24" height="24" viewBox="0 0 24 24" fill="none" xmlns="http://www.w3.org/2000/svg">
<path d="M21.1401 14.8501C20.9477 14.8285 20.7531 14.8632 20.5801 14.9501C20.154 14.5875 19.6566 14.3184 19.1201 14.1601C18.3931 13.9445 17.6198 13.94 16.8903 14.1472C16.1608 14.3543 15.5053 14.7646 15.0001 15.3301C14.8224 15.5276 14.7305 15.7877 14.7445 16.0531C14.7586 16.3184 14.8775 16.5674 15.0751 16.7451C15.2727 16.9227 15.5328 17.0147 15.7981 17.0006C16.0635 16.9865 16.3124 16.8676 16.4901 16.6701C16.7421 16.3864 17.0696 16.1804 17.4344 16.0759C17.7992 15.9714 18.1861 15.9729 18.5501 16.0801C18.6809 16.123 18.808 16.1765 18.9301 16.2401C18.8662 16.348 18.8222 16.4666 18.8001 16.5901C18.7803 16.7208 18.7866 16.8542 18.8187 16.9825C18.8509 17.1108 18.9081 17.2314 18.9871 17.3375C19.0662 17.4435 19.1655 17.5328 19.2793 17.6002C19.3931 17.6676 19.5191 17.7117 19.6501 17.7301L20.7001 17.88H20.8401C21.0827 17.8824 21.318 17.7965 21.502 17.6383C21.686 17.4801 21.8061 17.2603 21.8401 17.0201L22.0001 16.0001C22.0213 15.8678 22.0157 15.7326 21.9836 15.6026C21.9516 15.4726 21.8937 15.3503 21.8135 15.243C21.7333 15.1358 21.6324 15.0457 21.5167 14.9782C21.401 14.9107 21.2729 14.8671 21.1401 14.8501ZM19.4801 19.3301C19.2289 19.6118 18.9031 19.8168 18.5403 19.9212C18.1776 20.0256 17.7926 20.0252 17.4301 19.9201C17.306 19.8804 17.1856 19.8302 17.0701 19.7701C17.1307 19.6687 17.1714 19.5567 17.1901 19.4401C17.2272 19.1775 17.1585 18.911 16.9991 18.699C16.8397 18.4871 16.6026 18.3472 16.3401 18.3101L15.3401 18.16C15.2103 18.1382 15.0774 18.1437 14.9499 18.1765C14.8224 18.2092 14.7033 18.2683 14.6001 18.3501C14.3898 18.5071 14.2498 18.7406 14.2101 19L14.0001 20.05C13.9628 20.3111 14.0302 20.5763 14.1875 20.7879C14.3448 20.9996 14.5794 21.1405 14.8401 21.18H15.0001C15.1526 21.1732 15.3023 21.1358 15.4401 21.07C15.8556 21.4136 16.3347 21.6719 16.8501 21.8301C17.2229 21.9433 17.6105 22.0006 18.0001 22C18.5658 22.0031 19.1256 21.8861 19.6428 21.6569C20.1599 21.4276 20.6225 21.0913 21.0001 20.6701C21.1778 20.4725 21.2697 20.2124 21.2556 19.947C21.2416 19.6817 21.1227 19.4327 20.9251 19.2551C20.7275 19.0774 20.4674 18.9854 20.2021 18.9995C19.9367 19.0136 19.6878 19.1325 19.5101 19.3301H19.4801ZM11.2901 19.3301L10.9901 19.6201L10.0601 18.68C10.1094 18.0377 10.0227 17.3922 9.80562 16.7856C9.5885 16.1791 9.24587 15.6252 8.80009 15.1601C8.3445 14.723 7.8015 14.3875 7.20685 14.1755C6.61221 13.9635 5.9794 13.8798 5.35009 13.9301L4.41009 13.0001L13.0001 4.40005L13.9401 5.35005C13.8939 5.98607 13.9823 6.62468 14.1994 7.22428C14.4165 7.82387 14.7574 8.37101 15.2001 8.83005C15.658 9.26319 16.2016 9.59555 16.7958 9.80568C17.39 10.0158 18.0217 10.0991 18.6501 10.0501L19.5801 10.9901L19.2201 11.3601C19.1264 11.453 19.052 11.5636 19.0012 11.6855C18.9504 11.8073 18.9243 11.938 18.9243 12.0701C18.9243 12.2021 18.9504 12.3328 19.0012 12.4546C19.052 12.5765 19.1264 12.6871 19.2201 12.7801C19.4075 12.9663 19.6609 13.0708 19.9251 13.0708C20.1893 13.0708 20.4427 12.9663 20.6301 12.7801L21.7001 11.7001C21.7938 11.6071 21.8682 11.4965 21.919 11.3746C21.9697 11.2528 21.9959 11.1221 21.9959 10.9901C21.9959 10.858 21.9697 10.7273 21.919 10.6055C21.8682 10.4836 21.7938 10.373 21.7001 10.2801L19.7001 8.28005C19.5836 8.16142 19.4394 8.07369 19.2806 8.0248C19.1217 7.97591 18.9531 7.9674 18.7901 8.00005C18.4053 8.08335 18.006 8.07229 17.6264 7.9678C17.2468 7.86332 16.8981 7.66853 16.6101 7.40005C16.3381 7.10796 16.1406 6.75452 16.0344 6.36977C15.9282 5.98502 15.9164 5.58032 16.0001 5.19005C16.034 5.02787 16.0271 4.85981 15.9799 4.70097C15.9328 4.54213 15.847 4.39749 15.7301 4.28005L13.7301 2.28005C13.5427 2.0938 13.2893 1.98926 13.0251 1.98926C12.7609 1.98926 12.5075 2.0938 12.3201 2.28005L2.32009 12.2801C2.13384 12.4674 2.0293 12.7209 2.0293 12.9851C2.0293 13.2492 2.13384 13.5027 2.32009 13.6901L4.32009 15.6901C4.43052 15.8094 4.56838 15.9 4.72172 15.954C4.87506 16.008 5.03926 16.0238 5.20009 16.0001C5.58498 15.9193 5.9836 15.9316 6.36278 16.036C6.74195 16.1403 7.09073 16.3337 7.38009 16.6001C7.65077 16.8891 7.8483 17.2387 7.95616 17.6197C8.06403 18.0007 8.07909 18.402 8.00009 18.7901C7.96619 18.9522 7.97311 19.1203 8.02024 19.2791C8.06737 19.438 8.15322 19.5826 8.27009 19.7001L10.2701 21.7001C10.4547 21.8885 10.7063 21.9963 10.9701 22C11.1024 21.9995 11.2333 21.9727 11.3552 21.9212C11.477 21.8697 11.5875 21.7945 11.6801 21.7001L12.6801 20.7001C12.7848 20.6104 12.8698 20.5001 12.9298 20.376C12.9898 20.252 13.0236 20.1168 13.0289 19.9791C13.0342 19.8414 13.011 19.7041 12.9607 19.5757C12.9105 19.4474 12.8342 19.3309 12.7367 19.2334C12.6393 19.1359 12.5227 19.0597 12.3944 19.0094C12.2661 18.9591 12.1288 18.9359 11.991 18.9413C11.8533 18.9466 11.7182 18.9803 11.5941 19.0403C11.4701 19.1003 11.3597 19.1854 11.2701 19.2901L11.2901 19.3301ZM12.4901 8.53005C12.2277 8.53116 11.9763 8.63531 11.7901 8.82005L8.79009 11.8201C8.69636 11.913 8.62197 12.0236 8.5712 12.1455C8.52043 12.2673 8.49429 12.398 8.49429 12.5301C8.49429 12.6621 8.52043 12.7928 8.5712 12.9146C8.62197 13.0365 8.69636 13.1471 8.79009 13.2401L10.7901 15.2401C10.9775 15.4263 11.2309 15.5308 11.4951 15.5308C11.7593 15.5308 12.0127 15.4263 12.2001 15.2401L15.2001 12.2401C15.2938 12.1471 15.3682 12.0365 15.419 11.9146C15.4697 11.7928 15.4959 11.6621 15.4959 11.5301C15.4959 11.398 15.4697 11.2673 15.419 11.1455C15.3682 11.0236 15.2938 10.913 15.2001 10.8201L13.2001 8.82005C13.11 8.72011 13.0007 8.63938 12.8787 8.58268C12.7567 8.52597 12.6245 8.49447 12.4901 8.49005V8.53005ZM11.4901 13.1201L10.9101 12.5301L12.4901 10.9501L13.0801 11.5301L11.4901 13.1201Z" fill="#545454"/>
</svg>
