<svg width="24" height="24" viewBox="0 0 24 24" fill="none" xmlns="http://www.w3.org/2000/svg">
<path d="M17 6H11C9.6744 6.00156 8.40353 6.52884 7.46618 7.46619C6.52884 8.40353 6.00156 9.6744 6 11V17C6.00156 18.3256 6.52884 19.5965 7.46619 20.5338C8.40353 21.4712 9.6744 21.9984 11 22H17C18.3256 21.9984 19.5965 21.4712 20.5338 20.5338C21.4712 19.5965 21.9984 18.3256 22 17V11C21.9984 9.6744 21.4712 8.40353 20.5338 7.46619C19.5965 6.52884 18.3256 6.00156 17 6ZM20 17C19.9991 17.7954 19.6828 18.5579 19.1204 19.1204C18.5579 19.6828 17.7954 19.9991 17 20H11C10.2046 19.9991 9.44206 19.6828 8.87964 19.1204C8.31722 18.5579 8.00087 17.7954 8 17V11C8.00087 10.2046 8.31722 9.44206 8.87964 8.87964C9.44206 8.31722 10.2046 8.00087 11 8H17C17.7954 8.00087 18.5579 8.31722 19.1204 8.87964C19.6828 9.44206 19.9991 10.2046 20 11V17ZM4 13V7C4.00087 6.20462 4.31722 5.44206 4.87964 4.87964C5.44206 4.31722 6.20462 4.00087 7 4H13C13.7307 3.99997 14.4363 4.26666 14.9844 4.75C15.0828 4.83694 15.1975 4.90361 15.3217 4.94623C15.446 4.98884 15.5774 5.00655 15.7085 4.99834C15.8396 4.99013 15.9678 4.95617 16.0858 4.89839C16.2038 4.84062 16.3092 4.76016 16.3961 4.66163C16.4829 4.56309 16.5495 4.4484 16.592 4.32411C16.6346 4.19983 16.6522 4.06838 16.6439 3.93728C16.6356 3.80619 16.6015 3.67801 16.5436 3.56009C16.4858 3.44216 16.4052 3.33679 16.3066 3.25C15.3936 2.44424 14.2177 1.99972 13 2H7C5.6744 2.00156 4.40353 2.52884 3.46618 3.46618C2.52884 4.40353 2.00156 5.6744 2 7V13C1.99972 14.2177 2.44424 15.3936 3.25 16.3066C3.42541 16.5053 3.67253 16.6262 3.93704 16.6428C4.20156 16.6594 4.46183 16.5702 4.66064 16.3949C4.85946 16.2197 4.98055 15.9727 4.99731 15.7082C5.01406 15.4437 4.92511 15.1833 4.75 14.9844C4.26666 14.4363 3.99997 13.7307 4 13Z" fill="#545454"/>
</svg>
