<svg width="24" height="24" viewBox="0 0 24 24" fill="none" xmlns="http://www.w3.org/2000/svg">
<path d="M21.7065 8.293L15.7065 2.293C15.6137 2.2001 15.5035 2.12641 15.3822 2.07614C15.2609 2.02586 15.1308 1.99999 14.9995 2H6.99951C5.67391 2.00156 4.40304 2.52884 3.4657 3.46618C2.52835 4.40353 2.00107 5.6744 1.99951 7V17C2.00107 18.3256 2.52835 19.5965 3.4657 20.5338C4.40304 21.4712 5.67391 21.9984 6.99951 22H16.9995C18.3251 21.9984 19.596 21.4712 20.5333 20.5338C21.4707 19.5965 21.998 18.3256 21.9995 17V9C21.9995 8.86868 21.9737 8.73865 21.9234 8.61734C21.8731 8.49603 21.7994 8.38581 21.7065 8.293ZM14.9995 4.41409L19.5855 9.00003H17.9995C17.2041 8.99916 16.4415 8.68281 15.8791 8.12039C15.3167 7.55797 15.0003 6.79541 14.9995 6.00003L14.9995 4.41409ZM19.9995 17C19.9986 17.7954 19.6823 18.558 19.1199 19.1204C18.5575 19.6828 17.7949 19.9992 16.9995 20H6.99951C6.20413 19.9992 5.44157 19.6828 4.87915 19.1204C4.31673 18.558 4.00038 17.7954 3.99951 17V7.00003C4.00038 6.20465 4.31673 5.44209 4.87915 4.87967C5.44157 4.31725 6.20413 4.0009 6.99951 4.00003H12.9995V6.00003C13.0011 7.32564 13.5284 8.5965 14.4657 9.53385C15.403 10.4712 16.6739 10.9985 17.9995 11H19.9995V17ZM16.9985 11.998H12.9985V8.99803C12.9986 8.86669 12.9728 8.73662 12.9225 8.61526C12.8723 8.4939 12.7987 8.38363 12.7058 8.29075C12.6129 8.19788 12.5026 8.12422 12.3813 8.074C12.2599 8.02377 12.1299 7.99795 11.9985 7.99803H6.99851C6.86717 7.99795 6.7371 8.02377 6.61574 8.074C6.49438 8.12422 6.38411 8.19788 6.29123 8.29075C6.19836 8.38363 6.1247 8.4939 6.07448 8.61526C6.02425 8.73662 5.99844 8.86669 5.99851 8.99803V16.998C5.99844 17.1294 6.02425 17.2594 6.07448 17.3808C6.12471 17.5022 6.19836 17.6124 6.29124 17.7053C6.38411 17.7982 6.49438 17.8718 6.61574 17.9221C6.7371 17.9723 6.86717 17.9981 6.99851 17.998H16.9985C17.1299 17.9981 17.2599 17.9723 17.3813 17.9221C17.5026 17.8718 17.6129 17.7982 17.7058 17.7053C17.7987 17.6124 17.8723 17.5022 17.9225 17.3808C17.9728 17.2594 17.9986 17.1294 17.9985 16.998V12.998C17.9986 12.8667 17.9728 12.7366 17.9225 12.6153C17.8723 12.4939 17.7986 12.3837 17.7058 12.2908C17.6129 12.1979 17.5026 12.1243 17.3813 12.074C17.2599 12.0238 17.1298 11.998 16.9985 11.9981L16.9985 11.998ZM10.9985 15.998H7.99851V13.998H10.9985V15.998ZM10.9985 11.998H7.99851V9.99803H10.9985V11.998ZM15.9985 15.998H12.9985V13.998H15.9985V15.998Z" fill="#545454"/>
</svg>
