<svg width="24" height="24" viewBox="0 0 24 24" fill="none" xmlns="http://www.w3.org/2000/svg">
<path d="M16 5H3C2.73478 5 2.48043 5.10536 2.29289 5.29289C2.10536 5.48043 2 5.73478 2 6C2 6.26522 2.10536 6.51957 2.29289 6.70711C2.48043 6.89464 2.73478 7 3 7H16C16.2652 7 16.5196 6.89464 16.7071 6.70711C16.8946 6.51957 17 6.26522 17 6C17 5.73478 16.8946 5.48043 16.7071 5.29289C16.5196 5.10536 16.2652 5 16 5ZM3 13H8C8.26522 13 8.51957 12.8946 8.70711 12.7071C8.89464 12.5196 9 12.2652 9 12C9 11.7348 8.89464 11.4804 8.70711 11.2929C8.51957 11.1054 8.26522 11 8 11H3C2.73478 11 2.48043 11.1054 2.29289 11.2929C2.10536 11.4804 2 11.7348 2 12C2 12.2652 2.10536 12.5196 2.29289 12.7071C2.48043 12.8946 2.73478 13 3 13ZM16 17H3C2.73478 17 2.48043 17.1054 2.29289 17.2929C2.10536 17.4804 2 17.7348 2 18C2 18.2652 2.10536 18.5196 2.29289 18.7071C2.48043 18.8946 2.73478 19 3 19H16C16.2652 19 16.5196 18.8946 16.7071 18.7071C16.8946 18.5196 17 18.2652 17 18C17 17.7348 16.8946 17.4804 16.7071 17.2929C16.5196 17.1054 16.2652 17 16 17ZM21 4C20.7348 4 20.4804 4.10536 20.2929 4.29289C20.1054 4.48043 20 4.73478 20 5V19C20 19.2652 20.1054 19.5196 20.2929 19.7071C20.4804 19.8946 20.7348 20 21 20C21.2652 20 21.5196 19.8946 21.7071 19.7071C21.8946 19.5196 22 19.2652 22 19V5C22 4.73478 21.8946 4.48043 21.7071 4.29289C21.5196 4.10536 21.2652 4 21 4ZM12 15C12.1968 15.0036 12.3896 14.944 12.55 14.83L15.55 12.83C15.6876 12.7394 15.8006 12.6162 15.8791 12.4715C15.9576 12.3267 15.9991 12.1647 16 12C15.9991 11.8353 15.9576 11.6733 15.8791 11.5285C15.8006 11.3838 15.6876 11.2606 15.55 11.17L12.55 9.17C12.4024 9.07451 12.2323 9.01961 12.0567 9.01083C11.8811 9.00205 11.7064 9.03971 11.55 9.12C11.3866 9.20232 11.2489 9.32791 11.1519 9.48307C11.0549 9.63824 11.0024 9.81704 11 10V14C11.0005 14.1809 11.05 14.3583 11.1434 14.5133C11.2367 14.6682 11.3703 14.795 11.53 14.88C11.6744 14.958 11.8359 14.9992 12 15Z" fill="#545454"/>
</svg>
