<svg width="24" height="24" viewBox="0 0 24 24" fill="none" xmlns="http://www.w3.org/2000/svg">
<path d="M16 17H3C2.73478 17 2.48043 17.1054 2.29289 17.2929C2.10536 17.4804 2 17.7348 2 18C2 18.2652 2.10536 18.5196 2.29289 18.7071C2.48043 18.8946 2.73478 19 3 19H16C16.2652 19 16.5196 18.8946 16.7071 18.7071C16.8946 18.5196 17 18.2652 17 18C17 17.7348 16.8946 17.4804 16.7071 17.2929C16.5196 17.1054 16.2652 17 16 17ZM16 11H11C10.7348 11 10.4804 11.1054 10.2929 11.2929C10.1054 11.4804 10 11.7348 10 12C10 12.2652 10.1054 12.5196 10.2929 12.7071C10.4804 12.8946 10.7348 13 11 13H16C16.2652 13 16.5196 12.8946 16.7071 12.7071C16.8946 12.5196 17 12.2652 17 12C17 11.7348 16.8946 11.4804 16.7071 11.2929C16.5196 11.1054 16.2652 11 16 11ZM16 5H3C2.73478 5 2.48043 5.10536 2.29289 5.29289C2.10536 5.48043 2 5.73478 2 6C2 6.26522 2.10536 6.51957 2.29289 6.70711C2.48043 6.89464 2.73478 7 3 7H16C16.2652 7 16.5196 6.89464 16.7071 6.70711C16.8946 6.51957 17 6.26522 17 6C17 5.73478 16.8946 5.48043 16.7071 5.29289C16.5196 5.10536 16.2652 5 16 5ZM21 4C20.7348 4 20.4804 4.10536 20.2929 4.29289C20.1054 4.48043 20 4.73478 20 5V19C20 19.2652 20.1054 19.5196 20.2929 19.7071C20.4804 19.8946 20.7348 20 21 20C21.2652 20 21.5196 19.8946 21.7071 19.7071C21.8946 19.5196 22 19.2652 22 19V5C22 4.73478 21.8946 4.48043 21.7071 4.29289C21.5196 4.10536 21.2652 4 21 4ZM6.44 14.83C6.60554 14.9412 6.80056 15.0004 7 15C7.16414 14.9992 7.32556 14.958 7.47 14.88C7.62968 14.795 7.7633 14.6682 7.85664 14.5133C7.94997 14.3583 7.99952 14.1809 8 14V10C8.00027 9.81833 7.95105 9.64002 7.85763 9.48421C7.7642 9.32841 7.63009 9.201 7.46971 9.11567C7.30933 9.03034 7.12873 8.99031 6.94731 8.99988C6.76589 9.00945 6.59051 9.06826 6.44 9.17L3.44 11.17C3.30429 11.2617 3.19319 11.3854 3.11647 11.5301C3.03975 11.6748 2.99975 11.8362 3 12C2.99975 12.1638 3.03975 12.3252 3.11647 12.4699C3.19319 12.6146 3.30429 12.7383 3.44 12.83L6.44 14.83Z" fill="#545454"/>
</svg>
