<svg width="24" height="24" viewBox="0 0 24 24" fill="none" xmlns="http://www.w3.org/2000/svg">
<path d="M11.9775 2C7.16113 2 1.97754 3.25195 1.97754 6V18C1.97754 20.748 7.16113 22 11.9775 22C16.7939 22 21.9775 20.748 21.9775 18V6C21.9775 3.252 16.7939 2 11.9775 2ZM19.9775 12C19.9775 12.5137 17.2265 14 11.9775 14C6.72854 14 3.97754 12.5137 3.97754 12V8.5238C6.50637 9.58761 9.23557 10.0912 11.9775 10C14.7195 10.0912 17.4487 9.58761 19.9775 8.5238V12ZM11.9775 4C17.2265 4 19.9775 5.48633 19.9775 6C19.9775 6.51367 17.2265 8 11.9775 8C6.72854 8 3.97754 6.51367 3.97754 6C3.97754 5.48633 6.72851 4 11.9775 4ZM11.9775 20C6.72854 20 3.97754 18.5137 3.97754 18V14.5238C6.50637 15.5876 9.23557 16.0912 11.9775 16C14.7195 16.0912 17.4487 15.5876 19.9775 14.5238V18C19.9775 18.5137 17.2266 20 11.9775 20Z" fill="#545454"/>
</svg>
