<svg width="24" height="24" viewBox="0 0 24 24" fill="none" xmlns="http://www.w3.org/2000/svg">
<path d="M3 16H3.01" stroke="#545454" stroke-width="2" stroke-linecap="round" stroke-linejoin="round"/>
<path d="M20 10.5C20 9.11929 18.8807 8 17.5 8C16.1193 8 15 9.11929 15 10.5V13.5C15 14.8807 16.1193 16 17.5 16C18.8807 16 20 14.8807 20 13.5V10.5Z" stroke="#545454" stroke-width="2" stroke-linecap="round" stroke-linejoin="round"/>
<path d="M11 10.5C11 9.11929 9.88071 8 8.5 8C7.11929 8 6 9.11929 6 10.5V13.5C6 14.8807 7.11929 16 8.5 16C9.88071 16 11 14.8807 11 13.5V10.5Z" stroke="#545454" stroke-width="2" stroke-linecap="round" stroke-linejoin="round"/>
</svg>
