<svg width="24" height="24" viewBox="0 0 24 24" fill="none" xmlns="http://www.w3.org/2000/svg">
<path fill-rule="evenodd" clip-rule="evenodd" d="M7 9H11V11H6C5.44775 11 5 11.4478 5 12V15H3C2.44775 15 2 15.4473 2 16V21C2 21.5527 2.44775 22 3 22H9C9.55225 22 10 21.5527 10 21V16C10 15.4473 9.55225 15 9 15H7V13H17V15H15C14.4473 15 14 15.4473 14 16V21C14 21.5527 14.4473 22 15 22H21C21.5527 22 22 21.5527 22 21V16C22 15.4473 21.5527 15 21 15H19V12C19 11.4478 18.5527 11 18 11H13V9H17C17.5527 9 18 8.55225 18 8V3C18 2.44775 17.5527 2 17 2H7C6.44775 2 6 2.44775 6 3V8C6 8.55225 6.44775 9 7 9ZM16 7H8V4H16V7ZM4 17V20H8V17H4ZM16 20V17H20V20H16Z" fill="#545454"/>
</svg>
