<svg width="24" height="24" viewBox="0 0 24 24" fill="none" xmlns="http://www.w3.org/2000/svg">
<path d="M12.6 17.4C10.9 18 9 17.6 7.7 16.3C6.4 15 6 13.1 6.6 11.4C6.8 10.9 6.5 10.3 6 10.1C5.5 9.9 5 10.1 4.8 10.6C4 12.7 4.3 15.1 5.7 16.9L2.4 20.2C2 20.6 2 21.2 2.4 21.6C2.5 21.9 2.7 22 3 22C3.3 22 3.5 21.9 3.7 21.7L7.1 18.3C8.3 19.1 9.6 19.6 11 19.6C11.8 19.6 12.6 19.5 13.3 19.2C13.8 19 14.1 18.4 13.9 17.9C13.7 17.4 13.2 17.2 12.6 17.4ZM18.3 13.7C18.5 13.9 18.8 14 19 14C19.2 14 19.5 13.9 19.7 13.7C20.1 13.3 20.1 12.7 19.7 12.3L18.4 11L21.7 7.7C22.1 7.3 22.1 6.7 21.7 6.3C21.3 5.9 20.7 5.9 20.3 6.3L17 9.6L14.4 7L17.7 3.7C18.1 3.3 18.1 2.7 17.7 2.3C17.3 1.9 16.7 1.9 16.3 2.3L13 5.6L11.7 4.3C11.3 3.9 10.7 3.9 10.3 4.3C9.9 4.7 9.9 5.3 10.3 5.7L18.3 13.7ZM3.7 2.3C3.3 1.9 2.7 1.9 2.3 2.3C1.9 2.7 1.9 3.3 2.3 3.7L20.3 21.7C20.5 21.9 20.8 22 21 22C21.2 22 21.5 21.9 21.7 21.7C22.1 21.3 22.1 20.7 21.7 20.3L3.7 2.3Z" fill="#545454"/>
</svg>
