<svg width="24" height="24" viewBox="0 0 24 24" fill="none" xmlns="http://www.w3.org/2000/svg">
<path d="M21.7065 8.293L15.7065 2.293C15.6137 2.2001 15.5035 2.12641 15.3822 2.07614C15.2609 2.02586 15.1308 1.99999 14.9995 2H6.99951C5.67391 2.00156 4.40304 2.52884 3.4657 3.46618C2.52835 4.40353 2.00107 5.6744 1.99951 7V17C2.00107 18.3256 2.52835 19.5965 3.4657 20.5338C4.40304 21.4712 5.67391 21.9984 6.99951 22H16.9995C18.3251 21.9984 19.596 21.4712 20.5333 20.5338C21.4707 19.5965 21.998 18.3256 21.9995 17V9C21.9995 8.86868 21.9737 8.73865 21.9234 8.61734C21.8731 8.49603 21.7994 8.38581 21.7065 8.293ZM14.9995 4.41409L19.5855 9.00003H17.9995C17.2041 8.99916 16.4415 8.68281 15.8791 8.12039C15.3167 7.55797 15.0003 6.79541 14.9995 6.00003L14.9995 4.41409ZM19.9995 17C19.9986 17.7954 19.6823 18.558 19.1199 19.1204C18.5575 19.6828 17.7949 19.9992 16.9995 20H6.99951C6.20413 19.9992 5.44157 19.6828 4.87915 19.1204C4.31673 18.558 4.00038 17.7954 3.99951 17V7.00003C4.00038 6.20465 4.31673 5.44209 4.87915 4.87967C5.44157 4.31725 6.20413 4.0009 6.99951 4.00003H12.9995V6.00003C13.0011 7.32564 13.5284 8.5965 14.4657 9.53385C15.403 10.4712 16.6739 10.9985 17.9995 11H19.9995V17ZM11.8319 12.8545C11.3651 12.8621 10.9109 13.0075 10.5265 13.2724C10.142 13.5373 9.84443 13.9099 9.67105 14.3434C9.49766 14.7769 9.45623 15.252 9.55195 15.7089C9.64767 16.1659 9.87628 16.5844 10.2091 16.9118C10.5419 17.2393 10.964 17.4611 11.4224 17.5494C11.8809 17.6377 12.3552 17.5886 12.7858 17.4083C13.2164 17.2279 13.5842 16.9243 13.8428 16.5357C14.1015 16.147 14.2395 15.6905 14.2396 15.2237C14.2233 14.5938 13.9632 13.9948 13.5141 13.5529C13.065 13.111 12.4619 12.8606 11.8319 12.8545H11.8319ZM11.8319 16.543C11.6621 16.5437 11.4939 16.5095 11.3379 16.4424C11.1818 16.3753 11.0413 16.2768 10.9249 16.153C10.8086 16.0293 10.719 15.8829 10.6617 15.723C10.6044 15.5631 10.5807 15.3931 10.5919 15.2237C10.5814 15.0544 10.6057 14.8847 10.6632 14.7251C10.7208 14.5656 10.8104 14.4195 10.9266 14.2959C11.0428 14.1723 11.183 14.0738 11.3387 14.0064C11.4944 13.9391 11.6622 13.9044 11.8319 13.9044C12.0015 13.9044 12.1693 13.9391 12.325 14.0064C12.4807 14.0738 12.621 14.1723 12.7371 14.2959C12.8533 14.4195 12.9429 14.5656 13.0005 14.7251C13.0581 14.8847 13.0823 15.0544 13.0718 15.2237C13.083 15.3931 13.0592 15.563 13.0018 15.7229C12.9445 15.8827 12.8549 16.0291 12.7386 16.1528C12.6223 16.2766 12.4818 16.3751 12.3258 16.4422C12.1698 16.5093 12.0017 16.5436 11.8319 16.543H11.8319ZM6.89831 12.9805H5.48666C5.35412 12.9806 5.22703 13.0333 5.13335 13.127C5.03968 13.2208 4.98709 13.348 4.98715 13.4805V16.9121C4.98709 17.0447 5.03968 17.1718 5.13335 17.2656C5.22703 17.3594 5.35412 17.4121 5.48666 17.4121H6.89828C7.49509 17.4152 8.06992 17.1871 8.50225 16.7757C8.93458 16.3642 9.19083 15.8014 9.21728 15.2051V15.1876C9.19183 14.591 8.93589 14.0275 8.50334 13.6159C8.0708 13.2042 7.4954 12.9764 6.89828 12.9805H6.89831ZM8.04858 15.2295C8.04962 15.5616 7.92478 15.8817 7.69922 16.1254C7.47365 16.3692 7.16411 16.5184 6.83294 16.543H6.15594V13.8438H6.84463C7.17329 13.8696 7.48003 14.0187 7.70333 14.2612C7.92662 14.5037 8.04994 14.8217 8.04855 15.1514L8.04858 15.2295ZM14.3976 15.1992C14.4256 15.8167 14.6914 16.3994 15.1392 16.8253C15.5871 17.2513 16.1824 17.4875 16.8005 17.4844C17.2502 17.4722 17.689 17.3437 18.0742 17.1115C18.4594 16.8792 18.7778 16.5511 18.9985 16.1592L17.98 15.6787C17.5908 16.2725 17.2493 16.4707 16.8005 16.4707C16.4687 16.4626 16.1532 16.3251 15.9213 16.0875C15.6895 15.8499 15.5597 15.5312 15.5597 15.1992C15.5597 14.8673 15.6895 14.5485 15.9213 14.3109C16.1532 14.0734 16.4687 13.9358 16.8005 13.9277C17.2376 13.9277 17.5732 14.1142 17.9683 14.6836L18.981 14.2041C18.758 13.8202 18.4407 13.4997 18.0591 13.2729C17.6775 13.0461 17.2443 12.9205 16.8005 12.9082C16.1819 12.9066 15.5865 13.144 15.1388 13.5709C14.691 13.9978 14.4255 14.5812 14.3976 15.1993L14.3976 15.1992Z" fill="#545454"/>
</svg>
