<svg width="24" height="24" viewBox="0 0 24 24" fill="none" xmlns="http://www.w3.org/2000/svg">
<path d="M13.49 11H10.49C9.38999 11 8.48999 10.1 8.48999 9C8.48999 7.9 9.38999 7 10.49 7H15.59C16.14 7 16.59 6.55 16.59 6C16.59 5.45 16.14 5 15.59 5H12.99V3C12.99 2.45 12.54 2 11.99 2C11.44 2 10.99 2.45 10.99 3V5H10.49C8.27999 5 6.48999 6.79 6.48999 9C6.48999 11.21 8.27999 13 10.49 13H13.49C14.59 13 15.49 13.9 15.49 15C15.49 16.1 14.59 17 13.49 17H8.38999C7.83999 17 7.38999 17.45 7.38999 18C7.38999 18.55 7.83999 19 8.38999 19H10.99V21C10.99 21.55 11.44 22 11.99 22C12.54 22 12.99 21.55 12.99 21V19H13.49C15.7 19 17.49 17.21 17.49 15C17.49 12.79 15.7 11 13.49 11Z" fill="#545454"/>
</svg>
