<svg width="24" height="24" viewBox="0 0 24 24" fill="none" xmlns="http://www.w3.org/2000/svg">
<path d="M19 19.0012C19 19.2712 18.8796 19.5513 18.6387 19.7413C18.1899 20.1113 17.5002 20.0813 17.0952 19.6713L11.9938 14.4909L6.90338 19.6613C6.49834 20.0713 5.80867 20.1013 5.35983 19.7313C4.911 19.3612 4.87816 18.7312 5.2832 18.3212L11.1947 12.3207C11.3917 12.1207 11.6873 12.0006 11.9938 12.0006C12.3003 12.0006 12.5959 12.1207 12.8039 12.3307L18.7154 18.3312C18.9015 18.5212 19 18.7612 19 19.0012Z" fill="#545454"/>
<path d="M19 11.0006C19 11.2706 18.8796 11.5506 18.6387 11.7406C18.1899 12.1107 17.5002 12.0807 17.0952 11.6706L11.9938 6.5002L6.90338 11.6706C6.49834 12.0807 5.80867 12.1107 5.35983 11.7406C4.911 11.3706 4.87816 10.7405 5.2832 10.3305L11.1947 4.33003C11.3917 4.12001 11.6873 4 11.9938 4C12.3003 4 12.5959 4.12001 12.8039 4.33003L18.7154 10.3305C18.9015 10.5205 19 10.7605 19 11.0006Z" fill="#545454"/>
</svg>
