<svg width="24" height="24" viewBox="0 0 24 24" fill="none" xmlns="http://www.w3.org/2000/svg">
<path d="M19.0012 19C18.7612 19 18.5212 18.9125 18.3312 18.7156L12.3307 12.8087C12.1207 12.6009 12.0006 12.3056 12.0006 11.9993C12.0006 11.693 12.1207 11.3977 12.3307 11.1898L18.3312 5.28298C18.7412 4.87825 19.3712 4.91107 19.7413 5.35955C20.1113 5.80804 20.0813 6.49717 19.6713 6.9019L14.5009 11.9993L19.6713 17.0857C20.0813 17.4905 20.1113 18.1796 19.7413 18.6281C19.5413 18.8797 19.2712 19 19.0012 19Z" fill="#545454"/>
<path d="M11.0006 19C10.7605 19 10.5205 18.9125 10.3305 18.7156L4.33003 12.8087C4.12001 12.6009 4 12.3056 4 11.9993C4 11.693 4.12001 11.3977 4.33003 11.1898L10.3305 5.28298C10.7405 4.87825 11.3706 4.91107 11.7406 5.35955C12.1107 5.80804 12.0807 6.49717 11.6706 6.9019L6.5002 11.9993L11.6706 17.0857C12.0807 17.4905 12.1107 18.1796 11.7406 18.6281C11.5506 18.8797 11.2706 19 11.0006 19Z" fill="#545454"/>
</svg>
