<svg width="24" height="24" viewBox="0 0 24 24" fill="none" xmlns="http://www.w3.org/2000/svg">
<path d="M4.99878 19C4.72876 19 4.44874 18.8796 4.25872 18.6387C3.88869 18.1899 3.91869 17.5002 4.32873 17.0952L9.50915 11.9938L4.33873 6.90338C3.9287 6.49834 3.89869 5.80867 4.26872 5.35983C4.63875 4.911 5.2688 4.87816 5.67884 5.2832L11.6793 11.1947C11.8793 11.3917 11.9994 11.6873 11.9994 11.9938C11.9994 12.3003 11.8793 12.5959 11.6693 12.8039L5.66884 18.7154C5.47882 18.9015 5.2388 19 4.99878 19Z" fill="#545454"/>
<path d="M12.9994 19C12.7294 19 12.4494 18.8796 12.2594 18.6387C11.8893 18.1899 11.9193 17.5002 12.3294 17.0952L17.4998 11.9938L12.3294 6.90338C11.9193 6.49834 11.8893 5.80867 12.2594 5.35983C12.6294 4.911 13.2595 4.87816 13.6695 5.2832L19.67 11.1947C19.88 11.3917 20 11.6873 20 11.9938C20 12.3003 19.88 12.5959 19.67 12.8039L13.6695 18.7154C13.4795 18.9015 13.2395 19 12.9994 19Z" fill="#545454"/>
</svg>
