<svg width="24" height="24" viewBox="0 0 24 24" fill="none" xmlns="http://www.w3.org/2000/svg">
<path d="M5 4.99878C5 4.72876 5.12042 4.44874 5.36126 4.25872C5.81009 3.88869 6.49976 3.91869 6.90481 4.32873L12.0062 9.50915L17.0966 4.33873C17.5017 3.9287 18.1913 3.89869 18.6402 4.26872C19.089 4.63875 19.1218 5.2688 18.7168 5.67884L12.8053 11.6793C12.6083 11.8793 12.3127 11.9994 12.0062 11.9994C11.6997 11.9994 11.4041 11.8793 11.1961 11.6693L5.28462 5.66884C5.09852 5.47882 5 5.2388 5 4.99878Z" fill="#545454"/>
<path d="M5 12.9994C5 12.7294 5.12042 12.4494 5.36126 12.2594C5.81009 11.8893 6.49976 11.9193 6.9048 12.3294L12.0062 17.4998L17.0966 12.3294C17.5017 11.9193 18.1913 11.8893 18.6402 12.2594C19.089 12.6294 19.1218 13.2595 18.7168 13.6695L12.8053 19.67C12.6083 19.88 12.3127 20 12.0062 20C11.6997 20 11.4041 19.88 11.1961 19.67L5.28462 13.6695C5.09852 13.4795 5 13.2395 5 12.9994Z" fill="#545454"/>
</svg>
