<svg width="24" height="24" viewBox="0 0 24 24" fill="none" xmlns="http://www.w3.org/2000/svg">
<path d="M7 18H11C11.5522 18 12 17.5527 12 17C12 16.4473 11.5522 16 11 16H7C5.37402 16 4 15.0332 4 13.8887V6.11133C4 4.9668 5.37402 4 7 4H17C18.626 4 20 4.9668 20 6.11133V10C20 10.5522 20.4473 11 21 11C21.5527 11 22 10.5522 22 10V6.11133C22 3.84424 19.7568 2 17 2H7C4.24316 2 2 3.84424 2 6.11133V13.8887C2 16.1553 4.24316 18 7 18Z" fill="#545454"/>
<path d="M8 9H16C16.5527 9 17 8.55225 17 8C17 7.44775 16.5527 7 16 7H8C7.44775 7 7 7.44775 7 8C7 8.55225 7.44775 9 8 9Z" fill="#545454"/>
<path d="M8 13H16C16.5527 13 17 12.5522 17 12C17 11.4478 16.5527 11 16 11H8C7.44775 11 7 11.4478 7 12C7 12.5522 7.44775 13 8 13Z" fill="#545454"/>
<path d="M21.5727 12.432C21.2977 12.1547 20.9305 12.0008 20.5376 12H20.5344C20.1423 12 19.7735 12.1523 19.497 12.4297L12.7055 19.2211C12.618 19.3086 12.5516 19.4157 12.5125 19.5336L12.0415 20.9469C11.9454 21.2344 12.0204 21.5516 12.2344 21.7656C12.3868 21.918 12.5915 22 12.8 22C12.8844 22 12.9704 21.9867 13.0532 21.9586L14.4664 21.4875C14.5844 21.4484 14.6914 21.382 14.7789 21.2945L21.5704 14.5031C21.8485 14.225 22.0008 13.8554 22.0001 13.4625C21.9993 13.0695 21.8454 12.7023 21.5727 12.432Z" fill="#545454"/>
</svg>
