<svg width="24" height="24" viewBox="0 0 24 24" fill="none" xmlns="http://www.w3.org/2000/svg">
<path d="M19.9993 19.9976H17.9993V15.5982C17.9994 15.4396 17.9617 15.2833 17.8894 15.1421C17.817 15.001 17.7121 14.8792 17.5833 14.7867L13.6527 11.9561L17.6243 8.77881C17.7413 8.68499 17.8358 8.56608 17.9007 8.43086C17.9656 8.29563 17.9993 8.14755 17.9993 7.99756V3.99756H19.9993C20.2645 3.99756 20.5188 3.8922 20.7064 3.70467C20.8939 3.51713 20.9993 3.26278 20.9993 2.99756C20.9993 2.73234 20.8939 2.47799 20.7064 2.29045C20.5188 2.10292 20.2645 1.99756 19.9993 1.99756H3.99927C3.73405 1.99756 3.4797 2.10292 3.29216 2.29045C3.10462 2.47799 2.99927 2.73234 2.99927 2.99756C2.99927 3.26278 3.10462 3.51713 3.29216 3.70467C3.4797 3.8922 3.73405 3.99756 3.99927 3.99756H5.99927V8.39796C5.99916 8.55654 6.03684 8.71287 6.10918 8.854C6.18153 8.99512 6.28645 9.11698 6.41527 9.20948L10.3458 12.0391L6.37427 15.2163C6.25724 15.3101 6.16278 15.429 6.09787 15.5643C6.03296 15.6995 5.99927 15.8476 5.99927 15.9975V19.9975H3.99927C3.73405 19.9975 3.4797 20.1029 3.29216 20.2904C3.10462 20.478 2.99927 20.7323 2.99927 20.9975C2.99927 21.2628 3.10462 21.5171 3.29216 21.7047C3.4797 21.8922 3.73405 21.9975 3.99927 21.9975H19.9993C20.2645 21.9975 20.5188 21.8922 20.7064 21.7047C20.8939 21.5171 20.9993 21.2628 20.9993 20.9975C20.9993 20.7323 20.8939 20.478 20.7064 20.2904C20.5188 20.1029 20.2645 19.9975 19.9993 19.9975V19.9976ZM7.99927 3.99759H15.9993V7.51712L11.967 10.7427L7.99927 7.88529V3.99759ZM7.99927 19.9976V16.4781L12.0315 13.2525L15.9993 16.1099V19.9976H7.99927Z" fill="#545454"/>
</svg>
