<svg width="24" height="24" viewBox="0 0 24 24" fill="none" xmlns="http://www.w3.org/2000/svg">
<path d="M2.99972 21.9981C2.84127 21.9981 2.68508 21.9604 2.54405 21.8882C2.40301 21.8159 2.28116 21.7112 2.18855 21.5827C2.09593 21.4541 2.03521 21.3053 2.01137 21.1487C1.98754 20.992 2.00128 20.832 2.05147 20.6817L4.17159 14.3213C4.22047 14.1741 4.30307 14.0403 4.4128 13.9307L15.1726 3.17092C15.5436 2.79822 15.9848 2.50282 16.4708 2.30183C16.9567 2.10085 17.4777 1.99826 18.0036 2.00002L18.0114 2.00102C19.0677 2.00341 20.08 2.42406 20.8269 3.17094C21.5737 3.91781 21.9944 4.93011 21.9968 5.98635C21.9999 6.5135 21.898 7.03599 21.6972 7.52338C21.4963 8.01077 21.2005 8.45331 20.8269 8.82521L10.0671 19.585C9.95746 19.6947 9.82369 19.7773 9.67647 19.8262L3.31612 21.9463C3.21419 21.9807 3.10731 21.9982 2.99972 21.9981ZM5.99386 15.1778L4.58078 19.417L8.82004 18.0039L19.4128 7.41113C19.5996 7.22495 19.7475 7.00341 19.8478 6.75945C19.948 6.51549 19.9987 6.25399 19.9968 5.99023C19.9956 5.46302 19.7856 4.95775 19.4128 4.58496C19.04 4.21217 18.5347 4.0022 18.0075 4.00098H18.0036C17.7405 3.99976 17.4798 4.05074 17.2366 4.15099C16.9934 4.25123 16.7724 4.39875 16.5866 4.58498L5.99386 15.1778Z" fill="#545454"/>
</svg>
