<svg width="24" height="24" viewBox="0 0 24 24" fill="none" xmlns="http://www.w3.org/2000/svg">
<path d="M12 2C10.0222 2 8.08879 2.58649 6.4443 3.6853C4.79981 4.78412 3.51809 6.3459 2.76121 8.17317C2.00433 10.0004 1.8063 12.0111 2.19215 13.9509C2.578 15.8907 3.53041 17.6725 4.92894 19.0711C6.32746 20.4696 8.10929 21.422 10.0491 21.8079C11.9889 22.1937 13.9996 21.9957 15.8268 21.2388C17.6541 20.4819 19.2159 19.2002 20.3147 17.5557C21.4135 15.9112 22 13.9778 22 12C21.9969 9.34879 20.9423 6.80706 19.0676 4.93237C17.1929 3.05768 14.6512 2.00311 12 2V2ZM12 20C10.4178 20 8.87104 19.5308 7.55544 18.6518C6.23985 17.7727 5.21447 16.5233 4.60897 15.0615C4.00347 13.5997 3.84504 11.9911 4.15372 10.4393C4.4624 8.88743 5.22433 7.46197 6.34315 6.34315C7.46197 5.22433 8.88743 4.4624 10.4393 4.15372C11.9911 3.84504 13.5997 4.00346 15.0615 4.60896C16.5233 5.21446 17.7727 6.23984 18.6518 7.55544C19.5308 8.87103 20 10.4177 20 12C19.9976 14.121 19.1539 16.1544 17.6542 17.6542C16.1544 19.1539 14.121 19.9976 12 20ZM16.123 12.0312C15.8661 11.9664 15.594 12.0056 15.3659 12.1404C15.1378 12.2752 14.9722 12.4947 14.9052 12.751C14.7386 13.3948 14.3629 13.965 13.837 14.3721C13.3111 14.7792 12.665 15 12 15C11.3349 15 10.6888 14.7792 10.1629 14.3721C9.63706 13.965 9.26131 13.3948 9.09468 12.751C9.06215 12.6236 9.00482 12.5038 8.92597 12.3986C8.84712 12.2934 8.7483 12.2048 8.63516 12.1378C8.52202 12.0708 8.39678 12.0268 8.26661 12.0082C8.13644 11.9897 8.00389 11.997 7.87654 12.0297C7.74919 12.0624 7.62955 12.12 7.52445 12.199C7.41936 12.278 7.33087 12.3769 7.26406 12.4902C7.19725 12.6034 7.15342 12.7287 7.13508 12.8589C7.11674 12.9891 7.12425 13.1217 7.15718 13.249C7.43444 14.3226 8.06058 15.2736 8.93718 15.9525C9.81378 16.6315 10.8912 17 12 17C13.1088 17 14.1861 16.6315 15.0627 15.9525C15.9393 15.2736 16.5655 14.3226 16.8427 13.249C16.9087 12.9921 16.8699 12.7195 16.735 12.4911C16.6 12.2628 16.3799 12.0974 16.1231 12.0312H16.123ZM9 10C9.19779 10 9.39113 9.94135 9.55557 9.83147C9.72002 9.72159 9.8482 9.56541 9.92388 9.38268C9.99957 9.19996 10.0194 8.99889 9.98079 8.80491C9.9422 8.61093 9.84696 8.43275 9.70711 8.29289C9.56726 8.15304 9.38908 8.0578 9.19509 8.01921C9.00111 7.98063 8.80005 8.00043 8.61732 8.07612C8.4346 8.15181 8.27842 8.27998 8.16853 8.44443C8.05865 8.60888 8 8.80222 8 9C8 9.26522 8.10536 9.51957 8.2929 9.70711C8.48043 9.89464 8.73479 10 9 10ZM15 10C15.1978 10 15.3911 9.94135 15.5556 9.83147C15.72 9.72159 15.8482 9.56541 15.9239 9.38268C15.9996 9.19996 16.0194 8.99889 15.9808 8.80491C15.9422 8.61093 15.847 8.43275 15.7071 8.29289C15.5673 8.15304 15.3891 8.0578 15.1951 8.01921C15.0011 7.98063 14.8 8.00043 14.6173 8.07612C14.4346 8.15181 14.2784 8.27998 14.1685 8.44443C14.0587 8.60888 14 8.80222 14 9C14 9.26522 14.1054 9.51957 14.2929 9.70711C14.4804 9.89464 14.7348 10 15 10Z" fill="#545454"/>
</svg>
