<svg width="24" height="24" viewBox="0 0 24 24" fill="none" xmlns="http://www.w3.org/2000/svg">
<path d="M20.9999 12C20.8686 11.9999 20.7385 12.0257 20.6172 12.076C20.4958 12.1262 20.3855 12.1999 20.2927 12.2927C20.1998 12.3856 20.1261 12.4959 20.0759 12.6172C20.0257 12.7386 19.9999 12.8687 19.9999 13V17C19.9991 17.7954 19.6827 18.5579 19.1203 19.1204C18.5579 19.6828 17.7953 19.9991 16.9999 20H12.9999V5.7027L17.2411 10.6504C17.4138 10.851 17.659 10.9749 17.923 10.9949C18.1869 11.015 18.448 10.9295 18.649 10.7572C18.8499 10.5849 18.9743 10.34 18.9949 10.0761C19.0155 9.81221 18.9306 9.55094 18.7587 9.34961L12.7592 2.34961C12.7518 2.34089 12.7399 2.33838 12.7322 2.33002C12.6405 2.22628 12.5278 2.14321 12.4016 2.08632C12.2753 2.02942 12.1384 2 12 2C11.8615 2 11.7246 2.02942 11.5984 2.08632C11.4721 2.14321 11.3594 2.22628 11.2677 2.33002C11.26 2.33838 11.2481 2.34089 11.2407 2.34961L5.24073 9.34961C5.06911 9.5511 4.9844 9.81241 5.00515 10.0763C5.0259 10.3401 5.15043 10.585 5.35143 10.7572C5.55244 10.9293 5.81351 11.0148 6.07742 10.9948C6.34133 10.9748 6.58654 10.8509 6.75928 10.6504L11 5.70282V20H7C6.20462 19.9991 5.44206 19.6828 4.87964 19.1204C4.31722 18.5579 4.00087 17.7954 4 17V13C4 12.7348 3.89464 12.4804 3.70711 12.2929C3.51957 12.1054 3.26522 12 3 12C2.73478 12 2.48043 12.1054 2.29289 12.2929C2.10536 12.4804 2 12.7348 2 13V17C2.00156 18.3256 2.52884 19.5965 3.46619 20.5338C4.40353 21.4712 5.6744 21.9984 7 22H17C18.3256 21.9984 19.5965 21.4712 20.5338 20.5338C21.4712 19.5965 21.9984 18.3256 22 17V13C22.0001 12.8687 21.9743 12.7386 21.924 12.6172C21.8738 12.4958 21.8001 12.3856 21.7073 12.2927C21.6144 12.1998 21.5041 12.1262 21.3827 12.0759C21.2614 12.0257 21.1313 11.9999 20.9999 12Z" fill="#545454"/>
</svg>
