<svg width="24" height="24" viewBox="0 0 24 24" fill="none" xmlns="http://www.w3.org/2000/svg">
<path d="M12.8959 16.9594C12.5993 16.9895 12.3014 17.0044 12.0033 17.0043C10.3597 16.9642 8.75791 16.4779 7.36937 15.5975C5.98084 14.7172 4.85782 13.4758 4.1205 12.0063C4.38671 11.5167 4.69103 11.0487 5.03065 10.6069C5.19201 10.3963 5.26312 10.1302 5.22833 9.86726C5.19353 9.60426 5.05569 9.36586 4.84512 9.2045C4.63456 9.04314 4.36851 8.97203 4.10552 9.00683C3.84253 9.04162 3.60412 9.17946 3.44276 9.39003C2.90754 10.0755 2.45244 10.8199 2.08632 11.6088C2.03269 11.7331 2.00502 11.867 2.00502 12.0023C2.00502 12.1377 2.03269 12.2716 2.08632 12.3959C2.20155 12.6664 4.99745 19.0043 12.0033 19.0043C12.3793 19.0043 12.7436 18.9848 13.0971 18.9496C13.361 18.9229 13.6035 18.7925 13.7713 18.587C13.939 18.3815 14.0183 18.1178 13.9916 17.8539C13.9649 17.59 13.8345 17.3475 13.629 17.1797C13.4235 17.0119 13.1598 16.9327 12.8959 16.9594ZM18.2959 16.8828C19.8404 15.6935 21.082 14.1561 21.9194 12.3959C21.973 12.2716 22.0007 12.1377 22.0007 12.0023C22.0007 11.867 21.973 11.7331 21.9194 11.6088C21.8041 11.3392 19.0092 5.00038 12.0034 5.00038C10.4278 4.99362 8.87186 5.35069 7.45686 6.04377L3.70643 2.29335C3.61358 2.2005 3.50336 2.12685 3.38205 2.0766C3.26073 2.02635 3.13071 2.00049 2.9994 2.00049C2.8681 2.00049 2.73807 2.02635 2.61676 2.0766C2.49545 2.12685 2.38522 2.2005 2.29237 2.29335C2.10486 2.48087 1.99951 2.73519 1.99951 3.00038C1.99951 3.26557 2.10486 3.51989 2.29237 3.70741L20.2924 21.7074C20.4799 21.8949 20.7342 22.0003 20.9994 22.0003C21.2646 22.0003 21.5189 21.8949 21.7064 21.7074C21.8939 21.5199 21.9993 21.2656 21.9993 21.0004C21.9993 20.7352 21.8939 20.4809 21.7064 20.2934L18.2959 16.8828ZM16.862 15.4489L14.7006 13.2875C14.9717 12.7301 15.0622 12.102 14.9595 11.4907C14.8569 10.8794 14.5661 10.3154 14.1279 9.87708C13.6896 9.43879 13.1255 9.14807 12.5142 9.04541C11.9029 8.94275 11.2749 9.03326 10.7174 9.30433L8.97316 7.56007C9.93976 7.18718 10.9673 6.99738 12.0033 7.00038C13.6467 7.04047 15.2482 7.52663 16.6366 8.40684C18.025 9.28706 19.1479 10.5282 19.8851 11.9974C19.1416 13.3549 18.1097 14.533 16.862 15.4489Z" fill="#545454"/>
</svg>
