<svg width="24" height="24" viewBox="0 0 24 24" fill="none" xmlns="http://www.w3.org/2000/svg">
<path d="M9.49666 4H13.4941C14.0459 4 14.4941 3.55225 14.4941 3C14.4941 2.44775 14.0459 2 13.4941 2H9.49666C8.94443 2 8.49669 2.44775 8.49669 3C8.49669 3.55225 8.94443 4 9.49666 4Z" fill="#545454"/>
<path d="M11.4951 22C6.80825 22 2.99487 18.1856 2.99487 13.4971C2.99487 8.80811 6.80825 4.99316 11.4951 4.99316C15.5879 4.99316 19.0143 7.9016 19.8178 11.7608L20.2879 11.2905C20.6785 10.8999 21.3113 10.8999 21.7019 11.2905C22.0926 11.6807 22.0926 12.314 21.7019 12.7046L19.703 14.7041C19.5154 14.8916 19.2616 14.9971 18.9959 14.9971C18.7303 14.9971 18.4764 14.8916 18.2889 14.7041L16.29 12.7046C15.8993 12.314 15.8993 11.6807 16.29 11.2905C16.6381 10.9424 17.1786 10.9045 17.5686 11.177C16.6328 8.73291 14.2634 6.99316 11.4951 6.99316C7.91076 6.99316 4.99482 9.91064 4.99482 13.4971C4.99482 17.083 7.91076 20 11.4951 20C13.2998 20 15.038 19.2412 16.2646 17.917C16.6405 17.5117 17.2723 17.4863 17.6776 17.8633C18.0829 18.2383 18.1063 18.8711 17.7313 19.2764C16.1278 21.0068 13.8545 22 11.4951 22Z" fill="#545454"/>
<path d="M11.4119 12.0005C10.6252 12.0464 10.0013 12.699 10.0013 13.4972C10.0013 14.3253 10.6726 14.9965 11.5007 14.9965C12.3287 14.9965 13 14.3253 13 13.4972C13 13.4108 12.9926 13.326 12.9786 13.2436L14.2753 11.6226C14.62 11.1914 14.5497 10.562 14.1191 10.2173C13.6875 9.87159 13.0576 9.94336 12.7134 10.3735L11.4119 12.0005Z" fill="#545454"/>
</svg>
