<svg width="24" height="24" viewBox="0 0 24 24" fill="none" xmlns="http://www.w3.org/2000/svg">
<path d="M7.14 6.19001C6.83 6.19001 6.63 6.29001 6.42 6.50001C6.01 6.29001 5.49 6.19001 5.08 6.19001C3.33 6.19001 2 7.53001 2 9.27001C2 11.01 3.34 12.35 5.08 12.35C5.59 12.35 6.01 12.25 6.42 12.04C6.63 12.25 6.83 12.35 7.14 12.35C7.76 12.35 8.17 11.94 8.17 11.32V7.21001C8.17 6.59001 7.66 6.18001 7.14 6.18001V6.19001ZM5.08 10.2C4.57 10.2 4.05 9.79001 4.05 9.17001C4.05 8.55001 4.46 8.14001 5.08 8.14001C5.7 8.14001 6.11 8.55001 6.11 9.17001C6.11 9.79001 5.6 10.2 5.08 10.2ZM12.28 6.09001C11.87 6.09001 11.56 6.19001 11.25 6.30001V4.04001C11.25 3.42001 10.84 3.01001 10.22 3.01001C9.6 3.01001 9.19 3.42001 9.19 4.04001V11.34C9.19 11.96 9.6 12.37 10.22 12.37C10.53 12.37 10.73 12.27 10.94 12.06C11.35 12.16 11.76 12.27 12.28 12.27C13.92 12.27 15.36 10.93 15.36 9.19001C15.36 7.45001 14.02 6.11001 12.28 6.11001V6.09001ZM12.28 10.3C11.66 10.3 11.25 9.89001 11.25 9.27001C11.25 8.65001 11.76 8.24001 12.28 8.24001C12.8 8.24001 13.31 8.65001 13.31 9.27001C13.31 9.89001 12.9 10.3 12.28 10.3ZM21.64 9.79001C21.23 9.38001 20.61 9.48001 20.2 9.89001C19.99 10.1 19.69 10.2 19.48 10.2C18.97 10.2 18.45 9.79001 18.45 9.17001C18.45 8.55001 18.86 8.14001 19.48 8.14001C19.79 8.14001 19.99 8.24001 20.2 8.45001C20.61 8.86001 21.23 8.86001 21.64 8.45001C22.05 8.04001 22.05 7.42001 21.64 7.01001C21.02 6.50001 20.3 6.19001 19.48 6.19001C17.84 6.19001 16.4 7.53001 16.4 9.27001C16.4 11.01 17.74 12.25 19.48 12.25C20.3 12.25 21.12 11.84 21.74 11.22C22.15 10.81 22.05 10.19 21.64 9.78001V9.79001Z" fill="#545454"/>
<path d="M15.5 21C15.24 21 14.98 20.89 14.79 20.71L11.29 17.21C10.9 16.82 10.9 16.19 11.29 15.8C11.68 15.41 12.31 15.41 12.7 15.8L15.46 18.56L20.25 13.33C20.62 12.92 21.25 12.9 21.66 13.27C22.07 13.64 22.09 14.28 21.72 14.68L16.22 20.68C16.04 20.88 15.78 21 15.5 21Z" fill="#545454"/>
</svg>
