<svg width="24" height="24" viewBox="0 0 24 24" fill="none" xmlns="http://www.w3.org/2000/svg">
<path d="M5.93247 19.9766C4.86579 19.9766 3.86453 19.5605 3.11469 18.8066C1.56471 17.2481 1.56471 14.7119 3.1142 13.1533L12.6074 3.60742C13.6374 2.5708 15.0131 2 16.4796 2C17.9471 2 19.3228 2.5708 20.3529 3.60742C22.4852 5.75049 22.4852 9.23828 20.3529 11.3818L18.0584 13.6895C17.6698 14.081 17.0371 14.082 16.6446 13.6924C16.2531 13.3037 16.2512 12.6704 16.6407 12.2788L18.9352 9.97168C20.2933 8.60547 20.2933 6.3833 18.9352 5.01807C17.6317 3.70508 15.3295 3.70459 14.0251 5.01758L4.53187 14.5635C3.75566 15.3447 3.75566 16.6152 4.53187 17.3965C5.27684 18.1455 6.59004 18.1455 7.33403 17.3965L15.4193 9.26417C15.6107 9.0713 15.6107 8.7461 15.4193 8.55323C15.2953 8.42921 15.1498 8.41065 15.0737 8.41065C14.9975 8.41065 14.852 8.4292 14.728 8.55323L10.8607 12.4424C10.4721 12.8355 9.83841 12.8359 9.44689 12.4463C9.05538 12.0567 9.05342 11.4238 9.44298 11.0322L13.3104 7.14308C14.2496 6.19874 15.8977 6.19874 16.837 7.14308C17.8055 8.1172 17.8055 9.70119 16.837 10.6743L8.75122 18.8067C8.00089 19.5606 6.99963 19.9766 5.93247 19.9766Z" fill="#545454"/>
<path d="M15.8538 22C15.5736 22 15.2943 21.8828 15.0961 21.6533C14.7358 21.2344 14.7827 20.6035 15.2006 20.2422L16.1717 19.4053H12.8974C12.3452 19.4053 11.8976 18.958 11.8976 18.4053C11.8976 17.8525 12.3452 17.4053 12.8974 17.4053H16.1717L15.2006 16.5684C14.7827 16.207 14.7358 15.5762 15.0961 15.1572C15.4584 14.7403 16.0871 14.6934 16.507 15.0528L19.4963 17.6304C19.7206 17.8137 19.8637 18.0926 19.8637 18.4053C19.8637 18.7175 19.721 18.9961 19.4971 19.1795L16.507 21.7578C16.3176 21.9199 16.0852 22 15.8538 22Z" fill="#545454"/>
</svg>
