<svg width="24" height="24" viewBox="0 0 24 24" fill="none" xmlns="http://www.w3.org/2000/svg">
<path d="M3.00659 6H21.0066C21.5593 6 22.0066 5.55225 22.0066 5C22.0066 4.44775 21.5593 4 21.0066 4H3.00659C2.45434 4 2.00659 4.44775 2.00659 5C2.00659 5.55225 2.45435 6 3.00659 6Z" fill="#545454"/>
<path d="M10.0001 16H3.00659C2.45434 16 2.00659 16.4473 2.00659 17C2.00659 17.5527 2.45434 18 3.00659 18H10.0001C10.5523 18 11 17.5527 11 17C11 16.4473 10.5523 16 10.0001 16Z" fill="#545454"/>
<path d="M3.00659 12H14.9999C15.5527 12 15.9999 11.5522 15.9999 11C15.9999 10.4478 15.5527 10 14.9999 10H3.00659C2.45434 10 2.00659 10.4478 2.00659 11C2.00659 11.5522 2.45435 12 3.00659 12Z" fill="#545454"/>
<path d="M20.1696 11H20.1657C19.6755 11 19.2145 11.1904 18.8688 11.5371L13.8797 16.5264C13.7703 16.6357 13.6873 16.7695 13.6385 16.917L13.0496 18.6836C12.9295 19.043 13.0232 19.4394 13.2908 19.707C13.4813 19.8975 13.7371 20 13.9979 20C14.1033 20 14.2108 19.9834 14.3143 19.9482L16.0808 19.3594C16.2283 19.3105 16.3621 19.2275 16.4714 19.1182L21.4606 14.1289C21.8082 13.7812 21.9987 13.3193 21.9977 12.8281C21.9967 12.3369 21.8043 11.8779 21.4635 11.54C21.1198 11.1934 20.6608 11.001 20.1696 11Z" fill="#545454"/>
</svg>
