<svg width="24" height="24" viewBox="0 0 24 24" fill="none" xmlns="http://www.w3.org/2000/svg">
<path d="M20.6665 3.60645L20.6659 3.606L20.6656 3.60551C20.1966 3.1 19.6286 2.69655 18.9968 2.42031C18.3651 2.14408 17.6832 2.001 16.9937 2H6.99365C5.66805 2.00156 4.39718 2.52884 3.45984 3.46618C2.52249 4.40353 1.99521 5.6744 1.99365 7V21C1.99366 21.181 2.0428 21.3586 2.13581 21.5139C2.22883 21.6691 2.36223 21.7962 2.52181 21.8816C2.68139 21.967 2.86115 22.0075 3.04193 21.9988C3.22272 21.99 3.39774 21.9324 3.54833 21.832C4.68497 21.0826 5.92359 20.5008 7.22607 20.1045C7.3538 20.0739 7.47427 20.0186 7.5806 19.9415C7.68693 19.8644 7.77703 19.7671 7.84577 19.6552C7.9145 19.5433 7.96053 19.419 7.98121 19.2893C8.00189 19.1596 7.99682 19.0271 7.9663 18.8994C7.93578 18.7716 7.8804 18.6512 7.80332 18.5449C7.72624 18.4385 7.62897 18.3484 7.51707 18.2797C7.40517 18.2109 7.28082 18.1649 7.15113 18.1442C7.02144 18.1236 6.88895 18.1286 6.76122 18.1591C5.79825 18.4152 4.86919 18.785 3.99365 19.2607V7C3.99452 6.20462 4.31087 5.44206 4.87329 4.87964C5.43571 4.31722 6.19827 4.00087 6.99365 4H16.9937C17.3877 3.99982 17.7779 4.07729 18.1419 4.22799C18.506 4.37869 18.8368 4.59966 19.1154 4.87827C19.394 5.15688 19.615 5.48767 19.7657 5.85173C19.9164 6.21579 19.9938 6.60598 19.9937 7V10C19.9937 10.2652 20.099 10.5196 20.2865 10.7071C20.4741 10.8946 20.7284 11 20.9937 11C21.2589 11 21.5132 10.8946 21.7008 10.7071C21.8883 10.5196 21.9937 10.2652 21.9937 10V7C21.9949 5.74196 21.5209 4.52988 20.6665 3.60645ZM13.894 9C13.3007 9 12.7207 9.17595 12.2273 9.50559C11.734 9.83524 11.3495 10.3038 11.1224 10.8519C10.8953 11.4001 10.8359 12.0033 10.9517 12.5853C11.0674 13.1672 11.3532 13.7018 11.7727 14.1213C12.1923 14.5409 12.7268 14.8266 13.3088 14.9424C13.8907 15.0581 14.4939 14.9987 15.0421 14.7716C15.5903 14.5446 16.0588 14.1601 16.3884 13.6667C16.7181 13.1734 16.894 12.5933 16.894 12C16.8931 11.2047 16.5767 10.4422 16.0143 9.87976C15.4519 9.31736 14.6894 9.00098 13.894 9ZM13.894 13C13.6963 13 13.5029 12.9414 13.3385 12.8315C13.174 12.7216 13.0458 12.5654 12.9702 12.3827C12.8945 12.2 12.8747 11.9989 12.9133 11.8049C12.9518 11.6109 13.0471 11.4327 13.1869 11.2929C13.3268 11.153 13.505 11.0578 13.699 11.0192C13.8929 10.9806 14.094 11.0004 14.2767 11.0761C14.4595 11.1518 14.6156 11.28 14.7255 11.4444C14.8354 11.6089 14.894 11.8022 14.894 12C14.8938 12.2651 14.7883 12.5193 14.6008 12.7068C14.4134 12.8943 14.1592 12.9997 13.894 13ZM17.894 14C17.6288 14 17.3745 14.1054 17.1869 14.2929C16.9994 14.4804 16.894 14.7348 16.894 15C16.894 15.2652 16.9994 15.5196 17.1869 15.7071C17.3745 15.8946 17.6288 16 17.894 16C18.2942 15.9999 18.6885 15.9037 19.0438 15.7196C19.399 15.5355 19.705 15.2689 19.9358 14.942C20.1667 14.6152 20.3158 14.2377 20.3705 13.8414C20.4253 13.445 20.3841 13.0412 20.2505 12.6641L20.2451 12.6551C20.0316 12.0558 19.5967 11.561 19.0298 11.2725C18.7937 11.1528 18.5197 11.1315 18.268 11.2134C18.0162 11.2953 17.8072 11.4737 17.6868 11.7094C17.5663 11.9452 17.5443 12.219 17.6254 12.471C17.7065 12.723 17.8843 12.9326 18.1196 13.0537C18.2335 13.1119 18.321 13.211 18.3647 13.3311L18.3651 13.3318L18.3657 13.336C18.3845 13.3886 18.3941 13.4441 18.394 13.5C18.3938 13.6326 18.341 13.7596 18.2473 13.8533C18.1536 13.947 18.0266 13.9997 17.894 14ZM14.894 16H12.8936C11.9656 16.0011 11.0761 16.3702 10.4199 17.0264C9.76378 17.6825 9.39467 18.5721 9.39355 19.5V20C9.39355 20.2652 9.49891 20.5196 9.68644 20.7071C9.87398 20.8946 10.1283 21 10.3936 21C10.6588 21 10.9131 20.8946 11.1007 20.7071C11.2882 20.5196 11.3936 20.2652 11.3936 20V19.5C11.394 19.1023 11.5522 18.721 11.8334 18.4398C12.1146 18.1586 12.4959 18.0004 12.8936 18H14.894C15.2917 18.0004 15.673 18.1586 15.9542 18.4398C16.2354 18.721 16.3936 19.1023 16.394 19.5V20C16.394 20.2652 16.4994 20.5196 16.6869 20.7071C16.8745 20.8946 17.1288 21 17.394 21C17.6593 21 17.9136 20.8946 18.1011 20.7071C18.2887 20.5196 18.394 20.2652 18.394 20V19.5C18.3929 18.5721 18.0238 17.6825 17.3677 17.0264C16.7115 16.3702 15.822 16.0011 14.894 16ZM20.7954 17.2012C20.5835 17.0416 20.317 16.9728 20.0543 17.0098C19.7917 17.0468 19.5546 17.1866 19.395 17.3984C19.2355 17.6103 19.1666 17.8769 19.2036 18.1395C19.2406 18.4021 19.3804 18.6393 19.5923 18.7988C19.7171 18.8917 19.8184 19.0125 19.8881 19.1515C19.9578 19.2906 19.994 19.4441 19.9937 19.5996V20C19.9937 20.2652 20.099 20.5196 20.2865 20.7071C20.4741 20.8946 20.7284 21 20.9937 21C21.2589 21 21.5132 20.8946 21.7008 20.7071C21.8883 20.5196 21.9937 20.2652 21.9937 20V19.5996C21.9954 19.134 21.8879 18.6744 21.6798 18.2579C21.4717 17.8413 21.1688 17.4794 20.7954 17.2012Z" fill="#545454"/>
</svg>
