<svg width="24" height="24" viewBox="0 0 24 24" fill="none" xmlns="http://www.w3.org/2000/svg">
<path d="M3.36032 8.771L11.2656 11.7036C11.7583 11.8849 12.2995 11.8846 12.792 11.7026L20.663 8.7827C21.0528 8.65094 21.3913 8.4003 21.6312 8.06606C21.871 7.73182 22 7.3308 22 6.91942C22 6.50804 21.871 6.10702 21.6312 5.77278C21.3913 5.43854 21.0528 5.1879 20.663 5.05614L12.791 2.13623C12.2981 1.95459 11.7566 1.95459 11.2636 2.13623L3.35934 5.06787C2.97254 5.19934 2.63663 5.44865 2.39878 5.7808C2.16092 6.11295 2.03308 6.51126 2.03319 6.91979C2.0333 7.32833 2.16136 7.72656 2.39939 8.05859C2.63742 8.39061 2.97347 8.63974 3.36034 8.771H3.36032ZM11.957 4.01221C11.9798 4.00359 12.0039 3.99928 12.0283 3.99952C12.0516 3.99927 12.0748 4.00324 12.0967 4.01123L20.0117 6.88428C19.9986 6.89474 19.9836 6.90269 19.9676 6.90772L12.0976 9.82764C12.0527 9.84327 12.0039 9.84327 11.959 9.82764L4.05563 6.94287L11.957 4.01221ZM21 9.91944C20.8687 9.91936 20.7386 9.94518 20.6172 9.99541C20.4959 10.0456 20.3856 10.1193 20.2927 10.2122C20.1998 10.305 20.1262 10.4153 20.076 10.5367C20.0257 10.658 19.9999 10.7881 20 10.9194V11.269L12 14.8247L4 11.27V10.9194C4 10.6542 3.89464 10.3999 3.70711 10.2123C3.51957 10.0248 3.26522 9.91944 3 9.91944C2.73478 9.91944 2.48043 10.0248 2.29289 10.2123C2.10536 10.3999 2 10.6542 2 10.9194V11.27C2.00023 11.6568 2.11251 12.0351 2.32326 12.3594C2.534 12.6837 2.83419 12.9399 3.1875 13.0972L11.5938 16.8335C11.7217 16.8902 11.8601 16.9194 12 16.9194C12.1399 16.9194 12.2783 16.8902 12.4062 16.8335L20.8115 13.0972C21.1651 12.9401 21.4655 12.684 21.6764 12.3597C21.8874 12.0354 21.9998 11.6569 22 11.27V10.9194C22.0001 10.7881 21.9743 10.658 21.924 10.5367C21.8738 10.4153 21.8001 10.305 21.7073 10.2122C21.6144 10.1193 21.5041 10.0456 21.3828 9.9954C21.2614 9.94517 21.1313 9.91936 21 9.91944H21ZM21 14.9194C20.8687 14.9194 20.7386 14.9452 20.6172 14.9954C20.4959 15.0456 20.3856 15.1193 20.2927 15.2122C20.1998 15.305 20.1262 15.4153 20.076 15.5367C20.0257 15.658 19.9999 15.7881 20 15.9194V16.2691L12 19.8247L4 16.27V15.9194C4 15.6542 3.89464 15.3999 3.70711 15.2123C3.51957 15.0248 3.26522 14.9194 3 14.9194C2.73478 14.9194 2.48043 15.0248 2.29289 15.2123C2.10536 15.3999 2 15.6542 2 15.9194V16.27C2.00023 16.6567 2.11251 17.0351 2.32326 17.3594C2.534 17.6837 2.83419 17.9399 3.1875 18.0972L11.5938 21.8335C11.7217 21.8902 11.8601 21.9194 12 21.9194C12.1399 21.9194 12.2783 21.8902 12.4062 21.8335L20.8115 18.0972C21.1651 17.9401 21.4655 17.684 21.6764 17.3597C21.8874 17.0354 21.9998 16.6569 22 16.27V15.9194C22.0001 15.7881 21.9743 15.658 21.924 15.5367C21.8738 15.4153 21.8001 15.305 21.7073 15.2122C21.6144 15.1193 21.5041 15.0456 21.3828 14.9954C21.2614 14.9452 21.1313 14.9194 21 14.9194H21Z" fill="#545454"/>
</svg>
