<svg width="24" height="24" viewBox="0 0 24 24" fill="none" xmlns="http://www.w3.org/2000/svg">
<path fill-rule="evenodd" clip-rule="evenodd" d="M5.83189 11.008C4.17462 11.008 2.82645 9.66129 2.82645 8.00645C2.82645 6.35161 4.17463 5.00537 5.83189 5.00537C7.48915 5.00537 8.83733 6.35161 8.83733 8.00645C8.83733 9.66129 7.48916 11.008 5.83189 11.008ZM5.83189 7.00544C5.27768 7.00544 4.82649 7.45467 4.82649 8.00645C4.82649 8.55872 5.27767 9.00795 5.83189 9.00795C6.38611 9.00795 6.83729 8.55872 6.83729 8.00645C6.83729 7.45468 6.3861 7.00544 5.83189 7.00544Z" fill="#545454"/>
<path fill-rule="evenodd" clip-rule="evenodd" d="M15.1622 8.00645C15.1622 9.66129 16.5109 11.008 18.1681 11.008C19.8254 11.008 21.1731 9.66129 21.1731 8.00645C21.1731 6.35161 19.8254 5.00537 18.1681 5.00537C16.5109 5.00537 15.1622 6.35161 15.1622 8.00645ZM17.1623 8.00645C17.1623 7.45467 17.6134 7.00544 18.1681 7.00544C18.7218 7.00544 19.173 7.45468 19.173 8.00645C19.173 8.55872 18.7218 9.00795 18.1681 9.00795C17.6134 9.00795 17.1623 8.55872 17.1623 8.00645Z" fill="#545454"/>
<path fill-rule="evenodd" clip-rule="evenodd" d="M8.99457 9.50651C8.99457 11.1614 10.3427 12.5076 12 12.5076C13.6573 12.5076 15.005 11.1614 15.005 9.50651C15.005 7.85167 13.6573 6.50494 12 6.50494C10.3427 6.50494 8.99457 7.85167 8.99457 9.50651ZM10.9946 9.5065C10.9946 8.95423 11.4458 8.505 12 8.505C12.5542 8.505 13.0049 8.95424 13.0049 9.5065C13.0049 10.0583 12.5542 10.5075 12 10.5075C11.4458 10.5075 10.9946 10.0583 10.9946 9.5065Z" fill="#545454"/>
<path d="M14.9854 18.0053C14.9854 18.5581 15.4327 19.0054 15.9854 19.0054C16.5382 19.0054 16.9855 18.5581 16.9855 18.0053V16.9594C16.9855 16.0556 16.6665 15.2255 16.1358 14.5772C16.3155 14.2302 16.6704 14.0003 17.0509 14.0003H18.9601C19.5324 14.0003 19.9973 14.4876 19.9973 15.0873V16.1576C19.9973 16.7104 20.4445 17.1576 20.9973 17.1576C21.55 17.1576 21.9973 16.7104 21.9973 16.1576V15.0873C21.9973 13.3851 20.635 12.0002 18.9601 12.0002H17.0509C15.9967 12.0002 15.044 12.5481 14.495 13.4201C14.1083 13.2829 13.6926 13.2083 13.2598 13.2083H10.708C10.2791 13.2083 9.86687 13.2816 9.4831 13.4165C8.94016 12.5573 7.98409 12.0081 6.92224 12.0081H5.02424C3.35525 12.0081 1.99731 13.3626 1.99731 15.0267V16.0619C1.99731 16.6147 2.44507 17.0619 2.99733 17.0619C3.54959 17.0619 3.99735 16.6147 3.99736 16.0619V15.0267C3.99736 14.4652 4.45782 14.0081 5.02424 14.0081H6.92224C7.30943 14.0081 7.66531 14.2347 7.83856 14.5697C7.30427 15.2191 6.98279 16.0521 6.98279 16.9594V18.0053C6.98279 18.5581 7.43056 19.0054 7.98281 19.0054C8.53506 19.0054 8.98283 18.5581 8.98283 18.0053V16.9594C8.98283 15.9935 9.75678 15.2084 10.708 15.2084H13.2598C14.211 15.2084 14.9854 15.9935 14.9854 16.9594V18.0053Z" fill="#545454"/>
</svg>
