<svg width="24" height="24" viewBox="0 0 24 24" fill="none" xmlns="http://www.w3.org/2000/svg">
<path d="M12.0005 6.99951C11.4742 7.00038 10.9574 7.13926 10.5016 7.40229C10.0458 7.66532 9.66691 8.0433 9.40283 8.49851C9.26997 8.72799 9.2337 9.00084 9.30201 9.25706C9.37032 9.51327 9.53762 9.73185 9.76709 9.86472C9.99657 9.99759 10.2694 10.0339 10.5256 9.96554C10.7819 9.89723 11.0004 9.72994 11.1333 9.50046C11.2209 9.34823 11.347 9.22174 11.499 9.13371C11.651 9.04569 11.8235 8.99923 11.9991 8.99902C12.1747 8.99881 12.3473 9.04485 12.4995 9.13251C12.6517 9.22017 12.7781 9.34635 12.8661 9.49838C12.954 9.6504 13.0004 9.82291 13.0005 9.99854C13.0006 10.1742 12.9545 10.3467 12.8668 10.4989C12.779 10.651 12.6528 10.7774 12.5007 10.8653C12.3486 10.9531 12.1761 10.9994 12.0005 10.9995C11.8691 10.9994 11.7391 11.0252 11.6177 11.0754C11.4964 11.1257 11.3861 11.1993 11.2932 11.2922C11.2003 11.3851 11.1267 11.4953 11.0765 11.6167C11.0262 11.738 11.0004 11.8681 11.0005 11.9995V12.9995C11.0005 13.2647 11.1058 13.519 11.2934 13.7066C11.4809 13.8941 11.7353 13.9995 12.0005 13.9995C12.2657 13.9995 12.5201 13.8941 12.7076 13.7066C12.8951 13.519 13.0005 13.2647 13.0005 12.9995V12.8286C13.6677 12.5926 14.2301 12.1284 14.5881 11.5179C14.9462 10.9075 15.077 10.1901 14.9573 9.49254C14.8376 8.795 14.4753 8.16222 13.9342 7.70601C13.3931 7.24981 12.7082 6.99955 12.0005 6.99946V6.99951ZM12.0001 16C11.8023 16 11.609 16.0586 11.4445 16.1685C11.2801 16.2784 11.1519 16.4346 11.0762 16.6173C11.0005 16.8 10.9807 17.0011 11.0193 17.1951C11.0579 17.3891 11.1531 17.5672 11.293 17.7071C11.4328 17.847 11.611 17.9422 11.805 17.9808C11.999 18.0194 12.2001 17.9996 12.3828 17.9239C12.5655 17.8482 12.7217 17.72 12.8316 17.5556C12.9414 17.3911 13.0001 17.1978 13.0001 17C13.0001 16.7348 12.8947 16.4804 12.7072 16.2929C12.5197 16.1053 12.2653 16 12.0001 16ZM12.0005 1.99951C10.0227 1.99951 8.08928 2.586 6.44479 3.68482C4.8003 4.78363 3.51857 6.34542 2.7617 8.17268C2.00482 9.99994 1.80679 12.0106 2.19264 13.9504C2.57849 15.8902 3.5309 17.6721 4.92943 19.0706C6.32795 20.4691 8.10978 21.4215 10.0496 21.8074C11.9894 22.1932 14.0001 21.9952 15.8273 21.2383C17.6546 20.4814 19.2164 19.1997 20.3152 17.5552C21.414 15.9107 22.0005 13.9773 22.0005 11.9995C21.9974 9.3483 20.9428 6.80657 19.0681 4.93188C17.1934 3.0572 14.6517 2.00263 12.0005 1.99951ZM12.0005 19.9995C10.4182 19.9995 8.87152 19.5303 7.55593 18.6513C6.24034 17.7722 5.21496 16.5228 4.60946 15.061C4.00396 13.5992 3.84553 11.9906 4.15421 10.4388C4.46289 8.88694 5.22482 7.46148 6.34364 6.34266C7.46246 5.22384 8.88792 4.46191 10.4398 4.15323C11.9916 3.84455 13.6002 4.00297 15.062 4.60848C16.5238 5.21398 17.7732 6.23936 18.6523 7.55495C19.5313 8.87054 20.0005 10.4173 20.0005 11.9995C19.9981 14.1205 19.1544 16.1539 17.6547 17.6537C16.1549 19.1535 14.1215 19.9971 12.0005 19.9995Z" fill="#545454"/>
</svg>
