<svg width="24" height="24" viewBox="0 0 24 24" fill="none" xmlns="http://www.w3.org/2000/svg">
<path d="M5.04916 8.29774C5.39163 5.87213 7.48146 4 10 4C12.4526 4 14.5264 5.75195 14.9307 8.16504C15.0215 8.70899 15.5351 9.07276 16.082 8.98633C16.6269 8.89502 16.9941 8.37939 16.9033 7.83496C16.3369 4.45361 13.4336 2 10 2C6.395 2 3.41782 4.73915 3.04037 8.24552C2.42079 8.58568 2 9.2445 2 10C2 11.103 2.89697 12 4 12C5.10303 12 6 11.103 6 10C6 9.28149 5.6194 8.65042 5.04916 8.29774Z" fill="#545454"/>
<path fill-rule="evenodd" clip-rule="evenodd" d="M6 9C6 11.2056 7.79443 13 10 13C12.2056 13 14 11.2056 14 9C14 6.79443 12.2056 5 10 5C7.79443 5 6 6.79443 6 9ZM8 9C8 7.89697 8.89697 7 10 7C11.103 7 12 7.89697 12 9C12 10.103 11.103 11 10 11C8.89697 11 8 10.103 8 9Z" fill="#545454"/>
<path d="M2 21C2 21.5527 2.44775 22 3 22C3.55225 22 4 21.5527 4 21V20C4 17.7939 5.79443 16 8 16H12C12.5522 16 13 15.5527 13 15C13 14.4473 12.5522 14 12 14H8C4.69141 14 2 16.6914 2 20V21Z" fill="#545454"/>
<path d="M17.5 22C16.9473 22 16.5 21.5527 16.5 21V18.5H14C13.4473 18.5 13 18.0527 13 17.5C13 16.9473 13.4473 16.5 14 16.5H16.5V14C16.5 13.4473 16.9473 13 17.5 13C18.0527 13 18.5 13.4473 18.5 14V16.5H21C21.5527 16.5 22 16.9473 22 17.5C22 18.0527 21.5527 18.5 21 18.5H18.5V21C18.5 21.5527 18.0527 22 17.5 22Z" fill="#545454"/>
</svg>
