<svg width="24" height="24" viewBox="0 0 24 24" fill="none" xmlns="http://www.w3.org/2000/svg">
<path d="M12.9984 3C10.8402 3.00371 8.75516 3.78233 7.12279 5.1941C5.49042 6.60587 4.41932 8.55691 4.10449 10.692L3.70549 10.293C3.51785 10.1061 3.26373 10.0013 2.9989 10.0016C2.73407 10.0018 2.48016 10.1071 2.29289 10.2944C2.10562 10.4817 2.00028 10.7356 2 11.0004C1.99972 11.2652 2.10451 11.5193 2.29138 11.707L4.29138 13.707C4.38421 13.7999 4.49443 13.8736 4.61575 13.9238C4.73706 13.9741 4.8671 14 4.99841 14C5.12973 14 5.25976 13.9741 5.38108 13.9238C5.50239 13.8736 5.61262 13.7999 5.70545 13.707L7.70545 11.707C7.79916 11.6143 7.87364 11.5041 7.92459 11.3825C7.97554 11.261 8.00196 11.1306 8.00233 10.9988C8.00271 10.867 7.97702 10.7364 7.92676 10.6146C7.8765 10.4928 7.80265 10.3821 7.70946 10.2889C7.61627 10.1957 7.50558 10.1219 7.38375 10.0716C7.26192 10.0214 7.13136 9.9957 6.99957 9.99608C6.86778 9.99646 6.73737 10.0229 6.61583 10.0738C6.4943 10.1248 6.38403 10.1993 6.29138 10.293L6.1922 10.3922C6.54519 8.90388 7.37635 7.57235 8.55837 6.60154C9.74039 5.63074 11.2081 5.07421 12.7366 5.0172C14.2651 4.9602 15.7702 5.40586 17.0212 6.28593C18.2723 7.16599 19.2003 8.43192 19.6632 9.88979C20.126 11.3477 20.0982 12.9171 19.5839 14.3576C19.0697 15.7982 18.0973 17.0304 16.8158 17.8655C15.5344 18.7007 14.0145 19.0927 12.4889 18.9815C10.9634 18.8703 9.51636 18.2621 8.36951 17.25C8.1706 17.0744 7.91007 16.985 7.64525 17.0015C7.38043 17.018 7.133 17.139 6.9574 17.3379C6.7818 17.5368 6.6924 17.7973 6.70889 18.0621C6.72537 18.327 6.84638 18.5744 7.04529 18.75C8.13744 19.7132 9.44701 20.397 10.8616 20.7428C12.2762 21.0885 13.7535 21.0858 15.1668 20.735C16.5802 20.3841 17.8872 19.6955 18.9759 18.7284C20.0645 17.7612 20.9022 16.5443 21.4171 15.1821C21.932 13.82 22.1086 12.3532 21.9319 10.9078C21.7551 9.46231 21.2303 8.08133 20.4024 6.88334C19.5745 5.68535 18.4683 4.70614 17.1787 4.02976C15.8891 3.35337 14.4546 3.00001 12.9984 3ZM12.9984 7C12.8671 6.99992 12.737 7.02574 12.6156 7.07597C12.4943 7.12619 12.384 7.19985 12.2911 7.29272C12.1983 7.3856 12.1246 7.49587 12.0744 7.61723C12.0242 7.73859 11.9983 7.86866 11.9984 8V12C11.9983 12.1313 12.0242 12.2614 12.0744 12.3828C12.1246 12.5041 12.1983 12.6144 12.2911 12.7073C12.384 12.8002 12.4943 12.8738 12.6156 12.924C12.737 12.9743 12.8671 13.0001 12.9984 13H16.9984C17.2636 13 17.518 12.8946 17.7055 12.7071C17.8931 12.5196 17.9984 12.2652 17.9984 12C17.9984 11.7348 17.8931 11.4804 17.7055 11.2929C17.518 11.1054 17.2636 11 16.9984 11H13.9984V8C13.9985 7.86866 13.9727 7.73859 13.9225 7.61723C13.8722 7.49587 13.7986 7.3856 13.7057 7.29273C13.6128 7.19985 13.5026 7.1262 13.3812 7.07597C13.2598 7.02574 13.1298 6.99993 12.9984 7Z" fill="#545454"/>
</svg>
