<svg width="24" height="24" viewBox="0 0 24 24" fill="none" xmlns="http://www.w3.org/2000/svg">
<path d="M21.5547 8.16846L12.5547 2.16846C12.3905 2.05863 12.1975 2 12 2C11.8025 2 11.6095 2.05863 11.4453 2.16846L2.44531 8.16846C2.30835 8.25979 2.19605 8.38352 2.11837 8.52866C2.04068 8.6738 2.00003 8.83587 2 9.0005V17.0005C2.00156 18.3261 2.52884 19.597 3.46619 20.5343C4.40353 21.4717 5.6744 21.9989 7 22.0005H17C18.3256 21.9989 19.5965 21.4717 20.5338 20.5343C21.4712 19.597 21.9984 18.3261 22 17.0005V9.0005C22 8.83587 21.9593 8.6738 21.8816 8.52866C21.804 8.38352 21.6917 8.25979 21.5547 8.16846ZM10 20.0005V14.0005H14V20.0005H10ZM20 17.0005C19.9991 17.7959 19.6828 18.5584 19.1204 19.1209C18.5579 19.6833 17.7954 19.9996 17 20.0005H16V13.0005C16.0001 12.8692 15.9743 12.7391 15.924 12.6177C15.8738 12.4964 15.8002 12.3861 15.7073 12.2932C15.6144 12.2003 15.5041 12.1267 15.3828 12.0765C15.2614 12.0262 15.1313 12.0004 15 12.0005H9C8.86866 12.0004 8.73859 12.0262 8.61723 12.0765C8.49587 12.1267 8.3856 12.2003 8.29272 12.2932C8.19985 12.3861 8.12619 12.4964 8.07596 12.6177C8.02574 12.7391 7.99992 12.8692 8 13.0005V20.0005H7C6.20462 19.9996 5.44206 19.6833 4.87964 19.1209C4.31722 18.5584 4.00087 17.7959 4 17.0005V9.53565L12 4.20265L20 9.53565V17.0005Z" fill="#545454"/>
</svg>
