<svg width="24" height="24" viewBox="0 0 24 24" fill="none" xmlns="http://www.w3.org/2000/svg">
<path d="M17 2H7C5.6744 2.00156 4.40353 2.52884 3.46618 3.46618C2.52884 4.40353 2.00156 5.6744 2 7V17C2 17.0385 2.0105 17.074 2.01135 17.1123C2.01318 17.1283 2.01355 17.1435 2.01611 17.1594C2.0568 18.4551 2.59937 19.6842 3.52928 20.5874C4.45919 21.4906 5.70367 21.9971 7 22H17C18.3256 21.9984 19.5965 21.4712 20.5338 20.5338C21.4712 19.5965 21.9984 18.3256 22 17V7C21.9984 5.6744 21.4712 4.40353 20.5338 3.46618C19.5965 2.52884 18.3256 2.00156 17 2ZM17 20H7C6.25733 19.9977 5.54203 19.7194 4.99309 19.2191C4.44415 18.7189 4.10077 18.0325 4.02966 17.2932L9.041 10.6118L13.2314 15.6406C13.3896 15.8301 13.6122 15.9544 13.8564 15.9897C14.1006 16.025 14.3493 15.9689 14.5547 15.832L16.873 14.2871L19.962 17.376C19.872 18.0988 19.5215 18.7641 18.9763 19.2471C18.4311 19.7301 17.7284 19.9978 17 20ZM20 14.5859L17.707 12.2929C17.5435 12.1295 17.3285 12.0278 17.0985 12.005C16.8685 11.9822 16.6376 12.0398 16.4453 12.1679L14.1933 13.6699L9.76855 8.35986C9.6734 8.2422 9.55205 8.14842 9.4142 8.08602C9.27634 8.02362 9.1258 7.99433 8.97461 8.00049C8.82376 8.00431 8.67572 8.04223 8.54161 8.1114C8.40749 8.18057 8.29077 8.2792 8.2002 8.3999L4 14.0005V7C4.00087 6.20462 4.31722 5.44206 4.87964 4.87964C5.44206 4.31722 6.20462 4.00087 7 4H17C17.7954 4.00087 18.5579 4.31722 19.1204 4.87964C19.6828 5.44206 19.9991 6.20462 20 7V14.5859ZM16 5C15.4067 5 14.8266 5.17595 14.3333 5.50559C13.8399 5.83524 13.4554 6.30377 13.2284 6.85195C13.0013 7.40013 12.9419 8.00333 13.0576 8.58527C13.1734 9.16721 13.4591 9.70176 13.8787 10.1213C14.2982 10.5409 14.8328 10.8266 15.4147 10.9424C15.9967 11.0581 16.5999 10.9987 17.1481 10.7716C17.6962 10.5446 18.1648 10.1601 18.4944 9.66671C18.8241 9.17336 19 8.59334 19 8C18.9991 7.20462 18.6828 6.44206 18.1204 5.87964C17.5579 5.31722 16.7954 5.00087 16 5ZM16 9C15.8022 9 15.6089 8.94135 15.4444 8.83147C15.28 8.72159 15.1518 8.56541 15.0761 8.38268C15.0004 8.19996 14.9806 7.99889 15.0192 7.80491C15.0578 7.61093 15.153 7.43275 15.2929 7.29289C15.4327 7.15304 15.6109 7.0578 15.8049 7.01921C15.9989 6.98063 16.2 7.00043 16.3827 7.07612C16.5654 7.15181 16.7216 7.27998 16.8315 7.44443C16.9414 7.60888 17 7.80222 17 8C16.9997 8.26514 16.8943 8.51934 16.7068 8.70681C16.5193 8.89429 16.2651 8.99974 16 9Z" fill="#545454"/>
</svg>
