<svg width="24" height="24" viewBox="0 0 24 24" fill="none" xmlns="http://www.w3.org/2000/svg">
<path d="M11.2412 17.6504C11.2487 17.6591 11.2604 17.6623 11.2681 17.6707C11.3386 17.7435 11.4199 17.805 11.5091 17.8531C11.5368 17.874 11.5656 17.8934 11.5954 17.9113C11.7223 17.9697 11.8603 18 12 18C12.1397 18 12.2778 17.9697 12.4046 17.9112C12.4342 17.8934 12.4629 17.8741 12.4904 17.8533C12.5798 17.8052 12.6613 17.7436 12.7319 17.6707C12.7397 17.6623 12.7513 17.6591 12.7588 17.6504L18.7588 10.6504C18.8442 10.5507 18.9091 10.4353 18.9499 10.3105C18.9907 10.1858 19.0065 10.0542 18.9964 9.92335C18.9863 9.7925 18.9506 9.6649 18.8912 9.54786C18.8319 9.43082 18.75 9.32662 18.6504 9.24121C18.5507 9.1558 18.4352 9.09085 18.3105 9.05008C18.1857 9.0093 18.0542 8.99349 17.9233 9.00356C17.659 9.02389 17.4137 9.14837 17.2412 9.34961L13 14.2973V3C13 2.73478 12.8946 2.48043 12.7071 2.29289C12.5196 2.10536 12.2652 2 12 2C11.7348 2 11.4804 2.10536 11.2929 2.29289C11.1054 2.48043 11 2.73478 11 3V14.2973L6.75879 9.34961C6.5863 9.14837 6.34092 9.02389 6.07665 9.00356C5.81238 8.98323 5.55085 9.06872 5.34961 9.24121C5.14837 9.4137 5.02389 9.65908 5.00356 9.92335C4.98323 10.1876 5.06872 10.4491 5.24121 10.6504L11.2412 17.6504ZM21 12C20.8687 11.9999 20.7386 12.0257 20.6172 12.076C20.4959 12.1262 20.3856 12.1999 20.2927 12.2927C20.1999 12.3856 20.1262 12.4959 20.076 12.6172C20.0257 12.7386 19.9999 12.8687 20 13V17C19.9991 17.7954 19.6828 18.5579 19.1204 19.1204C18.5579 19.6828 17.7954 19.9991 17 20H7C6.20462 19.9991 5.44206 19.6828 4.87964 19.1204C4.31722 18.5579 4.00087 17.7954 4 17V13C4 12.7348 3.89464 12.4804 3.70711 12.2929C3.51957 12.1054 3.26522 12 3 12C2.73478 12 2.48043 12.1054 2.29289 12.2929C2.10536 12.4804 2 12.7348 2 13V17C2.00156 18.3256 2.52884 19.5965 3.46618 20.5338C4.40353 21.4712 5.6744 21.9984 7 22H17C18.3256 21.9984 19.5965 21.4712 20.5338 20.5338C21.4712 19.5965 21.9984 18.3256 22 17V13C22.0001 12.8687 21.9743 12.7386 21.924 12.6172C21.8738 12.4959 21.8001 12.3856 21.7073 12.2927C21.6144 12.1999 21.5041 12.1262 21.3828 12.076C21.2614 12.0257 21.1313 11.9999 21 12Z" fill="#545454"/>
</svg>
