<svg width="24" height="24" viewBox="0 0 24 24" fill="none" xmlns="http://www.w3.org/2000/svg">
<path d="M12.6479 9.94433L12.6516 9.94434C13.9473 9.94634 15 11.0007 15 12.2964C15 13.4838 14.1165 14.4679 12.9722 14.6262V15C12.9722 15.5527 12.5244 16 11.9722 16C11.4199 16 10.9722 15.5527 10.9722 15V14.6484H10.3501C9.79785 14.6484 9.3501 14.2012 9.3501 13.6484C9.3501 13.0957 9.79785 12.6484 10.3501 12.6484H12.6479C12.8389 12.6484 13 12.4873 13 12.2964C13 12.1055 12.8389 11.9443 12.6479 11.9443L11.2932 11.9443C9.99775 11.9426 8.94434 10.8886 8.94434 9.59277C8.94434 8.40588 9.82814 7.42142 10.9722 7.26299V6.88867C10.9722 6.33642 11.4199 5.88867 11.9722 5.88867C12.5244 5.88867 12.9722 6.33642 12.9722 6.88867V7.24072H13.5947C14.1475 7.24072 14.5947 7.68847 14.5947 8.24072C14.5947 8.79297 14.1475 9.24072 13.5947 9.24072H11.2964C11.1055 9.24072 10.9443 9.40185 10.9443 9.59277C10.9443 9.7832 11.1055 9.94433 11.2964 9.94433H12.6479Z" fill="#545454"/>
<path fill-rule="evenodd" clip-rule="evenodd" d="M3 22C2.83789 22 2.67578 21.9609 2.52783 21.8809C2.20312 21.707 2 21.3682 2 21V7C2 4.24316 4.24316 2 7 2H17C19.7568 2 22 4.24316 22 7V15C22 17.7568 19.7568 20 17 20H8C6.61328 20 4.3208 21.3223 3.5542 21.832C3.38721 21.9434 3.19385 22 3 22ZM7 4C5.3457 4 4 5.3457 4 7V19.2559C5.13867 18.6611 6.6958 18 8 18H17C18.6543 18 20 16.6543 20 15V7C20 5.3457 18.6543 4 17 4H7Z" fill="#545454"/>
</svg>
