<svg width="24" height="24" viewBox="0 0 24 24" fill="none" xmlns="http://www.w3.org/2000/svg">
<path d="M21.6816 11.9707L19.9102 7.24414C19.5496 6.29305 18.909 5.47375 18.0729 4.89451C17.2368 4.31527 16.2447 4.00336 15.2275 4H8.77246C7.75534 4.00336 6.76318 4.31527 5.9271 4.89451C5.09102 5.47375 4.45038 6.29305 4.08984 7.24414V7.24514L2.31934 11.9688C2.10751 12.5302 1.99931 13.1255 2 13.7256V15C2.00156 16.3256 2.52885 17.5965 3.46619 18.5338C4.40354 19.4712 5.6744 19.9984 7 20H17C18.3256 19.9984 19.5965 19.4712 20.5338 18.5338C21.4712 17.5965 21.9984 16.3256 22 15V13.7256C22.0007 13.1262 21.8929 12.5316 21.6816 11.9707ZM5.96289 7.94628C6.17921 7.37564 6.5636 6.88408 7.06525 6.53657C7.5669 6.18906 8.1622 6.00196 8.77246 6H15.2275C15.8378 6.00182 16.4332 6.18886 16.9349 6.53639C17.4366 6.88392 17.8209 7.37556 18.0371 7.94628L19.557 12H15C14.8143 12 14.6322 12.0517 14.4743 12.1494C14.3163 12.247 14.1886 12.3866 14.1055 12.5527L13.3818 14H10.6182L9.89453 12.5527C9.81143 12.3866 9.68374 12.247 9.52575 12.1494C9.36776 12.0517 9.18572 12 9 12H4.4433L5.96289 7.94628ZM20 15C19.9991 15.7954 19.6828 16.5579 19.1204 17.1204C18.5579 17.6828 17.7954 17.9991 17 18H7C6.20462 17.9991 5.44206 17.6828 4.87964 17.1204C4.31722 16.5579 4.00087 15.7954 4 15V14H8.38184L9.10547 15.4473C9.18858 15.6133 9.31627 15.753 9.47426 15.8506C9.63225 15.9483 9.81429 16 10 16H14C14.1857 16 14.3678 15.9483 14.5257 15.8506C14.6837 15.753 14.8114 15.6133 14.8945 15.4473L15.6182 14H20V15Z" fill="#545454"/>
</svg>
