<svg width="24" height="24" viewBox="0 0 24 24" fill="none" xmlns="http://www.w3.org/2000/svg">
<path d="M20.9949 18.999H13.9949C13.9949 18.8677 13.9691 18.7376 13.9189 18.6163C13.8687 18.4949 13.795 18.3846 13.7021 18.2917C13.6093 18.1989 13.499 18.1252 13.3776 18.075C13.2563 18.0248 13.1262 17.9989 12.9949 17.999H10.9949C10.8635 17.9989 10.7335 18.0248 10.6121 18.075C10.4907 18.1252 10.3805 18.1989 10.2876 18.2917C10.1947 18.3846 10.1211 18.4949 10.0708 18.6163C10.0206 18.7376 9.9948 18.8677 9.99487 18.999H2.99487C2.72966 18.999 2.4753 19.1044 2.28777 19.2919C2.10023 19.4795 1.99487 19.7338 1.99487 19.999C1.99487 20.2642 2.10023 20.5186 2.28777 20.7061C2.4753 20.8937 2.72966 20.999 2.99487 20.999H9.99487C9.9948 21.1304 10.0206 21.2604 10.0708 21.3818C10.1211 21.5032 10.1947 21.6134 10.2876 21.7063C10.3805 21.7992 10.4907 21.8728 10.6121 21.9231C10.7335 21.9733 10.8635 21.9991 10.9949 21.999H12.9949C13.1262 21.9991 13.2563 21.9733 13.3776 21.9231C13.499 21.8728 13.6093 21.7992 13.7021 21.7063C13.795 21.6134 13.8687 21.5032 13.9189 21.3818C13.9691 21.2604 13.9949 21.1304 13.9949 20.999H20.9949C21.2601 20.999 21.5144 20.8937 21.702 20.7061C21.8895 20.5186 21.9949 20.2642 21.9949 19.999C21.9949 19.7338 21.8895 19.4795 21.702 19.2919C21.5144 19.1044 21.2601 18.999 20.9949 18.999ZM8.99487 16.999H14.9949C16.3205 16.9975 17.5913 16.4702 18.5287 15.5328C19.466 14.5955 19.9933 13.3246 19.9949 11.999V6.99902C19.9933 5.67342 19.466 4.40255 18.5287 3.46521C17.5913 2.52786 16.3205 2.00058 14.9949 1.99902H8.99487C7.66927 2.00058 6.3984 2.52786 5.46106 3.46521C4.52371 4.40255 3.99643 5.67342 3.99487 6.99902V11.999C3.99643 13.3246 4.52372 14.5955 5.46106 15.5328C6.3984 16.4702 7.66927 16.9975 8.99487 16.999ZM5.99487 6.99902C5.99574 6.20364 6.31209 5.44108 6.87451 4.87866C7.43693 4.31624 8.19949 3.99989 8.99487 3.99902H14.9949C15.7903 3.99989 16.5528 4.31624 17.1152 4.87866C17.6777 5.44108 17.994 6.20364 17.9949 6.99902V11.999C17.994 12.7944 17.6777 13.557 17.1152 14.1194C16.5528 14.6818 15.7903 14.9982 14.9949 14.999H8.99487C8.19949 14.9982 7.43693 14.6818 6.87451 14.1194C6.31209 13.557 5.99574 12.7944 5.99487 11.999V6.99902Z" fill="#545454"/>
</svg>
