<svg width="24" height="24" viewBox="0 0 24 24" fill="none" xmlns="http://www.w3.org/2000/svg">
<path d="M20.0015 1.99951H7.00146C6.73625 1.99951 6.48189 2.10487 6.29436 2.29241C6.10682 2.47994 6.00146 2.7343 6.00146 2.99951C6.00146 3.26473 6.10682 3.51908 6.29436 3.70662C6.48189 3.89416 6.73625 3.99951 7.00146 3.99951H12.7549L9.19983 19.9995H4.00146C3.73625 19.9995 3.48189 20.1049 3.29436 20.2924C3.10682 20.4799 3.00146 20.7343 3.00146 20.9995C3.00146 21.2647 3.10682 21.5191 3.29436 21.7066C3.48189 21.8942 3.73625 21.9995 4.00146 21.9995H9.9843L10.0024 22.0015L10.0138 21.9995H17.0015C17.2667 21.9995 17.521 21.8942 17.7086 21.7066C17.8961 21.5191 18.0015 21.2647 18.0015 20.9995C18.0015 20.7343 17.8961 20.4799 17.7086 20.2924C17.521 20.1049 17.2667 19.9995 17.0015 19.9995H11.2484L14.8044 3.99951H20.0015C20.2667 3.99951 20.5211 3.89416 20.7086 3.70662C20.8961 3.51908 21.0015 3.26473 21.0015 2.99951C21.0015 2.7343 20.8961 2.47994 20.7086 2.29241C20.5211 2.10487 20.2667 1.99951 20.0015 1.99951H20.0015Z" fill="#545454"/>
</svg>
