<svg width="24" height="24" viewBox="0 0 24 24" fill="none" xmlns="http://www.w3.org/2000/svg">
<path d="M21.1103 2.09571C20.501 2.02931 15.0635 1.50196 12.415 3.87111C12.266 4.01316 12.1273 4.16569 12 4.32753C11.8727 4.16569 11.734 4.01316 11.585 3.87111C8.93848 1.50192 3.501 2.02931 2.88965 2.09571C2.64501 2.1229 2.41899 2.23935 2.25484 2.42277C2.0907 2.6062 1.99996 2.84371 2 3.08986V19.0899C1.99993 19.2212 2.02574 19.3513 2.07597 19.4726C2.1262 19.594 2.19985 19.7043 2.29273 19.7971C2.3856 19.89 2.49587 19.9637 2.61723 20.0139C2.73859 20.0641 2.86866 20.0899 3 20.0899H8C8.60136 20.0347 9.20656 20.1407 9.75338 20.397C10.3002 20.6532 10.7689 21.0504 11.1113 21.5479C11.1346 21.5862 11.1605 21.6228 11.1888 21.6576C11.2032 21.6778 11.2153 21.6987 11.2313 21.7178C11.3238 21.833 11.4407 21.9261 11.5737 21.9905C11.7067 22.0548 11.8523 22.0888 12 22.0899C12.0772 22.0898 12.1542 22.0809 12.2295 22.0635C12.3856 22.0224 12.5293 21.9435 12.6478 21.8337C12.6819 21.8067 12.7142 21.7774 12.7444 21.7462C12.7741 21.711 12.8013 21.6737 12.8257 21.6347C12.8479 21.6076 12.8686 21.5792 12.8877 21.5498C13.2296 21.0514 13.6983 20.6534 14.2454 20.3967C14.7925 20.1401 15.3982 20.0341 16 20.0899H21C21.1313 20.0899 21.2614 20.0641 21.3828 20.0139C21.5041 19.9637 21.6144 19.89 21.7073 19.7971C21.8001 19.7043 21.8738 19.594 21.924 19.4726C21.9743 19.3513 22.0001 19.2212 22 19.0899V3.08986C22 2.84371 21.9093 2.6062 21.7452 2.42277C21.581 2.23935 21.355 2.1229 21.1103 2.09571ZM8 18.0899H4V4.02052C5.79395 3.94435 8.84766 4.10252 10.2529 5.36232C10.4993 5.57562 10.6944 5.8417 10.8237 6.14079C10.9531 6.43988 11.0133 6.76428 11 7.08986V18.8096C10.078 18.3171 9.04509 18.0693 8 18.0899ZM20 18.0899H16C14.9549 18.0693 13.922 18.3171 13 18.8096V7.08986C12.9867 6.76428 13.0469 6.43988 13.1763 6.14079C13.3056 5.8417 13.5007 5.57562 13.7471 5.36232C14.9717 4.26466 17.4492 4.00592 19.2529 4.00592C19.5185 4.00592 19.7695 4.0108 20 4.02057V18.0899Z" fill="#545454"/>
</svg>
