<svg width="24" height="24" viewBox="0 0 24 24" fill="none" xmlns="http://www.w3.org/2000/svg">
<path fill-rule="evenodd" clip-rule="evenodd" d="M12.2179 2.00836C12.2094 2.00885 12.2009 2.00784 12.1925 2.00683C12.1829 2.00569 12.1733 2.00454 12.1637 2.00561C12.139 2.00524 12.1146 2.00349 12.0902 2.00174C12.0628 1.99977 12.0354 1.9978 12.0074 1.9978C11.9792 1.9978 11.9514 1.99946 11.9236 2.00111C11.8996 2.00254 11.8757 2.00397 11.8514 2.00433C11.8439 2.0035 11.8364 2.00432 11.829 2.00514C11.8223 2.00589 11.8156 2.00663 11.8088 2.00616C7.14113 2.09448 3.18316 5.25987 2.14569 9.77349C2.02216 10.3121 2.35809 10.8487 2.89617 10.9722C3.43718 11.0962 3.97087 10.7603 4.09489 10.2217C4.17588 9.86907 4.28575 9.53027 4.40977 9.19941C5.49143 9.90142 7.00893 10.4404 8.78821 10.7367C9.82433 10.9095 10.919 10.9976 12.0401 10.9976C12.7119 10.9976 13.3658 10.9561 14.0053 10.8941L14.0107 10.9962C14.0278 11.3234 14.045 11.6507 14.045 11.9976C14.045 12.6411 14.0157 13.2822 13.9581 13.9033C13.941 14.0885 13.9901 14.2581 14.0645 14.4149C14.1411 14.8166 14.4523 15.1479 14.879 15.2167C16.4772 15.4737 17.8315 15.9466 18.6793 16.5327C17.9131 17.6275 16.8786 18.5459 15.6104 19.1668C15.1153 19.41 14.9102 20.0096 15.1524 20.5056C15.3263 20.8592 15.6817 21.0652 16.0518 21.0652C16.1993 21.0652 16.3497 21.033 16.4913 20.9636C19.9629 19.2625 22.1201 15.8271 22.1201 11.9976C22.1201 6.55378 17.6967 2.1206 12.2179 2.00836ZM18.6754 7.45262C17.9811 7.93869 16.9752 8.33132 15.7788 8.59926C15.5235 6.98303 15.0854 5.54971 14.5079 4.39087C16.2142 4.93773 17.6728 6.02688 18.6754 7.45262ZM9.49895 4.38867C8.92919 5.53317 8.4942 6.96057 8.23675 8.58657C7.02894 8.30777 6.01729 7.90177 5.34682 7.42193C6.35189 5.99142 7.80598 4.92449 9.49895 4.38867ZM12.0401 8.99763C11.4155 8.99763 10.808 8.95729 10.2112 8.89784C10.5404 6.82392 11.1997 5.0778 12.0011 4.14222C12.739 5.00017 13.4536 6.64314 13.8097 8.90706C13.2352 8.96199 12.6453 8.99763 12.0401 8.99763ZM15.982 13.3874C15.9867 13.3097 15.9916 13.2322 15.9965 13.1546C16.0207 12.7711 16.045 12.3876 16.045 11.9976C16.045 11.5214 16.0241 11.0555 15.9958 10.5946C17.4246 10.2922 18.678 9.83293 19.6135 9.24139C19.9354 10.1022 20.1201 11.0279 20.1201 11.9976C20.1201 12.9619 19.9308 13.8876 19.6087 14.7562C18.6755 14.1644 17.434 13.6915 15.982 13.3874Z" fill="#545454"/>
<path fill-rule="evenodd" clip-rule="evenodd" d="M5.91599 18.5168L7.48165 14.6975H8.40023L9.96614 18.5168H8.88564L8.50466 17.584H7.37215L6.99117 18.5168H5.91599ZM7.94104 16.2077L7.71126 16.7643H8.17065L7.94104 16.2077Z" fill="#545454"/>
<path fill-rule="evenodd" clip-rule="evenodd" d="M10.191 11.998H5.69107C4.14714 11.998 2.8908 13.2441 2.8908 14.7753V20.9978C2.8908 21.366 3.09295 21.7039 3.41667 21.8787C3.56511 21.9578 3.72819 21.9978 3.89079 21.9978C4.08317 21.9978 4.27458 21.9421 4.44108 21.8328C4.90201 21.5291 5.74917 21.1082 6.14077 21.1082H10.191C11.735 21.1082 12.9913 19.8621 12.9913 18.3309V14.7753C12.9913 13.2441 11.735 11.998 10.191 11.998ZM10.9913 18.3309C10.9913 18.7596 10.6324 19.1082 10.191 19.1082H6.14077C5.73501 19.1082 5.298 19.2195 4.89078 19.3699V14.7753C4.89078 14.3466 5.24966 13.998 5.69107 13.998H10.191C10.6324 13.998 10.9913 14.3466 10.9913 14.7753L10.9913 18.3309Z" fill="#545454"/>
</svg>
