<svg width="24" height="24" viewBox="0 0 24 24" fill="none" xmlns="http://www.w3.org/2000/svg">
<path d="M19.66 15.0001H16.34C16.22 15.0001 16.11 15.0001 16 15.0001V12.3401C16 11.7194 15.7535 11.1243 15.3146 10.6854C14.8758 10.2466 14.2806 10.0001 13.66 10.0001H10.34C9.71939 10.0001 9.12421 10.2466 8.68537 10.6854C8.24654 11.1243 8 11.7194 8 12.3401V13.0001C7.89 13.0001 7.78 13.0001 7.66 13.0001H4.34C3.71939 13.0001 3.12421 13.2466 2.68537 13.6854C2.24654 14.1243 2 14.7194 2 15.3401V21.0001C2 21.2653 2.10536 21.5196 2.29289 21.7072C2.48043 21.8947 2.73478 22.0001 3 22.0001H21C21.2652 22.0001 21.5196 21.8947 21.7071 21.7072C21.8946 21.5196 22 21.2653 22 21.0001V17.3401C22 16.7194 21.7535 16.1243 21.3146 15.6854C20.8758 15.2466 20.2806 15.0001 19.66 15.0001ZM8 20.0001H4V15.3401C4 15.2499 4.03582 15.1634 4.09958 15.0996C4.16335 15.0359 4.24983 15.0001 4.34 15.0001H7.66C7.75017 15.0001 7.83665 15.0359 7.90042 15.0996C7.96418 15.1634 8 15.2499 8 15.3401V20.0001ZM14 17.3401V20.0001H10V12.3401C10 12.2499 10.0358 12.1634 10.0996 12.0996C10.1633 12.0359 10.2498 12.0001 10.34 12.0001H13.66C13.7502 12.0001 13.8367 12.0359 13.9004 12.0996C13.9642 12.1634 14 12.2499 14 12.3401V17.3401ZM20 20.0001H16V17.3401C16 17.2499 16.0358 17.1634 16.0996 17.0996C16.1633 17.0359 16.2498 17.0001 16.34 17.0001H19.66C19.7502 17.0001 19.8367 17.0359 19.9004 17.0996C19.9642 17.1634 20 17.2499 20 17.3401V20.0001ZM9.59 6.69005L9.31 8.38005C9.289 8.50822 9.30406 8.63969 9.35351 8.75978C9.40296 8.87987 9.48484 8.98384 9.59 9.06005C9.69119 9.13896 9.81318 9.18667 9.94106 9.19732C10.0689 9.20798 10.1971 9.18113 10.31 9.12005L12 8.28005L13.69 9.12005C13.805 9.17958 13.9345 9.20552 14.0636 9.19491C14.1927 9.1843 14.3162 9.13757 14.42 9.06005C14.5225 8.98189 14.6018 8.8773 14.6493 8.75751C14.6969 8.63771 14.711 8.50723 14.69 8.38005L14.41 6.69005L15.55 5.27005C15.6246 5.17335 15.673 5.05905 15.6905 4.93817C15.708 4.8173 15.6941 4.69395 15.65 4.58005C15.6062 4.46596 15.5334 4.36531 15.4386 4.28812C15.3439 4.21092 15.2306 4.15988 15.11 4.14005L13.47 3.87005L12.63 2.19005C12.572 2.07261 12.4822 1.97381 12.3708 1.90486C12.2595 1.83592 12.131 1.79961 12 1.80005C11.8693 1.80075 11.7413 1.83754 11.6301 1.90635C11.5189 1.97517 11.4289 2.07334 11.37 2.19005L10.53 3.87005L8.89 4.14005C8.76942 4.15988 8.65612 4.21092 8.56139 4.28812C8.46665 4.36531 8.39377 4.46596 8.35 4.58005C8.30526 4.69445 8.29187 4.81871 8.31121 4.94001C8.33054 5.0613 8.38191 5.17524 8.46 5.27005L9.59 6.69005ZM11.12 5.19005C11.2287 5.17073 11.3314 5.12632 11.4199 5.06035C11.5085 4.99439 11.5804 4.90868 11.63 4.81005L12 4.07005L12.37 4.81005C12.4196 4.90868 12.4915 4.99439 12.5801 5.06035C12.6686 5.12632 12.7713 5.17073 12.88 5.19005L13.71 5.33005L13.12 6.06005C13.0578 6.13608 13.0123 6.22433 12.9865 6.31909C12.9606 6.41385 12.955 6.51298 12.97 6.61005L13.08 7.26005L12.31 6.87005C12.2141 6.82091 12.1078 6.79528 12 6.79528C11.8922 6.79528 11.7859 6.82091 11.69 6.87005L10.92 7.26005L11.02 6.61005C11.039 6.51374 11.0364 6.41438 11.0121 6.31924C10.9879 6.22409 10.9428 6.13554 10.88 6.06005L10.29 5.33005L11.12 5.19005Z" fill="#545454"/>
</svg>
