<svg width="24" height="24" viewBox="0 0 24 24" fill="none" xmlns="http://www.w3.org/2000/svg">
<path d="M19.7789 2.83575C18.6747 2.10294 17.3252 1.83742 16.0257 2.09731C14.7262 2.35721 13.5826 3.12134 12.8453 4.22246L12.0299 5.44507C11.8858 5.66575 11.8347 5.93437 11.8877 6.19253C11.9406 6.45068 12.0933 6.67751 12.3126 6.82369C12.5318 6.96988 12.7999 7.0236 13.0586 6.97318C13.3173 6.92277 13.5456 6.77228 13.6939 6.55445L14.5093 5.33175C14.9518 4.67234 15.6376 4.21524 16.4165 4.06066C17.1954 3.90608 18.0038 4.06663 18.6646 4.50711C19.3253 4.94759 19.7844 5.63207 19.9413 6.41052C20.0982 7.18896 19.94 7.99785 19.5015 8.65987L16.7281 12.82C16.2849 13.4798 15.5988 13.9375 14.8195 14.0933C14.0401 14.2492 13.2308 14.0906 12.5679 13.652C12.4082 13.5451 12.2587 13.4235 12.1216 13.2888C11.9331 13.1023 11.6781 12.9983 11.4129 12.9998C11.1477 13.0013 10.894 13.1081 10.7075 13.2966C10.521 13.4852 10.4171 13.7401 10.4186 14.0053C10.42 14.2705 10.5268 14.5243 10.7154 14.7108C10.9433 14.9357 11.1922 15.1384 11.4585 15.3162C12.2738 15.8625 13.233 16.1542 14.2144 16.1541C14.5492 16.1538 14.8832 16.1204 15.2115 16.0545C15.8558 15.9281 16.4686 15.6752 17.0146 15.3105C17.5605 14.9457 18.0287 14.4764 18.3921 13.9295L21.1656 9.76934C21.8996 8.66553 22.1658 7.31566 21.9058 6.01584C21.6458 4.71601 20.8809 3.57236 19.7789 2.83575ZM10.3091 17.4451L9.4937 18.6678C9.0516 19.328 8.36564 19.7858 7.58633 19.9409C6.80703 20.0959 5.99805 19.9354 5.33693 19.4947C4.6758 19.0539 4.21654 18.3689 4.05992 17.5899C3.90329 16.8109 4.06211 16.0016 4.50151 15.3396L7.27495 11.1795C7.71814 10.5197 8.40423 10.062 9.18358 9.90615C9.96292 9.75029 10.7723 9.90892 11.4351 10.3475C11.5949 10.4544 11.7443 10.576 11.8814 10.7107C12.07 10.8972 12.3249 11.0012 12.59 10.9997C12.8552 10.9982 13.109 10.8915 13.2955 10.7029C13.4819 10.5144 13.5859 10.2595 13.5844 9.99428C13.583 9.72909 13.4762 9.47534 13.2876 9.28886C13.0597 9.06391 12.8109 8.86117 12.5445 8.68339C11.4403 7.9507 10.0908 7.68524 8.79136 7.94512C7.49192 8.205 6.34833 8.96906 5.61087 10.0701L2.83745 14.2302C2.10347 15.334 1.83726 16.6839 2.09723 17.9837C2.3572 19.2836 3.1221 20.4272 4.22417 21.1638C5.0395 21.7099 5.99875 22.0012 6.98003 22.0007C7.31515 22.0007 7.64944 21.9677 7.97808 21.9021C8.62225 21.7757 9.23495 21.5228 9.78074 21.1581C10.3265 20.7933 10.7946 20.3239 11.1578 19.7771L11.9732 18.5545C12.0471 18.4452 12.0986 18.3224 12.1249 18.1932C12.1511 18.0639 12.1515 17.9308 12.1261 17.8014C12.1007 17.6719 12.0499 17.5488 11.9767 17.4391C11.9035 17.3294 11.8093 17.2353 11.6996 17.1621C11.5898 17.089 11.4667 17.0382 11.3373 17.0129C11.2079 16.9875 11.0747 16.988 10.9455 17.0143C10.8162 17.0406 10.6935 17.0922 10.5843 17.1661C10.4751 17.24 10.3815 17.3348 10.3091 17.4451Z" fill="#545454"/>
</svg>
