<svg width="24" height="24" viewBox="0 0 24 24" fill="none" xmlns="http://www.w3.org/2000/svg">
<path d="M11.9937 2.00226C9.9335 1.9527 7.93739 2.72008 6.44097 4.13691C4.94455 5.55374 4.06934 7.50498 4.00634 9.56476C3.90478 12.0814 5.02978 13.6273 6.89208 16.1888L7.48486 17.0061C9.10986 19.2591 10.7632 21.1233 10.7798 21.1429L11.2466 21.6673C11.3405 21.7726 11.4556 21.8569 11.5843 21.9146C11.7131 21.9724 11.8526 22.0022 11.9937 22.0023H11.9947C12.1358 22.0022 12.2754 21.9722 12.4042 21.9143C12.5329 21.8564 12.648 21.7719 12.7417 21.6663L13.1861 21.1643C13.1997 21.1507 14.8609 19.2815 16.5025 17.0061L17.1216 16.1526C18.9761 13.6057 20.0952 12.0686 19.981 9.55885C19.8802 7.51262 18.9932 5.58434 17.505 4.17637C16.0168 2.7684 14.0423 1.98952 11.9937 2.00226ZM15.5044 14.9749L14.8794 15.8362C13.7036 17.4681 12.519 18.8782 11.9937 19.4905C11.4663 18.8763 10.2759 17.4573 9.1079 15.8363L8.51025 15.012C6.73876 12.5784 5.93115 11.4671 6.00537 9.60482C6.06002 8.06898 6.72072 6.6173 7.84295 5.56736C8.96518 4.51741 10.4576 3.95468 11.9937 4.00226C13.5275 3.99044 15.0067 4.57133 16.1226 5.62374C17.2385 6.67615 17.9049 8.11879 17.9829 9.6507C18.0659 11.4593 17.2632 12.5608 15.5044 14.9749ZM11.9937 6.00226C11.2025 6.00226 10.4292 6.23686 9.77137 6.67638C9.11357 7.11591 8.60088 7.74062 8.29813 8.47153C7.99538 9.20243 7.91617 10.0067 8.07051 10.7826C8.22485 11.5585 8.60581 12.2713 9.16522 12.8307C9.72463 13.3901 10.4374 13.7711 11.2133 13.9254C11.9892 14.0797 12.7935 14.0005 13.5244 13.6978C14.2553 13.395 14.88 12.8823 15.3195 12.2245C15.7591 11.5667 15.9937 10.7934 15.9937 10.0023C15.9926 8.94172 15.5708 7.92492 14.8209 7.175C14.071 6.42509 13.0542 6.00332 11.9937 6.00226ZM11.9937 12.0023C11.5981 12.0023 11.2114 11.885 10.8825 11.6652C10.5536 11.4454 10.2973 11.1331 10.1459 10.7676C9.99452 10.4022 9.95491 10 10.0321 9.61208C10.1093 9.22412 10.2997 8.86775 10.5794 8.58805C10.8591 8.30834 11.2155 8.11786 11.6035 8.04069C11.9914 7.96352 12.3936 8.00313 12.759 8.1545C13.1245 8.30588 13.4368 8.56222 13.6566 8.89112C13.8764 9.22002 13.9937 9.6067 13.9937 10.0023C13.993 10.5325 13.782 11.0408 13.4071 11.4157C13.0322 11.7906 12.5239 12.0016 11.9937 12.0023Z" fill="#545454"/>
</svg>
