<svg width="24" height="24" viewBox="0 0 24 24" fill="none" xmlns="http://www.w3.org/2000/svg">
<path d="M17.99 10.16L17.96 8.00002C17.96 4.70002 15.28 2.02002 11.98 2.02002C8.67996 2.02002 5.99996 4.70002 5.99996 8.00002V10.15C4.25996 10.61 2.95996 12.18 2.95996 14.07V17.91C2.95996 20.15 4.78996 21.98 7.02996 21.98H16.93C19.17 21.98 21 20.15 21 17.91V14.07C21 12.19 19.72 10.62 17.99 10.16ZM11.98 4.02002C14.17 4.02002 15.96 5.81002 15.96 8.01002L15.98 10H7.99996V8.00002C7.99996 5.81002 9.77996 4.02002 11.98 4.02002ZM19 17.91C19 19.05 18.07 19.98 16.93 19.98H7.02996C5.88996 19.98 4.95996 19.05 4.95996 17.91V14.07C4.95996 12.93 5.88996 12 7.02996 12H16.93C18.07 12 19 12.93 19 14.07V17.91Z" fill="#545454"/>
</svg>
