<svg width="24" height="24" viewBox="0 0 24 24" fill="none" xmlns="http://www.w3.org/2000/svg">
<path d="M17.0276 1.99829H7.02566C4.43083 1.99829 2.31662 3.6383 2.0746 5.72089C2.04645 5.8175 2.03736 5.91272 2.03888 6.01123C2.03841 6.02717 2.03565 6.04257 2.0329 6.05797C2.02988 6.07484 2.02686 6.0917 2.02686 6.10925V13.8868C2.02686 16.1532 4.26916 17.9977 7.02567 17.9977H10.0199C10.5711 17.9977 11.018 17.5505 11.018 16.9978C11.018 16.4451 10.5711 15.9979 10.0199 15.9979H7.02566C5.39788 15.9979 4.02304 15.0312 4.02304 13.8868V7.86859L9.24794 11.3514C9.71629 11.6634 10.2285 11.8923 10.7714 12.032C10.8548 12.0535 10.9386 12.0642 11.0205 12.0642C11.4654 12.0642 11.8709 11.764 11.9864 11.3128C12.1238 10.7782 11.8022 10.2329 11.2685 10.0957C10.9429 10.0117 10.6355 9.87403 10.3538 9.68653L4.14851 5.55023C4.50862 4.66846 5.6736 3.99811 7.02566 3.99811H17.0275C18.6553 3.99811 20.0307 4.96478 20.0307 6.10926V7.99824C20.0307 8.55043 20.477 8.99812 21.0287 8.99812C21.5804 8.99812 22.0269 8.55043 22.0269 7.99824V6.10925C22.0269 3.84235 19.7841 1.99829 17.0276 1.99829Z" fill="#545454"/>
<path fill-rule="evenodd" clip-rule="evenodd" d="M21.4176 15.5741V13.8477C21.4176 11.7249 19.6729 9.99799 17.5286 9.99799C15.3842 9.99799 13.6395 11.7249 13.6395 13.8477V15.5663L13.2623 16.1542C12.964 16.6219 12.9435 17.2156 13.2097 17.7018C13.4777 18.193 13.9933 18.4977 14.5538 18.4977H20.4887C21.0462 18.4977 21.5599 18.1959 21.829 17.7097C22.096 17.2273 22.0804 16.6375 21.788 16.1679L21.4176 15.5741ZM15.4144 16.4979C15.5597 16.2606 15.6357 15.9882 15.6357 15.7089V13.8477C15.6357 12.8273 16.4847 11.9978 17.5286 11.9978C18.5725 11.9978 19.4215 12.8273 19.4215 13.8477V15.7118C19.4215 15.9891 19.4965 16.2596 19.6408 16.4978L15.4144 16.4979Z" fill="#545454"/>
<path d="M18.0666 19.6831C18.3434 19.2047 18.9546 19.0445 19.4312 19.3218C19.9078 19.5991 20.0696 20.2114 19.7918 20.6889C19.323 21.4964 18.4536 21.9983 17.5217 21.9983C16.5899 21.9983 15.7195 21.4964 15.2507 20.6889C14.9729 20.2114 15.1347 19.5991 15.6113 19.3218C16.087 19.0445 16.6981 19.2047 16.9759 19.6831C17.2059 20.0766 17.8366 20.0786 18.0666 19.6831Z" fill="#545454"/>
</svg>
