<svg width="24" height="24" viewBox="0 0 24 24" fill="none" xmlns="http://www.w3.org/2000/svg">
<path d="M21.9006 2.61823C21.8247 2.43576 21.6966 2.27975 21.5324 2.16977C21.3682 2.05979 21.1752 2.00073 20.9775 2H15.25C14.9848 2 14.7304 2.10536 14.5429 2.29289C14.3554 2.48043 14.25 2.73478 14.25 3C14.25 3.26522 14.3554 3.51957 14.5429 3.70711C14.7304 3.89464 14.9848 4 15.25 4H18.5635L15.3203 7.24316C15.2275 7.33601 15.1538 7.44624 15.1036 7.56755C15.0533 7.68886 15.0274 7.81888 15.0274 7.95019C15.0274 8.0815 15.0533 8.21152 15.1036 8.33284C15.1538 8.45415 15.2275 8.56438 15.3203 8.65722C15.5078 8.84474 15.7621 8.95009 16.0273 8.95009C16.1586 8.95009 16.2887 8.92423 16.41 8.87398C16.5313 8.82373 16.6415 8.75008 16.7344 8.65723L19.9775 5.41406V8.65723C19.9775 8.92245 20.0829 9.1768 20.2704 9.36434C20.458 9.55187 20.7123 9.65723 20.9775 9.65723C21.2428 9.65723 21.4971 9.55187 21.6846 9.36434C21.8722 9.1768 21.9775 8.92245 21.9775 8.65723V3C21.9772 2.86893 21.951 2.73921 21.9006 2.61823ZM8.70508 20H5.3916L8.63476 16.7568C8.72761 16.664 8.80126 16.5538 8.85151 16.4325C8.90176 16.3111 8.92762 16.1811 8.92762 16.0498C8.92762 15.9185 8.90176 15.7885 8.85151 15.6672C8.80126 15.5459 8.72761 15.4356 8.63476 15.3428C8.54192 15.2499 8.43169 15.1763 8.31038 15.126C8.18906 15.0758 8.05904 15.0499 7.92773 15.0499C7.79642 15.0499 7.6664 15.0758 7.54509 15.126C7.42378 15.1763 7.31355 15.2499 7.2207 15.3428L3.97754 18.5859V15.3428C3.97754 15.0776 3.87218 14.8232 3.68465 14.6357C3.49711 14.4481 3.24276 14.3428 2.97754 14.3428C2.71232 14.3428 2.45797 14.4481 2.27043 14.6357C2.0829 14.8232 1.97754 15.0776 1.97754 15.3428V21C1.97851 21.2649 2.08417 21.5187 2.2715 21.706C2.45883 21.8934 2.71262 21.999 2.97754 22H8.70508C8.9703 22 9.22465 21.8946 9.41219 21.7071C9.59972 21.5196 9.70508 21.2652 9.70508 21C9.70508 20.7348 9.59972 20.4804 9.41219 20.2929C9.22465 20.1054 8.9703 20 8.70508 20Z" fill="#545454"/>
</svg>
