<svg width="24" height="24" viewBox="0 0 24 24" fill="none" xmlns="http://www.w3.org/2000/svg">
<path d="M21.5064 2.13753C21.3563 2.04888 21.1856 2.00115 21.0113 1.99909C20.8371 1.99704 20.6653 2.04073 20.5132 2.12581L11.7398 7.00472H5.99951C5.86817 7.00464 5.7381 7.03046 5.61674 7.08069C5.49538 7.13091 5.38511 7.20457 5.29223 7.29744C5.19936 7.39032 5.1257 7.50059 5.07548 7.62195C5.02525 7.74331 4.99944 7.87338 4.99951 8.00472V8.99983H2.99951C2.86817 8.99976 2.7381 9.02557 2.61674 9.0758C2.49538 9.12603 2.38511 9.19968 2.29224 9.29256C2.19936 9.38543 2.12571 9.4957 2.07548 9.61706C2.02525 9.73842 1.99944 9.86849 1.99951 9.99983V13.9998C1.99944 14.1312 2.02525 14.2612 2.07548 14.3826C2.1257 14.504 2.19936 14.6142 2.29223 14.7071C2.38511 14.8 2.49538 14.8736 2.61674 14.9239C2.7381 14.9741 2.86817 14.9999 2.99951 14.9998H4.99951V15.9998C4.99944 16.1312 5.02525 16.2612 5.07548 16.3826C5.1257 16.504 5.19936 16.6142 5.29223 16.7071C5.38511 16.8 5.49538 16.8736 5.61674 16.9239C5.7381 16.9741 5.86817 16.9999 5.99951 16.9998H6.21924L7.27978 21.2421C7.33373 21.4584 7.45848 21.6506 7.6342 21.7879C7.80992 21.9252 8.0265 21.9998 8.24951 21.9999H11.9995C12.1514 21.9999 12.3013 21.9652 12.4379 21.8986C12.5744 21.832 12.6939 21.7351 12.7874 21.6154C12.8809 21.4956 12.9459 21.3561 12.9774 21.2075C13.0089 21.0589 13.0061 20.9051 12.9692 20.7577L12.0764 17.1862L20.5142 21.8739C20.6663 21.9585 20.838 22.002 21.0121 21.9999C21.1863 21.9977 21.3568 21.9502 21.5069 21.8619C21.657 21.7736 21.7814 21.6476 21.8678 21.4964C21.9542 21.3452 21.9996 21.174 21.9995 20.9999V2.9999C21.9996 2.82565 21.9541 2.65442 21.8676 2.50316C21.7811 2.3519 21.6566 2.22586 21.5064 2.13753ZM4.99951 12.9998H3.99951V10.9998H4.99951V12.9998ZM6.99951 14.9998V9.00472H10.9995V14.9998H6.99951ZM9.03076 19.9998L8.28076 16.9998H9.96826L10.7183 19.9998H9.03076ZM19.9995 19.3006L12.9995 15.411V8.59261L19.9995 4.70003V19.3006Z" fill="#545454"/>
</svg>
