<svg width="24" height="24" viewBox="0 0 24 24" fill="none" xmlns="http://www.w3.org/2000/svg">
<path d="M3 6H21C21.2652 6 21.5196 5.89464 21.7071 5.70711C21.8946 5.51957 22 5.26522 22 5C22 4.73478 21.8946 4.48043 21.7071 4.29289C21.5196 4.10536 21.2652 4 21 4H3C2.73478 4 2.48043 4.10536 2.29289 4.29289C2.10536 4.48043 2 4.73478 2 5C2 5.26522 2.10536 5.51957 2.29289 5.70711C2.48043 5.89464 2.73478 6 3 6ZM21 18H3C2.73478 18 2.48043 18.1054 2.29289 18.2929C2.10536 18.4804 2 18.7348 2 19C2 19.2652 2.10536 19.5196 2.29289 19.7071C2.48043 19.8946 2.73478 20 3 20H21C21.2652 20 21.5196 19.8946 21.7071 19.7071C21.8946 19.5196 22 19.2652 22 19C22 18.7348 21.8946 18.4804 21.7071 18.2929C21.5196 18.1054 21.2652 18 21 18ZM21 11.002H3C2.73478 11.002 2.48043 11.1073 2.29289 11.2948C2.10536 11.4824 2 11.7367 2 12.002C2 12.2672 2.10536 12.5215 2.29289 12.7091C2.48043 12.8966 2.73478 13.002 3 13.002H21C21.2652 13.002 21.5196 12.8966 21.7071 12.7091C21.8946 12.5215 22 12.2672 22 12.002C22 11.7367 21.8946 11.4824 21.7071 11.2948C21.5196 11.1073 21.2652 11.002 21 11.002Z" fill="#545454"/>
</svg>
