<svg width="24" height="24" viewBox="0 0 24 24" fill="none" xmlns="http://www.w3.org/2000/svg">
<path d="M21.7041 2.29126C21.6113 2.19838 21.501 2.1247 21.3797 2.07443C21.2584 2.02416 21.1284 1.99829 20.9971 1.99829C20.8658 1.99829 20.7357 2.02416 20.6144 2.07443C20.4931 2.1247 20.3829 2.19838 20.29 2.29126L10.997 11.5843V4.99829C10.997 4.73307 10.8917 4.47872 10.7041 4.29118C10.5166 4.10364 10.2623 3.99829 9.99704 3.99829C9.73182 3.99829 9.47747 4.10364 9.28993 4.29118C9.1024 4.47872 8.99704 4.73307 8.99704 4.99829V13.9983C8.998 14.2632 9.10366 14.517 9.29099 14.7043C9.47832 14.8917 9.73212 14.9973 9.99704 14.9983H18.997C19.2623 14.9983 19.5166 14.8929 19.7041 14.7054C19.8917 14.5179 19.997 14.2635 19.997 13.9983C19.997 13.7331 19.8917 13.4787 19.7041 13.2912C19.5166 13.1036 19.2623 12.9983 18.997 12.9983H12.4111L21.7041 3.70529C21.797 3.61246 21.8707 3.50223 21.9209 3.38092C21.9712 3.25961 21.9971 3.12958 21.9971 2.99827C21.9971 2.86695 21.9712 2.73692 21.9209 2.61561C21.8707 2.4943 21.797 2.38408 21.7041 2.29126ZM18.1221 17.0305C17.995 16.9969 17.8625 16.9887 17.7322 17.0066C17.602 17.0244 17.4765 17.0678 17.3631 17.1344C17.2497 17.2009 17.1506 17.2892 17.0716 17.3943C16.9925 17.4993 16.935 17.619 16.9024 17.7463C16.7358 18.3904 16.3601 18.9609 15.8343 19.3685C15.3085 19.776 14.6623 19.9976 13.9971 19.9983H6.9971C6.20172 19.9975 5.43916 19.6811 4.87674 19.1187C4.31432 18.5563 3.99797 17.7937 3.9971 16.9983V9.99834C3.9977 9.33305 4.21916 8.68679 4.62672 8.16096C5.03429 7.63513 5.6049 7.25949 6.24902 7.093C6.50527 7.02606 6.7245 6.86017 6.85857 6.63176C6.99263 6.40334 7.03059 6.13106 6.96411 5.87469C6.89762 5.61832 6.73212 5.3988 6.50395 5.26433C6.27577 5.12986 6.00356 5.09142 5.74707 5.15745C4.67414 5.43507 3.72375 6.06106 3.04505 6.93719C2.36634 7.81332 1.99773 8.89 1.99707 9.99827V16.9983C1.99863 18.3239 2.52591 19.5947 3.46326 20.5321C4.4006 21.4694 5.67147 21.9967 6.99707 21.9983H13.9971C15.105 21.9974 16.1813 21.629 17.0573 20.9507C17.9334 20.2724 18.5596 19.3227 18.8379 18.2503C18.9047 17.9936 18.8668 17.7209 18.7326 17.4922C18.5983 17.2634 18.3787 17.0974 18.1221 17.0305H18.1221Z" fill="#545454"/>
</svg>
