<svg width="24" height="24" viewBox="0 0 24 24" fill="none" xmlns="http://www.w3.org/2000/svg">
<path d="M21 20C18.8783 20 16.8434 19.1571 15.3431 17.6569C13.8429 16.1566 13 14.1217 13 12V5.7L17.24 10.7C17.4124 10.9016 17.6578 11.0264 17.9222 11.047C18.1866 11.0676 18.4484 10.9824 18.65 10.81C18.8516 10.6376 18.9764 10.3922 18.997 10.1278C19.0177 9.86336 18.9324 9.60156 18.76 9.4L12.76 2.4C12.671 2.28106 12.5566 2.18345 12.4251 2.11426C12.2937 2.04507 12.1484 2.00603 12 2C11.8605 2.00033 11.7225 2.02986 11.5951 2.0867C11.4676 2.14353 11.3535 2.22641 11.26 2.33L5.26 9.33C5.17464 9.4298 5.10978 9.54544 5.06911 9.67032C5.02844 9.79519 5.01276 9.92685 5.02298 10.0578C5.03319 10.1887 5.0691 10.3163 5.12864 10.4334C5.18818 10.5505 5.2702 10.6546 5.37 10.74C5.57156 10.9124 5.83336 10.9976 6.09778 10.977C6.36221 10.9564 6.60761 10.8316 6.78 10.63L11 5.7V12C11 14.1217 10.1571 16.1566 8.65685 17.6569C7.15656 19.1571 5.12173 20 3 20C2.73478 20 2.48043 20.1054 2.29289 20.2929C2.10536 20.4804 2 20.7348 2 21C2 21.2652 2.10536 21.5196 2.29289 21.7071C2.48043 21.8946 2.73478 22 3 22C4.88165 21.9974 6.72438 21.4639 8.31643 20.4609C9.90848 19.4579 11.1852 18.0261 12 16.33C12.8148 18.0261 14.0915 19.4579 15.6836 20.4609C17.2756 21.4639 19.1183 21.9974 21 22C21.2652 22 21.5196 21.8946 21.7071 21.7071C21.8946 21.5196 22 21.2652 22 21C22 20.7348 21.8946 20.4804 21.7071 20.2929C21.5196 20.1054 21.2652 20 21 20Z" fill="#545454"/>
</svg>
