<svg width="24" height="24" viewBox="0 0 24 24" fill="none" xmlns="http://www.w3.org/2000/svg">
<path d="M17 1.99219H7C5.6744 1.99374 4.40353 2.52103 3.46618 3.45837C2.52884 4.39572 2.00156 5.66658 2 6.99219V20.9922C2.00009 21.1731 2.04928 21.3506 2.14233 21.5057C2.23537 21.6608 2.36878 21.7878 2.52832 21.873C2.67313 21.9515 2.83529 21.9925 3 21.9922C3.19739 21.9919 3.39032 21.9335 3.55468 21.8242C4.32031 21.3144 6.61328 19.9922 8 19.9922H17C18.3256 19.9906 19.5965 19.4633 20.5338 18.526C21.4712 17.5887 21.9984 16.3178 22 14.9922V6.99219C21.9984 5.66658 21.4712 4.39572 20.5338 3.45838C19.5965 2.52103 18.3256 1.99375 17 1.99219ZM20 14.9922C19.9991 15.7876 19.6828 16.5501 19.1204 17.1125C18.5579 17.675 17.7954 17.9913 17 17.9922H8C6.59051 18.1114 5.22471 18.5403 4 19.248V6.99219C4.00087 6.1968 4.31722 5.43425 4.87964 4.87183C5.44206 4.30941 6.20462 3.99306 7 3.99219H17C17.7954 3.99306 18.5579 4.30941 19.1204 4.87183C19.6828 5.43425 19.9991 6.1968 20 6.99219V14.9922ZM16.9775 8H6.97754C6.71232 8 6.45797 8.10535 6.27043 8.29289C6.0829 8.48043 5.97754 8.73478 5.97754 9C5.97754 9.26521 6.0829 9.51957 6.27043 9.7071C6.45797 9.89464 6.71232 10 6.97754 10H16.9775C17.2428 10 17.4971 9.89464 17.6846 9.7071C17.8722 9.51957 17.9775 9.26521 17.9775 9C17.9775 8.73478 17.8722 8.48043 17.6846 8.29289C17.4971 8.10535 17.2428 8 16.9775 8ZM16.9775 12H6.97754C6.71232 12 6.45797 12.1054 6.27043 12.2929C6.0829 12.4804 5.97754 12.7348 5.97754 13C5.97754 13.2652 6.0829 13.5196 6.27043 13.7071C6.45797 13.8946 6.71232 14 6.97754 14H16.9775C17.2428 14 17.4971 13.8946 17.6846 13.7071C17.8722 13.5196 17.9775 13.2652 17.9775 13C17.9775 12.7348 17.8722 12.4804 17.6846 12.2929C17.4971 12.1054 17.2428 12 16.9775 12Z" fill="#545454"/>
</svg>
