<svg width="24" height="24" viewBox="0 0 24 24" fill="none" xmlns="http://www.w3.org/2000/svg">
<path d="M9.22 11.11C10.1227 11.112 11.0057 10.8459 11.7572 10.3457C12.5086 9.84535 13.0946 9.13328 13.441 8.29964C13.7873 7.466 13.8785 6.54831 13.7029 5.66283C13.5272 4.77735 13.0927 3.96391 12.4544 3.32559C11.8161 2.68726 11.0026 2.25275 10.1172 2.07712C9.23167 1.9015 8.31398 1.99264 7.48034 2.33902C6.6467 2.68539 5.93463 3.27141 5.43433 4.02282C4.93403 4.77424 4.66802 5.65725 4.67 6.55998C4.67264 7.7659 5.15286 8.92168 6.00558 9.7744C6.8583 10.6271 8.01408 11.1073 9.22 11.11ZM9.22 3.99998C9.72674 3.998 10.2227 4.14646 10.645 4.42655C11.0673 4.70664 11.397 5.10576 11.5922 5.57336C11.7875 6.04096 11.8397 6.55601 11.742 7.05325C11.6444 7.5505 11.4014 8.00759 11.0437 8.36661C10.6861 8.72563 10.23 8.97044 9.73312 9.07004C9.23626 9.16963 8.72102 9.11952 8.25265 8.92605C7.78429 8.73259 7.38388 8.40448 7.10214 7.98327C6.8204 7.56207 6.67 7.06673 6.67 6.55998C6.66999 5.88276 6.93834 5.23312 7.41627 4.75331C7.8942 4.27351 8.54278 4.00263 9.22 3.99998ZM12.21 12.74C11.8444 12.6677 11.4827 12.6709 11.11 12.67H7.24C5.852 12.67 4.5207 13.2207 3.53829 14.2012C2.55589 15.1817 2.00265 16.512 2 17.9L2 19C2 19.2652 2.10536 19.5196 2.29289 19.7071C2.48043 19.8946 2.73478 20 3 20C3.26522 20 3.51957 19.8946 3.70711 19.7071C3.89464 19.5196 4 19.2652 4 19V17.9C4.00265 17.0424 4.34517 16.2209 4.9525 15.6154C5.55983 15.01 6.38243 14.67 7.24 14.67H11.1C11.3286 14.668 11.5566 14.6915 11.78 14.74C12.0452 14.797 12.3222 14.7463 12.5501 14.5991C12.7779 14.4519 12.938 14.2202 12.995 13.955C13.052 13.6898 13.0014 13.4128 12.8541 13.1849C12.7069 12.957 12.4752 12.797 12.21 12.74ZM21 16H16.41L18.7 13.71C18.7937 13.617 18.8681 13.5064 18.9189 13.3846C18.9697 13.2627 18.9958 13.132 18.9958 13C18.9958 12.868 18.9697 12.7373 18.9189 12.6154C18.8681 12.4935 18.7937 12.3829 18.7 12.29C18.5126 12.1037 18.2592 11.9992 17.995 11.9992C17.7308 11.9992 17.4774 12.1037 17.29 12.29L13.29 16.29C13.1954 16.3842 13.1206 16.4964 13.07 16.62C12.97 16.8634 12.97 17.1365 13.07 17.38C13.1219 17.5028 13.1966 17.6148 13.29 17.71L17.34 21.76C17.4332 21.8526 17.5438 21.9259 17.6654 21.9757C17.7869 22.0256 17.9171 22.051 18.0485 22.0505C18.1799 22.0501 18.3099 22.0237 18.4312 21.973C18.5524 21.9223 18.6624 21.8482 18.755 21.755C18.8476 21.6617 18.9209 21.5512 18.9707 21.4296C19.0206 21.308 19.046 21.1778 19.0456 21.0464C19.0451 20.9151 19.0188 20.785 18.968 20.6638C18.9173 20.5426 18.8432 20.4326 18.75 20.34L16.41 18H21C21.2652 18 21.5196 17.8946 21.7071 17.7071C21.8946 17.5196 22 17.2652 22 17C22 16.7348 21.8946 16.4804 21.7071 16.2929C21.5196 16.1053 21.2652 16 21 16Z" fill="#545454"/>
</svg>
