<svg width="24" height="24" viewBox="0 0 24 24" fill="none" xmlns="http://www.w3.org/2000/svg">
<path d="M20.9775 7.65723H17.6637L20.9062 4.41406C21.0938 4.22654 21.1991 3.97222 21.1991 3.70703C21.1991 3.44184 21.0938 3.18751 20.9062 2.99999C20.7187 2.81248 20.4644 2.70713 20.1992 2.70713C19.934 2.70714 19.6797 2.81248 19.4922 3L16.25 6.2428V3C16.25 2.73478 16.1446 2.48043 15.9571 2.29289C15.7696 2.10536 15.5152 2 15.25 2C14.9848 2 14.7304 2.10536 14.5429 2.29289C14.3554 2.48043 14.25 2.73478 14.25 3V8.65723C14.251 8.92215 14.3566 9.17594 14.544 9.36327C14.7313 9.5506 14.9851 9.65626 15.25 9.65723H20.9775C21.2428 9.65723 21.4971 9.55187 21.6846 9.36434C21.8722 9.1768 21.9775 8.92245 21.9775 8.65723C21.9775 8.39201 21.8722 8.13766 21.6846 7.95012C21.4971 7.76259 21.2428 7.65723 20.9775 7.65723ZM9.08688 14.4197C8.9659 14.3693 8.83618 14.3431 8.70511 14.3427H2.97754C2.71232 14.3427 2.45797 14.4481 2.27043 14.6356C2.0829 14.8232 1.97754 15.0775 1.97754 15.3427C1.97754 15.608 2.0829 15.8623 2.27043 16.0498C2.45797 16.2374 2.71232 16.3427 2.97754 16.3427H6.29138L3.04888 19.5859C2.95507 19.6786 2.88051 19.7888 2.82948 19.9104C2.77845 20.032 2.75196 20.1624 2.75154 20.2943C2.75113 20.4261 2.77679 20.5567 2.82704 20.6786C2.8773 20.8005 2.95117 20.9112 3.04439 21.0044C3.13761 21.0977 3.24834 21.1715 3.37022 21.2218C3.4921 21.2721 3.62272 21.2977 3.75455 21.2973C3.88639 21.2969 4.01684 21.2704 4.13841 21.2194C4.25997 21.1684 4.37024 21.0938 4.46288 21L7.70508 17.7572V21C7.70508 21.2652 7.81044 21.5196 7.99797 21.7071C8.18551 21.8946 8.43986 22 8.70508 22C8.9703 22 9.22465 21.8946 9.41219 21.7071C9.59972 21.5196 9.70508 21.2652 9.70508 21V15.3428C9.70434 15.1451 9.64528 14.9521 9.5353 14.7879C9.42532 14.6237 9.26932 14.4957 9.08685 14.4198L9.08688 14.4197Z" fill="#545454"/>
</svg>
