<svg width="24" height="24" viewBox="0 0 24 24" fill="none" xmlns="http://www.w3.org/2000/svg">
<path d="M2.52832 21.8818C2.67578 21.9609 2.83838 22 3 22C3.19385 22 3.38721 21.9434 3.55469 21.832C4.26758 21.3564 6.61426 20 7.99951 20C8.55176 20 8.99951 19.5527 8.99951 19C8.99951 18.4473 8.55176 18 7.99951 18C6.6958 18 5.13867 18.6611 4 19.2559V7C4 5.3457 5.3457 4 6.99951 4H16.999C18.6533 4 19.999 5.3457 19.999 7V9.99805C19.999 10.5503 20.4463 10.998 20.999 10.998C21.5518 10.998 21.999 10.5503 21.999 9.99805V7C21.999 4.24316 19.7559 2 16.999 2H6.99951C4.24268 2 2 4.24316 2 7V21C2 21.3691 2.20312 21.708 2.52832 21.8818Z" fill="#545454"/>
<path d="M21 19.998C20.4473 19.998 20 19.5508 20 18.998V16.4121L15.707 20.7051C15.5195 20.8935 15.2647 20.998 15 20.998C14.9834 20.998 14.9668 20.998 14.9502 20.9971C14.668 20.9824 14.4053 20.8496 14.2256 20.6309L9.72705 15.1309C9.37744 14.7041 9.44043 14.0732 9.86767 13.7236C10.2954 13.375 10.9253 13.4365 11.2749 13.8652L15.0742 18.5098L18.5859 14.998H15.998C15.4453 14.998 14.998 14.5508 14.998 13.998C14.998 13.4453 15.4453 12.998 15.998 12.998H21C21.5527 12.998 22 13.4453 22 13.998V18.998C22 19.5508 21.5527 19.998 21 19.998Z" fill="#545454"/>
</svg>
