<svg width="24" height="24" viewBox="0 0 24 24" fill="none" xmlns="http://www.w3.org/2000/svg">
<path d="M12.5559 18.8314C12.3914 18.9412 12.1981 18.9999 12.0003 18.9999C11.7351 18.9999 11.4807 18.8945 11.2932 18.707C11.1057 18.5194 11.0003 18.2651 11.0003 17.9999C11.0003 17.8021 11.0589 17.6088 11.1688 17.4443C11.2787 17.2799 11.4349 17.1517 11.6176 17.076C11.8003 17.0003 12.0014 16.9805 12.1954 17.0191C12.3894 17.0577 12.5675 17.1529 12.7074 17.2928C12.8472 17.4326 12.9425 17.6108 12.9811 17.8048C13.0197 17.9988 12.9999 18.1998 12.9242 18.3826C12.8485 18.5653 12.7203 18.7215 12.5559 18.8314Z" fill="#545454"/>
<path fill-rule="evenodd" clip-rule="evenodd" d="M8 2H16C17.0605 2.00106 18.0773 2.42283 18.8273 3.17274C19.5772 3.92266 19.9989 4.93946 20 6V18C19.9989 19.0605 19.5772 20.0773 18.8273 20.8273C18.0773 21.5772 17.0605 21.9989 16 22H8C6.93946 21.9989 5.92266 21.5772 5.17274 20.8273C4.42283 20.0773 4.00106 19.0605 4 18V6C4.00106 4.93946 4.42283 3.92266 5.17274 3.17274C5.92266 2.42283 6.93946 2.00106 8 2ZM17.4135 19.4135C17.7884 19.0385 17.9993 18.5302 18 18V16H6V18C6.00069 18.5302 6.21162 19.0385 6.58655 19.4135C6.96147 19.7884 7.46978 19.9993 8 20H16C16.5302 19.9993 17.0385 19.7884 17.4135 19.4135ZM6 14H18V6C17.9993 5.46978 17.7884 4.96147 17.4135 4.58655C17.0385 4.21162 16.5302 4.00069 16 4H8C7.46978 4.00069 6.96147 4.21162 6.58655 4.58655C6.21162 4.96147 6.00069 5.46978 6 6V14Z" fill="#545454"/>
</svg>
