<svg width="24" height="24" viewBox="0 0 24 24" fill="none" xmlns="http://www.w3.org/2000/svg">
<path d="M14.9775 20C14.7818 20.0001 14.5903 19.9427 14.4269 19.8349C14.2635 19.7271 14.1354 19.5736 14.0585 19.3935L8.97754 7.53906L6.89648 12.3935C6.81961 12.5736 6.69153 12.727 6.52815 12.8349C6.36476 12.9427 6.17329 13.0001 5.97754 13H2.97754C2.71232 13 2.45797 12.8946 2.27043 12.7071C2.0829 12.5196 1.97754 12.2652 1.97754 12C1.97754 11.7348 2.0829 11.4804 2.27043 11.2929C2.45797 11.1054 2.71232 11 2.97754 11H5.31836L8.05859 4.60645C8.13555 4.42649 8.26367 4.27308 8.42703 4.16528C8.59039 4.05747 8.78181 4 8.97753 4C9.17326 4 9.36468 4.05747 9.52804 4.16528C9.6914 4.27308 9.81951 4.42649 9.89648 4.60645L14.9775 16.4609L17.0586 11.6064C17.1355 11.4264 17.2635 11.2729 17.4269 11.1651C17.5903 11.0573 17.7818 10.9999 17.9775 11H20.9775C21.2428 11 21.4971 11.1054 21.6846 11.2929C21.8722 11.4804 21.9775 11.7348 21.9775 12C21.9775 12.2652 21.8722 12.5196 21.6846 12.7071C21.4971 12.8946 21.2428 13 20.9775 13H18.6367L15.8965 19.3935C15.8196 19.5736 15.6915 19.727 15.5281 19.8349C15.3648 19.9427 15.1733 20.0001 14.9775 20Z" fill="#545454"/>
</svg>
