<svg width="24" height="24" viewBox="0 0 24 24" fill="none" xmlns="http://www.w3.org/2000/svg">
<path fill-rule="evenodd" clip-rule="evenodd" d="M15 22C15.2656 22 15.5195 21.8945 15.707 21.707L21.707 15.707C21.8945 15.5195 22 15.2656 22 15V7C22 4.24316 19.7568 2 17 2H7C4.24316 2 2 4.24316 2 7V8C2 8.55225 2.44775 9 3 9C3.55225 9 4 8.55225 4 8V7C4 5.3457 5.3457 4 7 4H17C18.6543 4 20 5.3457 20 7V13H18C15.2432 13 13 15.2432 13 18V20H7C5.3457 20 4 18.6543 4 17V16C4 15.4473 3.55225 15 3 15C2.44775 15 2 15.4473 2 16V17C2 19.7568 4.24316 22 7 22H15ZM19.5859 15H18C16.3457 15 15 16.3457 15 18V19.5859L19.5859 15Z" fill="#545454"/>
<path d="M7.58398 17C7.30224 17 7.02197 16.8818 6.82421 16.6504C6.46483 16.2314 6.51317 15.6006 6.93261 15.2412L9.54692 13H3C2.44775 13 2 12.5522 2 12C2 11.4478 2.44775 11 3 11H9.54674L6.93262 8.75928C6.51318 8.3999 6.46484 7.76855 6.82422 7.34912C7.1836 6.93066 7.81543 6.88232 8.23438 7.24072L12.9009 11.2407C12.9332 11.2684 12.9635 11.298 12.9917 11.3292C13.1522 11.5066 13.25 11.7419 13.25 12C13.25 12.0077 13.2499 12.0155 13.2497 12.0232C13.2441 12.2711 13.1482 12.4967 12.9936 12.6686C12.9649 12.7006 12.9339 12.7309 12.9009 12.7593L8.23438 16.7588C8.0459 16.9209 7.81445 17 7.58398 17Z" fill="#545454"/>
</svg>
