<svg width="24" height="24" viewBox="0 0 24 24" fill="none" xmlns="http://www.w3.org/2000/svg">
<path fill-rule="evenodd" clip-rule="evenodd" d="M19.0729 2.29156C19.4383 2.16917 19.8305 2.15067 20.2057 2.23812C20.5814 2.32566 20.9253 2.51594 21.199 2.78768C21.4727 3.05942 21.6655 3.40192 21.7558 3.77692C21.8461 4.15192 21.8304 4.54464 21.7103 4.9112L21.709 4.91529L16.489 20.6253C16.482 20.6463 16.4743 20.6671 16.4659 20.6877C16.3098 21.0704 16.0432 21.3979 15.7002 21.6284C15.3572 21.8589 14.9533 21.982 14.54 21.982C14.1267 21.982 13.7228 21.8589 13.3798 21.6284C13.0367 21.3979 12.7702 21.0704 12.6141 20.6877L12.6064 20.6684L10.0361 13.9742L3.33197 11.4037C3.31856 11.3985 3.30527 11.3931 3.29209 11.3874C2.91825 11.2253 2.59997 10.9574 2.37639 10.6167C2.15281 10.276 2.03369 9.87745 2.03369 9.46997C2.03369 9.06248 2.15281 8.66389 2.37639 8.32322C2.59997 7.98255 2.91825 7.71467 3.29209 7.55254C3.3189 7.54091 3.34621 7.53046 3.37394 7.52122L19.0718 2.29194L19.0729 2.29156ZM19.39 3.23997L19.706 4.18871L4.07083 9.39712C4.06206 9.40349 4.05446 9.41143 4.04845 9.42059C4.03882 9.43526 4.03369 9.45242 4.03369 9.46997C4.03369 9.48751 4.03882 9.50468 4.04845 9.51935C4.05631 9.53133 4.06689 9.54121 4.07927 9.54824L11.168 12.2662C11.4327 12.3678 11.6419 12.5768 11.7435 12.8415L14.4677 19.9363C14.4739 19.9493 14.4834 19.9604 14.4954 19.9684C14.5086 19.9773 14.5241 19.982 14.54 19.982C14.5559 19.982 14.5714 19.9773 14.5846 19.9684C14.5938 19.9622 14.6016 19.9542 14.6075 19.9449L19.8097 4.28874C19.814 4.27488 19.8148 4.25925 19.8114 4.24511C19.8079 4.23069 19.8005 4.21752 19.79 4.20706C19.7795 4.19661 19.7662 4.18929 19.7518 4.18593C19.7373 4.18256 19.7222 4.18328 19.7082 4.188L19.39 3.23997Z" fill="#545454"/>
</svg>
