<svg width="24" height="24" viewBox="0 0 24 24" fill="none" xmlns="http://www.w3.org/2000/svg">
<path d="M14.3 9.3L11.3 12.5L9.69995 11C9.29995 10.6 8.69995 10.6 8.29995 11C7.89995 11.4 7.89995 12 8.29995 12.4L10.6 14.7C10.8 14.9 11 15 11.3 15C11.6 15 11.8 14.9 12 14.7L15.7 10.7C16.1 10.3 16 9.7 15.6 9.3C15.3 8.9 14.6 8.9 14.3 9.3ZM21.9 11.5L17.4 3.5C17.2 3.2 16.9 3 16.5 3H7.49995C7.09995 3 6.79995 3.2 6.59995 3.5L2.09995 11.5C1.89995 11.8 1.89995 12.2 2.09995 12.5L6.59995 20.5C6.79995 20.8 7.09995 21 7.49995 21H16.5C16.9 21 17.2 20.8 17.4 20.5L21.9 12.5C22 12.2 22 11.8 21.9 11.5ZM15.9 19H8.09995L4.19995 12L8.09995 5H15.9L19.7999 12L15.9 19Z" fill="#545454"/>
</svg>
