<svg width="24" height="24" viewBox="0 0 24 24" fill="none" xmlns="http://www.w3.org/2000/svg">
<path d="M16.9932 1.99829H6.99316C5.66756 1.99985 4.3967 2.52713 3.45935 3.46448C2.52201 4.40182 1.99472 5.67269 1.99316 6.99829V16.9983C1.99472 18.3239 2.52201 19.5948 3.45935 20.5321C4.3967 21.4694 5.66756 21.9967 6.99316 21.9983H14.9932C15.1245 21.9983 15.2545 21.9724 15.3758 21.9222C15.4971 21.8719 15.6074 21.7982 15.7002 21.7053L21.7002 15.7053C21.7931 15.6125 21.8668 15.5023 21.917 15.381C21.9673 15.2596 21.9932 15.1296 21.9932 14.9983V6.99829C21.9916 5.67269 21.4643 4.40182 20.527 3.46448C19.5896 2.52713 18.3188 1.99985 16.9932 1.99829ZM14.9932 19.5842V17.9983C14.994 17.2029 15.3104 16.4404 15.8728 15.8779C16.4352 15.3155 17.1978 14.9992 17.9932 14.9983H19.5791L14.9932 19.5842ZM19.9932 12.9983H17.9932C16.6676 12.9999 15.3967 13.5271 14.4594 14.4645C13.522 15.4018 12.9947 16.6727 12.9932 17.9983V19.9983H6.99316C6.19778 19.9974 5.43522 19.6811 4.8728 19.1187C4.31038 18.5562 3.99403 17.7937 3.99316 16.9983V6.99829C3.99403 6.20291 4.31038 5.44035 4.8728 4.87793C5.43522 4.31551 6.19778 3.99916 6.99316 3.99829H16.9932C17.7885 3.99916 18.5511 4.31551 19.1135 4.87793C19.6759 5.44035 19.9923 6.20291 19.9932 6.99829V12.9983ZM16.9775 6.97583H6.97754C6.84622 6.97583 6.71619 7.0017 6.59486 7.05195C6.47354 7.10221 6.3633 7.17587 6.27044 7.26872C6.17758 7.36158 6.10392 7.47182 6.05366 7.59315C6.00341 7.71447 5.97754 7.84451 5.97754 7.97583C5.97754 8.10715 6.00341 8.23719 6.05366 8.35851C6.10392 8.47984 6.17758 8.59008 6.27044 8.68294C6.3633 8.7758 6.47354 8.84946 6.59486 8.89971C6.71619 8.94997 6.84622 8.97583 6.97754 8.97583H16.9775C17.2428 8.97583 17.4971 8.87047 17.6847 8.68294C17.8722 8.4954 17.9775 8.24105 17.9775 7.97583C17.9775 7.71061 17.8722 7.45626 17.6847 7.26872C17.4971 7.08119 17.2428 6.97583 16.9775 6.97583ZM11.9775 10.9758H6.97754C6.71233 10.9758 6.45797 11.0812 6.27044 11.2687C6.0829 11.4563 5.97754 11.7106 5.97754 11.9758C5.97754 12.241 6.0829 12.4954 6.27044 12.6829C6.45797 12.8705 6.71233 12.9758 6.97754 12.9758H11.9775C12.2428 12.9758 12.4971 12.8705 12.6847 12.6829C12.8722 12.4954 12.9775 12.241 12.9775 11.9758C12.9775 11.7106 12.8722 11.4563 12.6847 11.2687C12.4971 11.0812 12.2428 10.9758 11.9775 10.9758Z" fill="#545454"/>
</svg>
