<svg width="24" height="24" viewBox="0 0 24 24" fill="none" xmlns="http://www.w3.org/2000/svg">
<path d="M19.6762 13.866L18.7827 12.4246V8.69898C18.7591 6.91597 18.0343 5.21397 16.7652 3.96142C15.496 2.70888 13.7846 2.00659 12.0014 2.00659C10.2183 2.00659 8.50683 2.70888 7.23766 3.96142C5.96848 5.21397 5.24368 6.91597 5.22016 8.69898L5.2143 12.4383L4.312 13.8435C4.11424 14.151 4.00303 14.5061 3.99005 14.8715C3.97708 15.2369 4.06282 15.599 4.23827 15.9197C4.41652 16.2452 4.67918 16.5167 4.99864 16.7055C5.3181 16.8944 5.68255 16.9937 6.05366 16.993H17.9204C18.289 16.9936 18.6511 16.8955 18.9691 16.709C19.2872 16.5226 19.5495 16.2544 19.729 15.9324C19.9054 15.6146 19.9935 15.2554 19.9842 14.892C19.975 14.5286 19.8686 14.1744 19.6762 13.866ZM6.05366 14.993L5.99458 14.9236L6.8979 13.5174C7.10828 13.1892 7.22012 12.8076 7.22016 12.4178V8.69898C7.24364 7.44643 7.7577 6.25311 8.6518 5.37562C9.5459 4.49812 10.7486 4.00651 12.0014 4.00651C13.2542 4.00651 14.4569 4.49812 15.351 5.37562C16.2451 6.25311 16.7592 7.44643 16.7827 8.69898V12.4246C16.7825 12.8059 16.8898 13.1795 17.0922 13.5027L17.9204 14.9929L6.05366 14.993ZM13.1557 19.4373C13.0072 19.5994 12.8266 19.7287 12.6254 19.8173C12.4242 19.9058 12.2068 19.9515 11.987 19.9515C11.7672 19.9515 11.5498 19.9058 11.3486 19.8173C11.1474 19.7287 10.9668 19.5994 10.8183 19.4373C10.6709 19.2168 10.442 19.0638 10.1818 19.0121C9.92169 18.9603 9.65165 19.0141 9.43111 19.1614C9.21057 19.3088 9.0576 19.5377 9.00586 19.7979C8.95413 20.058 9.00785 20.3281 9.15522 20.5486C9.47193 21.0038 9.89605 21.3737 10.39 21.6257C10.8839 21.8776 11.4324 22.0038 11.9868 21.993C12.5411 22.0038 13.0895 21.8777 13.5834 21.6257C14.0772 21.3738 14.5013 21.0038 14.8178 20.5486C14.8913 20.4395 14.9425 20.317 14.9685 20.188C14.9945 20.0591 14.9948 19.9262 14.9694 19.7972C14.9439 19.6681 14.8933 19.5453 14.8203 19.4359C14.7474 19.3264 14.6535 19.2325 14.5442 19.1593C14.4348 19.0862 14.3121 19.0354 14.1831 19.0098C14.054 18.9842 13.9212 18.9843 13.7922 19.0101C13.6632 19.036 13.5406 19.087 13.4314 19.1603C13.3222 19.2336 13.2285 19.3277 13.1557 19.4373Z" fill="#545454"/>
</svg>
