<svg width="24" height="24" viewBox="0 0 24 24" fill="none" xmlns="http://www.w3.org/2000/svg">
<path d="M2.52783 21.8696C2.67578 21.9497 2.83789 21.9888 3 21.9888C3.19385 21.9888 3.38721 21.9321 3.5542 21.8208C4.32081 21.3111 6.61329 19.9888 7.99561 19.9888L9.99561 19.9976H10C10.5503 19.9976 10.9976 19.5523 11 19.0025C11.0024 18.4498 10.5566 17.9996 10.0044 17.9977L8 17.9889C6.6958 17.9889 5.13867 18.65 4 19.2447V6.99109C4 5.33732 5.3457 3.99165 7 3.99165H17C18.6543 3.99165 20 5.33732 20 6.99109V10.9988C20 11.551 20.4473 11.9988 21 11.9988C21.5527 11.9988 22 11.551 22 10.9988V6.99109C22 4.23432 19.7568 1.9917 17 1.9917H7C4.24316 1.9917 2 4.23432 2 6.99109V20.9888C2 21.357 2.20312 21.6958 2.52783 21.8696Z" fill="#545454"/>
<path d="M14.2959 18.6099C14.4912 18.8052 14.7471 18.9029 15.0029 18.9029C15.2588 18.9029 15.5147 18.8052 15.71 18.6099L16.4541 17.8658L17.1982 18.6099C17.3936 18.8052 17.6494 18.9029 17.9053 18.9029C18.1611 18.9029 18.417 18.8052 18.6123 18.6099C19.0029 18.2193 19.0029 17.5865 18.6123 17.1959L17.8682 16.4518L18.6152 15.7047C19.0059 15.3141 19.0059 14.6813 18.6152 14.2907C18.2246 13.9001 17.5918 13.9001 17.2012 14.2907L16.4541 15.0378L15.707 14.2907C15.3164 13.9001 14.6836 13.9001 14.293 14.2907C13.9024 14.6813 13.9024 15.3141 14.293 15.7047L15.04 16.4518L14.2959 17.1959C13.9053 17.5865 13.9053 18.2193 14.2959 18.6099Z" fill="#545454"/>
<path fill-rule="evenodd" clip-rule="evenodd" d="M10.9897 16.4918C10.9897 19.524 13.457 21.9917 16.4902 21.9917C19.5225 21.9917 21.9902 19.524 21.9902 16.4918C21.9902 13.4597 19.5225 10.993 16.4902 10.993C13.457 10.993 10.9897 13.4597 10.9897 16.4918ZM12.9897 16.4919C12.9897 14.5622 14.5596 12.9929 16.4902 12.9929C18.4199 12.9929 19.9902 14.5622 19.9902 16.4919C19.9902 18.4215 18.4199 19.9918 16.4902 19.9918C14.5596 19.9918 12.9897 18.4215 12.9897 16.4919Z" fill="#545454"/>
</svg>
