<svg width="24" height="24" viewBox="0 0 24 24" fill="none" xmlns="http://www.w3.org/2000/svg">
<path d="M19.0001 11.9999C18.4381 11.4411 17.6777 11.1275 16.8851 11.1275C16.0926 11.1275 15.3322 11.4411 14.7701 11.9999L13.4501 13.3199C13.1693 13.5232 12.8214 13.6117 12.4775 13.567C12.1336 13.5224 11.8198 13.3482 11.6001 13.0799L10.9001 12.3799C10.6334 12.1588 10.461 11.8443 10.4183 11.5005C10.3756 11.1567 10.4656 10.8095 10.6701 10.5299L12.0001 9.20985C12.5528 8.64862 12.8626 7.89254 12.8626 7.10485C12.8626 6.31717 12.5528 5.56108 12.0001 4.99985L9.90014 2.89985C9.34625 2.33461 8.59145 2.01112 7.80015 1.99985C7.00823 2.0032 6.24976 2.31953 5.69015 2.87985L2.85015 5.71985C0.550146 7.99985 3.28015 13.2299 7.00014 16.9999C8.74698 18.812 10.8155 20.2837 13.1001 21.3399C14.0131 21.751 14.9991 21.9754 16.0001 21.9999C16.4156 22.0198 16.8308 21.9557 17.2208 21.8114C17.6109 21.667 17.9678 21.4454 18.2701 21.1599L21.1001 18.3299C21.6589 17.7678 21.9725 17.0074 21.9725 16.2149C21.9725 15.4223 21.6589 14.6619 21.1001 14.0999L19.0001 11.9999ZM19.6701 16.9099L16.8401 19.7399C16.4201 20.1599 15.2601 20.0599 13.8401 19.4799C11.7933 18.5216 9.93934 17.1964 8.37014 15.5699C4.59015 11.7099 3.40015 7.99985 4.26015 7.13985L7.09015 4.30985C7.18192 4.21355 7.29199 4.13653 7.4139 4.0833C7.53582 4.03007 7.66713 4.0017 7.80015 3.99985C8.05761 4.00088 8.30477 4.10117 8.49014 4.27985L10.5901 6.37985C10.7749 6.56611 10.879 6.81751 10.8801 7.07985C10.8764 7.34362 10.7686 7.59522 10.5801 7.77985L9.26014 9.10985C8.67545 9.76419 8.37267 10.6229 8.41761 11.4992C8.46255 12.3756 8.85158 13.1988 9.50014 13.7899L10.2001 14.4899C10.7926 15.137 11.6165 15.5242 12.4928 15.5672C13.3692 15.6103 14.2271 15.3058 14.8801 14.7199L16.1901 13.4099C16.3771 13.2266 16.6284 13.124 16.8901 13.124C17.1519 13.124 17.4032 13.2266 17.5901 13.4099L19.6901 15.5099C19.8661 15.6971 19.9632 15.9449 19.9613 16.2019C19.9595 16.4588 19.8588 16.7052 19.6801 16.8899L19.6701 16.9099ZM20.3501 3.64985C19.6929 2.97955 18.8825 2.47911 17.9888 2.19166C17.0951 1.90422 16.1449 1.83839 15.2201 1.99985C14.9605 2.05067 14.7315 2.20234 14.5834 2.42164C14.4354 2.64094 14.3802 2.90999 14.4301 3.16985C14.4552 3.29946 14.5058 3.42281 14.5788 3.5328C14.6518 3.64278 14.7459 3.73722 14.8556 3.81067C14.9653 3.88411 15.0884 3.93511 15.2179 3.96071C15.3475 3.98632 15.4807 3.98602 15.6101 3.95985C16.2213 3.84906 16.8503 3.89055 17.4415 4.08066C18.0328 4.27077 18.5681 4.60365 19.0001 5.04985C19.4454 5.47337 19.7817 5.99831 19.9802 6.5799C20.1787 7.16149 20.2336 7.78246 20.1401 8.38985C20.09 8.64828 20.1437 8.91606 20.2898 9.1351C20.4358 9.35414 20.6623 9.50676 20.9201 9.55985C20.9865 9.56929 21.0538 9.56929 21.1201 9.55985C21.3541 9.56457 21.5823 9.4871 21.765 9.34093C21.9477 9.19475 22.0734 8.98913 22.1201 8.75985C22.2644 7.82615 22.1796 6.87138 21.873 5.97773C21.5664 5.08409 21.0472 4.27834 20.3601 3.62985L20.3501 3.64985ZM17.8301 9.99985C17.8865 10.0077 17.9437 10.0077 18.0001 9.99985C18.2341 10.0046 18.4623 9.9271 18.645 9.78092C18.8277 9.63475 18.9534 9.42913 19.0001 9.19985C19.1155 8.6254 19.0843 8.03116 18.9096 7.47191C18.7348 6.91267 18.422 6.40642 18.0001 5.99985C17.5986 5.58587 17.1007 5.27786 16.551 5.10335C16.0013 4.92885 15.4169 4.89329 14.8501 4.99985C14.7162 5.01795 14.5873 5.06301 14.4712 5.13231C14.3552 5.20162 14.2544 5.29374 14.175 5.40309C14.0955 5.51245 14.0391 5.63678 14.009 5.76857C13.979 5.90036 13.9759 6.03687 14.0001 6.16985C14.02 6.30722 14.0683 6.43895 14.1418 6.55665C14.2154 6.67436 14.3126 6.77546 14.4274 6.85353C14.5421 6.9316 14.6719 6.98493 14.8084 7.01012C14.9448 7.03531 15.0851 7.03182 15.2201 6.99985C15.4671 6.96617 15.7186 6.99218 15.9535 7.0757C16.1884 7.15921 16.3998 7.2978 16.5701 7.47985C16.7372 7.6487 16.863 7.85391 16.9376 8.07943C17.0122 8.30496 17.0336 8.54468 17.0001 8.77985C16.9682 8.91492 16.9647 9.05516 16.9899 9.19165C17.0151 9.32814 17.0684 9.45789 17.1465 9.57264C17.2245 9.6874 17.3256 9.78465 17.4433 9.8582C17.5611 9.93175 17.6928 9.97999 17.8301 9.99985Z" fill="#545454"/>
</svg>
