<svg width="24" height="24" viewBox="0 0 24 24" fill="none" xmlns="http://www.w3.org/2000/svg">
<path d="M20.8967 14.2613C20.915 14.2158 20.9298 14.1689 20.9409 14.1211C20.9867 13.7491 21.0099 13.3748 21.0102 13C21.0122 11.2924 20.5254 9.6199 19.6074 8.18009C18.6893 6.74029 17.3783 5.59334 15.8293 4.87476C15.5907 4.04614 15.0891 3.31758 14.4002 2.79901C13.7113 2.28044 12.8724 2 12.0102 2C11.1479 2 10.309 2.28044 9.6201 2.79901C8.93119 3.31758 8.42962 4.04614 8.19107 4.87476C6.64204 5.59335 5.33106 6.7403 4.413 8.18011C3.49494 9.61991 3.00817 11.2924 3.0102 13C3.01052 13.3748 3.03367 13.7491 3.07953 14.1211C3.08992 14.1647 3.10341 14.2075 3.11988 14.2491C2.48807 14.9024 2.09869 15.752 2.01637 16.6571C1.93406 17.5621 2.16377 18.4681 2.66737 19.2246C3.17097 19.9811 3.91816 20.5425 4.78488 20.8158C5.6516 21.0891 6.58572 21.0577 7.43213 20.7268C7.45655 20.7509 7.48229 20.7737 7.50922 20.7949C8.8779 21.5844 10.4301 22 12.0102 22C13.5902 22 15.1425 21.5844 16.5112 20.7949C16.5381 20.7737 16.5638 20.7509 16.5883 20.7268C17.0414 20.9044 17.5235 20.997 18.0102 21C18.7926 21.0043 19.5589 20.7778 20.2132 20.3488C20.8675 19.9198 21.3808 19.3074 21.6889 18.5882C21.997 17.869 22.0861 17.0749 21.9452 16.3053C21.8043 15.5357 21.4396 14.8247 20.8967 14.2613ZM12.0102 4C12.4058 4 12.7924 4.11729 13.1213 4.33706C13.4502 4.55682 13.7066 4.86918 13.858 5.23463C14.0093 5.60008 14.0489 6.00221 13.9718 6.39018C13.8946 6.77814 13.7041 7.1345 13.4244 7.41421C13.1447 7.69391 12.7883 7.8844 12.4004 7.96157C12.0124 8.03874 11.6103 7.99913 11.2448 7.84775C10.8794 7.69638 10.567 7.44003 10.3473 7.11114C10.1275 6.78224 10.0102 6.39556 10.0102 6C10.0109 5.46977 10.2218 4.96147 10.5968 4.58654C10.9717 4.21162 11.48 4.00069 12.0102 4ZM4.0102 17C4.0102 16.6044 4.1275 16.2178 4.34726 15.8889C4.56703 15.56 4.87938 15.3036 5.24483 15.1522C5.61029 15.0009 6.01242 14.9613 6.40038 15.0384C6.78834 15.1156 7.14471 15.3061 7.42442 15.5858C7.70412 15.8655 7.8946 16.2219 7.97177 16.6098C8.04894 16.9978 8.00934 17.3999 7.85796 17.7654C7.70659 18.1308 7.45024 18.4432 7.12134 18.6629C6.79244 18.8827 6.40576 19 6.0102 19C5.47998 18.9993 4.97167 18.7884 4.59675 18.4134C4.22182 18.0385 4.01089 17.5302 4.0102 17ZM9.1922 19.3975C9.71992 18.7094 10.0073 17.8671 10.0102 17C10.0091 15.9395 9.58738 14.9227 8.83746 14.1727C8.08754 13.4228 7.07074 13.0011 6.0102 13C5.67515 13.0043 5.34199 13.0511 5.01874 13.1393C5.01782 13.0923 5.0102 13.0472 5.0102 13C5.00892 11.8352 5.30001 10.6888 5.85681 9.66571C6.4136 8.64265 7.21828 7.7757 8.19709 7.14435C8.43872 7.96847 8.94085 8.69214 9.62826 9.20695C10.3157 9.72176 11.1514 10 12.0102 10C12.869 10 13.7047 9.72176 14.3921 9.20695C15.0796 8.69214 15.5817 7.96847 15.8233 7.14435C16.8021 7.7757 17.6068 8.64265 18.1636 9.66571C18.7204 10.6888 19.0115 11.8352 19.0102 13C19.0102 13.0475 19.0026 13.093 19.0017 13.1403C18.2003 12.9281 17.3527 12.9718 16.5774 13.2653C15.8022 13.5588 15.1381 14.0873 14.6781 14.777C14.2182 15.4666 13.9854 16.2828 14.0123 17.1113C14.0392 17.9398 14.3245 18.7391 14.8282 19.3975C13.9375 19.7784 12.9789 19.9747 12.0102 19.9747C11.0415 19.9747 10.0829 19.7784 9.1922 19.3975ZM18.0102 19C17.6146 19 17.2279 18.8827 16.8989 18.663C16.57 18.4432 16.3136 18.1308 16.1622 17.7653C16.0108 17.3999 15.9712 16.9977 16.0483 16.6097C16.1255 16.2217 16.316 15.8653 16.5957 15.5855C16.8755 15.3058 17.2319 15.1153 17.6199 15.0381C18.0079 14.961 18.4101 15.0006 18.7755 15.152C19.141 15.3034 19.4534 15.5598 19.6732 15.8887C19.8929 16.2177 20.0102 16.6044 20.0102 17C20.0095 17.5302 19.7986 18.0385 19.4237 18.4134C19.0487 18.7884 18.5404 18.9993 18.0102 19Z" fill="#545454"/>
</svg>
