<svg width="24" height="24" viewBox="0 0 24 24" fill="none" xmlns="http://www.w3.org/2000/svg">
<path fill-rule="evenodd" clip-rule="evenodd" d="M22 17C22 19.7568 19.7568 22 17 22H11C10.4478 22 10 21.5527 10 21C10 20.4473 10.4478 20 11 20H17C18.6543 20 20 18.6543 20 17V11H18C15.2432 11 13 8.75684 13 6V4H7C5.3457 4 4 5.3457 4 7V12C4 12.5522 3.55225 13 3 13C2.44775 13 2 12.5522 2 12V7C2 4.24316 4.24316 2 7 2H15C15.2656 2 15.5195 2.10547 15.707 2.29297L21.707 8.29297C21.8945 8.48047 22 8.73486 22 9V17ZM15 4.41406V6C15 7.6543 16.3457 9 18 9H19.5859L15 4.41406Z" fill="#545454"/>
<path fill-rule="evenodd" clip-rule="evenodd" d="M7.16644 18.2471C7.90354 18.7234 8.78113 19 9.72217 19C12.3262 19 14.4443 16.8818 14.4443 14.2773C14.4443 11.6738 12.3262 9.55566 9.72217 9.55566C7.11816 9.55566 5 11.6738 5 14.2773C5 15.2184 5.2765 16.0959 5.75252 16.8329L2.29296 20.293C1.90235 20.6836 1.90235 21.3164 2.29296 21.707C2.48828 21.9023 2.74414 22 3 22C3.25586 22 3.51171 21.9023 3.70703 21.707L7.16644 18.2471ZM7 14.2773C7 12.7764 8.22119 11.5557 9.72217 11.5557C11.2231 11.5557 12.4443 12.7764 12.4443 14.2773C12.4443 15.7783 11.2232 17 9.72217 17C8.22119 17 7 15.7783 7 14.2773Z" fill="#545454"/>
</svg>
