<svg width="24" height="24" viewBox="0 0 24 24" fill="none" xmlns="http://www.w3.org/2000/svg">
<path fill-rule="evenodd" clip-rule="evenodd" d="M2 21C2 21.5527 2.44775 22 3 22C3.55224 22 4 21.5527 4 21V16H21C21.332 16 21.6416 15.835 21.8281 15.5605C22.0137 15.2861 22.0518 14.9365 21.9287 14.6289L20.0771 10L21.9287 5.37158C22.0518 5.06347 22.0137 4.71435 21.8281 4.43945C21.6416 4.16455 21.332 4 21 4H4V3C4 2.44775 3.55225 2 3 2C2.44775 2 2 2.44775 2 3V21ZM4 6V14H19.5234L18.0713 10.3716C17.9766 10.1328 17.9766 9.86719 18.0713 9.62842L19.5234 6H4Z" fill="#545454"/>
</svg>
