<svg width="24" height="24" viewBox="0 0 24 24" fill="none" xmlns="http://www.w3.org/2000/svg">
<path d="M21.024 11.5588C20.8926 11.5492 20.7607 11.566 20.6359 11.6081C20.5111 11.6502 20.396 11.7167 20.2972 11.8038C20.1985 11.8909 20.1181 11.9969 20.0608 12.1154C20.0035 12.234 19.9704 12.3628 19.9634 12.4943C19.9252 13.0915 19.8211 13.6827 19.6528 14.257C19.2345 15.6865 18.425 16.9705 17.3157 17.9643C16.2063 18.9581 14.8413 19.6221 13.3747 19.8813C11.908 20.1406 10.3981 19.9848 9.01533 19.4315C7.63254 18.8782 6.4319 17.9494 5.54889 16.75L6.45752 16.881C6.71983 16.9182 6.98615 16.8497 7.19807 16.6908C7.40999 16.5318 7.55021 16.2953 7.58796 16.033C7.62572 15.7708 7.55793 15.5043 7.39947 15.292C7.24101 15.0797 7.00481 14.9389 6.74268 14.9006L3.60694 14.4484C3.34447 14.4116 3.07809 14.4801 2.86588 14.6388C2.65368 14.7976 2.51286 15.0339 2.47412 15.2961L2.02198 18.4318C1.98434 18.6944 2.05248 18.9612 2.21141 19.1736C2.37035 19.386 2.60709 19.5267 2.86964 19.5646C2.9172 19.5712 2.96517 19.5745 3.01319 19.5744C3.25353 19.574 3.48572 19.4872 3.66734 19.3297C3.84896 19.1723 3.9679 18.9548 4.00245 18.717L4.08595 18.1363C5.33274 19.7391 7.03791 20.9243 8.97468 21.5343C10.9115 22.1443 12.988 22.1503 14.9283 21.5514C16.8685 20.9525 18.5805 19.7771 19.8365 18.1816C21.0925 16.5861 21.8329 14.646 21.9595 12.6193C21.9677 12.4883 21.95 12.3569 21.9074 12.2326C21.8649 12.1084 21.7982 11.9938 21.7114 11.8953C21.6245 11.7968 21.5191 11.7164 21.4011 11.6587C21.2832 11.6009 21.155 11.567 21.024 11.5588ZM2.92826 12.4416C2.94975 12.4426 2.97126 12.4435 2.99272 12.4435C3.24675 12.4432 3.49114 12.3462 3.67631 12.1723C3.86149 11.9984 3.97357 11.7605 3.98984 11.507C4.02857 10.9095 4.13304 10.318 4.30135 9.74336C4.72204 8.30387 5.53949 7.01189 6.66017 6.01528C7.78084 5.01868 9.15945 4.35772 10.6382 4.10804C12.117 3.85836 13.6362 4.03005 15.022 4.60347C16.4077 5.17688 17.6041 6.12885 18.474 7.35043L17.562 7.2189C17.2998 7.18186 17.0335 7.25033 16.8217 7.40931C16.6098 7.56828 16.4696 7.80478 16.4319 8.06695C16.3941 8.32911 16.4619 8.59555 16.6203 8.80783C16.7787 9.02012 17.0148 9.16092 17.2769 9.19937L20.4126 9.65152C20.4602 9.65815 20.5082 9.66141 20.5562 9.66129C20.7965 9.66089 21.0287 9.57405 21.2103 9.41663C21.392 9.25921 21.5109 9.04172 21.5454 8.80386L21.9976 5.66812C22.0167 5.53791 22.0099 5.40521 21.9777 5.27762C21.9454 5.15003 21.8883 5.03006 21.8096 4.92458C21.7309 4.8191 21.6321 4.73019 21.519 4.66293C21.4059 4.59568 21.2806 4.55141 21.1503 4.53265C21.02 4.5139 20.8874 4.52103 20.7599 4.55363C20.6324 4.58624 20.5125 4.64369 20.4073 4.72268C20.302 4.80166 20.2134 4.90065 20.1464 5.01395C20.0795 5.12726 20.0355 5.25266 20.0171 5.38297L19.9354 5.95102C18.8166 4.47786 17.311 3.34401 15.5862 2.67562C13.8613 2.00724 11.9848 1.83055 10.1655 2.1652C8.34622 2.49986 6.65545 3.33274 5.28135 4.57116C3.90724 5.80959 2.9037 7.40499 2.38239 9.17984C2.17208 9.89666 2.04172 10.6345 1.99369 11.38C1.97699 11.6447 2.06605 11.9052 2.24129 12.1042C2.41652 12.3033 2.66361 12.4246 2.92826 12.4416ZM11.9937 18.0002C12.125 18.0002 12.2551 17.9744 12.3765 17.9242C12.4978 17.874 12.6081 17.8003 12.701 17.7074C12.7938 17.6146 12.8675 17.5043 12.9177 17.3829C12.9679 17.2616 12.9938 17.1315 12.9937 17.0002V16.3163C13.6847 16.2745 14.3322 15.965 14.7987 15.4536C15.2652 14.9421 15.514 14.269 15.4922 13.5771C15.4705 12.8852 15.1799 12.229 14.6823 11.7479C14.1846 11.2667 13.5189 10.9985 12.8267 11.0002H11.1607C10.9838 11.0001 10.8142 10.9298 10.6891 10.8047C10.564 10.6796 10.4938 10.51 10.4937 10.3332C10.4961 10.1571 10.5672 9.98896 10.6918 9.86456C10.8164 9.74015 10.9846 9.66932 11.1607 9.66715H13.9937C14.2589 9.66715 14.5133 9.5618 14.7008 9.37426C14.8883 9.18672 14.9937 8.93237 14.9937 8.66715C14.9937 8.40194 14.8883 8.14758 14.7008 7.96005C14.5133 7.77251 14.2589 7.66715 13.9937 7.66715H12.9937V7.00015C12.9937 6.73494 12.8883 6.48058 12.7008 6.29305C12.5133 6.10551 12.2589 6.00015 11.9937 6.00015C11.7285 6.00015 11.4741 6.10551 11.2866 6.29305C11.099 6.48058 10.9937 6.73494 10.9937 7.00015V7.68403C10.3027 7.72582 9.65522 8.03529 9.18871 8.54673C8.72219 9.05816 8.47339 9.73129 8.49513 10.4232C8.51686 11.1151 8.80742 11.7713 9.30512 12.2524C9.80281 12.7336 10.4684 13.0018 11.1607 13.0001H12.8267C13.0036 13.0002 13.1732 13.0705 13.2982 13.1956C13.4233 13.3206 13.4936 13.4903 13.4937 13.6671C13.4913 13.8432 13.4202 14.0113 13.2956 14.1357C13.171 14.2601 13.0027 14.331 12.8267 14.3331H9.99368C9.72847 14.3331 9.47411 14.4385 9.28658 14.626C9.09904 14.8136 8.99368 15.0679 8.99368 15.3331C8.99368 15.5984 9.09904 15.8527 9.28658 16.0402C9.47411 16.2278 9.72847 16.3331 9.99368 16.3331H10.9937V17.0001C10.9936 17.1315 11.0194 17.2616 11.0696 17.3829C11.1199 17.5043 11.1935 17.6145 11.2864 17.7074C11.3793 17.8003 11.4895 17.874 11.6109 17.9242C11.7323 17.9744 11.8623 18.0002 11.9937 18.0002Z" fill="#545454"/>
</svg>
