<svg width="24" height="24" viewBox="0 0 24 24" fill="none" xmlns="http://www.w3.org/2000/svg">
<path d="M21.7065 8.293L15.7065 2.293C15.6137 2.2001 15.5035 2.12641 15.3822 2.07614C15.2609 2.02586 15.1308 1.99999 14.9995 2H6.99951C5.67391 2.00156 4.40304 2.52884 3.4657 3.46618C2.52835 4.40353 2.00107 5.6744 1.99951 7V17C2.00107 18.3256 2.52835 19.5965 3.4657 20.5338C4.40304 21.4712 5.67391 21.9984 6.99951 22H16.9995C18.3251 21.9984 19.596 21.4712 20.5333 20.5338C21.4707 19.5965 21.998 18.3256 21.9995 17V9C21.9995 8.86868 21.9737 8.73865 21.9234 8.61734C21.8731 8.49603 21.7994 8.38581 21.7065 8.293ZM14.9995 4.41409L19.5855 9.00003H17.9995C17.2041 8.99916 16.4415 8.68281 15.8791 8.12039C15.3167 7.55797 15.0003 6.79541 14.9995 6.00003L14.9995 4.41409ZM19.9995 17C19.9986 17.7954 19.6823 18.558 19.1199 19.1204C18.5575 19.6828 17.7949 19.9992 16.9995 20H6.99951C6.20413 19.9992 5.44157 19.6828 4.87915 19.1204C4.31673 18.558 4.00038 17.7954 3.99951 17V7.00003C4.00038 6.20465 4.31673 5.44209 4.87915 4.87967C5.44157 4.31725 6.20413 4.0009 6.99951 4.00003H12.9995V6.00003C13.0011 7.32564 13.5284 8.5965 14.4657 9.53385C15.403 10.4712 16.6739 10.9985 17.9995 11H19.9995V17ZM7.85092 12.9981H6.32943C6.19682 12.9981 6.06965 13.0508 5.97588 13.1445C5.88211 13.2383 5.82943 13.3655 5.82943 13.4981V17.4239H6.99936V16.0742H7.85092C8.27325 16.0776 8.68105 15.9203 8.99168 15.6341C9.30231 15.348 9.49253 14.9544 9.52377 14.5332C9.49224 14.1127 9.30175 13.7199 8.99102 13.4348C8.68029 13.1496 8.27264 12.9935 7.85092 12.9981ZM7.81479 15.1211H6.99936V13.9453H7.81483C7.96538 13.9533 8.10714 14.0187 8.21089 14.1281C8.31464 14.2375 8.37248 14.3825 8.37248 14.5332C8.37248 14.684 8.31464 14.829 8.21089 14.9384C8.10714 15.0478 7.96538 15.1132 7.81483 15.1211L7.81479 15.1211ZM14.6615 13.5107V17.4482H15.8314V15.6729H17.8578V14.7198H15.8314V13.9639H18.1703V13.0166L15.1624 13.0107C15.0967 13.0106 15.0316 13.0235 14.9708 13.0485C14.91 13.0736 14.8548 13.1104 14.8083 13.1569C14.7617 13.2033 14.7248 13.2585 14.6996 13.3192C14.6744 13.3799 14.6615 13.445 14.6615 13.5108V13.5107ZM11.8587 12.9981H10.4457C10.38 12.9981 10.315 13.011 10.2543 13.0361C10.1936 13.0612 10.1385 13.0981 10.0921 13.1445C10.0457 13.1909 10.0088 13.2461 9.9837 13.3067C9.95857 13.3674 9.94564 13.4324 9.94565 13.4981V16.9297C9.94565 17.0623 9.99833 17.1895 10.0921 17.2833C10.1859 17.377 10.313 17.4297 10.4457 17.4297H11.8587C12.4558 17.4331 13.0311 17.2051 13.4638 16.7937C13.8966 16.3822 14.1532 15.8192 14.18 15.2227V15.2051C14.1542 14.6083 13.8979 14.0447 13.4649 13.633C13.032 13.2213 12.4562 12.9937 11.8587 12.9981ZM13.0101 15.2471C13.011 15.5793 12.8859 15.8995 12.6602 16.1433C12.4344 16.387 12.1246 16.5361 11.7933 16.5606H11.1156V13.8614H11.805C12.1338 13.887 12.4408 14.036 12.6643 14.2786C12.8878 14.5211 13.0114 14.8392 13.0101 15.169V15.2471Z" fill="#545454"/>
</svg>
