<svg width="24" height="24" viewBox="0 0 24 24" fill="none" xmlns="http://www.w3.org/2000/svg">
<path d="M16 9.26464V8.41406L16.707 7.70706C16.835 7.57874 16.9258 7.41808 16.9697 7.24221L17.9697 3.24221C18.0066 3.09483 18.0093 2.94099 17.9778 2.79238C17.9463 2.64377 17.8814 2.50429 17.7879 2.38454C17.6944 2.26479 17.5749 2.16792 17.4384 2.10129C17.3018 2.03466 17.1519 2.00002 17 2H7C6.84809 2.00001 6.69817 2.03465 6.56165 2.10128C6.42512 2.16791 6.30558 2.26477 6.2121 2.38452C6.11861 2.50426 6.05365 2.64374 6.02215 2.79235C5.99064 2.94096 5.99342 3.0948 6.03027 3.24218L7.03027 7.24218C7.07415 7.41806 7.16496 7.57874 7.293 7.70706L8 8.41406V9.28125C6.83231 9.71687 5.82454 10.497 5.11021 11.5183C4.39588 12.5395 4.00871 13.7537 4 15C3.99993 15.1313 4.02574 15.2614 4.07597 15.3828C4.1262 15.5041 4.19985 15.6144 4.29273 15.7073C4.3856 15.8001 4.49587 15.8738 4.61723 15.924C4.73859 15.9743 4.86866 16.0001 5 16H8.38184L11.1055 21.4473C11.1886 21.6134 11.3162 21.753 11.4742 21.8507C11.6322 21.9483 11.8143 22 12 22C12.1857 22 12.3678 21.9483 12.5258 21.8507C12.6838 21.753 12.8114 21.6134 12.8945 21.4473L15.6182 16H19C19.1313 16.0001 19.2614 15.9743 19.3828 15.924C19.5041 15.8738 19.6144 15.8001 19.7073 15.7073C19.8001 15.6144 19.8738 15.5041 19.924 15.3828C19.9743 15.2614 20.0001 15.1313 20 15C19.9808 13.7542 19.5897 12.5426 18.877 11.5207C18.1643 10.4988 17.1624 9.71313 16 9.26464ZM12 18.7636L10.6182 16H13.3818L12 18.7636ZM6.11523 14C6.33776 13.2717 6.74131 12.6118 7.28817 12.0818C7.83503 11.5519 8.50733 11.1693 9.24223 10.9697C9.45861 10.9158 9.65073 10.791 9.78804 10.6153C9.92535 10.4396 9.99996 10.223 10 10V8C10 7.86868 9.97414 7.73865 9.92386 7.61734C9.87359 7.49603 9.7999 7.38581 9.707 7.293L8.90329 6.48832L8.28125 4H15.7188L15.0967 6.48828L14.293 7.29296C14.2001 7.38577 14.1264 7.49599 14.0761 7.6173C14.0259 7.73861 14 7.86864 14 7.99996V9.99996C14 10.223 14.0747 10.4396 14.212 10.6153C14.3493 10.791 14.5414 10.9157 14.7578 10.9697C15.5041 11.1357 16.1889 11.5076 16.7344 12.0433C17.2798 12.5789 17.6642 13.2568 17.8438 14L6.11523 14Z" fill="#545454"/>
</svg>
