<svg width="24" height="24" viewBox="0 0 24 24" fill="none" xmlns="http://www.w3.org/2000/svg">
<path d="M21.923 2.61822C21.8471 2.43575 21.7191 2.27974 21.5549 2.16977C21.3907 2.05979 21.1977 2.00073 21 2H12C11.7348 2 11.4805 2.10536 11.2929 2.29289C11.1054 2.48043 11 2.73478 11 3C11 3.26522 11.1054 3.51957 11.2929 3.70711C11.4805 3.89464 11.7348 4 12 4H18.586L9.29296 13.293C9.19916 13.3856 9.1246 13.4959 9.07357 13.6175C9.02255 13.739 8.99607 13.8695 8.99566 14.0013C8.99525 14.1332 9.02092 14.2638 9.07118 14.3857C9.12144 14.5075 9.19531 14.6183 9.28854 14.7115C9.38176 14.8047 9.4925 14.8786 9.61438 14.9288C9.73627 14.9791 9.86688 15.0047 9.99872 15.0043C10.1306 15.0039 10.261 14.9774 10.3826 14.9264C10.5041 14.8754 10.6144 14.8008 10.707 14.707L20 5.41399V12C20 12.2652 20.1054 12.5196 20.2929 12.7071C20.4805 12.8946 20.7348 13 21 13C21.2652 13 21.5196 12.8946 21.7071 12.7071C21.8947 12.5196 22 12.2652 22 12V2.99999C21.9996 2.86892 21.9735 2.7392 21.923 2.61822ZM18 9.99999C17.8687 9.99991 17.7386 10.0257 17.6172 10.076C17.4959 10.1262 17.3856 10.1998 17.2927 10.2927C17.1999 10.3856 17.1262 10.4959 17.076 10.6172C17.0257 10.7386 16.9999 10.8686 17 11V17C16.9991 17.7954 16.6828 18.5579 16.1204 19.1203C15.5579 19.6828 14.7954 19.9991 14 20H7C6.20462 19.9991 5.44206 19.6828 4.87964 19.1203C4.31722 18.5579 4.00087 17.7954 4 17V9.99999C4.00087 9.20461 4.31722 8.44205 4.87964 7.87963C5.44206 7.31721 6.20462 7.00086 7 6.99999H13C13.2652 6.99999 13.5196 6.89463 13.7071 6.7071C13.8946 6.51956 14 6.26521 14 5.99999C14 5.73477 13.8946 5.48042 13.7071 5.29288C13.5196 5.10535 13.2652 4.99999 13 4.99999H7C5.6744 5.00155 4.40353 5.52883 3.46618 6.46617C2.52884 7.40352 2.00156 8.67439 2 9.99999V17C2.00156 18.3256 2.52884 19.5965 3.46619 20.5338C4.40353 21.4711 5.6744 21.9984 7 22H14C15.3256 21.9984 16.5965 21.4711 17.5338 20.5338C18.4712 19.5965 18.9984 18.3256 19 17V11C19.0001 10.8686 18.9743 10.7386 18.924 10.6172C18.8738 10.4959 18.8001 10.3856 18.7073 10.2927C18.6144 10.1998 18.5041 10.1262 18.3828 10.076C18.2614 10.0257 18.1313 9.99991 18 9.99999Z" fill="#545454"/>
</svg>
