<svg width="24" height="24" viewBox="0 0 24 24" fill="none" xmlns="http://www.w3.org/2000/svg">
<path d="M19.0005 6H18.0005V3C18.0006 2.86866 17.9748 2.73859 17.9245 2.61723C17.8743 2.49587 17.8006 2.3856 17.7078 2.29272C17.6149 2.19985 17.5046 2.12619 17.3833 2.07597C17.2619 2.02574 17.1318 1.99992 17.0005 2H7.00049C6.86914 1.99992 6.73907 2.02574 6.61771 2.07597C6.49636 2.12619 6.38609 2.19985 6.29321 2.29272C6.20034 2.3856 6.12668 2.49587 6.07645 2.61723C6.02623 2.73859 6.00041 2.86866 6.00049 3V6H5.00049C4.20511 6.00087 3.44255 6.31722 2.88013 6.87964C2.31771 7.44206 2.00136 8.20462 2.00049 9V15C2.00136 15.7954 2.31771 16.5579 2.88013 17.1204C3.44255 17.6828 4.20511 17.9991 5.00049 18H6.00049V21C6.00041 21.1313 6.02623 21.2614 6.07645 21.3828C6.12668 21.5041 6.20034 21.6144 6.29321 21.7073C6.38609 21.8001 6.49636 21.8738 6.61771 21.924C6.73907 21.9743 6.86914 22.0001 7.00049 22H17.0005C17.1318 22.0001 17.2619 21.9743 17.3833 21.924C17.5046 21.8738 17.6149 21.8001 17.7078 21.7073C17.8006 21.6144 17.8743 21.5041 17.9245 21.3828C17.9747 21.2614 18.0006 21.1313 18.0005 21V18H19.0005C19.7959 17.9991 20.5584 17.6828 21.1208 17.1204C21.6833 16.5579 21.9996 15.7954 22.0005 15V9C21.9996 8.20462 21.6833 7.44206 21.1208 6.87964C20.5584 6.31722 19.7959 6.00087 19.0005 6ZM8.00049 4H16.0005V6H8.00049V4ZM16.0005 20H8.00049V14H16.0005V20ZM20.0005 15C20.0003 15.2652 19.8949 15.5194 19.7074 15.7069C19.5199 15.8944 19.2656 15.9998 19.0005 16H18.0005V13C18.0006 12.8687 17.9748 12.7386 17.9245 12.6172C17.8743 12.4959 17.8006 12.3856 17.7078 12.2927C17.6149 12.1999 17.5046 12.1262 17.3833 12.076C17.2619 12.0257 17.1318 11.9999 17.0005 12H7.00049C6.86914 11.9999 6.73907 12.0257 6.61771 12.076C6.49636 12.1262 6.38609 12.1999 6.29321 12.2927C6.20034 12.3856 6.12668 12.4959 6.07645 12.6172C6.02623 12.7386 6.00041 12.8687 6.00049 13V16H5.00049C4.73533 15.9998 4.48108 15.8944 4.29358 15.7069C4.10608 15.5194 4.00067 15.2652 4.00049 15V9C4.00067 8.73484 4.10608 8.48059 4.29358 8.29309C4.48108 8.10559 4.73533 8.00018 5.00049 8H19.0005C19.2656 8.00018 19.5199 8.1056 19.7074 8.29309C19.8949 8.48059 20.0003 8.73484 20.0005 9V15Z" fill="#545454"/>
</svg>
