<svg width="24" height="24" viewBox="0 0 24 24" fill="none" xmlns="http://www.w3.org/2000/svg">
<path fill-rule="evenodd" clip-rule="evenodd" d="M5 7C5 9.75684 7.24316 12 10 12C12.7568 12 15 9.75684 15 7C15 4.24316 12.7568 2 10 2C7.24316 2 5 4.24316 5 7ZM7 7C7 5.3457 8.3457 4 10 4C11.6543 4 13 5.3457 13 7C13 8.6543 11.6543 10 10 10C8.3457 10 7 8.6543 7 7Z" fill="#545454"/>
<path d="M16 21C16 21.5527 16.4473 22 17 22C17.5527 22 18 21.5527 18 21V20C18 16.6914 15.3086 14 12 14H8C4.69141 14 2 16.6914 2 20V21C2 21.5527 2.44775 22 3 22C3.55225 22 4 21.5527 4 21V20C4 17.7939 5.79443 16 8 16H12C14.206 16 16 17.7939 16 20V21Z" fill="#545454"/>
<path d="M15.167 13.667C14.7968 13.667 14.4287 13.6113 14.0068 13.4941C13.4746 13.3457 13.164 12.7939 13.3125 12.2617C13.4609 11.7285 14.0166 11.4199 14.5439 11.5674C14.7861 11.6352 14.9843 11.6665 15.167 11.6665C16.4531 11.6665 17.5 10.6201 17.5 9.33348C17.5 8.54393 17.1006 7.81297 16.4316 7.37889C15.9687 7.07811 15.8369 6.45848 16.1377 5.99559C16.4384 5.5327 17.0556 5.40135 17.5215 5.70116C18.7607 6.50585 19.5 7.86376 19.5 9.33349C19.5 11.7227 17.5566 13.667 15.167 13.667Z" fill="#545454"/>
<path d="M20 21C20 21.5527 20.4473 22 21 22C21.5527 22 22 21.5527 22 21V20.167C22 18.5664 21.2627 17.0791 19.9766 16.0869C19.5362 15.75 18.9102 15.8311 18.5733 16.2676C18.2363 16.7051 18.3174 17.333 18.7539 17.6709C19.5459 18.2812 20 19.1914 20 20.167V21Z" fill="#545454"/>
</svg>
