<svg width="24" height="24" viewBox="0 0 24 24" fill="none" xmlns="http://www.w3.org/2000/svg">
<path d="M21.9006 20.5659L18.5256 13.5659C18.444 13.3965 18.3162 13.2535 18.1569 13.1535C17.9976 13.0534 17.8133 13.0004 17.6252 13.0005H16.9496C16.9832 12.8359 17.0001 12.6684 17.0002 12.5005V11.5005C16.9995 10.9244 16.8002 10.3662 16.4359 9.92C16.0716 9.47379 15.5645 9.16687 15.0002 9.05103V5.00049C15.0002 4.20484 14.6841 3.44178 14.1215 2.87917C13.5589 2.31656 12.7958 2.00049 12.0002 2.00049C11.2045 2.00049 10.4415 2.31656 9.87886 2.87917C9.31626 3.44178 9.00019 4.20484 9.00019 5.00049V9.05103C8.43589 9.16687 7.92882 9.47379 7.56448 9.92C7.20014 10.3662 7.00084 10.9244 7.00019 11.5005V12.5005C7.00022 12.6684 7.01715 12.8359 7.05073 13.0005H6.37519C6.18709 13.0004 6.0028 13.0534 5.84351 13.1535C5.68422 13.2535 5.55641 13.3965 5.4748 13.5659L2.0998 20.5659C2.02616 20.7183 1.99243 20.887 2.00177 21.056C2.01111 21.225 2.06322 21.3889 2.1532 21.5322C2.24319 21.6756 2.36811 21.7938 2.51625 21.8757C2.6644 21.9576 2.83091 22.0005 3.00019 22.0005H21.0002C21.1695 22.0005 21.336 21.9576 21.4841 21.8757C21.6323 21.7938 21.7572 21.6756 21.8472 21.5322C21.9372 21.3889 21.9893 21.225 21.9986 21.056C22.0079 20.887 21.9742 20.7183 21.9006 20.5659ZM11.0002 5.00049C11.0002 4.73527 11.1055 4.48092 11.2931 4.29338C11.4806 4.10584 11.735 4.00049 12.0002 4.00049C12.2654 4.00049 12.5198 4.10584 12.7073 4.29338C12.8948 4.48092 13.0002 4.73527 13.0002 5.00049V9.00049H11.0002V5.00049ZM9.00019 12.5005V11.5005C9.00045 11.368 9.05321 11.2409 9.14692 11.1472C9.24063 11.0535 9.36766 11.0008 9.50019 11.0005H14.5002C14.6327 11.0008 14.7597 11.0535 14.8534 11.1472C14.9472 11.2409 14.9999 11.368 15.0002 11.5005V12.5005C14.9999 12.633 14.9472 12.76 14.8534 12.8538C14.7597 12.9475 14.6327 13.0002 14.5002 13.0005H9.50019C9.36766 13.0002 9.24063 12.9475 9.14692 12.8538C9.05321 12.76 9.00045 12.633 9.00019 12.5005ZM4.59296 20.0005L7.00312 15.0005H9.00019V17.0005C9.00019 17.2657 9.10554 17.5201 9.29308 17.7076C9.48061 17.8951 9.73497 18.0005 10.0002 18.0005C10.2654 18.0005 10.5198 17.8951 10.7073 17.7076C10.8948 17.5201 11.0002 17.2657 11.0002 17.0005V15.0005H13.0002V17.0005C13.0002 17.2657 13.1055 17.5201 13.2931 17.7076C13.4806 17.8951 13.735 18.0005 14.0002 18.0005C14.2654 18.0005 14.5198 17.8951 14.7073 17.7076C14.8948 17.5201 15.0002 17.2657 15.0002 17.0005V15.0005H16.9973L19.4074 20.0005H4.59296Z" fill="#545454"/>
</svg>
