<svg width="24" height="24" viewBox="0 0 24 24" fill="none" xmlns="http://www.w3.org/2000/svg">
<path d="M8.25008 5.75008C8.25008 4.59949 9.18282 3.66675 10.3334 3.66675C11.484 3.66675 12.4167 4.59949 12.4167 5.75008V7.00008H13.2501C14.4149 7.00008 14.9973 7.00008 15.4568 7.19038C16.0693 7.44411 16.5561 7.93081 16.8097 8.54337C17.0001 9.0028 17.0001 9.58523 17.0001 10.7501H18.2501C19.4007 10.7501 20.3334 11.6828 20.3334 12.8334C20.3334 13.984 19.4007 14.9167 18.2501 14.9167H17.0001V16.3334C17.0001 17.7336 17.0001 18.4336 16.7276 18.9684C16.4879 19.4388 16.1055 19.8212 15.6351 20.0609C15.1002 20.3334 14.4002 20.3334 13.0001 20.3334H12.4167V18.8751C12.4167 17.8396 11.5772 17.0001 10.5417 17.0001C9.50621 17.0001 8.66675 17.8396 8.66675 18.8751V20.3334H7.66675C6.26661 20.3334 5.56655 20.3334 5.03177 20.0609C4.56136 19.8212 4.17891 19.4388 3.93923 18.9684C3.66675 18.4336 3.66675 17.7336 3.66675 16.3334V14.9167H4.91675C6.06734 14.9167 7.00008 13.984 7.00008 12.8334C7.00008 11.6828 6.06734 10.7501 4.91675 10.7501H3.66675C3.66675 9.58523 3.66675 9.0028 3.85705 8.54337C4.11078 7.93081 4.59747 7.44411 5.21004 7.19038C5.66946 7.00008 6.2519 7.00008 7.41675 7.00008H8.25008V5.75008Z" stroke="#545454" stroke-width="1.75" stroke-linecap="round" stroke-linejoin="round"/>
</svg>
