<svg width="24" height="24" viewBox="0 0 24 24" fill="none" xmlns="http://www.w3.org/2000/svg">
<path d="M21.707 6.29297C21.3164 5.90235 20.6836 5.90235 20.293 6.29297L17 9.58594L14.4141 7L17.707 3.70703C18.0976 3.31641 18.0976 2.68358 17.707 2.29296C17.3164 1.90235 16.6836 1.90235 16.293 2.29296L13 5.58593L11.707 4.29297C11.3164 3.90235 10.6836 3.90235 10.293 4.29297L5.29297 9.29296C3.06317 11.5223 4.06738 14.8831 5.63709 16.9488L2.29296 20.293C1.90235 20.6836 1.90235 21.3164 2.29296 21.707C2.48827 21.9023 2.74414 22 3 22C3.25586 22 3.51172 21.9023 3.70703 21.707L7.07617 18.3379C8.30877 19.1839 10.0607 19.7803 11.6748 19.7803C12.8506 19.7803 13.9482 19.4658 14.707 18.707L19.707 13.707C20.0976 13.3164 20.0976 12.6836 19.707 12.293L18.4141 11L21.707 7.70703C22.0977 7.31641 22.0977 6.68359 21.707 6.29297ZM13.293 17.293C12.3271 18.2578 9.09179 17.6777 7.70703 16.293C6.36133 14.9473 5.23046 12.1836 6.70703 10.707L11 6.41406L17.5859 13L13.293 17.293Z" fill="#545454"/>
</svg>
