<svg width="24" height="24" viewBox="0 0 24 24" fill="none" xmlns="http://www.w3.org/2000/svg">
<path d="M21.0337 11.5515C20.9025 11.5427 20.7708 11.5599 20.6463 11.6022C20.5218 11.6445 20.4069 11.7111 20.3083 11.7981C20.2097 11.8851 20.1293 11.9908 20.0718 12.1091C20.0142 12.2273 19.9807 12.3558 19.9731 12.4871C19.935 13.0843 19.8308 13.6755 19.6626 14.2498C19.2443 15.6791 18.4349 16.9631 17.3257 17.9568C16.2165 18.9506 14.8516 19.6146 13.3851 19.874C11.9186 20.1333 10.4088 19.9777 9.02604 19.4246C7.64328 18.8715 6.4426 17.943 5.55946 16.7439L6.46729 16.8748C6.59748 16.8939 6.73016 16.8871 6.85772 16.8548C6.98528 16.8225 7.10522 16.7653 7.21067 16.6866C7.31612 16.6079 7.40501 16.5092 7.47224 16.3961C7.53947 16.283 7.58373 16.1577 7.60249 16.0275C7.62124 15.8972 7.61412 15.7646 7.58152 15.6371C7.54893 15.5096 7.49151 15.3898 7.41255 15.2846C7.33359 15.1793 7.23464 15.0906 7.12137 15.0237C7.0081 14.9567 6.88273 14.9128 6.75245 14.8943L3.61671 14.4422C3.35422 14.4052 3.08777 14.4736 2.87553 14.6324C2.66329 14.7912 2.5225 15.0276 2.4839 15.2898L2.03175 18.4246C1.99412 18.6872 2.06225 18.954 2.22118 19.1664C2.38011 19.3788 2.61685 19.5194 2.8794 19.5574C2.92696 19.564 2.97493 19.5673 3.02296 19.5672C3.2633 19.5668 3.49549 19.4799 3.67711 19.3225C3.85873 19.1651 3.97767 18.9476 4.01222 18.7098L4.09577 18.1292C5.34257 19.7319 7.04775 20.9171 8.98452 21.5271C10.9213 22.1371 12.9979 22.143 14.9381 21.5441C16.8783 20.9452 18.5903 19.7699 19.8463 18.1743C21.1022 16.5788 21.8427 14.6387 21.9692 12.6121C21.9775 12.481 21.9598 12.3496 21.9172 12.2254C21.8746 12.1012 21.808 11.9865 21.7211 11.8881C21.6342 11.7896 21.5288 11.7092 21.4109 11.6514C21.2929 11.5937 21.1648 11.5597 21.0337 11.5515ZM2.93995 12.4344C2.96143 12.4354 2.98295 12.4363 3.00343 12.4363C3.25761 12.4359 3.5021 12.3388 3.68728 12.1647C3.87246 11.9905 3.98444 11.7525 4.0005 11.4988C4.03868 10.9016 4.14284 10.3104 4.31106 9.73611C4.73168 8.29654 5.54912 7.00448 6.66981 6.00782C7.79049 5.01115 9.16915 4.35015 10.648 4.10047C12.1268 3.85079 13.6461 4.02252 15.0319 4.59601C16.4176 5.16949 17.614 6.12155 18.4839 7.34323L17.5718 7.2117C17.4416 7.19263 17.3089 7.19944 17.1814 7.23172C17.0538 7.26401 16.9339 7.32114 16.8284 7.39985C16.723 7.47856 16.6341 7.57729 16.5668 7.6904C16.4996 7.80351 16.4553 7.92877 16.4366 8.05901C16.4178 8.18925 16.425 8.32191 16.4576 8.4494C16.4901 8.57688 16.5476 8.69668 16.6265 8.80194C16.7055 8.9072 16.8044 8.99585 16.9177 9.06281C17.031 9.12977 17.1563 9.17373 17.2866 9.19217L20.4224 9.64432C20.4699 9.65094 20.5179 9.6542 20.5659 9.65408C20.8063 9.65368 21.0385 9.56684 21.2201 9.40942C21.4017 9.252 21.5206 9.03451 21.5552 8.79666L22.0073 5.66189C22.0264 5.53168 22.0197 5.39897 21.9874 5.27138C21.9551 5.14379 21.898 5.02382 21.8193 4.91834C21.7406 4.81287 21.6418 4.72395 21.5287 4.6567C21.4156 4.58945 21.2903 4.54517 21.1601 4.52642C21.0298 4.50766 20.8971 4.51479 20.7696 4.5474C20.6421 4.58001 20.5223 4.63745 20.417 4.71644C20.3117 4.79543 20.2231 4.89441 20.1561 5.00772C20.0892 5.12103 20.0453 5.24643 20.0269 5.37674L19.9453 5.94382C18.7104 4.32002 17.0086 3.1127 15.0679 2.48384C13.1273 1.85498 11.0408 1.83466 9.08828 2.42561C7.13578 3.01656 5.4107 4.1905 4.1445 5.78994C2.87829 7.38939 2.13153 9.33781 2.0044 11.3738C1.98782 11.6385 2.07708 11.899 2.25253 12.0978C2.42798 12.2967 2.67525 12.4178 2.93995 12.4344Z" fill="#545454"/>
</svg>
