<svg width="24" height="24" viewBox="0 0 24 24" fill="none" xmlns="http://www.w3.org/2000/svg">
<path d="M11.0059 21.9502C10.9687 21.9502 10.9321 21.9482 10.8945 21.9443C5.82373 21.3848 2 17.1104 2 12.0029C2 6.4873 6.48828 2 12.0049 2C17.1133 2 21.3877 5.82275 21.9492 10.8926C22.0098 11.4414 21.6143 11.9355 21.0654 11.9966C20.5029 12.0547 20.0215 11.6606 19.9609 11.1123C19.5127 7.05762 16.0918 4 12.0049 4C7.59082 4 4 7.59033 4 12.0029C4 16.0889 7.05859 19.5088 11.1143 19.9561C11.6631 20.0166 12.0591 20.5107 11.9985 21.0596C11.9419 21.5713 11.5088 21.9502 11.0059 21.9502Z" fill="#545454"/>
<path d="M17.9131 18.9102C17.6572 18.9102 17.4014 18.8125 17.206 18.6172L16.4614 17.8726L15.7168 18.6172C15.5215 18.8125 15.2656 18.9102 15.0098 18.9102C14.7539 18.9102 14.498 18.8125 14.3027 18.6172C13.9121 18.2266 13.9121 17.5937 14.3027 17.2031L15.0474 16.4585L14.2998 15.7109C13.9092 15.3203 13.9092 14.6875 14.2998 14.2969C14.6904 13.9063 15.3232 13.9063 15.7139 14.2969L16.4614 15.0444L17.209 14.2969C17.5996 13.9063 18.2324 13.9063 18.623 14.2969C19.0137 14.6875 19.0137 15.3203 18.623 15.7109L17.8755 16.4585L18.6201 17.2031C19.0107 17.5937 19.0107 18.2266 18.6201 18.6172C18.4248 18.8125 18.1689 18.9102 17.9131 18.9102Z" fill="#545454"/>
<path fill-rule="evenodd" clip-rule="evenodd" d="M11.1885 17.9486C11.8263 20.2808 13.9646 22 16.4971 22C19.5312 22 22 19.5322 22 16.499C22 13.4648 19.5312 10.9971 16.4971 10.9971C13.6709 10.9971 11.3357 13.1381 11.0288 15.8836C9.2919 15.4469 8.00195 13.8726 8.00195 12.0029C8.00195 9.79638 9.79785 8.00146 12.0049 8.00146C12.8799 8.00146 13.71 8.27782 14.4063 8.80029C14.71 9.02881 14.9795 9.29834 15.207 9.60156C15.5381 10.0425 16.1641 10.1333 16.6064 9.80128C17.0488 9.47022 17.1387 8.84326 16.8066 8.40137C16.4658 7.94727 16.0625 7.54347 15.6074 7.20166C14.5625 6.4165 13.3164 6.00146 12.0049 6.00146C8.69482 6.00146 6.00195 8.69384 6.00195 12.0029C6.00195 15.0348 8.26318 17.5492 11.1885 17.9486ZM12.9946 16.499C12.9946 14.5684 14.5654 12.9971 16.4971 12.9971C18.4287 12.9971 20 14.5683 20 16.499C20 18.4297 18.4287 20 16.4971 20C14.5654 20 12.9946 18.4297 12.9946 16.499Z" fill="#545454"/>
</svg>
