<svg width="24" height="24" viewBox="0 0 24 24" fill="none" xmlns="http://www.w3.org/2000/svg">
<path d="M17 7.99713H5.70269L10.6504 3.75592C10.8506 3.58312 10.9741 3.33802 10.9939 3.07431C11.0138 2.8106 10.9283 2.54978 10.7562 2.34899C10.584 2.14821 10.3394 2.02382 10.0757 2.00308C9.8121 1.98234 9.55098 2.06694 9.3496 2.23835L2.3496 8.23835C2.34088 8.24579 2.3377 8.25745 2.32928 8.2652C2.25635 8.33581 2.19475 8.41726 2.14666 8.50666C2.12589 8.53424 2.10658 8.56288 2.0888 8.59247C2.03031 8.71933 2.00001 8.85737 2 8.99707C1.99999 9.13677 2.03027 9.27481 2.08874 9.40168C2.10658 9.43146 2.126 9.46027 2.14691 9.48798C2.19497 9.5772 2.25648 9.65848 2.32928 9.72898C2.3377 9.73673 2.34088 9.74845 2.3496 9.7559L9.3496 15.7559C9.55093 15.9277 9.8122 16.0127 10.0761 15.9921C10.34 15.9715 10.5849 15.8471 10.7572 15.6461C10.9294 15.4452 11.0149 15.1841 10.9949 14.9201C10.9749 14.6562 10.851 14.411 10.6504 14.2383L5.70269 9.99713H17C17.7954 9.998 18.5579 10.3143 19.1204 10.8768C19.6828 11.4392 19.9991 12.2017 20 12.9971V20.9971C20 21.2623 20.1054 21.5167 20.2929 21.7042C20.4804 21.8918 20.7348 21.9971 21 21.9971C21.2652 21.9971 21.5196 21.8918 21.7071 21.7042C21.8946 21.5167 22 21.2623 22 20.9971V12.9971C21.9984 11.6715 21.4712 10.4007 20.5338 9.46332C19.5965 8.52597 18.3256 7.99869 17 7.99713Z" fill="#545454"/>
</svg>
