<svg width="24" height="24" viewBox="0 0 24 24" fill="none" xmlns="http://www.w3.org/2000/svg">
<path d="M18.68 5.31C18.3334 4.34498 17.6986 3.50984 16.8614 2.91776C16.0243 2.32567 15.0253 2.00528 14 2H7C5.67392 2 4.40215 2.52678 3.46447 3.46447C2.52678 4.40215 2 5.67392 2 7V14C2.00528 15.0253 2.32567 16.0243 2.91776 16.8614C3.50984 17.6986 4.34498 18.3334 5.31 18.68C5.65549 19.6485 6.29118 20.4869 7.13044 21.081C7.96971 21.6751 8.97174 21.996 10 22H17C18.3261 22 19.5979 21.4732 20.5355 20.5355C21.4732 19.5979 22 18.3261 22 17V10C21.996 8.97174 21.6751 7.96971 21.081 7.13044C20.4869 6.29118 19.6485 5.65549 18.68 5.31ZM4 14V7C4 6.20435 4.31607 5.44129 4.87868 4.87868C5.44129 4.31607 6.20435 4 7 4H14C14.7956 4 15.5587 4.31607 16.1213 4.87868C16.6839 5.44129 17 6.20435 17 7V14C17 14.7956 16.6839 15.5587 16.1213 16.1213C15.5587 16.6839 14.7956 17 14 17H7C6.20435 17 5.44129 16.6839 4.87868 16.1213C4.31607 15.5587 4 14.7956 4 14ZM20 17C20 17.7956 19.6839 18.5587 19.1213 19.1213C18.5587 19.6839 17.7956 20 17 20H10C9.57893 19.9991 9.16276 19.9097 8.77855 19.7374C8.39435 19.5651 8.05071 19.3138 7.77 19H14C15.3261 19 16.5979 18.4732 17.5355 17.5355C18.4732 16.5979 19 15.3261 19 14V7.77C19.3138 8.05071 19.5651 8.39435 19.7374 8.77855C19.9097 9.16276 19.9991 9.57893 20 10V17ZM14 12C14.2652 12 14.5196 11.8946 14.7071 11.7071C14.8946 11.5196 15 11.2652 15 11V7C15 6.73478 14.8946 6.48043 14.7071 6.29289C14.5196 6.10536 14.2652 6 14 6C13.7348 6 13.4804 6.10536 13.2929 6.29289C13.1054 6.48043 13 6.73478 13 7V11C13 11.2652 13.1054 11.5196 13.2929 11.7071C13.4804 11.8946 13.7348 12 14 12ZM10.5 12C10.7652 12 11.0196 11.8946 11.2071 11.7071C11.3946 11.5196 11.5 11.2652 11.5 11V9C11.5 8.73478 11.3946 8.48043 11.2071 8.29289C11.0196 8.10536 10.7652 8 10.5 8C10.2348 8 9.98043 8.10536 9.79289 8.29289C9.60536 8.48043 9.5 8.73478 9.5 9V11C9.5 11.2652 9.60536 11.5196 9.79289 11.7071C9.98043 11.8946 10.2348 12 10.5 12ZM15 14C15 13.7348 14.8946 13.4804 14.7071 13.2929C14.5196 13.1054 14.2652 13 14 13H7C6.73478 13 6.48043 13.1054 6.29289 13.2929C6.10536 13.4804 6 13.7348 6 14C6 14.2652 6.10536 14.5196 6.29289 14.7071C6.48043 14.8946 6.73478 15 7 15H14C14.2652 15 14.5196 14.8946 14.7071 14.7071C14.8946 14.5196 15 14.2652 15 14ZM6.62 11.92C6.7715 11.9822 6.93597 12.0063 7.09895 11.9901C7.26193 11.9739 7.41844 11.9179 7.55471 11.8271C7.69099 11.7362 7.80287 11.6133 7.88051 11.4691C7.95815 11.3249 7.99918 11.1638 8 11C8.00338 10.8688 7.97598 10.7387 7.92 10.62C7.86936 10.4988 7.79833 10.3872 7.71 10.29C7.61704 10.1963 7.50644 10.1219 7.38458 10.0711C7.26272 10.0203 7.13201 9.9942 7 9.9942C6.86799 9.9942 6.73728 10.0203 6.61542 10.0711C6.49356 10.1219 6.38296 10.1963 6.29 10.29C6.20167 10.3872 6.13064 10.4988 6.08 10.62C6.00342 10.8021 5.9825 11.0028 6.01987 11.1968C6.05725 11.3908 6.15124 11.5694 6.29 11.71C6.3872 11.7983 6.49882 11.8694 6.62 11.92Z" fill="#545454"/>
</svg>
