<svg width="24" height="24" viewBox="0 0 24 24" fill="none" xmlns="http://www.w3.org/2000/svg">
<path d="M9.97754 10.9501H5.3916L7.6846 8.65711C7.77745 8.56426 7.8511 8.45403 7.90135 8.33272C7.9516 8.2114 7.97746 8.08138 7.97745 7.95007C7.97745 7.81876 7.95159 7.68874 7.90133 7.56743C7.85108 7.44612 7.77743 7.33589 7.68458 7.24305C7.59173 7.1502 7.4815 7.07655 7.36019 7.0263C7.23887 6.97605 7.10885 6.95019 6.97754 6.9502C6.84623 6.9502 6.71621 6.97606 6.5949 7.02631C6.47359 7.07657 6.36336 7.15022 6.27051 7.24307L2.27179 11.2418C2.08429 11.4298 1.979 11.6846 1.979 11.9501C1.979 12.2157 2.08429 12.4704 2.27179 12.6584L6.32031 16.7069C6.50823 16.8925 6.76192 16.9962 7.02602 16.9953C7.29012 16.9945 7.54316 16.8892 7.72991 16.7025C7.91666 16.5158 8.02194 16.2627 8.02278 15.9986C8.02362 15.7345 7.91994 15.4808 7.73437 15.2929L5.3916 12.9501H9.97754C10.2428 12.9501 10.4971 12.8448 10.6847 12.6572C10.8722 12.4697 10.9775 12.2153 10.9775 11.9501C10.9775 11.6849 10.8722 11.4305 10.6847 11.243C10.4971 11.0555 10.2428 10.9501 9.97754 10.9501ZM21.9005 11.6181C21.8504 11.496 21.7766 11.385 21.6833 11.2916L17.6348 7.24307C17.4472 7.05555 17.1929 6.95021 16.9277 6.95021C16.6625 6.95021 16.4082 7.05556 16.2207 7.24308C16.0332 7.43059 15.9278 7.68492 15.9278 7.95011C15.9278 8.2153 16.0332 8.46962 16.2207 8.65714L18.5635 10.9999H13.9775C13.7123 10.9999 13.458 11.1053 13.2704 11.2928C13.0829 11.4803 12.9775 11.7347 12.9775 11.9999C12.9775 12.2651 13.0829 12.5195 13.2704 12.707C13.458 12.8946 13.7123 12.9999 13.9775 12.9999H18.5635L16.2705 15.2929C16.1771 15.3856 16.103 15.4959 16.0523 15.6174C16.0017 15.7388 15.9755 15.8691 15.9753 16.0006C15.975 16.1322 16.0008 16.2626 16.0511 16.3842C16.1013 16.5058 16.1751 16.6163 16.2681 16.7093C16.3612 16.8024 16.4717 16.8762 16.5933 16.9264C16.7149 16.9767 16.8453 17.0024 16.9769 17.0022C17.1085 17.002 17.2387 16.9758 17.3601 16.9251C17.4816 16.8744 17.5918 16.8003 17.6846 16.7069L21.6833 12.7082C21.8229 12.5681 21.9181 12.39 21.9567 12.196C21.9954 12.002 21.9759 11.801 21.9006 11.6181H21.9005Z" fill="#545454"/>
</svg>
