<svg width="24" height="24" viewBox="0 0 24 24" fill="none" xmlns="http://www.w3.org/2000/svg">
<path d="M7.97467 8.04981C8.10601 8.04996 8.23608 8.02415 8.35741 7.97387C8.47874 7.92358 8.58894 7.84982 8.68167 7.75681L11.0254 5.41373V10C11.0254 10.2652 11.1308 10.5196 11.3183 10.7071C11.5059 10.8947 11.7602 11 12.0254 11C12.2906 11 12.545 10.8947 12.7325 10.7071C12.9201 10.5196 13.0254 10.2652 13.0254 10V5.41407L15.3184 7.70707C15.5059 7.89458 15.7603 7.99993 16.0255 7.99993C16.2906 7.99993 16.545 7.89458 16.7325 7.70707C16.92 7.51955 17.0253 7.26523 17.0253 7.00004C17.0253 6.73485 16.92 6.48052 16.7325 6.29301L12.7338 2.29426C12.5457 2.10676 12.291 2.00146 12.0255 2.00146C11.7599 2.00146 11.5052 2.10676 11.3171 2.29426L7.26764 6.34278C7.12783 6.48263 7.03262 6.66079 6.99406 6.85475C6.95549 7.0487 6.97529 7.24973 7.05096 7.43243C7.12663 7.61513 7.25477 7.7713 7.41918 7.88118C7.58359 7.99107 7.77689 8.04974 7.97464 8.04978L7.97467 8.04981ZM15.3184 16.2432L12.9747 18.5863V14C12.9747 13.7348 12.8693 13.4804 12.6818 13.2929C12.4942 13.1054 12.2399 13 11.9747 13C11.7095 13 11.4551 13.1054 11.2676 13.2929C11.08 13.4804 10.9747 13.7348 10.9747 14V18.5859L8.68167 16.2929C8.49388 16.1068 8.23998 16.0026 7.97553 16.0031C7.71109 16.0037 7.45764 16.109 7.27065 16.296C7.08366 16.483 6.97836 16.7364 6.9778 17.0009C6.97724 17.2653 7.08145 17.5192 7.26764 17.707L11.2664 21.7057C11.4544 21.8932 11.7091 21.9985 11.9747 21.9985C12.2402 21.9985 12.4949 21.8932 12.683 21.7057L16.7325 17.6572C16.92 17.4697 17.0253 17.2154 17.0253 16.9502C17.0253 16.685 16.92 16.4307 16.7325 16.2431C16.545 16.0556 16.2906 15.9503 16.0255 15.9503C15.7603 15.9503 15.5059 16.0556 15.3184 16.2431V16.2432Z" fill="#545454"/>
</svg>
