<svg width="24" height="24" viewBox="0 0 24 24" fill="none" xmlns="http://www.w3.org/2000/svg">
<path d="M13.0004 3.00049C11.3044 3.0006 9.64296 3.48009 8.20772 4.38367C6.77248 5.28724 5.62188 6.5781 4.8886 8.10737L3.9886 5.61963C3.89661 5.37269 3.71087 5.17205 3.47175 5.06131C3.23264 4.95057 2.95948 4.93869 2.71165 5.02825C2.46383 5.11781 2.26136 5.30157 2.14828 5.53958C2.03519 5.77759 2.02063 6.05062 2.10774 6.29932L3.87337 11.1782C3.9433 11.3716 4.07109 11.5387 4.23936 11.6568C4.40763 11.7749 4.60821 11.8383 4.8138 11.8384C4.9297 11.8387 5.04475 11.8185 5.15364 11.7788L10.0326 10.0132C10.2795 9.9212 10.4801 9.73546 10.5909 9.49634C10.7016 9.25723 10.7135 8.98407 10.6239 8.73624C10.5344 8.48841 10.3506 8.28595 10.1126 8.17287C9.87459 8.05978 9.60156 8.04521 9.35286 8.13233L6.61656 9.12269C7.22213 7.77864 8.23647 6.66003 9.51503 5.92625C10.7936 5.19246 12.2711 4.88096 13.7371 5.03612C15.2031 5.19128 16.5827 5.80519 17.6793 6.79037C18.7759 7.77555 19.5336 9.08172 19.8444 10.5227C20.1552 11.9638 20.0032 13.4661 19.4102 14.8157C18.8171 16.1653 17.8132 17.2933 16.5414 18.0389C15.2697 18.7845 13.7951 19.1097 12.3278 18.9681C10.8604 18.8266 9.4752 18.2255 8.36949 17.2505C8.17046 17.076 7.91035 16.9875 7.64619 17.0045C7.38204 17.0215 7.1354 17.1426 6.96037 17.3411C6.78533 17.5397 6.69618 17.7996 6.71246 18.0638C6.72875 18.328 6.84913 18.5749 7.04723 18.7505C8.13938 19.7137 9.44894 20.3975 10.8635 20.7432C12.2781 21.0889 13.7554 21.0862 15.1687 20.7353C16.582 20.3845 17.8891 19.6959 18.9777 18.7287C20.0663 17.7616 20.904 16.5447 21.4189 15.1826C21.9337 13.8204 22.1104 12.3537 21.9336 10.9082C21.7569 9.4628 21.2321 8.08183 20.4042 6.88385C19.5764 5.68588 18.4702 4.70667 17.1806 4.03028C15.891 3.35389 14.4566 3.00052 13.0004 3.00049Z" fill="#545454"/>
</svg>
