<svg width="24" height="24" viewBox="0 0 24 24" fill="none" xmlns="http://www.w3.org/2000/svg">
<path d="M11 19H7C4.24 19 2 16.76 2 14V7C2 4.24 4.24 2 7 2H17C19.76 2 22 4.24 22 7V10C22 10.55 21.55 11 21 11C20.45 11 20 10.55 20 10V7C20 5.35 18.65 4 17 4H7C5.35 4 4 5.35 4 7V14C4 15.65 5.35 17 7 17H11C11.55 17 12 17.45 12 18C12 18.55 11.55 19 11 19Z" fill="#545454"/>
<path d="M21.47 13.54C21.13 13.19 20.67 13 20.18 13C19.69 13 19.23 13.19 18.88 13.54L13.89 18.53C13.78 18.64 13.7 18.77 13.65 18.92L13.06 20.69C12.94 21.05 13.03 21.45 13.3 21.71C13.49 21.9 13.75 22 14.01 22C14.12 22 14.22 21.98 14.33 21.95L16.1 21.36C16.25 21.31 16.38 21.23 16.49 21.12L21.48 16.13C21.83 15.78 22.02 15.32 22.02 14.83C22.02 14.34 21.83 13.88 21.49 13.54H21.47ZM16.85 10.5C16.85 8.02 14.83 6 12.35 6C11.08 6 9.91 6.53 9.08 7.41C8.91 6.94 8.42 6.65 7.92 6.77C7.38 6.9 7.06 7.44 7.19 7.98L7.73 10.19C7.84 10.65 8.25 10.95 8.7 10.95C8.78 10.95 8.86 10.95 8.94 10.92L11.15 10.38C11.69 10.25 12.02 9.71 11.88 9.17C11.77 8.74 11.39 8.45 10.98 8.42C11.38 8.15 11.86 7.99 12.37 7.99C13.75 7.99 14.87 9.11 14.87 10.49C14.87 11.87 13.75 12.99 12.37 12.99C11.76 12.99 11.17 12.77 10.72 12.37C10.31 12.01 9.68 12.04 9.31 12.46C8.94 12.87 8.98 13.51 9.4 13.87C10.22 14.6 11.28 14.99 12.38 14.99C14.86 14.99 16.88 12.97 16.88 10.49L16.85 10.5Z" fill="#545454"/>
</svg>
