<svg width="24" height="24" viewBox="0 0 24 24" fill="none" xmlns="http://www.w3.org/2000/svg">
<path d="M20.5352 5.12108L18.8789 3.46486C18.4156 2.99902 17.8645 2.62969 17.2576 2.37826C16.6506 2.12682 15.9998 1.99826 15.3428 2.00002H7C5.6744 2.00157 4.40353 2.52886 3.46618 3.4662C2.52884 4.40355 2.00156 5.67441 2 7.00002V17C2.00156 18.3256 2.52884 19.5965 3.46619 20.5338C4.40353 21.4712 5.6744 21.9985 7 22H17C18.3256 21.9985 19.5965 21.4712 20.5338 20.5338C21.4712 19.5965 21.9984 18.3256 22 17V8.65724C22.0018 8.00024 21.8732 7.34942 21.6218 6.74244C21.3703 6.13545 21.001 5.58437 20.5352 5.12108ZM14 4.00002V7.00002C13.9998 7.26518 13.8944 7.51943 13.7069 7.70692C13.5194 7.89442 13.2652 7.99984 13 8.00002H9C8.73484 7.99984 8.48059 7.89442 8.29309 7.70693C8.1056 7.51943 8.00018 7.26518 8 7.00002V4.00002H14ZM8 20V15C8.00018 14.7349 8.10559 14.4806 8.29309 14.2931C8.48059 14.1056 8.73484 14.0002 9 14H15C15.2652 14.0002 15.5194 14.1056 15.7069 14.2931C15.8944 14.4806 15.9998 14.7349 16 15V20H8ZM20 17C19.9981 17.6184 19.8048 18.221 19.4467 18.7252C19.0886 19.2293 18.5833 19.6103 18 19.8157V15C17.9991 14.2046 17.6828 13.4421 17.1204 12.8797C16.5579 12.3172 15.7954 12.0009 15 12H9C8.20462 12.0009 7.44206 12.3172 6.87964 12.8797C6.31722 13.4421 6.00087 14.2046 6 15V19.8157C5.41674 19.6103 4.91137 19.2293 4.55327 18.7252C4.19517 18.221 4.0019 17.6184 4 17V7.00002C4.0019 6.38163 4.19517 5.77899 4.55326 5.27483C4.91136 4.77068 5.41674 4.38973 6 4.18428V7.00002C6.00087 7.7954 6.31722 8.55796 6.87964 9.12038C7.44206 9.6828 8.20462 9.99915 9 10H13C13.7954 9.99915 14.5579 9.6828 15.1204 9.12038C15.6828 8.55796 15.9991 7.7954 16 7.00002V4.07802C16.5547 4.19981 17.0629 4.4777 17.4648 4.87892L19.1211 6.53517C19.4006 6.81322 19.6222 7.14394 19.773 7.50819C19.9239 7.87244 20.001 8.26299 20 8.65724L20 17Z" fill="#545454"/>
</svg>
