<svg width="24" height="24" viewBox="0 0 24 24" fill="none" xmlns="http://www.w3.org/2000/svg">
<path d="M21.7623 20.3483L16.3669 14.9529C17.62 13.3401 18.2112 11.3103 18.0202 9.27694C17.8292 7.24353 16.8703 5.35937 15.3389 4.00813C13.8074 2.65689 11.8185 1.94017 9.77713 2.00391C7.73577 2.06766 5.79545 2.90708 4.35128 4.35124C2.90711 5.7954 2.06768 7.73571 2.00392 9.77707C1.94016 11.8184 2.65686 13.8073 4.00809 15.3388C5.35932 16.8703 7.24347 17.8292 9.27688 18.0202C11.3103 18.2112 13.34 17.62 14.9529 16.367L20.3483 21.7624C20.536 21.9488 20.79 22.0533 21.0546 22.0528C21.3192 22.0524 21.5729 21.9471 21.76 21.76C21.9471 21.5728 22.0524 21.3192 22.0528 21.0546C22.0533 20.79 21.9488 20.536 21.7623 20.3483ZM4.0553 10.0553C4.0553 8.86863 4.4072 7.70859 5.06648 6.72189C5.72577 5.7352 6.66284 4.96616 7.7592 4.51204C8.85556 4.05791 10.062 3.93909 11.2258 4.1706C12.3897 4.40212 13.4588 4.97356 14.2979 5.81268C15.1371 6.65179 15.7085 7.72089 15.94 8.88477C16.1715 10.0487 16.0527 11.2551 15.5986 12.3514C15.1445 13.4478 14.3754 14.3848 13.3887 15.0441C12.402 15.7034 11.242 16.0553 10.0553 16.0553C8.46454 16.0536 6.93942 15.4209 5.81458 14.296C4.68974 13.1712 4.05704 11.6461 4.0553 10.0553Z" fill="#545454"/>
</svg>
