<svg width="24" height="24" viewBox="0 0 24 24" fill="none" xmlns="http://www.w3.org/2000/svg">
<path d="M10 17.9918C7.39111 17.9918 4.93945 16.7135 3.44141 14.5729C3.125 14.1208 3.23486 13.4968 3.6875 13.1804C4.14111 12.865 4.76465 12.9734 5.08008 13.4265C6.2041 15.0329 8.04346 15.9918 10 15.9918C13.3086 15.9918 16 13.3005 16 9.99151C16 6.683 13.3086 3.99166 10 3.99166C8.90332 3.99166 7.83057 4.29048 6.89746 4.85541C6.42383 5.14201 5.80957 4.98967 5.52393 4.518C5.2378 4.04536 5.38916 3.43062 5.86133 3.1445C7.10693 2.39062 8.53809 1.9917 10 1.9917C14.4111 1.9917 18 5.58048 18 9.9915C18 11.8377 17.3715 13.5397 16.3172 14.895L21.707 20.2847C22.0976 20.6753 22.0976 21.3081 21.707 21.6987C21.5117 21.894 21.2559 21.9917 21 21.9917C20.7441 21.9917 20.4883 21.894 20.293 21.6987L14.9032 16.3091C13.5479 17.3633 11.846 17.9918 10 17.9918Z" fill="#545454"/>
<path d="M3 7.99986H9.99951C10.5518 7.99986 10.9995 7.55213 10.9995 6.99989C10.9995 6.44765 10.5518 5.99991 9.99951 5.99991H3C2.44775 5.99991 2 6.44764 2 6.99988C2 7.55212 2.44775 7.99986 3 7.99986Z" fill="#545454"/>
<path d="M3 11.9997H9.99951C10.5518 11.9997 10.9995 11.552 10.9995 10.9998C10.9995 10.4475 10.5518 9.99979 9.99951 9.99979H3C2.44775 9.99979 2 10.4475 2 10.9998C2 11.552 2.44775 11.9997 3 11.9997Z" fill="#545454"/>
</svg>
