<svg width="24" height="24" viewBox="0 0 24 24" fill="none" xmlns="http://www.w3.org/2000/svg">
<path fill-rule="evenodd" clip-rule="evenodd" d="M14 11H21C21.5527 11 22 10.5522 22 10C22 5.58887 18.4111 2 14 2C13.4473 2 13 2.44775 13 3V10C13 10.5522 13.4473 11 14 11ZM19.917 9H15V4.0835C17.5088 4.50586 19.4941 6.49121 19.917 9Z" fill="#545454"/>
<path fill-rule="evenodd" clip-rule="evenodd" d="M2 13.9092C2 18.3701 5.62939 22 10.0908 22C14.5254 22 18 18.4863 18 14C18 13.4473 17.5527 13 17 13H11V7C11 6.44775 10.5522 6 10 6C5.51416 6 2 9.47412 2 13.9092ZM4 13.9092C4 10.9321 6.12744 8.53417 9 8.07812V14C9 14.5527 9.44775 15 10 15H15.9219C15.4658 17.8721 13.0684 20 10.0908 20C6.73242 20 4 17.2676 4 13.9092Z" fill="#545454"/>
</svg>
