<svg width="24" height="24" viewBox="0 0 24 24" fill="none" xmlns="http://www.w3.org/2000/svg">
<path d="M20.8145 10.083L5.10846 2.23149C4.714 2.03034 4.26649 1.95769 3.82866 2.02372C3.39083 2.08974 2.98464 2.29113 2.66705 2.59966C2.34493 2.90319 2.12573 3.29981 2.04011 3.73405C1.95448 4.16829 2.00672 4.61844 2.18951 5.02153L5.29205 12.001L2.18951 18.9805C2.00672 19.3836 1.95448 19.8338 2.04011 20.268C2.12573 20.7022 2.34493 21.0989 2.66705 21.4024C3.06262 21.7855 3.59146 22.0001 4.14215 22.001C4.47781 22.0005 4.80871 21.9216 5.10846 21.7705L20.8145 13.919C21.1707 13.7409 21.4703 13.4672 21.6797 13.1284C21.8891 12.7897 22.0001 12.3993 22.0001 12.001C22.0001 11.6028 21.8891 11.2124 21.6797 10.8736C21.4703 10.5349 21.1707 10.2611 20.8145 10.083ZM4.01666 4.20903C4.00164 4.18232 3.99663 4.15113 4.00254 4.12106C4.00844 4.09099 4.02488 4.06401 4.04889 4.04497C4.07401 4.01835 4.10852 4.00259 4.14508 4.00102C4.16928 4.00181 4.19292 4.00851 4.21393 4.02055L18.1775 11.001H7.03595L4.01666 4.20903ZM4.21393 19.9815C4.18723 19.995 4.15701 19.9998 4.12743 19.9954C4.09784 19.991 4.07035 19.9776 4.04873 19.9569C4.0271 19.9363 4.01241 19.9094 4.00667 19.8801C4.00092 19.8507 4.00441 19.8203 4.01666 19.793L7.03595 13.001H18.1775L4.21393 19.9815Z" fill="#545454"/>
</svg>
