<svg width="24" height="24" viewBox="0 0 24 24" fill="none" xmlns="http://www.w3.org/2000/svg">
<path d="M3 6H21C21.55 6 22 5.55 22 5C22 4.45 21.55 4 21 4H3C2.45 4 2 4.45 2 5C2 5.55 2.45 6 3 6ZM21 10H3C2.45 10 2 10.45 2 11C2 11.55 2.45 12 3 12H21C21.55 12 22 11.55 22 11C22 10.45 21.55 10 21 10ZM11 16H3C2.45 16 2 16.45 2 17C2 17.55 2.45 18 3 18H11C11.55 18 12 17.55 12 17C12 16.45 11.55 16 11 16Z" fill="#545454"/>
<path d="M21 15.98H19.02V14C19.02 13.45 18.57 13 18.02 13C17.47 13 17.02 13.45 17.02 14V15.98H15.04C14.49 15.98 14.04 16.43 14.04 16.98C14.04 17.53 14.49 17.98 15.04 17.98H17.02V19.96C17.02 20.51 17.47 20.96 18.02 20.96C18.57 20.96 19.02 20.51 19.02 19.96V17.98H21C21.55 17.98 22 17.53 22 16.98C22 16.43 21.55 15.98 21 15.98Z" fill="#545454"/>
</svg>
