<svg width="24" height="24" viewBox="0 0 24 24" fill="none" xmlns="http://www.w3.org/2000/svg">
<path d="M2.99927 11.9976C2.99919 12.1289 3.02501 12.259 3.07523 12.3803C3.12546 12.5017 3.19912 12.612 3.29199 12.7048C3.38486 12.7977 3.49513 12.8714 3.61649 12.9216C3.73785 12.9718 3.86792 12.9976 3.99927 12.9976H12.5852L10.2922 15.2906C10.1991 15.3833 10.1252 15.4936 10.0747 15.615C10.0243 15.7364 9.99823 15.8665 9.99811 15.998C9.998 16.1294 10.0238 16.2596 10.0741 16.3811C10.1243 16.5025 10.198 16.6129 10.291 16.7059C10.3839 16.7988 10.4943 16.8725 10.6158 16.9228C10.7372 16.973 10.8674 16.9988 10.9989 16.9987C11.1303 16.9986 11.2605 16.9726 11.3819 16.9221C11.5032 16.8716 11.6135 16.7977 11.7063 16.7046L15.705 12.7059C15.8925 12.5179 15.9978 12.2631 15.9978 11.9976C15.9978 11.732 15.8925 11.4773 15.705 11.2893L11.6565 7.24073C11.469 7.05321 11.2147 6.94787 10.9495 6.94787C10.6843 6.94787 10.43 7.05321 10.2424 7.24073C10.0549 7.42824 9.94958 7.68257 9.94958 7.94776C9.94958 8.21295 10.0549 8.46727 10.2424 8.65479L12.5852 10.9976H3.99927C3.86792 10.9975 3.73785 11.0233 3.6165 11.0735C3.49514 11.1238 3.38487 11.1974 3.29199 11.2903C3.19912 11.3832 3.12546 11.4934 3.07524 11.6148C3.02501 11.7361 2.99919 11.8662 2.99927 11.9976ZM15.9993 2.00049H7.99927C6.67366 2.00205 5.4028 2.52933 4.46546 3.46668C3.52811 4.40402 3.00083 5.67488 2.99927 7.00049C2.99927 7.2657 3.10462 7.52006 3.29216 7.70759C3.4797 7.89513 3.73405 8.00049 3.99927 8.00049C4.26448 8.00049 4.51884 7.89513 4.70637 7.70759C4.89391 7.52006 4.99927 7.2657 4.99927 7.00049C5.00014 6.20511 5.31649 5.44255 5.87891 4.88013C6.44133 4.31771 7.20389 4.00136 7.99927 4.00049H15.9993C16.7947 4.00136 17.5572 4.31771 18.1196 4.88013C18.6821 5.44255 18.9984 6.20511 18.9993 7.00049V17.0005C18.9984 17.7959 18.6821 18.5584 18.1196 19.1208C17.5572 19.6833 16.7947 19.9996 15.9993 20.0005H7.99927C7.20388 19.9996 6.44133 19.6833 5.87891 19.1208C5.31649 18.5584 5.00014 17.7959 4.99927 17.0005C4.99927 16.7353 4.89391 16.4809 4.70637 16.2934C4.51884 16.1058 4.26448 16.0005 3.99927 16.0005C3.73405 16.0005 3.4797 16.1058 3.29216 16.2934C3.10462 16.4809 2.99927 16.7353 2.99927 17.0005C3.00083 18.3261 3.52811 19.597 4.46546 20.5343C5.4028 21.4716 6.67366 21.9989 7.99927 22.0005H15.9993C17.3249 21.9989 18.5957 21.4716 19.5331 20.5343C20.4704 19.597 20.9977 18.3261 20.9993 17.0005V7.00049C20.9977 5.67488 20.4704 4.40402 19.5331 3.46668C18.5957 2.52933 17.3249 2.00205 15.9993 2.00049Z" fill="#545454"/>
</svg>
