<svg width="24" height="24" viewBox="0 0 24 24" fill="none" xmlns="http://www.w3.org/2000/svg">
<path d="M19.9123 8.7226C20.2581 8.24593 20.4228 7.66164 20.3768 7.07454C20.3307 6.48744 20.077 5.93595 19.6611 5.519L18.4809 4.33881C18.0643 3.92238 17.5128 3.66826 16.9255 3.62215C16.3383 3.57604 15.7539 3.74097 15.2774 4.08728C15.1848 3.50577 14.8881 2.97627 14.4404 2.59375C13.9927 2.21123 13.4234 2.00073 12.8346 2H11.1654C10.5765 2.00074 10.0072 2.21125 9.5596 2.59377C9.11195 2.97628 8.81523 3.50578 8.72267 4.08728C8.24615 3.74097 7.6617 3.57604 7.07443 3.62216C6.48716 3.66827 5.93562 3.92242 5.519 4.33887L4.33882 5.5191C3.92239 5.93572 3.66828 6.48724 3.62217 7.07449C3.57606 7.66173 3.74099 8.24616 4.0873 8.72266C3.5058 8.81521 2.97629 9.11193 2.59377 9.55958C2.21125 10.0072 2.00074 10.5765 2 11.1653V12.8346C2.00074 13.4234 2.21125 13.9927 2.59377 14.4404C2.97629 14.888 3.50579 15.1848 4.0873 15.2773C3.74097 15.7539 3.57604 16.3383 3.62216 16.9256C3.66827 17.5128 3.92242 18.0644 4.33888 18.481L5.51906 19.6612C5.93568 20.0777 6.48722 20.3318 7.07448 20.3779C7.66174 20.424 8.24618 20.259 8.72267 19.9127C8.81524 20.4942 9.11195 21.0237 9.5596 21.4062C10.0073 21.7887 10.5765 21.9992 11.1654 22H12.8346C13.4234 21.9993 13.9928 21.7887 14.4404 21.4062C14.8881 21.0237 15.1848 20.4942 15.2774 19.9127C15.7538 20.259 16.3383 20.424 16.9255 20.3779C17.5128 20.3318 18.0643 20.0776 18.4809 19.6612L19.6612 18.4808C20.0771 18.0639 20.3308 17.5125 20.3768 16.9254C20.4228 16.3383 20.2582 15.754 19.9123 15.2774C20.4939 15.1849 21.0235 14.8882 21.4061 14.4405C21.7886 13.9928 21.9992 13.4235 22 12.8346V11.1653C21.9993 10.5764 21.7887 10.0071 21.4061 9.55941C21.0235 9.11174 20.4939 8.81506 19.9123 8.7226ZM20 12.8346C20 12.8967 19.9878 12.9581 19.964 13.0155C19.9403 13.0729 19.9054 13.125 19.8615 13.1689C19.8176 13.2128 19.7655 13.2476 19.7082 13.2713C19.6508 13.2951 19.5894 13.3073 19.5273 13.3073H18.6191C18.515 13.3085 18.4143 13.3441 18.3326 13.4087C18.2509 13.4733 18.193 13.5632 18.168 13.6643C18.0241 14.1957 17.8117 14.7061 17.536 15.1826C17.4821 15.2719 17.4595 15.3765 17.4717 15.48C17.4838 15.5835 17.5301 15.6801 17.6032 15.7544L18.2469 16.3981C18.2908 16.442 18.3256 16.4941 18.3494 16.5515C18.3732 16.6088 18.3854 16.6703 18.3854 16.7324C18.3854 16.7945 18.3732 16.8559 18.3494 16.9133C18.3256 16.9706 18.2908 17.0228 18.2469 17.0667L17.0667 18.247C17.0228 18.2909 16.9707 18.3257 16.9133 18.3494C16.8559 18.3732 16.7945 18.3854 16.7324 18.3854C16.6703 18.3854 16.6088 18.3732 16.5515 18.3494C16.4941 18.3257 16.442 18.2909 16.3981 18.247L15.7543 17.6032C15.7117 17.5604 15.661 17.5266 15.6052 17.5035C15.5494 17.4805 15.4895 17.4687 15.4292 17.469C15.3425 17.4693 15.2575 17.4924 15.1826 17.536C14.706 17.8117 14.1956 18.0241 13.6642 18.168C13.5632 18.1931 13.4733 18.251 13.4087 18.3326C13.3441 18.4143 13.3085 18.5151 13.3073 18.6192V19.5272C13.3073 19.6526 13.2575 19.7729 13.1689 19.8615C13.0802 19.9502 12.96 20 12.8346 20H11.1654C11.04 20 10.9197 19.9502 10.8311 19.8615C10.7424 19.7728 10.6926 19.6526 10.6926 19.5272V18.6191C10.6915 18.515 10.6558 18.4143 10.5912 18.3326C10.5266 18.2509 10.4368 18.193 10.3357 18.168C9.8043 18.0241 9.29388 17.8117 8.81734 17.536C8.74245 17.4924 8.65741 17.4693 8.57076 17.469C8.51038 17.4687 8.45056 17.4805 8.39475 17.5035C8.33894 17.5266 8.28825 17.5604 8.24562 17.6032L7.60188 18.2469C7.55799 18.2908 7.50587 18.3257 7.44851 18.3494C7.39116 18.3732 7.32968 18.3854 7.26759 18.3854C7.20551 18.3854 7.14403 18.3732 7.08668 18.3494C7.02932 18.3257 6.9772 18.2908 6.93331 18.2469L5.753 17.0667C5.7091 17.0228 5.67427 16.9706 5.65051 16.9133C5.62675 16.8559 5.61453 16.7945 5.61453 16.7324C5.61453 16.6703 5.62675 16.6088 5.65051 16.5515C5.67427 16.4941 5.7091 16.442 5.753 16.3981L6.3968 15.7544C6.46986 15.6801 6.51611 15.5835 6.52827 15.48C6.54042 15.3765 6.51779 15.2719 6.46394 15.1826C6.18827 14.7061 5.97582 14.1957 5.83194 13.6643C5.80688 13.5632 5.74898 13.4733 5.66734 13.4087C5.5857 13.3441 5.48493 13.3085 5.38083 13.3073H4.47273C4.41065 13.3073 4.34918 13.2951 4.29183 13.2713C4.23447 13.2476 4.18236 13.2128 4.13846 13.1689C4.09456 13.125 4.05974 13.0729 4.03598 13.0155C4.01223 12.9581 4 12.8967 4 12.8346V11.1653C4.00001 11.04 4.04982 10.9197 4.13847 10.8311C4.22711 10.7424 4.34734 10.6926 4.47271 10.6926H5.38086C5.48496 10.6915 5.58573 10.6558 5.66737 10.5912C5.74901 10.5266 5.80691 10.4367 5.83197 10.3357C5.97586 9.80429 6.18831 9.29388 6.46397 8.81732C6.51782 8.72809 6.54045 8.62348 6.5283 8.51997C6.51614 8.41646 6.46989 8.31994 6.39683 8.24561L5.753 7.60187C5.7091 7.55797 5.67428 7.50585 5.65052 7.4485C5.62676 7.39114 5.61453 7.32966 5.61453 7.26758C5.61453 7.2055 5.62676 7.14402 5.65052 7.08666C5.67428 7.0293 5.7091 6.97719 5.753 6.93329L6.93331 5.753C6.9772 5.70909 7.02932 5.67427 7.08668 5.6505C7.14403 5.62674 7.20551 5.61451 7.26759 5.61451C7.32968 5.61451 7.39116 5.62674 7.44851 5.6505C7.50587 5.67427 7.55799 5.70909 7.60188 5.753L8.24562 6.39674C8.28824 6.43951 8.33893 6.4734 8.39474 6.49645C8.45055 6.5195 8.51038 6.53125 8.57076 6.53102C8.65742 6.53073 8.74247 6.50759 8.81734 6.46394C9.2939 6.18828 9.80431 5.97583 10.3357 5.83194C10.4368 5.80688 10.5266 5.74898 10.5912 5.66734C10.6558 5.5857 10.6915 5.48493 10.6926 5.38083V4.47272C10.6926 4.41064 10.7049 4.34917 10.7286 4.29182C10.7524 4.23446 10.7872 4.18235 10.8311 4.13845C10.875 4.09456 10.9271 4.05974 10.9845 4.03598C11.0418 4.01223 11.1033 4 11.1654 4H12.8346C12.8967 3.99999 12.9582 4.01222 13.0155 4.03597C13.0729 4.05972 13.125 4.09454 13.1689 4.13844C13.2128 4.18233 13.2476 4.23445 13.2714 4.29181C13.2952 4.34916 13.3074 4.41064 13.3074 4.47272V5.38086C13.3085 5.48495 13.3442 5.58572 13.4088 5.66736C13.4734 5.74901 13.5632 5.8069 13.6643 5.83197C14.1957 5.97585 14.7061 6.1883 15.1826 6.46397C15.2575 6.50761 15.3426 6.53075 15.4292 6.53105C15.4896 6.53128 15.5494 6.51953 15.6053 6.49648C15.6611 6.47343 15.7118 6.43954 15.7544 6.39677L16.3981 5.75303C16.442 5.70912 16.4942 5.67429 16.5515 5.65053C16.6089 5.62677 16.6704 5.61454 16.7324 5.61454C16.7945 5.61454 16.856 5.62677 16.9134 5.65053C16.9707 5.67429 17.0228 5.70912 17.0667 5.75303L18.247 6.93329C18.2909 6.97719 18.3257 7.0293 18.3495 7.08666C18.3732 7.14402 18.3855 7.2055 18.3855 7.26758C18.3855 7.32966 18.3732 7.39114 18.3495 7.4485C18.3257 7.50585 18.2909 7.55797 18.247 7.60187L17.6033 8.24561C17.5302 8.31993 17.4839 8.41645 17.4718 8.51996C17.4596 8.62347 17.4822 8.72808 17.5361 8.81732C17.8117 9.29386 18.0242 9.80428 18.1681 10.3357C18.1931 10.4367 18.251 10.5266 18.3327 10.5912C18.4143 10.6558 18.5151 10.6915 18.6192 10.6926H19.5274C19.6527 10.6927 19.7729 10.7425 19.8616 10.8311C19.9502 10.9198 20 11.04 20 11.1653V12.8346ZM12 8C11.2089 8 10.4355 8.2346 9.77772 8.67412C9.11992 9.11365 8.60723 9.73836 8.30448 10.4693C8.00173 11.2002 7.92252 12.0044 8.07686 12.7804C8.2312 13.5563 8.61216 14.269 9.17157 14.8284C9.73098 15.3878 10.4437 15.7688 11.2196 15.9231C11.9956 16.0775 12.7998 15.9983 13.5307 15.6955C14.2616 15.3928 14.8864 14.8801 15.3259 14.2223C15.7654 13.5645 16 12.7911 16 12C16 10.9391 15.5786 9.92172 14.8284 9.17157C14.0783 8.42143 13.0609 8 12 8ZM12 14C11.6044 14 11.2178 13.8827 10.8889 13.6629C10.56 13.4432 10.3036 13.1308 10.1522 12.7654C10.0009 12.3999 9.96126 11.9978 10.0384 11.6098C10.1156 11.2219 10.3061 10.8655 10.5858 10.5858C10.8655 10.3061 11.2219 10.1156 11.6098 10.0384C11.9978 9.96126 12.3999 10.0009 12.7654 10.1522C13.1308 10.3036 13.4432 10.56 13.6629 10.8889C13.8827 11.2178 14 11.6044 14 12C13.9994 12.5302 13.7885 13.0386 13.4135 13.4135C13.0386 13.7885 12.5302 13.9994 12 14Z" fill="#545454"/>
</svg>
