<svg width="24" height="24" viewBox="0 0 24 24" fill="none" xmlns="http://www.w3.org/2000/svg">
<path d="M17 2H11C9.78451 2.0007 8.6111 2.44521 7.7002 3.25C7.5021 3.42557 7.38171 3.67253 7.36543 3.93673C7.34915 4.20092 7.4383 4.4608 7.61334 4.65936C7.78837 4.85793 8.03501 4.97898 8.29916 4.99597C8.56332 5.01296 8.82343 4.9245 9.02246 4.75C9.56834 4.26757 10.2715 4.00089 11 4H17C17.7954 4.00087 18.5579 4.31722 19.1204 4.87964C19.6828 5.44206 19.9991 6.20462 20 7V10C19.9991 10.7285 19.7324 11.4317 19.25 11.9775C19.1628 12.076 19.0958 12.1906 19.053 12.315C19.0101 12.4393 18.9922 12.5709 19.0003 12.7022C19.0084 12.8335 19.0423 12.9618 19.1001 13.08C19.1579 13.1981 19.2384 13.3037 19.3371 13.3907C19.4358 13.4777 19.5506 13.5443 19.6751 13.5868C19.7995 13.6293 19.9312 13.6469 20.0624 13.6384C20.1937 13.63 20.322 13.5957 20.4399 13.5376C20.5579 13.4795 20.6633 13.3987 20.75 13.2998C21.5548 12.3889 21.9993 11.2155 22 10V7C21.9984 5.6744 21.4712 4.40353 20.5338 3.46618C19.5965 2.52884 18.3256 2.00156 17 2V2ZM13 6H7C5.6744 6.00156 4.40353 6.52884 3.46618 7.46619C2.52884 8.40353 2.00156 9.6744 2 11L2 14C2.00156 15.3256 2.52884 16.5965 3.46618 17.5338C4.40353 18.4712 5.6744 18.9984 7 19H9V20H6C5.73478 20 5.48043 20.1054 5.29289 20.2929C5.10536 20.4804 5 20.7348 5 21C5 21.2652 5.10536 21.5196 5.29289 21.7071C5.48043 21.8946 5.73478 22 6 22H14C14.2652 22 14.5196 21.8946 14.7071 21.7071C14.8946 21.5196 15 21.2652 15 21C15 20.7348 14.8946 20.4804 14.7071 20.2929C14.5196 20.1054 14.2652 20 14 20H11V19H13C14.3256 18.9984 15.5965 18.4712 16.5338 17.5338C17.4712 16.5965 17.9984 15.3256 18 14V11C17.9984 9.6744 17.4712 8.40353 16.5338 7.46619C15.5965 6.52884 14.3256 6.00156 13 6ZM16 14C15.9991 14.7954 15.6828 15.5579 15.1204 16.1204C14.5579 16.6828 13.7954 16.9991 13 17H7C6.20462 16.9991 5.44206 16.6828 4.87964 16.1204C4.31722 15.5579 4.00087 14.7954 4 14V11C4.00087 10.2046 4.31722 9.44206 4.87964 8.87964C5.44206 8.31722 6.20462 8.00087 7 8H13C13.7954 8.00087 14.5579 8.31722 15.1204 8.87964C15.6828 9.44206 15.9991 10.2046 16 11V14Z" fill="#545454"/>
</svg>
