<svg width="24" height="24" viewBox="0 0 24 24" fill="none" xmlns="http://www.w3.org/2000/svg">
<path d="M18.0235 14.0001C17.3751 14.0006 16.7365 14.1589 16.163 14.4614C15.5895 14.7638 15.0981 15.2012 14.7314 15.736L9.79783 13.2692C10.0987 12.4499 10.0987 11.5504 9.79783 10.7311L14.7314 8.26431C15.2744 9.05029 16.0812 9.61559 17.0054 9.85766C17.9295 10.0997 18.9098 10.0025 19.7684 9.58372C20.627 9.16489 21.3071 8.45218 21.6852 7.57488C22.0634 6.69758 22.1145 5.7138 21.8294 4.80201C21.5443 3.89023 20.9418 3.11084 20.1312 2.60524C19.3207 2.09963 18.3557 1.90131 17.4115 2.04624C16.4672 2.19117 15.6062 2.66977 14.9846 3.39519C14.363 4.12062 14.0219 5.04482 14.0234 6.00014C14.0234 6.1246 14.049 6.24203 14.0602 6.36361L8.69645 9.04549C8.12356 8.52268 7.41104 8.17769 6.64562 8.05252C5.8802 7.92735 5.0949 8.0274 4.38532 8.34049C3.67574 8.65358 3.07248 9.1662 2.64898 9.81595C2.22547 10.4657 2 11.2246 2 12.0001C2 12.7757 2.22547 13.5346 2.64898 14.1843C3.07248 14.8341 3.67574 15.3467 4.38532 15.6598C5.0949 15.9729 5.8802 16.0729 6.64562 15.9478C7.41104 15.8226 8.12356 15.4776 8.69645 14.9548L14.0602 17.6367C14.049 17.7583 14.0235 17.8757 14.0235 18.0001C14.0235 18.7913 14.2581 19.5646 14.6976 20.2224C15.1371 20.8802 15.7618 21.3929 16.4927 21.6957C17.2236 21.9984 18.0279 22.0776 18.8038 21.9233C19.5798 21.7689 20.2925 21.388 20.8519 20.8286C21.4113 20.2692 21.7923 19.5564 21.9466 18.7805C22.1009 18.0046 22.0217 17.2003 21.719 16.4694C21.4162 15.7385 20.9035 15.1138 20.2457 14.6743C19.5879 14.2347 18.8146 14.0001 18.0235 14.0001ZM18.0235 4.00014C18.419 4.00014 18.8057 4.11744 19.1346 4.3372C19.4635 4.55696 19.7198 4.86932 19.8712 5.23477C20.0226 5.60023 20.0622 6.00236 19.985 6.39032C19.9079 6.77828 19.7174 7.13465 19.4377 7.41435C19.158 7.69406 18.8016 7.88454 18.4136 7.96171C18.0257 8.03888 17.6236 7.99928 17.2581 7.8479C16.8926 7.69653 16.5803 7.44018 16.3605 7.11128C16.1408 6.78238 16.0235 6.3957 16.0235 6.00014C16.0242 5.46992 16.2351 4.96161 16.61 4.58669C16.9849 4.21177 17.4932 4.00083 18.0235 4.00014ZM6.02347 14.0001C5.6279 14.0001 5.24122 13.8828 4.91233 13.6631C4.58343 13.4433 4.32708 13.131 4.17571 12.7655C4.02433 12.4001 3.98472 11.9979 4.06189 11.61C4.13907 11.222 4.32955 10.8656 4.60925 10.5859C4.88896 10.3062 5.24532 10.1157 5.63328 10.0386C6.02125 9.9614 6.42338 10.001 6.78883 10.1524C7.15428 10.3038 7.46664 10.5601 7.6864 10.889C7.90617 11.2179 8.02347 11.6046 8.02347 12.0001C8.02278 12.5304 7.81184 13.0387 7.43692 13.4136C7.062 13.7885 6.55369 13.9995 6.02347 14.0001ZM18.0235 20.0001C17.6279 20.0001 17.2412 19.8828 16.9123 19.6631C16.5834 19.4433 16.3271 19.131 16.1757 18.7655C16.0243 18.4001 15.9847 17.9979 16.0619 17.61C16.1391 17.222 16.3295 16.8656 16.6093 16.5859C16.889 16.3062 17.2453 16.1157 17.6333 16.0386C18.0212 15.9614 18.4234 16.001 18.7888 16.1524C19.1543 16.3038 19.4666 16.5601 19.6864 16.889C19.9062 17.2179 20.0235 17.6046 20.0235 18.0001C20.0228 18.5304 19.8118 19.0387 19.4369 19.4136C19.062 19.7885 18.5537 19.9995 18.0235 20.0001Z" fill="#545454"/>
</svg>
