<svg width="24" height="24" viewBox="0 0 24 24" fill="none" xmlns="http://www.w3.org/2000/svg">
<path fill-rule="evenodd" clip-rule="evenodd" d="M21 5.25027C21.3008 5.25027 21.585 5.38553 21.7744 5.61844C21.9648 5.85086 22.04 6.15702 21.9795 6.45145L19.9795 16.2015C19.8838 16.6664 19.4746 17.0004 19 17.0004H8C7.53418 17.0004 7.13037 16.6791 7.02539 16.225L4.20459 4.00026H3C2.44775 4.00026 2 3.5525 2 3.00025C2 2.448 2.44775 2.00024 3 2.00024H5C5.46582 2.00024 5.86963 2.32154 5.97461 2.77515L6.54541 5.25027H21ZM7.00684 7.25029L8.79541 15.0004L18.1846 15.0004L18.8 12.0003H11C10.4478 12.0003 10 11.5526 10 11.0003C10 10.4481 10.4478 10.0003 11 10.0003H19.2103L19.7744 7.25029H7.00684Z" fill="#545454"/>
<path d="M10 22.0002C11.1046 22.0002 12 21.1048 12 20.0002C12 18.8956 11.1046 18.0002 10 18.0002C8.89544 18.0002 8 18.8956 8 20.0002C8 21.1048 8.89544 22.0002 10 22.0002Z" fill="#545454"/>
<path d="M17 22.0002C18.1046 22.0002 19 21.1048 19 20.0002C19 18.8956 18.1046 18.0002 17 18.0002C15.8954 18.0002 15 18.8956 15 20.0002C15 21.1048 15.8954 22.0002 17 22.0002Z" fill="#545454"/>
</svg>
