<svg width="24" height="24" viewBox="0 0 24 24" fill="none" xmlns="http://www.w3.org/2000/svg">
<path d="M21.9093 6.60826C21.8589 6.4873 21.7853 6.37741 21.6926 6.28484L18.2798 2.87206C18.0019 2.59265 17.6713 2.37112 17.3073 2.22026C16.9432 2.0694 16.5528 1.99222 16.1587 1.99317H7.81497C7.42087 1.99222 7.0305 2.06941 6.66643 2.22027C6.30235 2.37113 5.9718 2.59267 5.69388 2.87208L2.28108 6.28484C2.09325 6.47279 1.98746 6.72744 1.98682 6.99315V17.4932C1.98812 18.6862 2.46265 19.8301 3.30628 20.6737C4.14991 21.5173 5.29374 21.9918 6.48682 21.9932H17.4868C18.6799 21.9918 19.8237 21.5173 20.6674 20.6737C21.511 19.8301 21.9855 18.6862 21.9868 17.4932V6.99317C21.9867 6.861 21.9603 6.73017 21.9093 6.60826ZM7.10794 4.28617C7.29585 4.09925 7.54989 3.99397 7.81494 3.99317H16.1587C16.4237 3.99397 16.6778 4.09925 16.8657 4.28617L18.5727 5.99317H5.40091L7.10794 4.28617ZM19.9868 17.4932C19.9862 18.156 19.7226 18.7916 19.2539 19.2603C18.7852 19.729 18.1497 19.9926 17.4868 19.9932H6.48684C5.82398 19.9926 5.18846 19.729 4.71975 19.2603C4.25104 18.7916 3.98745 18.156 3.98684 17.4932V7.99317H19.9868V17.4932ZM11.9868 16.793C13.3124 16.7914 14.5833 16.2641 15.5207 15.3268C16.458 14.3894 16.9853 13.1186 16.9868 11.793V10.9932C16.9868 10.728 16.8815 10.4736 16.6939 10.2861C16.5064 10.0985 16.2521 9.99317 15.9868 9.99317C15.7216 9.99317 15.4673 10.0985 15.2797 10.2861C15.0922 10.4736 14.9868 10.728 14.9868 10.9932V11.793C14.9868 12.5886 14.6708 13.3517 14.1082 13.9143C13.5455 14.4769 12.7825 14.793 11.9868 14.793C11.1912 14.793 10.4281 14.4769 9.86552 13.9143C9.30291 13.3517 8.98684 12.5886 8.98684 11.793V10.9932C8.98684 10.728 8.88148 10.4736 8.69394 10.2861C8.50641 10.0985 8.25205 9.99317 7.98684 9.99317C7.72162 9.99317 7.46727 10.0985 7.27973 10.2861C7.09219 10.4736 6.98684 10.728 6.98684 10.9932V11.793C6.9884 13.1186 7.51569 14.3894 8.45303 15.3268C9.39038 16.2641 10.6612 16.7914 11.9868 16.793V16.793Z" fill="#545454"/>
</svg>
