<svg width="24" height="24" viewBox="0 0 24 24" fill="none" xmlns="http://www.w3.org/2000/svg">
<path d="M19.2066 5.69764C19.1765 5.49668 19.0749 5.31334 18.9204 5.18135C18.7659 5.04936 18.5689 4.9776 18.3657 4.97927H16.9849L15.8511 3.98751C15.8433 3.97951 15.8344 3.97265 15.8247 3.96715C15.8197 3.96145 15.8142 3.95626 15.8081 3.95164C15.7873 3.93551 15.7634 3.92395 15.7378 3.91771C15.6583 3.86526 15.5705 3.82659 15.4781 3.80331C15.4481 3.79721 15.4177 3.793 15.3872 3.79071L15.3609 3.7878C15.2713 3.78097 15.1813 3.78652 15.0933 3.80428C15.0695 3.80239 15.0456 3.80536 15.023 3.813L14.4566 3.99429C14.3438 3.55843 14.0902 3.17201 13.7353 2.89503C13.3803 2.61806 12.9439 2.46602 12.4937 2.46254C12.4074 2.46186 12.3215 2.47395 12.2388 2.49841L12.2085 2.5052C11.8386 2.16862 11.3531 1.9877 10.8531 2.00011H10.8267C8.71731 2.02241 7.66169 5.20127 7.36769 6.26477L4.88918 7.05877C4.73644 7.10757 4.60069 7.1987 4.49767 7.32157C4.39465 7.44443 4.3286 7.59401 4.30718 7.75291L2.80718 19.1974C2.77944 19.4133 2.83618 19.6316 2.96557 19.8066C3.09495 19.9817 3.28697 20.1 3.50151 20.1368L14.0015 21.9875C14.0505 21.9961 14.1002 22.0003 14.1499 22.0001C14.1564 21.9991 14.163 21.9991 14.1695 22.0001C14.2309 22.0004 14.2921 21.9939 14.3521 21.9807L20.6558 20.6128C20.8654 20.5674 21.05 20.4443 21.1723 20.2681C21.2947 20.092 21.3457 19.876 21.315 19.6637L19.2066 5.69764ZM13.3169 4.35881L13.1294 4.41892C13.0911 4.21999 13.0422 4.02323 12.983 3.82948C13.1318 3.9793 13.2458 4.16001 13.3169 4.35881ZM11.7945 4.02532C11.8769 4.27393 11.9377 4.52921 11.9761 4.78832L11.0639 5.08111C11.2498 4.69257 11.4964 4.33616 11.7945 4.02532ZM10.8501 3.19061C10.8804 3.19061 10.9097 3.19255 10.94 3.19546C10.3158 3.87982 9.84177 4.68724 9.54837 5.56579L8.77688 5.813C9.07571 5.00932 9.85695 3.20127 10.8384 3.19061H10.8501ZM13.3667 20.161L4.5972 18.6157L5.92337 8.50035L14.3521 5.80135L13.3667 20.161ZM15.0737 20.097L16.0152 6.38011L16.1011 6.45573C16.2569 6.59172 16.4568 6.66648 16.6636 6.6661H17.6343L19.5161 19.1324L15.0737 20.097ZM8.77488 18.0001C9.19858 18.0013 9.61756 17.9111 10.0033 17.7357C10.41 17.5073 10.756 17.1846 11.0122 16.7948C11.2684 16.405 11.4274 15.9594 11.4757 15.4954C11.5241 15.0315 11.4604 14.5627 11.2901 14.1284C11.1197 13.6941 10.8477 13.3071 10.4968 12.9997C10.1139 12.6887 9.71512 12.3969 9.32987 12.0886C9.18842 12.0016 9.07787 11.8724 9.01388 11.7193C8.94989 11.5661 8.9357 11.3966 8.9733 11.2349C9.0186 11.0699 9.11236 10.9222 9.24246 10.8111C9.37256 10.6999 9.53303 10.6303 9.7031 10.6113C10.2336 10.5123 10.7817 10.5771 11.2745 10.7971C11.4946 10.8861 11.5701 10.8323 11.6367 10.6181C11.8035 10.081 11.9835 9.54704 12.184 9.02153C12.2731 8.78801 12.1829 8.71512 11.9832 8.65919C11.3844 8.50077 10.7615 8.45487 10.1459 8.5238C9.4378 8.57294 8.76256 8.84151 8.21411 9.29216C7.66566 9.74282 7.27125 10.3532 7.08573 11.0383C6.92858 11.4705 6.89613 11.9381 6.9921 12.3877C7.08807 12.8374 7.30858 13.251 7.62845 13.5813C7.9061 13.8547 8.21421 14.0976 8.50925 14.3535C8.72071 14.5185 8.88603 14.7353 8.98925 14.9829C9.05204 15.1144 9.07585 15.2611 9.05787 15.4056C9.03988 15.5502 8.98085 15.6865 8.88777 15.7986C8.79468 15.9106 8.67144 15.9936 8.53263 16.0378C8.39383 16.082 8.24527 16.0855 8.10455 16.0478C7.58755 15.9446 7.10382 15.716 6.69584 15.3821C6.5344 15.2637 6.4802 15.2981 6.43184 15.47C6.32384 15.854 6.21834 16.2394 6.08772 16.616C6.05146 16.6943 6.04467 16.783 6.0686 16.8659C6.09252 16.9488 6.14556 17.0203 6.21797 17.0673C6.93282 17.6713 7.83897 18.0019 8.77488 18.0001Z" fill="#545454"/>
</svg>
