<svg width="24" height="24" viewBox="0 0 24 24" fill="none" xmlns="http://www.w3.org/2000/svg">
<path d="M15.5483 12.1422L21.8413 5.8492C22.0278 5.66146 22.1322 5.40747 22.1318 5.14286C22.1313 4.87826 22.026 4.62462 21.8389 4.43753C21.6518 4.25043 21.3981 4.14513 21.1335 4.14469C20.8689 4.14426 20.6149 4.24872 20.4272 4.4352L14.1342 10.7282L11.0217 7.6156C11.2777 6.52475 11.1241 5.37787 10.5901 4.3928C10.0561 3.40773 9.17894 2.65309 8.12518 2.27221C7.07142 1.89133 5.91446 1.91074 4.87407 2.32675C3.83367 2.74276 2.9823 3.5264 2.48167 4.52882C1.98103 5.53125 1.866 6.68263 2.15843 7.76429C2.45085 8.84594 3.13036 9.78253 4.06789 10.3961C5.00542 11.0098 6.13566 11.2577 7.24395 11.0928C8.35224 10.9279 9.36137 10.3617 10.0797 9.50177L12.7202 12.1422L10.0797 14.7827C9.37442 13.9476 8.38746 13.4001 7.30565 13.2437C6.22383 13.0873 5.12222 13.3329 4.20928 13.934C3.29634 14.5351 2.63542 15.45 2.3516 16.5055C2.06778 17.5611 2.18075 18.6841 2.66913 19.662C3.15752 20.6399 3.98742 21.4048 5.0018 21.812C6.01617 22.2193 7.14463 22.2405 8.17362 21.8718C9.20261 21.503 10.0607 20.7699 10.5856 19.8111C11.1104 18.8523 11.2656 17.7343 11.0217 16.6688L14.1343 13.5563L20.4273 19.8493C20.6152 20.0347 20.8689 20.1382 21.1329 20.1373C21.3969 20.1364 21.6498 20.0311 21.8365 19.8444C22.0232 19.6577 22.1284 19.4048 22.1293 19.1408C22.1302 18.8768 22.0267 18.6231 21.8413 18.4352L15.5483 12.1422ZM6.63423 9.1422C6.13977 9.1422 5.65642 8.99558 5.2453 8.72088C4.83418 8.44617 4.51375 8.05573 4.32453 7.59891C4.13531 7.1421 4.0858 6.63943 4.18226 6.15448C4.27873 5.66952 4.51683 5.22407 4.86646 4.87444C5.21609 4.5248 5.66155 4.2867 6.1465 4.19024C6.63145 4.09378 7.13412 4.14328 7.59094 4.3325C8.04775 4.52172 8.4382 4.84215 8.7129 5.25328C8.98761 5.6644 9.13423 6.14775 9.13423 6.6422C9.13361 7.30506 8.87002 7.94058 8.40132 8.40929C7.93261 8.878 7.29708 9.14159 6.63423 9.1422ZM6.63423 20.1422C6.13977 20.1422 5.65642 19.9956 5.2453 19.7209C4.83418 19.4462 4.51375 19.0557 4.32453 18.5989C4.13531 18.1421 4.0858 17.6394 4.18226 17.1545C4.27873 16.6695 4.51683 16.2241 4.86646 15.8744C5.21609 15.5248 5.66155 15.2867 6.1465 15.1902C6.63145 15.0938 7.13412 15.1433 7.59094 15.3325C8.04775 15.5217 8.4382 15.8422 8.7129 16.2533C8.98761 16.6644 9.13423 17.1477 9.13423 17.6422C9.13361 18.3051 8.87002 18.9406 8.40132 19.4093C7.93261 19.878 7.29708 20.1416 6.63423 20.1422Z" fill="#545454"/>
</svg>
