<svg width="24" height="24" viewBox="0 0 24 24" fill="none" xmlns="http://www.w3.org/2000/svg">
<path d="M21.9 2.6C21.8 2.4 21.6 2.2 21.4 2.1C21.2 2 21.1 2 21 2H15.3C14.7 2 14.3 2.4 14.3 3C14.3 3.6 14.7 4 15.3 4H18.6L2.3 20.3C1.9 20.7 1.9 21.3 2.3 21.7C2.5 21.9 2.7 22 3 22C3.3 22 3.5 21.9 3.7 21.7L20 5.4V8.6C20 9.2 20.4 9.6 21 9.6C21.6 9.6 22 9.2 22 8.6V3C22 2.9 22 2.7 21.9 2.6ZM21 14.3C20.4 14.3 20 14.7 20 15.3V18.6L15.7 14.3C15.3 13.9 14.7 13.9 14.3 14.3C13.9 14.7 13.9 15.3 14.3 15.7L18.6 20H15.4C14.8 20 14.4 20.4 14.4 21C14.4 21.6 14.8 22 15.4 22H21C21.1 22 21.3 22 21.4 21.9C21.6 21.8 21.8 21.6 21.9 21.4C22 21.2 22 21.1 22 21V15.3C22 14.7 21.5 14.3 21 14.3ZM8.3 9.7C8.5 9.9 8.7 10 9 10C9.3 10 9.5 9.9 9.7 9.7C10.1 9.3 10.1 8.7 9.7 8.3L3.7 2.3C3.3 1.9 2.7 1.9 2.3 2.3C1.9 2.7 1.9 3.3 2.3 3.7L8.3 9.7Z" fill="#545454"/>
</svg>
