<svg width="24" height="24" viewBox="0 0 24 24" fill="none" xmlns="http://www.w3.org/2000/svg">
<path d="M21.91 11.59C21.91 11.59 21.86 11.52 21.84 11.49C21.79 11.41 21.73 11.33 21.66 11.26C21.65 11.25 21.64 11.23 21.63 11.22L16.63 7.22C16.2 6.88 15.57 6.95 15.22 7.38C14.88 7.81 14.95 8.44 15.38 8.79L18.15 11.01H12V8.01C12 5.25 9.76 3.01 7 3.01H5.72C5.89 3.31 6 3.64 6 4.01C6 4.38 5.89 4.71 5.72 5.01H7C8.65 5.01 10 6.36 10 8.01V11.01H5.72C5.89 11.31 6 11.64 6 12.01C6 12.38 5.89 12.71 5.72 13.01H10V16.01C10 17.66 8.65 19.01 7 19.01H5.72C5.89 19.31 6 19.64 6 20.01C6 20.38 5.89 20.71 5.72 21.01H7C9.76 21.01 12 18.77 12 16.01V13.01H18.15L15.38 15.23C14.95 15.58 14.88 16.2 15.22 16.64C15.42 16.89 15.71 17.02 16 17.02C16.22 17.02 16.44 16.95 16.62 16.8L21.62 12.8C21.62 12.8 21.64 12.77 21.65 12.76C21.72 12.69 21.78 12.62 21.83 12.53C21.85 12.49 21.88 12.47 21.9 12.43C21.96 12.3 21.99 12.17 21.99 12.02C21.99 11.87 21.95 11.73 21.9 11.61L21.91 11.59Z" fill="#545454"/>
<path d="M4 6C4.74 6 5.38 5.6 5.72 5C5.89 4.7 6 4.37 6 4C6 3.63 5.89 3.3 5.72 3C5.37 2.4 4.74 2 4 2C2.9 2 2 2.9 2 4C2 5.1 2.9 6 4 6ZM4 10C2.9 10 2 10.9 2 12C2 13.1 2.9 14 4 14C4.74 14 5.38 13.6 5.72 13C5.89 12.7 6 12.37 6 12C6 11.63 5.89 11.3 5.72 11C5.37 10.4 4.74 10 4 10ZM4 18C2.9 18 2 18.9 2 20C2 21.1 2.9 22 4 22C4.74 22 5.38 21.6 5.72 21C5.89 20.7 6 20.37 6 20C6 19.63 5.89 19.3 5.72 19C5.37 18.4 4.74 18 4 18Z" fill="#545454"/>
</svg>
