<svg width="24" height="24" viewBox="0 0 24 24" fill="none" xmlns="http://www.w3.org/2000/svg">
<path d="M19.0001 11H17.6301C17.0801 11 16.6301 11.45 16.6301 12C16.6301 12.55 17.0801 13 17.6301 13H19.0001C19.5501 13 20.0001 13.45 20.0001 14V18C20.0001 18.55 19.5501 19 19.0001 19H14.5001C14.0101 19 13.4801 19.15 13.0001 19.34V16C13.0001 15.45 12.5501 15 12.0001 15C11.4501 15 11.0001 15.45 11.0001 16V21C11.0001 21.37 11.2001 21.71 11.5301 21.88C11.6801 21.96 11.8401 22 12.0001 22C12.1901 22 12.3901 21.94 12.5501 21.83C13.0601 21.49 14.0201 21 14.5001 21H19.0001C20.6501 21 22.0001 19.65 22.0001 18V14C22.0001 12.35 20.6501 11 19.0001 11ZM17.9501 8.13C17.8201 7.72 17.4301 7.44 17.0001 7.44H12.7201L15.4801 3.58C15.7001 3.28 15.7301 2.87 15.5601 2.54C15.3901 2.21 15.0501 2 14.6701 2H5.26008C4.81008 2 4.42008 2.29 4.30008 2.72L2.04008 10.5C1.95008 10.8 2.01008 11.13 2.20008 11.38C2.39008 11.63 2.69008 11.78 3.00008 11.78H6.83008L4.44008 16.56C4.23008 16.97 4.34008 17.47 4.69008 17.77C4.88008 17.93 5.11008 18.01 5.33008 18.01C5.54008 18.01 5.75008 17.95 5.92008 17.82L17.5901 9.26C17.9401 9 18.0801 8.55 17.9501 8.14V8.13ZM8.08008 13.74L9.34008 11.22C9.50008 10.91 9.48008 10.54 9.30008 10.25C9.12008 9.96 8.80008 9.78 8.45008 9.78H4.34008L6.02008 4H12.7301L9.97008 7.86C9.75008 8.16 9.72008 8.57 9.89008 8.9C10.0601 9.23 10.4001 9.44 10.7801 9.44H13.9501L8.08008 13.74Z" fill="#545454"/>
</svg>
