<svg width="24" height="24" viewBox="0 0 24 24" fill="none" xmlns="http://www.w3.org/2000/svg">
<path d="M20.9994 2H11.9994C11.7342 2 11.4798 2.10536 11.2923 2.29289C11.1047 2.48043 10.9994 2.73478 10.9994 3C10.9994 3.26522 11.1047 3.51957 11.2923 3.70711C11.4798 3.89464 11.7342 4 11.9994 4H20.9994C21.2646 4 21.519 3.89464 21.7065 3.70711C21.894 3.51957 21.9994 3.26522 21.9994 3C21.9994 2.73478 21.894 2.48043 21.7065 2.29289C21.519 2.10536 21.2646 2 20.9994 2ZM18.3002 6H11.9994C11.7342 6 11.4798 6.10536 11.2923 6.29289C11.1047 6.48043 10.9994 6.73478 10.9994 7C10.9994 7.26522 11.1047 7.51957 11.2923 7.70711C11.4798 7.89464 11.7342 8 11.9994 8H18.3002C18.5654 8 18.8197 7.89464 19.0073 7.70711C19.1948 7.51957 19.3002 7.26522 19.3002 7C19.3002 6.73478 19.1948 6.48043 19.0073 6.29289C18.8197 6.10536 18.5654 6 18.3002 6ZM15.6 10H11.9994C11.7342 10 11.4798 10.1054 11.2923 10.2929C11.1047 10.4804 10.9994 10.7348 10.9994 11C10.9994 11.2652 11.1047 11.5196 11.2923 11.7071C11.4798 11.8946 11.7342 12 11.9994 12H15.6C15.8652 12 16.1195 11.8946 16.3071 11.7071C16.4946 11.5196 16.6 11.2652 16.6 11C16.6 10.7348 16.4946 10.4804 16.3071 10.2929C16.1195 10.1054 15.8652 10 15.6 10ZM12.5268 14.3496L9.14294 18.2972V3C9.14294 2.73478 9.03758 2.48043 8.85004 2.29289C8.66251 2.10536 8.40815 2 8.14294 2C7.87772 2 7.62337 2.10536 7.43583 2.29289C7.24829 2.48043 7.14294 2.73478 7.14294 3V18.2974L3.75818 14.3496C3.58568 14.1483 3.34031 14.0238 3.07604 14.0035C2.81176 13.9832 2.55024 14.0687 2.349 14.2412C2.14775 14.4137 2.02328 14.659 2.00295 14.9233C1.98262 15.1876 2.0681 15.4491 2.2406 15.6503L7.38415 21.6504C7.3916 21.6591 7.40332 21.6622 7.41107 21.6707C7.48157 21.7435 7.56285 21.805 7.65207 21.8531C7.67978 21.874 7.70859 21.8934 7.73837 21.9112C7.86524 21.9697 8.00328 22 8.14298 22C8.28268 21.9999 8.42072 21.9696 8.54758 21.9111C8.57717 21.8934 8.60581 21.8741 8.63339 21.8533C8.72279 21.8052 8.80423 21.7436 8.87485 21.6707C8.8826 21.6622 8.89426 21.6591 8.9017 21.6504L14.0443 15.6503C14.1306 15.5508 14.1964 15.4352 14.2379 15.3102C14.2794 15.1852 14.2958 15.0531 14.2861 14.9218C14.2764 14.7904 14.2408 14.6622 14.1814 14.5446C14.122 14.427 14.0399 14.3223 13.9398 14.2366C13.8398 14.1509 13.7238 14.0857 13.5985 14.045C13.4732 14.0042 13.3411 13.9887 13.2098 13.9992C13.0785 14.0097 12.9505 14.046 12.8333 14.1062C12.7161 14.1663 12.6119 14.249 12.5268 14.3496Z" fill="#545454"/>
</svg>
