<svg width="24" height="24" viewBox="0 0 24 24" fill="none" xmlns="http://www.w3.org/2000/svg">
<path d="M21.0002 20H12.0002C11.735 20 11.4806 20.1053 11.2931 20.2929C11.1055 20.4804 11.0002 20.7348 11.0002 21C11.0002 21.2652 11.1055 21.5196 11.2931 21.7071C11.4806 21.8946 11.735 22 12.0002 22H21.0002C21.2654 22 21.5197 21.8946 21.7073 21.7071C21.8948 21.5196 22.0002 21.2652 22.0002 21C22.0002 20.7348 21.8948 20.4804 21.7073 20.2929C21.5197 20.1053 21.2654 20 21.0002 20ZM11.0002 17C11.0001 17.1313 11.0259 17.2614 11.0761 17.3828C11.1264 17.5041 11.2 17.6144 11.2929 17.7073C11.3858 17.8001 11.496 17.8738 11.6174 17.924C11.7388 17.9742 11.8688 18.0001 12.0002 18H18.3C18.5652 18 18.8195 17.8946 19.0071 17.7071C19.1946 17.5196 19.3 17.2652 19.3 17C19.3 16.7348 19.1946 16.4804 19.0071 16.2929C18.8195 16.1053 18.5652 16 18.3 16H12.0002C11.8688 15.9999 11.7388 16.0257 11.6174 16.0759C11.496 16.1262 11.3858 16.1998 11.2929 16.2927C11.2 16.3856 11.1264 16.4959 11.0761 16.6172C11.0259 16.7386 11.0001 16.8686 11.0002 17ZM11.0002 13C11.0001 13.1313 11.0259 13.2614 11.0761 13.3828C11.1264 13.5041 11.2 13.6144 11.2929 13.7073C11.3858 13.8001 11.496 13.8738 11.6174 13.924C11.7388 13.9742 11.8688 14.0001 12.0002 14H15.5998C15.865 14 16.1193 13.8946 16.3069 13.7071C16.4944 13.5196 16.5998 13.2652 16.5998 13C16.5998 12.7348 16.4944 12.4804 16.3069 12.2929C16.1193 12.1053 15.865 12 15.5998 12H12.0002C11.8688 11.9999 11.7388 12.0257 11.6174 12.0759C11.496 12.1262 11.3858 12.1998 11.2929 12.2927C11.2 12.3856 11.1264 12.4959 11.0761 12.6172C11.0259 12.7386 11.0001 12.8686 11.0002 13ZM13.9367 9.75878C14.0365 9.67351 14.1186 9.56936 14.1781 9.45231C14.2376 9.33527 14.2734 9.20762 14.2835 9.0767C14.2936 8.94578 14.2777 8.81416 14.2368 8.68939C14.1959 8.56462 14.1307 8.44915 14.0451 8.34961L8.90154 2.3496C8.89445 2.3413 8.88316 2.33892 8.87578 2.33092C8.78408 2.22692 8.67129 2.14363 8.54491 2.08657C8.41853 2.02952 8.28146 2.00001 8.1428 2C8.00414 1.99999 7.86706 2.02949 7.74068 2.08654C7.6143 2.14359 7.5015 2.22687 7.40978 2.33087C7.4024 2.33887 7.39105 2.3413 7.38397 2.3496L2.24139 8.34961C2.15577 8.44928 2.09063 8.56487 2.04971 8.68974C2.00879 8.81461 1.99289 8.94633 2.00292 9.07735C2.01294 9.20838 2.0487 9.33614 2.10815 9.45333C2.16759 9.57052 2.24956 9.67485 2.34936 9.76033C2.44916 9.84582 2.56483 9.9108 2.68976 9.95154C2.81469 9.99229 2.94643 10.008 3.07744 9.99779C3.20845 9.98758 3.33616 9.95164 3.45327 9.89203C3.57038 9.83242 3.67459 9.7503 3.75994 9.65039L7.14275 5.70299V21C7.14275 21.2652 7.2481 21.5196 7.43564 21.7071C7.62317 21.8946 7.87753 22 8.14275 22C8.40796 22 8.66232 21.8946 8.84985 21.7071C9.03739 21.5196 9.14275 21.2652 9.14275 21V5.70251L12.5275 9.65039C12.6126 9.75054 12.7166 9.83284 12.8337 9.89255C12.9508 9.95226 13.0785 9.98819 13.2095 9.99827C13.3405 10.0083 13.4722 9.99237 13.5971 9.95127C13.7219 9.91017 13.8373 9.84474 13.9367 9.75878Z" fill="#545454"/>
</svg>
