<svg width="24" height="24" viewBox="0 0 24 24" fill="none" xmlns="http://www.w3.org/2000/svg">
<path d="M9.00049 18H7.00097C4.24463 18 2.00195 16.1553 2.00195 13.8887V6.11133C2.00195 3.84424 4.24463 2 7.00097 2H16.999C19.7559 2 21.998 3.84424 21.998 6.11133V10C21.998 10.5522 21.5508 11 20.998 11C20.4453 11 19.998 10.5522 19.998 10V6.11133C19.998 4.9668 18.625 4 16.999 4H7.00097C5.37549 4 4.00195 4.9668 4.00195 6.11133V13.8887C4.00195 15.0332 5.37549 16 7.00097 16H9.00048C9.55273 16 10.0005 16.4473 10.0005 17C10.0005 17.5527 9.55273 18 9.00049 18Z" fill="#545454"/>
<path fill-rule="evenodd" clip-rule="evenodd" d="M17.001 22C14.2432 22 12 19.7559 12 16.998C12 14.2393 14.2432 11.9956 17.001 11.9956C19.7588 11.9956 22.002 14.2393 22.002 16.998C22.002 19.7559 19.7588 22 17.001 22ZM17.001 13.9961C15.3467 13.9961 14 15.3428 14 16.998C14 17.4625 14.106 17.9026 14.2951 18.2956L18.2985 14.2915C17.9055 14.1022 17.4654 13.9961 17.001 13.9961ZM19.7103 15.7078L15.7107 19.7081C16.1018 19.8952 16.5394 20 17.001 20C18.6553 20 20.002 18.6533 20.002 16.998C20.002 16.5364 19.8972 16.0988 19.7103 15.7078Z" fill="#545454"/>
<path d="M15.999 9H8.00098C7.44873 9 7.00098 8.55225 7.00098 8C7.00098 7.44775 7.44873 7 8.00098 7H15.999C16.5518 7 16.999 7.44775 16.999 8C16.999 8.55225 16.5518 9 15.999 9Z" fill="#545454"/>
<path d="M8.00098 13H11.0005C11.5527 13 12.0005 12.5522 12.0005 12C12.0005 11.4478 11.5527 11 11.0005 11H8.00098C7.44873 11 7.00098 11.4478 7.00098 12C7.00098 12.5522 7.44873 13 8.00098 13Z" fill="#545454"/>
</svg>
