<svg width="24" height="24" viewBox="0 0 24 24" fill="none" xmlns="http://www.w3.org/2000/svg">
<path d="M16.9995 1.99951H15.0933C15.0551 1.98926 15.0163 1.98143 14.9771 1.97607C14.9378 1.98143 14.899 1.98926 14.8608 1.99951H9.09332C9.0551 1.98926 9.01626 1.98143 8.97705 1.97607C8.93784 1.98143 8.899 1.98926 8.86077 1.99951H6.99951C5.67391 2.00107 4.40304 2.52836 3.4657 3.4657C2.52836 4.40305 2.00107 5.67391 1.99951 6.99951V16.9995C2.00107 18.3251 2.52835 19.596 3.4657 20.5333C4.40304 21.4707 5.67391 21.998 6.99951 21.9995H16.9995C18.3251 21.998 19.596 21.4707 20.5333 20.5333C21.4707 19.596 21.998 18.3251 21.9995 16.9995V6.99951C21.998 5.67391 21.4707 4.40305 20.5333 3.4657C19.596 2.52836 18.3251 2.00107 16.9995 1.99951ZM13.9771 3.99951V19.9995H9.97705V3.99951H13.9771ZM3.99951 16.9995V6.99951C4.00038 6.20413 4.31673 5.44157 4.87915 4.87915C5.44157 4.31673 6.20413 4.00038 6.99951 3.99951H7.97705V19.9995H6.99951C6.20413 19.9986 5.44157 19.6823 4.87915 19.1199C4.31673 18.5575 4.00038 17.7949 3.99951 16.9995ZM19.9995 16.9995C19.9986 17.7949 19.6823 18.5575 19.1199 19.1199C18.5575 19.6823 17.7949 19.9986 16.9995 19.9995H15.9771V3.99951H16.9995C17.7949 4.00038 18.5575 4.31673 19.1199 4.87915C19.6823 5.44157 19.9986 6.20413 19.9995 6.99951V16.9995Z" fill="#545454"/>
</svg>
