<svg width="24" height="24" viewBox="0 0 24 24" fill="none" xmlns="http://www.w3.org/2000/svg">
<path d="M16.9775 1.97583H6.97754C5.65193 1.97739 4.38107 2.50467 3.44372 3.44201C2.50638 4.37936 1.9791 5.65023 1.97754 6.97583V16.9758C1.9791 18.3014 2.50638 19.5723 3.44373 20.5096C4.38107 21.447 5.65194 21.9743 6.97754 21.9758H16.9775C18.3031 21.9743 19.574 21.447 20.5114 20.5096C21.4487 19.5723 21.976 18.3014 21.9775 16.9758V6.97583C21.976 5.65023 21.4487 4.37936 20.5114 3.44202C19.574 2.50467 18.3031 1.97739 16.9775 1.97583ZM3.97754 16.9758V6.97583C3.97841 6.18045 4.29476 5.41789 4.85718 4.85547C5.4196 4.29305 6.18216 3.9767 6.97754 3.97583H11V19.9758H6.97754C6.18216 19.975 5.4196 19.6586 4.85718 19.0962C4.29476 18.5338 3.97841 17.7712 3.97754 16.9758ZM19.9775 16.9758C19.9767 17.7712 19.6603 18.5338 19.0979 19.0962C18.5355 19.6586 17.7729 19.975 16.9775 19.9758H13V3.97583H16.9775C17.7729 3.9767 18.5355 4.29305 19.0979 4.85547C19.6603 5.41789 19.9767 6.18045 19.9775 6.97583V16.9758Z" fill="#545454"/>
</svg>
