<svg width="24" height="24" viewBox="0 0 24 24" fill="none" xmlns="http://www.w3.org/2000/svg">
<path d="M17.9999 21.9556C17.8446 21.9554 17.6916 21.9193 17.5526 21.8501L11.9999 19.0737L6.44714 21.8501C6.28217 21.9326 6.0976 21.9678 5.91385 21.9519C5.7301 21.936 5.55433 21.8697 5.40596 21.7601C5.25759 21.6505 5.14241 21.5021 5.07315 21.3311C5.0039 21.1602 4.98326 20.9734 5.01354 20.7915L5.9403 15.2319L2.21862 10.5806C2.10985 10.4443 2.03857 10.282 2.01183 10.1097C1.9851 9.93742 2.00384 9.76114 2.06621 9.59832C2.12857 9.43551 2.23239 9.29181 2.36738 9.18147C2.50237 9.07113 2.66384 8.99797 2.83581 8.96924L8.33287 8.05322L11.1053 2.5083C11.1976 2.35336 11.3286 2.22505 11.4854 2.13595C11.6422 2.04685 11.8195 2 11.9999 2C12.1802 2 12.3575 2.04685 12.5143 2.13595C12.6711 2.22505 12.8021 2.35336 12.8944 2.5083L15.6669 8.05322L21.1639 8.96922C21.3359 8.99795 21.4974 9.07111 21.6324 9.18145C21.7674 9.29179 21.8712 9.43549 21.9335 9.5983C21.9959 9.76112 22.0146 9.9374 21.9879 10.1097C21.9612 10.282 21.8899 10.4443 21.7811 10.5805L18.0594 15.2319L18.9862 20.7915C19.0101 20.9347 19.0024 21.0814 18.9639 21.2214C18.9253 21.3614 18.8567 21.4913 18.7628 21.6021C18.6689 21.7129 18.5521 21.8019 18.4203 21.8629C18.2885 21.924 18.1451 21.9556 17.9999 21.9556ZM11.9999 16.9556C12.1551 16.9555 12.3083 16.9916 12.4471 17.061L16.6903 19.1831L16.0135 15.1196C15.9906 14.9811 15.9969 14.8392 16.0323 14.7033C16.0676 14.5674 16.1311 14.4404 16.2186 14.3306L19.1542 10.6616L14.8358 9.94185C14.6802 9.91583 14.533 9.85345 14.406 9.75977C14.2791 9.6661 14.1761 9.54379 14.1053 9.40278L11.9999 5.1919L9.8944 9.40282C9.82366 9.54382 9.72064 9.66614 9.59371 9.75981C9.46677 9.85349 9.31952 9.91587 9.16393 9.94189L4.84557 10.6616L7.78112 14.3306C7.86866 14.4404 7.93214 14.5674 7.96747 14.7034C8.0028 14.8393 8.00918 14.9811 7.9862 15.1197L7.30944 19.1832L11.5526 17.0611C11.6915 16.9917 11.8446 16.9555 11.9999 16.9556Z" fill="#545454"/>
</svg>
