<svg width="24" height="24" viewBox="0 0 24 24" fill="none" xmlns="http://www.w3.org/2000/svg">
<path d="M15 16C15 16.5527 15.4473 17 16 17C16.5527 17 17 16.5527 17 16V8C17 7.44775 16.5527 7 16 7C15.4473 7 15 7.44775 15 8V16Z" fill="#545454"/>
<path d="M12 17C11.4478 17 11 16.5527 11 16V10C11 9.44775 11.4478 9 12 9C12.5522 9 13 9.44775 13 10V16C13 16.5527 12.5522 17 12 17Z" fill="#545454"/>
<path d="M7 16C7 16.5527 7.44775 17 8 17C8.55225 17 9 16.5527 9 16V13C9 12.4478 8.55225 12 8 12C7.44775 12 7 12.4478 7 13V16Z" fill="#545454"/>
<path fill-rule="evenodd" clip-rule="evenodd" d="M17 22C19.7568 22 22 19.7568 22 17V7C22 4.24316 19.7568 2 17 2H7C4.24316 2 2 4.24316 2 7V17C2 19.7568 4.24316 22 7 22H17ZM4 7C4 5.3457 5.3457 4 7 4H17C18.6543 4 20 5.3457 20 7V17C20 18.6543 18.6543 20 17 20H7C5.3457 20 4 18.6543 4 17V7Z" fill="#545454"/>
</svg>
