<svg width="24" height="24" viewBox="0 0 24 24" fill="none" xmlns="http://www.w3.org/2000/svg">
<path d="M20.7 11.3C20.3 10.9 19.7 10.9 19.3 11.3L18 12.6V9C18 5.1 14.9 2 11 2C7.1 2 4 5.1 4 9V15C4 15.6 4.4 16 5 16C5.6 16 6 15.6 6 15V9C6 6.2 8.2 4 11 4C13.8 4 16 6.2 16 9V12.6L14.7 11.3C14.3 10.9 13.7 10.9 13.3 11.3C12.9 11.7 12.9 12.3 13.3 12.7L16.3 15.7C16.5 15.9 16.8 16 17 16C17.1 16 17.2 16 17.3 15.9C17.4 15.8 17.6 15.8 17.7 15.6L20.7 12.6C21.1 12.3 21.1 11.7 20.7 11.3ZM17 18C15.9 18 15 18.9 15 20C15 21.1 15.9 22 17 22C18.1 22 19 21.1 19 20C19 18.9 18.1 18 17 18ZM5 18C3.9 18 3 18.9 3 20C3 21.1 3.9 22 5 22C6.1 22 7 21.1 7 20C7 18.9 6.1 18 5 18Z" fill="#545454"/>
</svg>
