<svg width="24" height="24" viewBox="0 0 24 24" fill="none" xmlns="http://www.w3.org/2000/svg">
<path d="M9.68007 2.25985C9.27007 1.88985 8.64007 1.90985 8.27007 2.31985L5.31008 5.54985L3.72008 3.95985C3.33008 3.56985 2.70008 3.56985 2.31008 3.95985C1.92008 4.34985 1.92008 4.97985 2.31008 5.36985L4.6401 7.69985C4.8301 7.88985 5.08009 7.98985 5.35009 7.98985H5.37008C5.64008 7.98985 5.90008 7.86985 6.09008 7.66985L9.76009 3.66985C10.1301 3.25985 10.1101 2.62985 9.70009 2.25985H9.68007ZM8.00008 8.99985H4.00008C3.45008 8.99985 3.00008 9.44985 3.00008 9.99985V13.9999C3.00008 14.5499 3.45008 14.9999 4.00008 14.9999H8.00008C8.55008 14.9999 9.00008 14.5499 9.00008 13.9999V9.99985C9.00008 9.44985 8.55008 8.99985 8.00008 8.99985ZM7.00008 12.9999H5.00008V10.9999H7.00008V12.9999ZM8.00008 15.9999H4.00008C3.45008 15.9999 3.00008 16.4499 3.00008 16.9999V20.9999C3.00008 21.5499 3.45008 21.9999 4.00008 21.9999H8.00008C8.55008 21.9999 9.00008 21.5499 9.00008 20.9999V16.9999C9.00008 16.4499 8.55008 15.9999 8.00008 15.9999ZM7.00008 19.9999H5.00008V17.9999H7.00008V19.9999Z" fill="#545454"/>
<path d="M12.0001 5.99985H21.0001C21.5501 5.99985 22.0001 5.54985 22.0001 4.99985C22.0001 4.44985 21.5501 3.99985 21.0001 3.99985H12.0001C11.4501 3.99985 11.0001 4.44985 11.0001 4.99985C11.0001 5.54985 11.4501 5.99985 12.0001 5.99985ZM21.0001 10.9999H12.0001C11.4501 10.9999 11.0001 11.4499 11.0001 11.9999C11.0001 12.5499 11.4501 12.9999 12.0001 12.9999H21.0001C21.5501 12.9999 22.0001 12.5499 22.0001 11.9999C22.0001 11.4499 21.5501 10.9999 21.0001 10.9999ZM21.0001 17.9999H12.0001C11.4501 17.9999 11.0001 18.4499 11.0001 18.9999C11.0001 19.5499 11.4501 19.9999 12.0001 19.9999H21.0001C21.5501 19.9999 22.0001 19.5499 22.0001 18.9999C22.0001 18.4499 21.5501 17.9999 21.0001 17.9999Z" fill="#545454"/>
</svg>
