<svg width="24" height="24" viewBox="0 0 24 24" fill="none" xmlns="http://www.w3.org/2000/svg">
<path d="M21 11H12.1C9.4 10.3 7.8 8.8 8.1 7.1C8.3 5.6 9.8 4 12 4C14.2 4 15.6 5.1 16 7.2C16.1 7.7 16.6 8.1 17.2 8C17.7 7.9 18.1 7.4 18 6.8C17.7 5.4 16.5 2 12 2C9 2 6.4 4.1 6.1 6.9C5.9 8.2 6.4 9.7 7.8 11H3C2.4 11 2 11.4 2 12C2 12.6 2.4 13 3 13H21C21.6 13 22 12.6 22 12C22 11.4 21.6 11 21 11ZM18.1 15C17.6 14.9 17 15.3 16.9 15.8C16.5 18.2 14.5 20 12 20C9.5 20 7.5 18.2 7.1 15.8C7 15.3 6.5 14.9 5.9 15C5.4 15.1 5 15.6 5.1 16.2C5.7 19.5 8.6 22 12 22C15.4 22 18.3 19.5 18.9 16.2C19 15.6 18.6 15.1 18.1 15Z" fill="#545454"/>
</svg>
