<svg width="24" height="24" viewBox="0 0 24 24" fill="none" xmlns="http://www.w3.org/2000/svg">
<path d="M17 8.00008H5.70001L10.65 3.76008C11.07 3.40008 11.12 2.77008 10.76 2.35008C10.4 1.93008 9.77001 1.88008 9.35001 2.24008L2.35001 8.24008C2.35001 8.24008 2.33999 8.26008 2.32999 8.27008C2.25999 8.34008 2.19999 8.42008 2.14999 8.51008C2.12999 8.54008 2.1 8.57008 2.09 8.60008C2.03 8.72008 2 8.86008 2 9.00008C2 9.14008 2.03 9.28008 2.09 9.40008C2.1 9.43008 2.12999 9.46008 2.14999 9.49008C2.19999 9.58008 2.25999 9.66008 2.32999 9.73008C2.32999 9.73008 2.34001 9.75008 2.35001 9.76008L9.35001 15.7601C9.54001 15.9201 9.77 16.0001 10 16.0001C10.28 16.0001 10.56 15.8801 10.76 15.6501C11.12 15.2301 11.07 14.6001 10.65 14.2401L5.70001 10.0001H17C18.65 10.0001 20 11.3501 20 13.0001V21.0001C20 21.5501 20.45 22.0001 21 22.0001C21.55 22.0001 22 21.5501 22 21.0001V13.0001C22 10.2401 19.76 8.00008 17 8.00008Z" fill="#545454"/>
<path d="M4 18.0001C2.9 18.0001 2 18.9001 2 20.0001C2 21.1001 2.9 22.0001 4 22.0001C5.1 22.0001 6 21.1001 6 20.0001C6 18.9001 5.1 18.0001 4 18.0001ZM10 18.0001C8.9 18.0001 8 18.9001 8 20.0001C8 21.1001 8.9 22.0001 10 22.0001C11.1 22.0001 12 21.1001 12 20.0001C12 18.9001 11.1 18.0001 10 18.0001ZM16 18.0001C14.9 18.0001 14 18.9001 14 20.0001C14 21.1001 14.9 22.0001 16 22.0001C17.1 22.0001 18 21.1001 18 20.0001C18 18.9001 17.1 18.0001 16 18.0001Z" fill="#545454"/>
</svg>
