<svg width="24" height="24" viewBox="0 0 24 24" fill="none" xmlns="http://www.w3.org/2000/svg">
<path d="M21.71 20.29L17.32 15.9C18.17 14.76 18.67 13.36 18.67 11.83C18.67 8.06 15.6 5 11.84 5C8.08 5 5.01 8.07 5.01 11.83C5.01 15.59 8.08 18.66 11.84 18.66C13.36 18.66 14.77 18.15 15.91 17.31L20.3 21.7C20.5 21.9 20.75 21.99 21.01 21.99C21.27 21.99 21.52 21.89 21.72 21.7C22.11 21.31 22.11 20.68 21.72 20.29H21.71ZM11.84 16.66C9.17 16.66 7.01 14.49 7.01 11.83C7.01 9.17 9.18 7 11.84 7C14.5 7 16.67 9.17 16.67 11.83C16.67 14.49 14.5 16.66 11.84 16.66ZM13.51 9.28H10.3C9.75 9.28 9.3 9.73 9.3 10.28C9.3 10.83 9.75 11.28 10.3 11.28H13.51C14.06 11.28 14.51 10.83 14.51 10.28C14.51 9.73 14.06 9.28 13.51 9.28ZM13.51 12.49H10.3C9.75 12.49 9.3 12.94 9.3 13.49C9.3 14.04 9.75 14.49 10.3 14.49H13.51C14.06 14.49 14.51 14.04 14.51 13.49C14.51 12.94 14.06 12.49 13.51 12.49Z" fill="#545454"/>
<path d="M19.84 5.75C19.27 3.54 17.28 2 15 2H7C4.24 2 2 4.24 2 7V17C2 19.76 4.24 22 7 22H15C15.55 22 16 21.55 16 21C16 20.45 15.55 20 15 20H7C5.35 20 4 18.65 4 17V7C4 5.35 5.35 4 7 4H15C16.37 4 17.56 4.93 17.91 6.25C18.05 6.79 18.6 7.1 19.13 6.97C19.66 6.83 19.98 6.28 19.85 5.75H19.84Z" fill="#545454"/>
</svg>
