<svg width="24" height="24" viewBox="0 0 24 24" fill="none" xmlns="http://www.w3.org/2000/svg">
<path d="M16.9932 21.9983H6.99365C4.23681 21.9983 1.99365 19.7551 1.99365 16.9983V4.99829C1.99365 3.34399 3.33935 1.99829 4.99365 1.99829H8.99365C11.3442 1.99829 13.4014 3.66528 13.8857 5.96265L18.9932 5.99829C20.6475 5.99829 21.9932 7.34399 21.9932 8.99829V16.9983C21.9932 19.7551 19.75 21.9983 16.9932 21.9983ZM4.99365 3.99829C4.44238 3.99829 3.99365 4.44702 3.99365 4.99829V16.9983C3.99365 18.6526 5.33935 19.9983 6.99365 19.9983H16.9932C18.6475 19.9983 19.9932 18.6526 19.9932 16.9983V8.99829C19.9932 8.44702 19.5449 7.99829 18.9932 7.99829L13.8887 7.9978C12.937 7.9978 12.1314 7.33081 11.9287 6.37573C11.6387 4.9978 10.4043 3.99829 8.99365 3.99829H4.99365Z" fill="#545454"/>
</svg>
