<svg width="24" height="24" viewBox="0 0 24 24" fill="none" xmlns="http://www.w3.org/2000/svg">
<path d="M21.0066 2H12.0066C11.741 2.00143 11.4867 2.1071 11.2983 2.29425L3.34546 10.2471C2.48388 11.1104 2 12.2803 2 13.5C2 14.7197 2.48388 15.8896 3.34546 16.7529L7.25365 20.6611C8.11692 21.5229 9.28683 22.0068 10.5066 22.0068C11.7263 22.0068 12.8962 21.5229 13.7595 20.6611L21.7123 12.7083C21.8995 12.5199 22.0051 12.2655 22.0066 12V3C22.0067 2.86866 21.9808 2.73859 21.9306 2.61723C21.8804 2.49587 21.8067 2.3856 21.7139 2.29273C21.621 2.19985 21.5107 2.1262 21.3894 2.07597C21.268 2.02574 21.1379 1.99993 21.0066 2ZM20.0066 11.5859L12.3455 19.2471C11.8573 19.7339 11.196 20.0073 10.5066 20.0073C9.81716 20.0073 9.15587 19.7339 8.66773 19.2471L4.75953 15.3389C4.27267 14.8507 3.99927 14.1894 3.99927 13.5C3.99927 12.8106 4.27267 12.1493 4.75953 11.6611L12.4207 4H20.0066V11.5859ZM16.0066 10C16.4022 10 16.7888 9.8827 17.1177 9.66294C17.4466 9.44318 17.703 9.13082 17.8544 8.76537C18.0057 8.39991 18.0453 7.99778 17.9682 7.60982C17.891 7.22186 17.7005 6.86549 17.4208 6.58579C17.1411 6.30608 16.7847 6.1156 16.3968 6.03843C16.0088 5.96126 15.6067 6.00087 15.2412 6.15224C14.8758 6.30362 14.5634 6.55996 14.3437 6.88886C14.1239 7.21776 14.0066 7.60444 14.0066 8C14.0066 8.53043 14.2173 9.03914 14.5924 9.41421C14.9675 9.78929 15.4762 10 16.0066 10Z" fill="#545454"/>
</svg>
