<svg width="24" height="24" viewBox="0 0 24 24" fill="none" xmlns="http://www.w3.org/2000/svg">
<path d="M21.7065 8.293L15.7065 2.293C15.6137 2.2001 15.5035 2.12641 15.3822 2.07614C15.2609 2.02586 15.1309 1.99999 14.9995 2H7C5.6744 2.00156 4.40353 2.52884 3.46618 3.46618C2.52884 4.40353 2.00156 5.6744 2 7V17C2.00156 18.3256 2.52884 19.5965 3.46618 20.5338C4.40353 21.4712 5.6744 21.9984 7 22H16.9995C18.3251 21.9984 19.596 21.4712 20.5333 20.5338C21.4707 19.5965 21.998 18.3256 21.9995 17V9C21.9995 8.86869 21.9737 8.73865 21.9234 8.61734C21.8731 8.49603 21.7994 8.38582 21.7065 8.293ZM14.9995 4.41409L19.5855 9.00003H17.9995C17.2041 8.99916 16.4416 8.68281 15.8791 8.12039C15.3167 7.55797 15.0004 6.79541 14.9995 6.00003L14.9995 4.41409ZM19.9995 17C19.9987 17.7954 19.6823 18.558 19.1199 19.1204C18.5575 19.6828 17.7949 19.9992 16.9995 20H7C6.20462 19.9992 5.44206 19.6828 4.87964 19.1204C4.31722 18.558 4.00087 17.7954 4 17V7.00003C4.00087 6.20465 4.31722 5.44209 4.87964 4.87967C5.44206 4.31725 6.20462 4.0009 7 4.00003H12.9995V6.00003C13.0011 7.32564 13.5283 8.5965 14.4657 9.53385C15.403 10.4712 16.6739 10.9985 17.9995 11H19.9995L19.9995 17ZM6.99854 13.998H10.9985C11.2638 13.998 11.5181 13.8927 11.7056 13.7051C11.8932 13.5176 11.9985 13.2632 11.9985 12.998C11.9985 12.7328 11.8932 12.4785 11.7056 12.2909C11.5181 12.1034 11.2638 11.998 10.9985 11.998H6.99854C6.73332 11.998 6.47897 12.1034 6.29143 12.2909C6.1039 12.4785 5.99854 12.7328 5.99854 12.998C5.99854 13.2632 6.1039 13.5176 6.29143 13.7051C6.47897 13.8927 6.73332 13.998 6.99854 13.998ZM16.9985 15.998H6.99854C6.73332 15.998 6.47897 16.1034 6.29143 16.2909C6.1039 16.4785 5.99854 16.7328 5.99854 16.998C5.99854 17.2632 6.1039 17.5176 6.29143 17.7051C6.47897 17.8927 6.73332 17.998 6.99854 17.998H16.9985C17.2638 17.998 17.5181 17.8927 17.7056 17.7051C17.8932 17.5176 17.9985 17.2632 17.9985 16.998C17.9985 16.7328 17.8932 16.4785 17.7056 16.2909C17.5181 16.1034 17.2638 15.998 16.9985 15.998Z" fill="#545454"/>
</svg>
