<svg width="24" height="24" viewBox="0 0 24 24" fill="none" xmlns="http://www.w3.org/2000/svg">
<path d="M18.2 7C17 7 16 7.5 15.2 8.4C14.8 8.8 14.9 9.5 15.3 9.8C15.7 10.2 16.4 10.1 16.7 9.7C17.1 9.2 17.6 9 18.2 9C19.1 9 19.9 9.6 20 10.4H18C15.8 10.4 14 12.1 14 14.2C14 16.3 15.8 18 18 18C18.8 18 19.5 17.8 20.1 17.4C20.3 17.7 20.6 18 21 18C21.6 18 22 17.6 22 17V10.7C22 8.6 20.3 7 18.2 7ZM20 14.2C20 15.2 19.1 16 18 16C16.9 16 16 15.2 16 14.2C16 13.2 16.9 12.4 18 12.4H20V14.2ZM2.7 17.9C3.2 18.1 3.8 17.8 4 17.3L5.7 12.5H10.4L12.1 17.3C12.2 17.7 12.6 18 13 18C13.1 18 13.2 18 13.3 17.9C13.8 17.7 14.1 17.1 13.9 16.6L8.9 2.6C8.8 2.3 8.4 2 8 2C7.6 2 7.2 2.3 7.1 2.7L2.1 16.7C1.9 17.2 2.1 17.8 2.7 17.9ZM8 6L9.6 10.5H6.4L8 6ZM21 20H3C2.4 20 2 20.4 2 21C2 21.6 2.4 22 3 22H21C21.6 22 22 21.6 22 21C22 20.4 21.6 20 21 20Z" fill="#545454"/>
</svg>
