<svg width="24" height="24" viewBox="0 0 24 24" fill="none" xmlns="http://www.w3.org/2000/svg">
<path d="M21.7099 2.28994C21.617 2.19621 21.5064 2.12182 21.3845 2.07105C21.2627 2.02028 21.132 1.99414 20.9999 1.99414C20.8679 1.99414 20.7372 2.02028 20.6154 2.07105C20.4935 2.12182 20.3829 2.19621 20.2899 2.28994L2.28994 20.2899C2.19621 20.3829 2.12182 20.4935 2.07105 20.6154C2.02028 20.7372 1.99414 20.8679 1.99414 20.9999C1.99414 21.132 2.02028 21.2627 2.07105 21.3845C2.12182 21.5064 2.19621 21.617 2.28994 21.7099C2.3829 21.8037 2.4935 21.8781 2.61536 21.9288C2.73722 21.9796 2.86793 22.0057 2.99994 22.0057C3.13195 22.0057 3.26266 21.9796 3.38452 21.9288C3.50637 21.8781 3.61698 21.8037 3.70994 21.7099L21.7099 3.70994C21.8037 3.61698 21.8781 3.50637 21.9288 3.38452C21.9796 3.26266 22.0057 3.13195 22.0057 2.99994C22.0057 2.86793 21.9796 2.73722 21.9288 2.61536C21.8781 2.4935 21.8037 2.3829 21.7099 2.28994ZM20.2899 16.2899L16.2899 20.2899C16.1962 20.3829 16.1218 20.4935 16.071 20.6154C16.0203 20.7372 15.9941 20.8679 15.9941 20.9999C15.9941 21.132 16.0203 21.2627 16.071 21.3845C16.1218 21.5064 16.1962 21.617 16.2899 21.7099C16.3834 21.8026 16.4942 21.8759 16.616 21.9257C16.7379 21.9755 16.8683 22.0007 16.9999 21.9999C17.1315 22.0007 17.262 21.9755 17.3838 21.9257C17.5057 21.8759 17.6165 21.8026 17.7099 21.7099L21.7099 17.7099C21.8982 17.5216 22.004 17.2662 22.004 16.9999C22.004 16.7336 21.8982 16.4782 21.7099 16.2899C21.5216 16.1016 21.2662 15.9958 20.9999 15.9958C20.7336 15.9958 20.4782 16.1016 20.2899 16.2899ZM20.2899 9.28994L9.28994 20.2899C9.19621 20.3829 9.12182 20.4935 9.07105 20.6154C9.02028 20.7372 8.99414 20.8679 8.99414 20.9999C8.99414 21.132 9.02028 21.2627 9.07105 21.3845C9.12182 21.5064 9.19621 21.617 9.28994 21.7099C9.38338 21.8026 9.49419 21.8759 9.61603 21.9257C9.73787 21.9755 9.86833 22.0007 9.99994 21.9999C10.1315 22.0007 10.262 21.9755 10.3838 21.9257C10.5057 21.8759 10.6165 21.8026 10.7099 21.7099L21.7099 10.7099C21.8032 10.6167 21.8771 10.506 21.9276 10.3842C21.9781 10.2624 22.004 10.1318 22.004 9.99994C22.004 9.86808 21.9781 9.73751 21.9276 9.61569C21.8771 9.49387 21.8032 9.38318 21.7099 9.28994C21.6167 9.1967 21.506 9.12274 21.3842 9.07228C21.2624 9.02182 21.1318 8.99585 20.9999 8.99585C20.8681 8.99585 20.7375 9.02182 20.6157 9.07228C20.4939 9.12274 20.3832 9.1967 20.2899 9.28994Z" fill="#545454"/>
</svg>
