<svg width="24" height="24" viewBox="0 0 24 24" fill="none" xmlns="http://www.w3.org/2000/svg">
<path d="M17.501 21.4988H7.50146C4.74462 21.4988 2.50146 19.2556 2.50146 16.4988V4.49878C2.50146 2.84448 3.84716 1.49878 5.50146 1.49878H9.50147C11.8521 1.49878 13.9092 3.16577 14.3936 5.46314L19.501 5.49878C21.1553 5.49878 22.501 6.84448 22.501 8.49878V16.4988C22.501 19.2556 20.2578 21.4988 17.501 21.4988ZM5.50146 3.49878C4.95019 3.49878 4.50146 3.94751 4.50146 4.49878V16.4988C4.50146 18.1531 5.84716 19.4988 7.50146 19.4988H17.501C19.1553 19.4988 20.501 18.1531 20.501 16.4988V8.49878C20.501 7.94751 20.0527 7.49878 19.501 7.49878L14.3965 7.49829C13.4448 7.49829 12.6392 6.8313 12.4365 5.87622C12.1465 4.49829 10.9121 3.49878 9.50147 3.49878H5.50146Z" fill="#545454"/>
<path d="M6.50781 11.0005H18.5078M6.50781 15.0005H8.00781M10.5078 15.0005H18.5078" stroke="#545454" stroke-width="1.5" stroke-linecap="round"/>
</svg>
