<svg width="24" height="24" viewBox="0 0 24 24" fill="none" xmlns="http://www.w3.org/2000/svg">
<path d="M18.18 7C17.02 7 15.94 7.49 15.21 8.35C14.85 8.77 14.9 9.4 15.33 9.76C15.75 10.12 16.38 10.07 16.74 9.64C17.09 9.24 17.62 9 18.18 9C19.1 9 19.86 9.63 19.97 10.44H18C15.79 10.44 14 12.13 14 14.22C14 16.31 15.79 18 18 18C18.77 18 19.49 17.78 20.1 17.42C20.26 17.76 20.6 18 21 18C21.55 18 22 17.55 22 17V14.22V11.44V10.65C22 8.64 20.29 7 18.18 7ZM20 14.22C20 15.2 19.1 16 18 16C16.9 16 16 15.2 16 14.22C16 13.24 16.9 12.44 18 12.44H20V14.22ZM8.94002 2.66C8.80002 2.27 8.42002 2 8.00002 2C7.58002 2 7.20002 2.27 7.06002 2.66L2.06002 16.66C1.87002 17.18 2.14002 17.75 2.67002 17.94C3.19002 18.13 3.76002 17.85 3.95002 17.33L5.68002 12.49H10.34L12.07 17.33C12.2 17.75 12.59 18 13 18C13.11 18 13.23 17.98 13.34 17.94C13.86 17.75 14.13 17.18 13.95 16.66L8.94002 2.66ZM6.38002 10.5L8.00002 5.97L9.62002 10.5H6.38002Z" fill="#545454"/>
</svg>
