<svg width="24" height="24" viewBox="0 0 24 24" fill="none" xmlns="http://www.w3.org/2000/svg">
<path d="M18 7H14V5.5C14 4.57174 13.6313 3.6815 12.9749 3.02513C12.3185 2.36875 11.4283 2 10.5 2C9.57174 2 8.6815 2.36875 8.02513 3.02513C7.36875 3.6815 7 4.57174 7 5.5V9H4C3.46978 9.00069 2.96147 9.21162 2.58655 9.58655C2.21162 9.96147 2.00069 10.4698 2 11V18C2.00069 18.5302 2.21162 19.0385 2.58655 19.4135C2.96147 19.7884 3.46978 19.9993 4 20H7C7.17428 19.9976 7.34748 19.9721 7.51507 19.9243C7.85702 20.5505 8.36078 21.0734 8.97377 21.4385C9.58676 21.8037 10.2865 21.9976 11 22H18C19.0605 21.9989 20.0773 21.5772 20.8273 20.8273C21.5772 20.0773 21.9989 19.0605 22 18V11C21.9989 9.93946 21.5772 8.92266 20.8273 8.17274C20.0773 7.42283 19.0605 7.00106 18 7ZM4 18V11H7V18H4ZM20 18C19.9993 18.5302 19.7884 19.0385 19.4135 19.4135C19.0385 19.7884 18.5302 19.9993 18 20H11C10.4698 19.9993 9.96147 19.7884 9.58655 19.4135C9.21162 19.0385 9.00069 18.5302 9 18V5.5C9 5.10218 9.15804 4.72064 9.43934 4.43934C9.72064 4.15804 10.1022 4 10.5 4C10.8978 4 11.2794 4.15804 11.5607 4.43934C11.842 4.72064 12 5.10218 12 5.5V8C11.9999 8.13134 12.0257 8.26141 12.076 8.38277C12.1262 8.50413 12.1999 8.6144 12.2927 8.70728C12.3856 8.80015 12.4959 8.87381 12.6172 8.92404C12.7386 8.97426 12.8687 9.00008 13 9H18C18.5302 9.00069 19.0385 9.21162 19.4135 9.58655C19.7884 9.96147 19.9993 10.4698 20 11V18Z" fill="#545454"/>
</svg>
