<svg width="24" height="24" viewBox="0 0 24 24" fill="none" xmlns="http://www.w3.org/2000/svg">
<path d="M18 2H11C10.2865 2.00244 9.58677 2.19634 8.97377 2.56145C8.36078 2.92656 7.85703 3.44951 7.51507 4.07571C7.34748 4.02783 7.17428 4.00238 7 4H4C3.46978 4.00069 2.96147 4.21162 2.58655 4.58655C2.21162 4.96147 2.00069 5.46978 2 6V13C2.00069 13.5302 2.21162 14.0385 2.58655 14.4135C2.96147 14.7884 3.46978 14.9993 4 15H7V18.5C7 19.4283 7.36875 20.3185 8.02513 20.9749C8.6815 21.6313 9.57174 22 10.5 22C11.4283 22 12.3185 21.6313 12.9749 20.9749C13.6313 20.3185 14 19.4283 14 18.5V17H18C19.0605 16.9989 20.0773 16.5772 20.8273 15.8273C21.5772 15.0773 21.9989 14.0605 22 13V6C21.9989 4.93946 21.5772 3.92266 20.8273 3.17274C20.0773 2.42283 19.0605 2.00106 18 2ZM4 13V6H7V13H4ZM20 13C19.9993 13.5302 19.7884 14.0385 19.4135 14.4135C19.0385 14.7884 18.5302 14.9993 18 15H13C12.8687 14.9999 12.7386 15.0257 12.6172 15.076C12.4959 15.1262 12.3856 15.1998 12.2927 15.2927C12.1999 15.3856 12.1262 15.4959 12.076 15.6172C12.0257 15.7386 11.9999 15.8687 12 16V18.5C12 18.8978 11.842 19.2794 11.5607 19.5607C11.2794 19.842 10.8978 20 10.5 20C10.1022 20 9.72064 19.842 9.43934 19.5607C9.15804 19.2794 9 18.8978 9 18.5V6C9.00069 5.46978 9.21162 4.96147 9.58655 4.58655C9.96147 4.21162 10.4698 4.00069 11 4H18C18.5302 4.00069 19.0385 4.21162 19.4135 4.58655C19.7884 4.96147 19.9993 5.46978 20 6V13Z" fill="#545454"/>
</svg>
