<svg width="24" height="24" viewBox="0 0 24 24" fill="none" xmlns="http://www.w3.org/2000/svg">
<path d="M5.99999 22C5.82952 22 5.66187 21.9565 5.51297 21.8735C5.36407 21.7905 5.23886 21.6708 5.14923 21.5258C5.0596 21.3808 5.00854 21.2152 5.00087 21.0449C4.99321 20.8746 5.02921 20.7052 5.10546 20.5527L8.38183 14H2.99999C2.84478 14.0001 2.69169 13.964 2.55284 13.8947C2.41399 13.8253 2.2932 13.7246 2.20004 13.6004C2.10688 13.4763 2.04392 13.3322 2.01614 13.1795C1.98836 13.0268 1.99652 12.8697 2.03999 12.7207L4.94331 2.72071C5.00367 2.51281 5.12991 2.33013 5.30304 2.20015C5.47617 2.07018 5.68682 1.99994 5.90331 2H18C18.1838 1.99978 18.3641 2.05026 18.5211 2.1459C18.678 2.24153 18.8056 2.37861 18.8897 2.54205C18.9738 2.70549 19.0111 2.88896 18.9977 3.07227C18.9843 3.25559 18.9205 3.43164 18.8135 3.58106L14.9433 9H21C21.2108 9.00006 21.4162 9.06671 21.5868 9.19043C21.7575 9.31416 21.8847 9.48863 21.9503 9.68895C22.016 9.88927 22.0166 10.1052 21.9522 10.3059C21.8878 10.5066 21.7617 10.6819 21.5918 10.8067L6.59179 21.8067C6.42 21.9322 6.21276 21.9999 5.99999 22ZM4.33199 12H9.99999C10.1704 12.0001 10.338 12.0437 10.4869 12.1267C10.6357 12.2098 10.7609 12.3294 10.8505 12.4744C10.9401 12.6194 10.9912 12.7849 10.9989 12.9551C11.0066 13.1254 10.9707 13.2948 10.8945 13.4473L8.74413 17.7471L17.9453 11H13C12.8162 11.0002 12.6359 10.9497 12.4789 10.8541C12.322 10.7585 12.1944 10.6214 12.1103 10.458C12.0262 10.2945 11.9888 10.111 12.0023 9.92773C12.0157 9.74442 12.0795 9.56837 12.1865 9.41895L16.0566 4H6.65429L4.33199 12Z" fill="#545454"/>
</svg>
