<svg width="24" height="24" viewBox="0 0 24 24" fill="none" xmlns="http://www.w3.org/2000/svg">
<path d="M21.7071 10.2929L19.7071 8.29292C19.5852 8.17334 19.4351 8.08633 19.2708 8.03991C19.1065 7.99349 18.9331 7.98916 18.7666 8.0273C18.3813 8.10403 17.9832 8.08752 17.6056 7.97914C17.228 7.87077 16.8817 7.67368 16.5957 7.40429C16.3276 7.11922 16.1311 6.77455 16.0222 6.39866C15.9134 6.02276 15.8954 5.6264 15.9697 5.24218C16.0118 5.07476 16.0097 4.89928 15.9637 4.73291C15.9176 4.56653 15.8292 4.41495 15.707 4.29297L13.707 2.29297C13.6142 2.20009 13.504 2.12641 13.3827 2.07614C13.2614 2.02587 13.1313 2 13 2C12.8687 2 12.7387 2.02587 12.6173 2.07614C12.496 2.12641 12.3858 2.20009 12.293 2.29297L2.29297 12.293C2.20009 12.3858 2.12641 12.496 2.07614 12.6173C2.02587 12.7387 2 12.8687 2 13C2 13.1313 2.02587 13.2614 2.07614 13.3827C2.12641 13.504 2.20009 13.6142 2.29297 13.707L4.29297 15.707C4.41493 15.8265 4.56496 15.9135 4.72928 15.9599C4.8936 16.0063 5.06695 16.0107 5.2334 15.9727C5.61871 15.8957 6.01685 15.9121 6.39453 16.0205C6.77221 16.1288 7.11845 16.3261 7.4043 16.5957C7.6724 16.8807 7.86896 17.2254 7.97779 17.6013C8.08662 17.9772 8.10462 18.3736 8.0303 18.7578C7.98824 18.9252 7.99033 19.1007 8.03638 19.267C8.08242 19.4334 8.17084 19.585 8.293 19.707L10.293 21.707C10.3858 21.7999 10.4961 21.8735 10.6174 21.9238C10.7387 21.9741 10.8687 22 11 22C11.1314 22 11.2614 21.9741 11.3827 21.9238C11.504 21.8735 11.6142 21.7999 11.7071 21.707L21.7071 11.707C21.7999 11.6142 21.8736 11.5039 21.9239 11.3826C21.9742 11.2613 22 11.1313 22 11C22 10.8686 21.9741 10.7386 21.9239 10.6173C21.8736 10.496 21.7999 10.3858 21.7071 10.2929ZM11.0001 19.5859L10.0557 18.6416C10.1118 18.0097 10.0303 17.3732 9.81668 16.7758C9.60307 16.1785 9.26249 15.6346 8.81841 15.1816C8.36534 14.7376 7.82142 14.3971 7.22411 14.1835C6.6268 13.9699 5.99029 13.8883 5.35841 13.9443L4.41407 13L13 4.41401L13.9443 5.35835C13.8882 5.99024 13.9698 6.62678 14.1834 7.2241C14.397 7.82143 14.7376 8.36534 15.1817 8.81835C15.6348 9.26218 16.1788 9.6026 16.7761 9.81619C17.3733 10.0298 18.0098 10.1115 18.6417 10.0557L19.586 11L11.0001 19.5859ZM13.2071 8.79292C13.1142 8.70004 13.004 8.62636 12.8827 8.57609C12.7614 8.52583 12.6313 8.49995 12.5 8.49995C12.3687 8.49995 12.2387 8.52583 12.1174 8.57609C11.996 8.62636 11.8858 8.70004 11.793 8.79292L8.79299 11.7929C8.70011 11.8858 8.62643 11.996 8.57616 12.1173C8.52589 12.2386 8.50002 12.3686 8.50002 12.5C8.50002 12.6313 8.52589 12.7613 8.57616 12.8826C8.62643 13.0039 8.70011 13.1142 8.79299 13.207L10.793 15.207C10.8858 15.2999 10.996 15.3735 11.1174 15.4238C11.2387 15.4741 11.3687 15.5 11.5 15.5C11.6313 15.5 11.7614 15.4741 11.8827 15.4238C12.004 15.3735 12.1142 15.2999 12.2071 15.207L15.2071 12.207C15.2999 12.1142 15.3736 12.0039 15.4239 11.8826C15.4741 11.7613 15.5 11.6313 15.5 11.5C15.5 11.3686 15.4741 11.2386 15.4239 11.1173C15.3736 10.996 15.2999 10.8858 15.2071 10.7929L13.2071 8.79292ZM11.5001 13.0859L10.9141 12.5L12.5001 10.9141L13.086 11.5L11.5001 13.0859Z" fill="#545454"/>
</svg>
