<svg width="24" height="24" viewBox="0 0 24 24" fill="none" xmlns="http://www.w3.org/2000/svg">
<path d="M10.2928 21.707C10.4881 21.9023 10.7439 22 10.9998 22C11.2556 22 11.5115 21.9023 11.7068 21.707L12.7068 20.707C13.0969 20.3164 13.0969 19.6835 12.7068 19.2929C12.3161 18.9023 11.6834 18.9023 11.2927 19.2929L10.9998 19.5859L10.0589 18.6445C10.1585 17.3817 9.71612 16.1229 8.80159 15.1659C7.87338 14.2811 6.61804 13.8406 5.35538 13.9412L4.414 13.0003L12.9997 4.41413L13.9406 5.35507C13.841 6.6178 14.2834 7.8776 15.1984 8.83465C16.1281 9.72042 17.3937 10.1545 18.6446 10.0593L19.586 10.9997L19.2169 11.3679C18.8262 11.7585 18.8262 12.3914 19.2169 12.782C19.6075 13.1736 20.2403 13.1726 20.6309 12.783L21.707 11.7078C21.8945 11.5203 22 11.2659 22 11.0002C22 10.7351 21.8945 10.4807 21.707 10.2932L19.7071 8.29313C19.4688 8.05484 19.126 7.9523 18.797 8.02115C17.9972 8.18864 17.1691 7.94986 16.6124 7.42055C16.049 6.83118 15.8127 6.00255 15.9787 5.20419C16.048 4.8741 15.9455 4.53132 15.7072 4.29303L13.7063 2.29298C13.3176 1.90283 12.6833 1.90186 12.2927 2.29298L2.29296 12.2932C2.10547 12.4807 2 12.7351 2 13.0003C2 13.2654 2.10546 13.5203 2.29296 13.7078L4.29291 15.7069C4.53118 15.9452 4.87443 16.0477 5.20304 15.9793C6.00185 15.8123 6.83093 16.0506 7.38805 16.5799C7.95005 17.1688 8.18686 17.9979 8.02085 18.7968C7.95201 19.1259 8.05454 19.4687 8.29282 19.707L10.2928 21.707Z" fill="#545454"/>
<path fill-rule="evenodd" clip-rule="evenodd" d="M10.7928 15.2069C10.9881 15.4022 11.2439 15.4998 11.4998 15.4998C11.7556 15.4998 12.0115 15.4022 12.2068 15.2069L15.2072 12.2073C15.3947 12.0198 15.5002 11.7654 15.5002 11.5002C15.5002 11.2351 15.3947 10.9807 15.2072 10.7932L13.2063 8.79313C12.8176 8.4025 12.1834 8.4025 11.7927 8.79313L8.79281 11.7932C8.60532 11.9807 8.49985 12.2351 8.49985 12.5002C8.49985 12.7654 8.60531 13.0203 8.79281 13.2078L10.7928 15.2069ZM11.4998 13.0857L10.9138 12.5003L12.4998 10.9143L13.0862 11.5002L11.4998 13.0857Z" fill="#545454"/>
<path d="M14.9396 18.5595C14.7941 18.5595 14.6496 18.5282 14.5158 18.4647C14.2756 18.3524 14.09 18.1493 13.9992 17.9003L13.3381 16.0741C13.1506 15.5545 13.4191 14.9813 13.9377 14.7928C14.3979 14.6279 14.8935 14.8156 15.1347 15.2158C16.1028 14.2204 17.5637 13.756 19.002 14.1248C21.1348 14.6766 22.4228 16.8602 21.8731 18.9931C21.4072 20.7929 19.7813 21.9902 18.004 21.9902C17.6739 21.9902 17.339 21.9492 17.005 21.8623C16.3986 21.706 15.8302 21.4043 15.3615 20.9912C14.9474 20.6259 14.9074 19.9941 15.2726 19.58C15.6379 19.165 16.2697 19.1269 16.6837 19.4911C16.9181 19.6972 17.2023 19.8476 17.505 19.9267C18.0206 20.0605 18.5577 19.9843 19.0167 19.7128C19.4766 19.4423 19.8028 19.0087 19.9366 18.4931C20.211 17.4276 19.5674 16.3368 18.502 16.0614C18.1132 15.9611 17.7219 15.9828 17.3682 16.1022C17.5173 16.2142 17.6367 16.3691 17.7052 16.5575C17.8927 17.077 17.6241 17.6503 17.1056 17.8387L15.2804 18.4999C15.1701 18.5399 15.0549 18.5595 14.9396 18.5595Z" fill="#545454"/>
</svg>
