<svg width="24" height="24" viewBox="0 0 24 24" fill="none" xmlns="http://www.w3.org/2000/svg">
<path d="M9.99892 21.0091C9.74306 21.0091 9.4872 20.9114 9.29188 20.716L8.28455 19.7075C8.04627 19.4691 7.94422 19.1271 8.01258 18.7968C8.1786 17.9975 7.94178 17.1688 7.37927 16.5796C6.82311 16.05 5.99645 15.8135 5.19761 15.9786C4.86606 16.05 4.52475 15.9454 4.28647 15.707L2.28791 13.7057C1.89728 13.3148 1.89777 12.6816 2.28791 12.2908L12.2821 2.2879C12.6581 1.91266 13.3222 1.91364 13.6962 2.2879L15.6952 4.28818C15.9335 4.52661 16.0361 4.86911 15.9667 5.19891C15.8017 5.99824 16.038 6.82738 16.6005 7.41759C17.1572 7.94673 17.9824 8.18467 18.7832 8.01758C19.1142 7.9482 19.455 8.05129 19.6933 8.28972L21.0215 9.61868C21.4121 10.0095 21.4121 10.6428 21.0215 11.0336C20.6308 11.4245 19.998 11.4245 19.6074 11.0336L18.6308 10.0564C17.372 10.161 16.1142 9.71737 15.1865 8.83205C14.2724 7.87393 13.83 6.61386 13.9296 5.35135L12.9892 4.41032L4.40853 12.9982L5.34848 13.9402C6.60923 13.8318 7.8651 14.2774 8.79334 15.1656C9.70741 16.1223 10.1493 17.3819 10.0502 18.6444L10.706 19.301C11.0966 19.6919 11.0961 20.3251 10.706 20.716C10.5106 20.9114 10.2548 21.0091 9.99892 21.0091Z" fill="#545454"/>
<path fill-rule="evenodd" clip-rule="evenodd" d="M21.9951 13.0041C21.9951 12.4515 21.5469 12.0035 20.9951 12.0035H12.9994C12.4472 12.0035 11.9994 12.4515 11.9994 13.0041V21.0062C11.9994 21.5583 12.4472 22.0068 12.9994 22.0068H20.9951C21.5469 22.0068 21.9951 21.5583 21.9951 21.0062V13.0041ZM17.997 15.0046C17.997 15.5568 17.5494 16.0045 16.9972 16.0045C16.4449 16.0045 15.9973 15.5568 15.9973 15.0046C15.9973 14.4544 16.4416 14.008 16.9911 14.0047H13.999V16.005H19.9951V14.0047H17.0032C17.5527 14.008 17.997 14.4544 17.997 15.0046ZM19.9951 18.0063H17.0184C17.5608 18.0176 17.997 18.4608 17.997 19.0059C17.997 19.5509 17.5611 19.994 17.0189 20.0056H19.9951V18.0063ZM16.9754 20.0056C16.4332 19.994 15.9973 19.5509 15.9973 19.0059C15.9973 18.4608 16.4335 18.0176 16.9759 18.0063H13.999V20.0056H16.9754Z" fill="#545454"/>
<path d="M8.78406 13.2054C8.97938 13.4008 9.23524 13.4986 9.4911 13.4986C9.74696 13.4986 10.0028 13.4008 10.1981 13.2054L12.518 10.8836C12.8969 11.0903 13.3837 11.0331 13.704 10.7126C14.0947 10.3218 14.0947 9.68855 13.704 9.29768L13.1962 8.78955C12.8212 8.41431 12.1576 8.41431 11.7826 8.78955L8.78406 11.7905C8.39343 12.1813 8.39343 12.8145 8.78406 13.2054Z" fill="#545454"/>
</svg>
