<svg width="24" height="24" viewBox="0 0 24 24" fill="none" xmlns="http://www.w3.org/2000/svg">
<path d="M20.9951 19.0023H17.9971C17.4443 19.0023 16.9971 18.5548 16.9971 18.0017C16.9971 17.4487 17.4443 17.0011 17.9971 17.0011H20.9951C21.5478 17.0011 21.9951 17.4487 21.9951 18.0017C21.9951 18.5548 21.5478 19.0023 20.9951 19.0023Z" fill="#545454"/>
<path d="M20.9951 13.0007H17.9971C17.4443 13.0007 16.9971 12.5526 16.9971 12.0001C16.9971 11.4475 17.4443 10.9995 17.9971 10.9995H20.9951C21.5478 10.9995 21.9951 11.4475 21.9951 12.0001C21.9951 12.5526 21.5478 13.0007 20.9951 13.0007Z" fill="#545454"/>
<path d="M20.9951 16.0015H19.9951C19.4424 16.0015 18.9951 15.554 18.9951 15.0009C18.9951 14.4478 19.4424 14.0003 19.9951 14.0003H20.9951C21.5478 14.0003 21.9951 14.4478 21.9951 15.0009C21.9951 15.554 21.5478 16.0015 20.9951 16.0015Z" fill="#545454"/>
<path d="M20.9951 22.0032H19.9951C19.4424 22.0032 18.9951 21.5556 18.9951 21.0026C18.9951 20.4495 19.4424 20.002 19.9951 20.002H20.9951C21.5478 20.002 21.9951 20.4495 21.9951 21.0026C21.9951 21.5556 21.5478 22.0032 20.9951 22.0032Z" fill="#545454"/>
<path d="M10.9902 21.9983C10.7246 21.9983 10.4702 21.8928 10.2827 21.7051L8.28417 19.7039C8.03612 19.4557 7.93651 19.0952 8.02147 18.7541C8.03075 18.7121 8.29637 17.4936 7.39598 16.5917C6.4951 15.6917 5.27879 15.9546 5.22703 15.9683C4.88963 16.0406 4.52928 15.9468 4.2866 15.7025L2.28808 13.7023C1.89746 13.3114 1.89746 12.6782 2.28808 12.2873L12.2822 2.28423C12.6582 1.909 13.3223 1.90998 13.6963 2.28423L15.6953 4.28495C15.9434 4.53364 16.0439 4.8942 15.958 5.23523C15.9492 5.27725 15.6836 6.49576 16.584 7.39718C16.7939 7.60776 17.0371 7.77045 17.3057 7.88087C17.8164 8.09145 18.0596 8.67627 17.8496 9.18732C17.6387 9.69935 17.0566 9.94217 16.544 9.73159C16.0303 9.51955 15.5674 9.21028 15.1699 8.81209C13.9727 7.61459 13.875 6.15472 13.9326 5.35053L12.9893 4.40709L4.40919 12.9948L5.35157 13.9387C6.15333 13.8791 7.61378 13.9788 8.81007 15.1768C10.0069 16.3748 10.105 17.8346 10.0479 18.6379L10.9902 19.5828L15.291 15.2784C15.6816 14.8875 16.3145 14.8875 16.7051 15.2784C17.0957 15.6693 17.0957 16.3025 16.7051 16.6933L11.6973 21.7051C11.5098 21.8927 11.2554 21.9983 10.9902 21.9983Z" fill="#545454"/>
<path d="M11.4902 15.4963C11.2251 15.4963 10.9707 15.3908 10.7827 15.2032L8.78417 13.202C8.39355 12.8111 8.39355 12.1779 8.78417 11.787L11.7827 8.7862C11.9702 8.59859 12.2246 8.49306 12.4897 8.49306C12.7549 8.49306 13.0098 8.59859 13.1973 8.78621L15.1953 10.7869C15.5859 11.1778 15.5859 11.811 15.1953 12.2018L12.1978 15.2032C12.0098 15.3908 11.7554 15.4963 11.4902 15.4963ZM10.9053 12.4945L11.4902 13.0798L13.0742 11.4944L12.4897 10.9091L10.9053 12.4945Z" fill="#545454"/>
</svg>
