<svg width="24" height="24" viewBox="0 0 24 24" fill="none" xmlns="http://www.w3.org/2000/svg">
<path d="M10.2828 21.7017C10.4781 21.897 10.7339 21.9946 10.9898 21.9946C11.2456 21.9946 11.5015 21.897 11.6968 21.7017C12.0874 21.311 12.0874 20.6782 11.6968 20.2876L10.0489 18.6391C10.1485 17.3764 9.70611 16.1175 8.79158 15.1605C7.86337 14.2757 6.60803 13.8353 5.34537 13.9358L4.40399 12.9949L12.9897 4.40876L13.9306 5.3497C13.831 6.61243 14.2734 7.87223 15.1884 8.82928C16.1181 9.71505 17.3836 10.1491 18.6346 10.0539L20.283 11.7019C20.6736 12.0925 21.3064 12.0925 21.697 11.7019C22.0876 11.3113 22.0876 10.6784 21.697 10.2878L19.6971 8.28776C19.4588 8.04947 19.116 7.94693 18.7869 8.01578C17.9872 8.18327 17.1591 7.94449 16.6024 7.41518C16.039 6.82581 15.8027 5.99718 15.9687 5.19882C16.038 4.86873 15.9355 4.52595 15.6972 4.28766L13.6962 2.28761C13.3076 1.89746 12.6733 1.89649 12.2827 2.28761L2.28295 12.2878C2.09546 12.4754 1.98999 12.7298 1.98999 12.9949C1.98999 13.26 2.09545 13.5149 2.28295 13.7024L4.2829 15.7015C4.52117 15.9398 4.86442 16.0423 5.19303 15.974C5.99184 15.807 6.82092 16.0453 7.37804 16.5746C7.94004 17.1635 8.17685 17.9926 8.01084 18.7914C7.942 19.1205 8.04453 19.4633 8.28281 19.7016L10.2828 21.7017Z" fill="#545454"/>
<path d="M9.28327 13.7014C9.47857 13.8968 9.73443 13.9944 9.99028 13.9944C10.2461 13.9944 10.502 13.8968 10.6973 13.7014C11.0157 13.3831 11.0747 12.9031 10.8736 12.5251L12.521 10.8776C12.8989 11.0778 13.3789 11.0202 13.6972 10.7014C14.0879 10.3107 14.0879 9.67791 13.6972 9.28728L13.1972 8.78727C12.8066 8.39664 12.1738 8.39664 11.7832 8.78727L8.78328 11.7873C8.39266 12.178 8.39266 12.8108 8.78328 13.2014L9.28327 13.7014Z" fill="#545454"/>
<path d="M15.9901 17.9945H17.9901C18.5428 17.9945 18.9901 17.5472 18.9901 16.9945C18.9901 16.4418 18.5428 15.9945 17.9901 15.9945H16.9901V14.9945C16.9901 14.4417 16.5429 13.9944 15.9901 13.9944C15.4374 13.9944 14.9902 14.4417 14.9902 14.9945V16.9945C14.9902 17.5473 15.4374 17.9945 15.9901 17.9945Z" fill="#545454"/>
<path fill-rule="evenodd" clip-rule="evenodd" d="M16.4901 21.9946C13.457 21.9946 10.9898 19.5268 10.9898 16.4945C10.9898 13.4622 13.457 10.9948 16.4901 10.9948C19.5223 10.9948 21.99 13.4622 21.99 16.4945C21.99 19.5268 19.5223 21.9946 16.4901 21.9946ZM16.4901 12.9949C14.5595 12.9949 12.9897 14.5648 12.9897 16.4945C12.9897 18.4242 14.5595 19.9946 16.4901 19.9946C18.4198 19.9946 19.99 18.4242 19.99 16.4945C19.99 14.5648 18.4198 12.9949 16.4901 12.9949Z" fill="#545454"/>
</svg>
