<svg width="24" height="24" viewBox="0 0 24 24" fill="none" xmlns="http://www.w3.org/2000/svg">
<path d="M11.2822 19.2981L10.9902 19.5903L10.0503 18.6492C10.1499 17.3867 9.70753 16.1262 8.79401 15.1696C7.86628 14.2832 6.61579 13.8425 5.34919 13.9432L4.40925 13.0016L12.9893 4.41082L13.9297 5.35229C13.8301 6.61529 14.2725 7.87536 15.1865 8.833C16.1142 9.71929 17.3623 10.1615 18.6308 10.0589L19.5703 11.0004L15.7851 14.7904C15.3945 15.1813 15.3945 15.8145 15.7851 16.2053C16.1757 16.5962 16.8085 16.5962 17.1992 16.2053L21.6913 11.7079C22.0819 11.317 22.0819 10.6838 21.6913 10.2934L19.6933 8.29217C19.455 8.05322 19.1142 7.95062 18.7831 8.01953C17.9843 8.18469 17.1581 7.94916 16.6005 7.41907C16.038 6.82886 15.8017 5.99921 15.9677 5.19989C16.0361 4.87006 15.9335 4.52759 15.6953 4.28918L13.6963 2.2879C13.3223 1.91363 12.6582 1.91266 12.2817 2.2879L2.28772 12.2942C1.89758 12.6851 1.89758 13.3188 2.28772 13.7087L4.28619 15.7099C4.52496 15.9484 4.86822 16.05 5.19683 15.9825C5.99615 15.8154 6.82378 16.0529 7.37945 16.5835C7.94146 17.1727 8.17828 18.0024 8.01275 18.8017C7.94439 19.132 8.04644 19.474 8.28423 19.7124L10.2827 21.7137C10.4702 21.9013 10.7246 22.0068 10.9902 22.0068C11.2554 22.0068 11.5098 21.9013 11.6977 21.7137L12.6973 20.7131C13.0879 20.3222 13.0869 19.689 12.6968 19.2981C12.3062 18.9072 11.6729 18.9072 11.2822 19.2981Z" fill="#545454"/>
<path d="M21.6708 16.2659C21.2626 15.8926 20.6317 15.92 20.2578 16.3275L17.2988 19.559L15.705 17.9642C15.3144 17.5734 14.6817 17.5734 14.291 17.9642C13.9004 18.3551 13.9004 18.9883 14.291 19.3792L16.623 21.7137C16.8105 21.9013 17.0654 22.0068 17.33 22.0068H17.3515C17.625 22.001 17.8828 21.8837 18.0673 21.6824L21.7323 17.6799C22.1054 17.2724 22.078 16.6392 21.6708 16.2659Z" fill="#545454"/>
<path fill-rule="evenodd" clip-rule="evenodd" d="M11.7822 8.79199C11.9702 8.60437 12.2246 8.49884 12.4898 8.49884C12.7549 8.49884 13.0098 8.60437 13.1973 8.79199L15.1953 10.7932C15.5859 11.1841 15.5859 11.8173 15.1953 12.2082L12.1978 15.2096C12.0098 15.3972 11.7554 15.5027 11.4902 15.5027C11.2251 15.5027 10.9707 15.3972 10.7832 15.2096L8.78424 13.2083C8.39362 12.8179 8.39362 12.1848 8.78424 11.7939L11.7822 8.79199ZM10.9053 12.5013L11.4902 13.0872L13.0742 11.5007L12.4897 10.9149L10.9053 12.5013Z" fill="#545454"/>
</svg>
