<svg width="24" height="24" viewBox="0 0 24 24" fill="none" xmlns="http://www.w3.org/2000/svg">
<path d="M7.06446 8H5C4.20462 8.00087 3.44206 8.31722 2.87964 8.87964C2.31722 9.44206 2.00087 10.2046 2 11V13.0645C2.00087 13.8598 2.31722 14.6224 2.87964 15.1848C3.44206 15.7472 4.20462 16.0636 5 16.0645H7.06446C7.85984 16.0636 8.6224 15.7472 9.18482 15.1848C9.74724 14.6224 10.0636 13.8598 10.0645 13.0645V11C10.0636 10.2046 9.74724 9.44206 9.18482 8.87964C8.6224 8.31722 7.85984 8.00087 7.06446 8ZM8.06446 13.0645C8.0642 13.3296 7.95875 13.5838 7.77127 13.7713C7.5838 13.9588 7.3296 14.0642 7.06446 14.0645H5C4.73486 14.0642 4.48066 13.9588 4.29319 13.7713C4.10571 13.5838 4.00026 13.3296 4 13.0645V11C4.00026 10.7349 4.10571 10.4807 4.29319 10.2932C4.48066 10.1057 4.73486 10.0003 5 10H7.06446C7.3296 10.0003 7.5838 10.1057 7.77127 10.2932C7.95875 10.4807 8.0642 10.7349 8.06446 11V13.0645ZM19.1285 2H17.064C16.2686 2.00087 15.506 2.31722 14.9436 2.87964C14.3812 3.44206 14.0648 4.20462 14.064 5V7.06446C14.0648 7.85984 14.3812 8.6224 14.9436 9.18482C15.506 9.74724 16.2686 10.0636 17.064 10.0645H19.1284C19.9238 10.0636 20.6864 9.74724 21.2488 9.18482C21.8112 8.6224 22.1276 7.85984 22.1284 7.06446V5C22.1276 4.20462 21.8112 3.44206 21.2488 2.87964C20.6864 2.31722 19.9238 2.00087 19.1284 2H19.1285ZM20.1285 7.06446C20.1283 7.32962 20.0229 7.58387 19.8354 7.77137C19.6479 7.95887 19.3936 8.06428 19.1285 8.06446H17.064C16.7988 8.06428 16.5446 7.95887 16.3571 7.77137C16.1696 7.58387 16.0641 7.32962 16.064 7.06446V5C16.0641 4.73484 16.1696 4.48059 16.3571 4.29309C16.5446 4.10559 16.7988 4.00018 17.064 4H19.1284C19.3936 4.00018 19.6478 4.10559 19.8353 4.29309C20.0228 4.48059 20.1282 4.73484 20.1284 5L20.1285 7.06446ZM19.1285 14H17.064C16.2686 14.0009 15.506 14.3172 14.9436 14.8796C14.3812 15.4421 14.0648 16.2046 14.064 17V19.0645C14.0648 19.8598 14.3812 20.6224 14.9436 21.1848C15.506 21.7472 16.2686 22.0636 17.064 22.0645H19.1284C19.9238 22.0636 20.6864 21.7472 21.2488 21.1848C21.8112 20.6224 22.1276 19.8598 22.1284 19.0645V17C22.1276 16.2046 21.8112 15.4421 21.2488 14.8796C20.6864 14.3172 19.9238 14.0009 19.1284 14H19.1285ZM20.1285 19.0645C20.1283 19.3296 20.0229 19.5839 19.8354 19.7714C19.6479 19.9589 19.3936 20.0643 19.1285 20.0645H17.064C16.7988 20.0643 16.5446 19.9589 16.3571 19.7714C16.1696 19.5839 16.0641 19.3296 16.064 19.0645V17C16.0641 16.7348 16.1696 16.4806 16.3571 16.2931C16.5446 16.1056 16.7988 16.0002 17.064 16H19.1284C19.3936 16.0002 19.6478 16.1056 19.8353 16.2931C20.0228 16.4806 20.1282 16.7348 20.1284 17L20.1285 19.0645ZM12.0645 2C11.9331 1.99997 11.8031 2.02581 11.6817 2.07605C11.5604 2.12629 11.4501 2.19995 11.3573 2.29282C11.2644 2.38568 11.1908 2.49594 11.1405 2.61728C11.0903 2.73862 11.0644 2.86867 11.0645 3V21C11.064 21.1316 11.0896 21.2619 11.1397 21.3836C11.1897 21.5052 11.2633 21.6158 11.3562 21.709C11.449 21.8022 11.5594 21.8761 11.6809 21.9265C11.8024 21.977 11.9327 22.0029 12.0642 22.0029C12.1958 22.0029 12.326 21.977 12.4475 21.9265C12.569 21.8761 12.6794 21.8022 12.7723 21.709C12.8651 21.6158 12.9387 21.5052 12.9888 21.3836C13.0388 21.2619 13.0644 21.1316 13.064 21V3C13.0641 2.86869 13.0383 2.73866 12.9881 2.61733C12.9379 2.49599 12.8643 2.38574 12.7714 2.29287C12.6786 2.2 12.5684 2.12633 12.4471 2.07608C12.3258 2.02583 12.1958 1.99998 12.0645 2Z" fill="#545454"/>
</svg>
