<svg width="24" height="24" viewBox="0 0 24 24" fill="none" xmlns="http://www.w3.org/2000/svg">
<path d="M12.71 12.5C12.71 12.2348 12.6046 11.9804 12.4171 11.7929C12.2296 11.6054 11.9752 11.5 11.71 11.5C10.8819 11.4978 10.0662 11.299 9.33 10.92C10.4425 9.64116 11.14 8.05435 11.33 6.37H12.5C12.7652 6.37 13.0196 6.26464 13.2071 6.07711C13.3946 5.88957 13.5 5.63522 13.5 5.37C13.5 5.10478 13.3946 4.85043 13.2071 4.66289C13.0196 4.47536 12.7652 4.37 12.5 4.37H8.75V3C8.75 2.73478 8.64464 2.48043 8.45711 2.29289C8.26957 2.10536 8.01522 2 7.75 2C7.48478 2 7.23043 2.10536 7.04289 2.29289C6.85536 2.48043 6.75 2.73478 6.75 3V4.37H3C2.73478 4.37 2.48043 4.47536 2.29289 4.66289C2.10536 4.85043 2 5.10478 2 5.37C2 5.63522 2.10536 5.88957 2.29289 6.07711C2.48043 6.26464 2.73478 6.37 3 6.37H9.31C9.12809 7.60905 8.58555 8.76716 7.75 9.7C7.31205 9.2146 6.95118 8.66487 6.68 8.07C6.6317 7.94232 6.55777 7.82587 6.46276 7.72784C6.36776 7.62981 6.25368 7.55228 6.12757 7.50001C6.00146 7.44773 5.86599 7.42184 5.72949 7.42391C5.59299 7.42599 5.45836 7.45599 5.3339 7.51206C5.20943 7.56814 5.09777 7.64911 5.00578 7.74998C4.9138 7.85085 4.84344 7.96948 4.79904 8.09858C4.75464 8.22767 4.73715 8.36448 4.74763 8.5006C4.75812 8.63671 4.79636 8.76923 4.86 8.89C5.18667 9.62023 5.62528 10.295 6.16 10.89C5.42846 11.2731 4.61578 11.4754 3.79 11.48C3.52478 11.48 3.27043 11.5854 3.08289 11.7729C2.89536 11.9604 2.79 12.2148 2.79 12.48C2.79 12.7452 2.89536 12.9996 3.08289 13.1871C3.27043 13.3746 3.52478 13.48 3.79 13.48C5.2139 13.4828 6.60639 13.0616 7.79 12.27C8.97464 13.0594 10.3665 13.4804 11.79 13.48C12.0377 13.4602 12.2691 13.3488 12.4392 13.1676C12.6093 12.9865 12.7058 12.7485 12.71 12.5ZM21.89 20.55L17.14 11.05C17.0571 10.8836 16.9294 10.7436 16.7713 10.6458C16.6132 10.5479 16.4309 10.4961 16.245 10.4961C16.0591 10.4961 15.8768 10.5479 15.7187 10.6458C15.5606 10.7436 15.4329 10.8836 15.35 11.05L10.6 20.55C10.4807 20.7874 10.4605 21.0624 10.5439 21.3147C10.6274 21.5669 10.8076 21.7757 11.045 21.895C11.2824 22.0143 11.5574 22.0345 11.8097 21.9511C12.0619 21.8676 12.2707 21.6874 12.39 21.45L13.6 19H18.89L20.1 21.43C20.181 21.6002 20.3085 21.744 20.4678 21.8448C20.627 21.9457 20.8115 21.9995 21 22C21.1563 21.997 21.3099 21.9594 21.45 21.89C21.6855 21.7701 21.864 21.5619 21.9465 21.3108C22.0289 21.0597 22.0086 20.7862 21.89 20.55ZM14.6 17L16.25 13.71L17.89 17H14.6Z" fill="#545454"/>
</svg>
