<svg width="24" height="24" viewBox="0 0 24 24" fill="none" xmlns="http://www.w3.org/2000/svg">
<path d="M21 6H17V5C16.9991 4.20462 16.6828 3.44206 16.1204 2.87964C15.5579 2.31722 14.7954 2.00087 14 2H10C9.20462 2.00087 8.44206 2.31722 7.87964 2.87964C7.31722 3.44206 7.00087 4.20462 7 5V6H3C2.73478 6 2.48043 6.10536 2.29289 6.29289C2.10536 6.48043 2 6.73478 2 7C2 7.26522 2.10536 7.51957 2.29289 7.70711C2.48043 7.89464 2.73478 8 3 8H4V17C4.00156 18.3256 4.52884 19.5965 5.46619 20.5338C6.40353 21.4712 7.6744 21.9984 9 22H15C16.3256 21.9984 17.5965 21.4712 18.5338 20.5338C19.4712 19.5965 19.9984 18.3256 20 17V8H21C21.2652 8 21.5196 7.89464 21.7071 7.70711C21.8946 7.51957 22 7.26522 22 7C22 6.73478 21.8946 6.48043 21.7071 6.29289C21.5196 6.10536 21.2652 6 21 6ZM9 5C9.00018 4.73484 9.10559 4.48059 9.29309 4.29309C9.48059 4.10559 9.73484 4.00018 10 4H14C14.2652 4.00018 14.5194 4.10559 14.7069 4.29309C14.8944 4.48059 14.9998 4.73484 15 5V6H9V5ZM18 17C17.9991 17.7954 17.6828 18.5579 17.1204 19.1204C16.5579 19.6828 15.7954 19.9991 15 20H9C8.20462 19.9991 7.44206 19.6828 6.87964 19.1204C6.31722 18.5579 6.00087 17.7954 6 17V8H18V17ZM10 18C10.1313 18.0001 10.2614 17.9743 10.3828 17.924C10.5041 17.8738 10.6144 17.8001 10.7073 17.7073C10.8001 17.6144 10.8738 17.5041 10.924 17.3828C10.9743 17.2614 11.0001 17.1313 11 17V11C11 10.7348 10.8946 10.4804 10.7071 10.2929C10.5196 10.1054 10.2652 10 10 10C9.73478 10 9.48043 10.1054 9.29289 10.2929C9.10536 10.4804 9 10.7348 9 11V17C8.99992 17.1313 9.02574 17.2614 9.07597 17.3828C9.12619 17.5041 9.19985 17.6144 9.29272 17.7073C9.3856 17.8002 9.49587 17.8738 9.61723 17.924C9.73859 17.9743 9.86866 18.0001 10 18ZM14 18C14.1313 18.0001 14.2614 17.9743 14.3828 17.924C14.5041 17.8738 14.6144 17.8001 14.7073 17.7073C14.8001 17.6144 14.8738 17.5041 14.924 17.3828C14.9743 17.2614 15.0001 17.1313 15 17V11C15 10.7348 14.8946 10.4804 14.7071 10.2929C14.5196 10.1054 14.2652 10 14 10C13.7348 10 13.4804 10.1054 13.2929 10.2929C13.1054 10.4804 13 10.7348 13 11V17C12.9999 17.1313 13.0257 17.2614 13.076 17.3828C13.1262 17.5041 13.1998 17.6144 13.2927 17.7073C13.3856 17.8002 13.4959 17.8738 13.6172 17.924C13.7386 17.9743 13.8687 18.0001 14 18Z" fill="#545454"/>
</svg>
