<svg width="24" height="24" viewBox="0 0 24 24" fill="none" xmlns="http://www.w3.org/2000/svg">
<path d="M20.9778 12.3428C20.8465 12.3427 20.7164 12.3685 20.595 12.4187C20.4737 12.469 20.3634 12.5426 20.2705 12.6355C20.1776 12.7284 20.104 12.8386 20.0538 12.96C20.0035 13.0814 19.9777 13.2114 19.9778 13.3428V16.5879L12.6614 9.29201C12.5408 9.17184 12.3915 9.08446 12.2277 9.03814C12.0638 8.99182 11.8909 8.98809 11.7252 9.0273C11.5596 9.06652 11.4066 9.14739 11.281 9.26224C11.1553 9.37709 11.061 9.52213 11.0071 9.68361L10.5178 11.1485L3.66237 4.29301C3.47449 4.10725 3.22073 4.00341 2.95654 4.00415C2.69234 4.0049 2.43917 4.11018 2.25235 4.29699C2.06553 4.48381 1.96024 4.73697 1.95948 5.00116C1.95872 5.26536 2.06255 5.51912 2.2483 5.70701L10.2483 13.707C10.3687 13.8276 10.518 13.9155 10.6819 13.9621C10.8459 14.0088 11.019 14.0127 11.1849 13.9736C11.3508 13.9344 11.504 13.8535 11.6297 13.7385C11.7555 13.6234 11.8498 13.4781 11.9036 13.3164L12.3928 11.8486L18.5617 18H15.2503C14.985 18 14.7307 18.1054 14.5431 18.2929C14.3556 18.4804 14.2503 18.7348 14.2503 19C14.2503 19.2652 14.3556 19.5196 14.5431 19.7071C14.7307 19.8947 14.985 20 15.2503 20H20.9778C21.1091 20.0001 21.2392 19.9743 21.3606 19.924C21.4819 19.8738 21.5922 19.8002 21.6851 19.7073C21.7779 19.6144 21.8516 19.5041 21.9018 19.3828C21.9521 19.2614 21.9779 19.1314 21.9778 19V13.3428C21.9779 13.2114 21.9521 13.0814 21.9018 12.96C21.8516 12.8386 21.7779 12.7284 21.6851 12.6355C21.5922 12.5426 21.4819 12.469 21.3606 12.4187C21.2392 12.3685 21.1091 12.3427 20.9778 12.3428Z" fill="#545454"/>
</svg>
