<svg width="24" height="24" viewBox="0 0 24 24" fill="none" xmlns="http://www.w3.org/2000/svg">
<path d="M21.0002 4H15.2716C15.0064 4 14.7521 4.10536 14.5645 4.29289C14.377 4.48043 14.2716 4.73478 14.2716 5C14.2716 5.26522 14.377 5.51957 14.5645 5.70711C14.7521 5.89464 15.0064 6 15.2716 6H18.584L12.4152 12.1514L11.9259 10.6836C11.8721 10.5218 11.7779 10.3765 11.6521 10.2614C11.5262 10.1464 11.3731 10.0655 11.2071 10.0264C11.0412 9.98831 10.8684 9.99279 10.7046 10.0394C10.5409 10.086 10.3916 10.1732 10.2706 10.293L2.27063 18.293C2.17778 18.3858 2.10413 18.4961 2.05389 18.6174C2.00364 18.7387 1.97778 18.8687 1.97778 19C1.97779 19.1313 2.00365 19.2613 2.05391 19.3827C2.10416 19.504 2.17781 19.6142 2.27066 19.707C2.36351 19.7999 2.47374 19.8735 2.59506 19.9238C2.71637 19.974 2.84639 19.9999 2.9777 19.9999C3.10901 19.9999 3.23903 19.974 3.36034 19.9238C3.48166 19.8735 3.59188 19.7999 3.68473 19.707L10.5402 12.8515L11.0294 14.3164C11.0834 14.4779 11.1777 14.6229 11.3033 14.7378C11.429 14.8526 11.5819 14.9335 11.7476 14.9727C11.9133 15.0119 12.0862 15.0082 12.25 14.9618C12.4139 14.9155 12.5631 14.8281 12.6837 14.708L20.0002 7.41208V10.6572C20.0002 10.9224 20.1055 11.1768 20.2931 11.3643C20.4806 11.5518 20.7349 11.6572 21.0002 11.6572C21.2654 11.6572 21.5197 11.5518 21.7073 11.3643C21.8948 11.1768 22.0002 10.9224 22.0002 10.6572V5C22.0002 4.86866 21.9744 4.73859 21.9242 4.61723C21.874 4.49587 21.8003 4.3856 21.7074 4.29273C21.6146 4.19985 21.5043 4.1262 21.3829 4.07597C21.2616 4.02574 21.1315 3.99993 21.0002 4Z" fill="#545454"/>
</svg>
