<svg width="24" height="24" viewBox="0 0 24 24" fill="none" xmlns="http://www.w3.org/2000/svg">
<path d="M16.93 10H7.99996V8.00002C7.99996 5.81002 9.78996 4.02002 11.98 4.02002C13.55 4.02002 14.98 4.96002 15.62 6.40002C15.84 6.90002 16.43 7.13002 16.94 6.91002C17.44 6.69002 17.67 6.10002 17.45 5.59002C16.49 3.42002 14.34 2.02002 11.98 2.02002C8.67996 2.02002 5.99996 4.70002 5.99996 8.00002V10.15C4.25996 10.61 2.95996 12.18 2.95996 14.07V17.91C2.95996 20.15 4.78996 21.98 7.02996 21.98H16.93C19.17 21.98 21 20.15 21 17.91V14.07C21 11.82 19.17 10 16.93 10ZM19 17.91C19 19.05 18.07 19.98 16.93 19.98H7.02996C5.88996 19.98 4.95996 19.05 4.95996 17.91V14.07C4.95996 12.93 5.88996 12 7.02996 12H16.93C18.07 12 19 12.93 19 14.07V17.91Z" fill="#545454"/>
</svg>
