<svg width="24" height="24" viewBox="0 0 24 24" fill="none" xmlns="http://www.w3.org/2000/svg">
<path d="M7 4H14.9996C14.5629 4.58141 14.25 5.26112 14.1 6H7C6.42372 5.9611 5.84818 6.08592 5.33979 6.36005C4.8314 6.63418 4.41087 7.04646 4.12671 7.54932L10.3359 11.689C10.8284 12.0185 11.4075 12.1944 12 12.1944C12.5925 12.1944 13.1716 12.0185 13.6641 11.689L15.4365 10.5073C15.9472 11.0262 16.5703 11.434 17.2664 11.6913L14.7734 13.3535C13.9526 13.9025 12.9873 14.1955 11.9998 14.1953C11.0124 14.1951 10.0472 13.9018 9.22656 13.3525L4 9.86841V15.8887C4 17.0332 5.374 18 7 18H17C18.626 18 20 17.0332 20 15.8886V11.9C20.7389 11.75 21.4186 11.4371 22 11.0004V15.8887C22 18.1553 19.7568 20 17 20H7C4.24316 20 2 18.1553 2 15.8887V8.11133C2 8.08438 2.00456 8.05843 2.00912 8.03247C2.01305 8.01011 2.01698 7.98774 2.018 7.96472C2.01847 7.8907 2.02754 7.81699 2.045 7.74506C2.27454 5.65173 4.39569 4 7 4Z" fill="#545454"/>
<path d="M19 10C20.6569 10 22 8.65685 22 7C22 5.34315 20.6569 4 19 4C17.3431 4 16 5.34315 16 7C16 8.65685 17.3431 10 19 10Z" fill="#545454"/>
</svg>
