<svg width="24" height="24" viewBox="0 0 24 24" fill="none" xmlns="http://www.w3.org/2000/svg">
<path d="M17 2H7C4.2 2 2 4.2 2 7V17C2 19.8 4.2 22 7 22H17C19.8 22 22 19.8 22 17V7C22 4.2 19.8 2 17 2ZM7.6 20C7.6 18.5 8.8 17.3 10.3 17.3H13.8C15.3 17.3 16.5 18.5 16.5 20H7.6ZM20 17C20 18.1 19.3 19.1 18.4 19.6C18.2 17.2 16.2 15.3 13.7 15.3H10.2C7.7 15.3 5.7 17.2 5.5 19.6C4.7 19.1 4 18.1 4 17V7C4 5.3 5.3 4 7 4H17C18.7 4 20 5.3 20 7V17ZM12 6C9.7 6 7.9 7.8 7.9 10.1C7.9 12.4 9.7 14.2 12 14.2C14.3 14.2 16.1 12.4 16.1 10.1C16.1 7.8 14.3 6 12 6ZM12 12.2C10.8 12.2 9.9 11.3 9.9 10.1C9.9 8.9 10.8 8 12 8C13.2 8 14.1 8.9 14.1 10.1C14.1 11.3 13.2 12.2 12 12.2Z" fill="#545454"/>
</svg>
