<svg width="24" height="24" viewBox="0 0 24 24" fill="none" xmlns="http://www.w3.org/2000/svg">
<path fill-rule="evenodd" clip-rule="evenodd" d="M14.6702 12.9001L14.6651 12.9001C14.8534 12.899 15.0415 12.839 15.2002 12.7201C15.4702 12.5201 15.6102 12.1801 15.5502 11.8501L15.1702 9.58007L16.7002 7.67007C16.9002 7.42007 16.9502 7.09007 16.8402 6.79007C16.7302 6.49007 16.4702 6.27007 16.1502 6.22007L13.9402 5.85007L12.8102 3.59007C12.5002 2.98007 11.5002 2.98007 11.2002 3.59007L10.0702 5.85007L7.86015 6.22007C7.55015 6.28007 7.28015 6.49007 7.17015 6.79007C7.06015 7.08007 7.11015 7.42007 7.31015 7.67007L8.84015 9.58007L8.46015 11.8501C8.40015 12.1801 8.54015 12.5201 8.81015 12.7201C9.09015 12.9201 9.45015 12.9501 9.75015 12.8001L12.0102 11.6701L14.2702 12.8001C14.3887 12.8692 14.5268 12.8993 14.6651 12.9001L14.6602 12.9001H14.6702ZM12.0002 9.77007C12.1402 9.77007 12.2802 9.80007 12.4002 9.87007L13.4902 10.4101L13.3402 9.49007C13.3002 9.24007 13.3702 8.98007 13.5202 8.78007L14.3402 7.76007L13.1902 7.57007C12.9102 7.52007 12.6602 7.34007 12.5302 7.08007L12.0002 6.02007L11.4702 7.08007C11.3402 7.34007 11.1002 7.52007 10.8102 7.57007L9.66015 7.76007L10.4802 8.78007C10.6402 8.98007 10.7102 9.24007 10.6602 9.49007L10.5102 10.4101L11.6002 9.87007C11.7302 9.81007 11.8602 9.77007 12.0002 9.77007Z" fill="#545454"/>
<path fill-rule="evenodd" clip-rule="evenodd" d="M9.66016 20.9001L9.64996 20.9C9.83669 20.898 10.0229 20.838 10.1802 20.7201C10.4502 20.5201 10.5902 20.1801 10.5302 19.8501L10.1502 17.5801L11.6802 15.6701C11.8802 15.4201 11.9302 15.0901 11.8202 14.7901C11.7102 14.4901 11.4502 14.2701 11.1302 14.2201L8.92016 13.8501L7.79016 11.5901C7.64016 11.2801 7.33016 11.0901 6.99016 11.0901C6.65016 11.0901 6.34016 11.2901 6.19016 11.5901L5.06016 13.8501L2.85016 14.2201C2.54016 14.2801 2.27016 14.4901 2.16016 14.7901C2.05016 15.0801 2.10016 15.4201 2.30016 15.6701L3.83016 17.5801L3.45016 19.8501C3.39016 20.1801 3.53016 20.5201 3.80016 20.7201C4.08016 20.9201 4.44016 20.9501 4.74016 20.8001L7.00016 19.6701L9.26016 20.8001C9.37725 20.8684 9.51337 20.8986 9.64996 20.9L9.64016 20.9001H9.66016ZM4.66016 15.7501L5.48016 16.7701C5.64016 16.9701 5.71016 17.2301 5.66016 17.4801L5.51016 18.4001L6.60016 17.8601C6.85016 17.7301 7.15016 17.7301 7.40016 17.8601L8.49016 18.4001L8.34016 17.4801C8.30016 17.2301 8.37016 16.9701 8.53016 16.7701L9.35016 15.7501L8.20016 15.5601C7.92016 15.5101 7.67016 15.3301 7.54016 15.0701L7.01016 14.0101L6.48016 15.0701C6.35016 15.3301 6.11016 15.5101 5.82016 15.5601L4.67016 15.7501H4.66016Z" fill="#545454"/>
<path fill-rule="evenodd" clip-rule="evenodd" d="M13.8002 20.7201C13.9502 20.8401 14.1402 20.9001 14.3302 20.9001C14.4702 20.9001 14.6002 20.8601 14.7302 20.8001L17.0002 19.6701L19.2702 20.8001C19.5702 20.9501 19.9402 20.9201 20.2102 20.7201C20.4802 20.5201 20.6202 20.1801 20.5602 19.8501L20.1802 17.5801L21.7102 15.6701C21.9102 15.4201 21.9602 15.0901 21.8502 14.7901C21.7402 14.4901 21.4702 14.2701 21.1602 14.2201L18.9402 13.8501L17.8102 11.5901C17.5002 10.9801 16.5002 10.9801 16.2002 11.5901L15.0702 13.8501L12.8502 14.2201C12.5402 14.2801 12.2702 14.4901 12.1602 14.7901C12.0502 15.0801 12.1002 15.4201 12.3002 15.6701L13.8302 17.5801L13.4502 19.8501C13.3902 20.1801 13.5302 20.5201 13.8002 20.7201ZM15.4802 16.7701L14.6602 15.7401H14.6502L15.8102 15.5501C16.1002 15.5001 16.3402 15.3201 16.4702 15.0601L17.0002 14.0001L17.5302 15.0601C17.6602 15.3201 17.9102 15.5001 18.1902 15.5501L19.3402 15.7401L18.5202 16.7701C18.3702 16.9701 18.3002 17.2301 18.3402 17.4801L18.4902 18.4001L17.4002 17.8601C17.1502 17.7301 16.8502 17.7301 16.6002 17.8601L15.5102 18.4001L15.6602 17.4801C15.7102 17.2301 15.6402 16.9701 15.4802 16.7701Z" fill="#545454"/>
</svg>
