<svg width="24" height="24" viewBox="0 0 24 24" fill="none" xmlns="http://www.w3.org/2000/svg">
<path fill-rule="evenodd" clip-rule="evenodd" d="M9.9541 11.9478C7.21142 11.9478 4.98047 9.7163 4.98047 6.97363C4.98047 4.23096 7.21143 2 9.9541 2C12.6968 2 14.9277 4.23096 14.9277 6.97363C14.9277 9.7163 12.6968 11.9478 9.9541 11.9478ZM9.9541 4C8.31445 4 6.98047 5.33398 6.98047 6.97363C6.98047 8.61377 8.31445 9.94775 9.9541 9.94775C11.5937 9.94775 12.9277 8.61377 12.9277 6.97363C12.9277 5.33398 11.5937 4 9.9541 4Z" fill="#545454"/>
<path d="M21.6227 13.5531C21.38 13.3083 21.0558 13.1724 20.7089 13.1717H20.7061C20.3599 13.1717 20.0343 13.3062 19.7902 13.551L13.7945 19.5467C13.7173 19.624 13.6586 19.7185 13.6242 19.8226L13.2083 21.0703C13.1234 21.3241 13.1896 21.6041 13.3786 21.7931C13.5131 21.9276 13.6938 22 13.878 22C13.9525 22 14.0283 21.9883 14.1014 21.9634L15.3491 21.5476C15.4532 21.5131 15.5477 21.4544 15.625 21.3772L21.6207 15.3815C21.8662 15.136 22.0007 14.8097 22 14.4628C21.9993 14.1159 21.8635 13.7917 21.6227 13.5531Z" fill="#545454"/>
<path d="M2 21C2 21.5527 2.44775 22 3 22C3.55225 22 4 21.5527 4 21V19.7754C4 17.7148 5.67627 16.0391 7.73633 16.0391H12.0562C12.6445 16.0391 13.208 16.1738 13.7334 16.4395C14.2275 16.6904 14.8272 16.4912 15.0772 15.998C15.3262 15.5059 15.1289 14.9043 14.6357 14.6543C13.8291 14.2461 12.9609 14.0391 12.0562 14.0391H7.73633C4.57324 14.0391 2 16.6123 2 19.7754V21Z" fill="#545454"/>
</svg>
