<svg width="24" height="24" viewBox="0 0 24 24" fill="none" xmlns="http://www.w3.org/2000/svg">
<path d="M22.53 11.42L20.87 9.12001V6.29001C20.86 5.86001 20.58 5.48001 20.17 5.34001L17.48 4.45001L15.81 2.16001C15.55 1.81001 15.11 1.67001 14.7 1.80001L12 2.67001L9.29997 1.80001C8.88997 1.67001 8.43997 1.81001 8.18997 2.16001L6.51997 4.45001L3.82997 5.33001C3.41997 5.46001 3.13997 5.85001 3.13997 6.28001V9.11001L1.46997 11.41C1.21997 11.76 1.21997 12.23 1.46997 12.58L3.12997 14.88V17.71C3.13997 18.14 3.41997 18.52 3.82997 18.66L6.51997 19.54L8.18997 21.83C8.37997 22.09 8.68997 22.24 8.99997 22.24C9.09997 22.24 9.20997 22.22 9.30997 22.19L12.01 21.32L14.71 22.19C15.12 22.32 15.57 22.18 15.82 21.83L17.49 19.54L20.18 18.66C20.59 18.53 20.87 18.14 20.87 17.71V14.88L22.54 12.58C22.79 12.23 22.79 11.76 22.54 11.41L22.53 11.42ZM19.06 13.98C18.94 14.15 18.87 14.35 18.87 14.56V16.99L16.55 17.75C16.35 17.82 16.18 17.94 16.05 18.11L14.61 20.07L12.29 19.32C12.09 19.26 11.88 19.26 11.68 19.32L9.35997 20.07L7.91997 18.11C7.79997 17.94 7.61997 17.82 7.41997 17.75L5.10997 16.99V14.56C5.09997 14.35 5.02997 14.15 4.90997 13.98L3.48997 12L4.90997 10.02C5.02997 9.85001 5.09997 9.65001 5.09997 9.44001V7.01001L7.41997 6.25001C7.61997 6.18001 7.78997 6.06001 7.91997 5.89001L9.35997 3.93001L11.68 4.68001C11.88 4.74001 12.09 4.74001 12.29 4.68001L14.61 3.93001L16.05 5.89001C16.17 6.06001 16.35 6.18001 16.55 6.25001L18.86 7.01001V9.44001C18.87 9.65001 18.94 9.85001 19.06 10.02L20.48 12L19.06 13.98ZM15.76 8.33001L10.97 13.56L8.20997 10.8C7.81997 10.41 7.18997 10.41 6.79997 10.8C6.40997 11.19 6.40997 11.82 6.79997 12.21L10.3 15.71C10.49 15.9 10.74 16 11.01 16H11.03C11.3 16 11.56 15.88 11.75 15.68L17.25 9.68001C17.62 9.27001 17.6 8.64001 17.19 8.27001C16.78 7.90001 16.15 7.93001 15.78 8.33001H15.76Z" fill="#545454"/>
</svg>
