<svg width="24" height="24" viewBox="0 0 24 24" fill="none" xmlns="http://www.w3.org/2000/svg">
<path d="M21.7065 8.293L15.7065 2.293C15.6137 2.2001 15.5035 2.12641 15.3822 2.07614C15.2609 2.02586 15.1308 1.99999 14.9995 2H6.99951C5.67391 2.00156 4.40304 2.52884 3.4657 3.46618C2.52835 4.40353 2.00107 5.6744 1.99951 7V17C2.00107 18.3256 2.52835 19.5965 3.4657 20.5338C4.40304 21.4712 5.67391 21.9984 6.99951 22H16.9995C18.3251 21.9984 19.596 21.4712 20.5333 20.5338C21.4707 19.5965 21.998 18.3256 21.9995 17V9C21.9995 8.86868 21.9737 8.73865 21.9234 8.61734C21.8731 8.49603 21.7994 8.38581 21.7065 8.293ZM14.9995 4.41409L19.5855 9.00003H17.9995C17.2041 8.99916 16.4415 8.68281 15.8791 8.12039C15.3167 7.55797 15.0003 6.79541 14.9995 6.00003L14.9995 4.41409ZM19.9995 17C19.9986 17.7954 19.6823 18.558 19.1199 19.1204C18.5575 19.6828 17.7949 19.9992 16.9995 20H6.99951C6.20413 19.9992 5.44157 19.6828 4.87915 19.1204C4.31673 18.558 4.00038 17.7954 3.99951 17V7.00003C4.00038 6.20465 4.31673 5.44209 4.87915 4.87967C5.44157 4.31725 6.20413 4.0009 6.99951 4.00003H12.9995V6.00003C13.0011 7.32564 13.5284 8.5965 14.4657 9.53385C15.403 10.4712 16.6739 10.9985 17.9995 11H19.9995V17ZM15.0757 11.8282L10.6206 9.23148C10.3655 9.07987 10.0745 8.99928 9.77775 8.99808C9.48102 8.99688 9.18937 9.0751 8.93307 9.22464C8.64399 9.39744 8.40545 9.64325 8.24141 9.9374C8.07737 10.2315 7.99359 10.5637 7.9985 10.9004V16.0957C7.99359 16.4325 8.07736 16.7646 8.24141 17.0588C8.40545 17.3529 8.64399 17.5987 8.93307 17.7715C9.18939 17.9209 9.48095 17.9991 9.77762 17.9981C10.0743 17.997 10.3653 17.9168 10.6206 17.7657L15.0757 15.168C15.3582 14.9904 15.591 14.7441 15.7524 14.4521C15.9138 14.16 15.9985 13.8318 15.9985 13.4981C15.9985 13.1644 15.9138 12.8362 15.7524 12.5441C15.591 12.252 15.3582 12.0057 15.0757 11.8282H15.0757ZM9.9985 15.8125L9.9995 11.1836L13.9682 13.4981L9.9985 15.8125Z" fill="#545454"/>
</svg>
