<svg width="24" height="24" viewBox="0 0 24 24" fill="none" xmlns="http://www.w3.org/2000/svg">
<path d="M12.7 17.9C12.5 17.9 12.2 18 12 18H7C5.3 18 4 16.7 4 15V9C4 8.4 3.6 8 3 8C2.4 8 2 8.4 2 9V15C2 17.8 4.2 20 7 20H12C12.4 20 12.9 19.9 13.3 19.8C13.8 19.7 14.2 19.1 14 18.6C13.8 18.1 13.3 17.7 12.7 17.9ZM21.7 20.3L17.4 16L20.4 17.8C20.6 17.9 20.7 17.9 20.9 17.9C21.1 17.9 21.2 17.9 21.4 17.8C21.7 17.6 21.9 17.3 21.9 16.9V7C21.9 6.6 21.7 6.3 21.4 6.1C21.1 5.9 20.7 5.9 20.4 6.1L16.8 8.2C16.6 5.8 14.5 4 12 4H7C6.6 4 6.1 4 5.8 4.1C5.7 4.1 5.7 4.1 5.7 4.2L3.7 2.3C3.3 1.9 2.7 1.9 2.3 2.3C1.9 2.7 1.9 3.3 2.3 3.7L20.3 21.7C20.5 21.9 20.8 22 21 22C21.2 22 21.5 21.9 21.7 21.7C22.1 21.3 22.1 20.7 21.7 20.3ZM15 13.6L7.4 6H12C13.7 6 15 7.3 15 9V13.6ZM17 10.5L20 8.7V15.2L17 13.4V10.5Z" fill="#545454"/>
</svg>
