<svg width="24" height="24" viewBox="0 0 24 24" fill="none" xmlns="http://www.w3.org/2000/svg">
<path d="M21.4932 6.12988C21.339 6.04282 21.1646 5.99814 20.9875 6.00037C20.8105 6.0026 20.6373 6.05167 20.4853 6.14258L16.9269 8.27758C16.7554 7.09215 16.1633 6.0079 15.2589 5.22264C14.3544 4.43738 13.1978 4.00345 12 4L7 4C5.6744 4.00156 4.40353 4.52884 3.46618 5.46618C2.52884 6.40353 2.00156 7.6744 2 9L2 15C2.00156 16.3256 2.52884 17.5965 3.46618 18.5338C4.40353 19.4712 5.6744 19.9984 7 20H12C13.1978 19.9966 14.3544 19.5626 15.2589 18.7774C16.1633 17.9921 16.7554 16.9078 16.9269 15.7224L20.4853 17.8574C20.6371 17.9485 20.8103 17.9978 20.9873 18C21.1643 18.0023 21.3387 17.9576 21.4927 17.8704C21.6467 17.7832 21.7748 17.6567 21.864 17.5037C21.9531 17.3508 22 17.177 22 17V7C22.0001 6.82309 21.9532 6.64933 21.8641 6.49646C21.7751 6.3436 21.6471 6.2171 21.4932 6.12988ZM15 15C14.9991 15.7954 14.6828 16.5579 14.1204 17.1204C13.5579 17.6828 12.7954 17.9991 12 18H7C6.20462 17.9991 5.44206 17.6828 4.87964 17.1204C4.31722 16.5579 4.00087 15.7954 4 15V9C4.00087 8.20462 4.31722 7.44206 4.87964 6.87964C5.44206 6.31722 6.20462 6.00087 7 6H12C12.7954 6.00087 13.5579 6.31722 14.1204 6.87964C14.6828 7.44206 14.9991 8.20462 15 9V15ZM20 15.2334L17 13.4336V10.5664L20 8.7666V15.2334Z" fill="#545454"/>
</svg>
