<svg width="24" height="24" viewBox="0 0 24 24" fill="none" xmlns="http://www.w3.org/2000/svg">
<path d="M17 5H15V3C15 2.73478 14.8947 2.48043 14.7071 2.29289C14.5196 2.10536 14.2652 2 14 2H10C9.73479 2 9.48044 2.10536 9.2929 2.29289C9.10537 2.48043 9.00001 2.73478 9.00001 3V5H7.00001C5.63751 5.03925 4.34615 5.61705 3.40891 6.60677C2.47168 7.59648 1.96504 8.91739 2.00001 10.28V16.71C1.96234 18.0743 2.46779 19.3978 3.40531 20.3897C4.34282 21.3816 5.63573 21.9608 7.00001 22H17C18.3643 21.9608 19.6572 21.3816 20.5947 20.3897C21.5322 19.3978 22.0377 18.0743 22 16.71V10.28C22.035 8.91739 21.5283 7.59648 20.5911 6.60677C19.6539 5.61705 18.3625 5.03925 17 5ZM11 4H13V6V7H11V4ZM9.19001 20V19.65C9.18603 19.4372 9.22401 19.2258 9.30177 19.0277C9.37953 18.8297 9.49555 18.6488 9.6432 18.4956C9.79085 18.3424 9.96725 18.2198 10.1623 18.1347C10.3574 18.0497 10.5673 18.0039 10.78 18H13.21C13.4236 18.0026 13.6346 18.0474 13.8308 18.1319C14.027 18.2163 14.2046 18.3388 14.3533 18.4921C14.502 18.6455 14.6189 18.8267 14.6973 19.0254C14.7757 19.2242 14.814 19.4364 14.81 19.65V19.93C14.8057 19.9531 14.8057 19.9769 14.81 20H9.19001ZM20 16.71C20.0354 17.5433 19.7398 18.3568 19.1778 18.9731C18.6159 19.5894 17.833 19.9585 17 20H16.8C16.8 20 16.8 19.95 16.8 19.93V19.65C16.8054 18.6907 16.4307 17.7683 15.758 17.0843C15.0854 16.4004 14.1693 16.0106 13.21 16H10.78C9.82075 16.0106 8.90467 16.4004 8.23197 17.0843C7.55928 17.7683 7.18467 18.6907 7.19001 19.65V20H7.00001C6.16699 19.9585 5.38415 19.5894 4.82218 18.9731C4.2602 18.3568 3.96467 17.5433 4.00001 16.71V10.28C3.96472 9.4477 4.26056 8.6353 4.8228 8.0206C5.38503 7.40589 6.16787 7.03892 7.00001 7H9.00001V8C9.00001 8.26522 9.10537 8.51957 9.2929 8.70711C9.48044 8.89464 9.73479 9 10 9H14C14.2652 9 14.5196 8.89464 14.7071 8.70711C14.8947 8.51957 15 8.26522 15 8V7H17C17.8322 7.03892 18.615 7.40589 19.1772 8.0206C19.7395 8.6353 20.0353 9.4477 20 10.28V16.71ZM12 9.52C11.4046 9.51008 10.8198 9.67755 10.3199 10.0011C9.82002 10.3247 9.42773 10.7897 9.19298 11.3369C8.95823 11.8841 8.89164 12.4888 9.00169 13.074C9.11174 13.6592 9.39344 14.1984 9.81094 14.623C10.2284 15.0476 10.7628 15.3383 11.3461 15.4582C11.9294 15.578 12.5351 15.5216 13.0862 15.2961C13.6373 15.0706 14.1088 14.6862 14.4407 14.1918C14.7726 13.6974 14.9499 13.1155 14.95 12.52C14.9501 11.7329 14.6409 10.9774 14.0891 10.4162C13.5372 9.85497 12.787 9.53312 12 9.52ZM12 13.43C11.7983 13.4399 11.5984 13.3884 11.4264 13.2824C11.2545 13.1765 11.1188 13.0209 11.0369 12.8363C10.9551 12.6517 10.9311 12.4466 10.9681 12.2481C11.0051 12.0496 11.1013 11.8669 11.2441 11.7241C11.3869 11.5813 11.5696 11.4851 11.7681 11.4481C11.9666 11.4111 12.1717 11.4351 12.3563 11.5169C12.541 11.5987 12.6965 11.7345 12.8025 11.9064C12.9084 12.0783 12.9599 12.2783 12.95 12.48C12.9513 12.6051 12.9277 12.7293 12.8804 12.8451C12.8332 12.961 12.7632 13.0663 12.6747 13.1547C12.5863 13.2432 12.481 13.3131 12.3651 13.3604C12.2493 13.4077 12.1251 13.4313 12 13.43Z" fill="#545454"/>
</svg>
