<svg width="24" height="24" viewBox="0 0 24 24" fill="none" xmlns="http://www.w3.org/2000/svg">
<path d="M12 14C12.6 14 13 13.6 13 13V9C13 8.4 12.6 8 12 8C11.4 8 11 8.4 11 9V13C11 13.6 11.4 14 12 14ZM12 16C11.4 16 11 16.4 11 17C11 17.6 11.4 18 12 18C12.6 18 13 17.6 13 17C13 16.4 12.5 16 12 16ZM21.6 17.2L15 3.8C14.4 2.7 13.3 2 12 2C10.7 2 9.59997 2.7 8.99997 3.8L2.39997 17.2C1.89997 18.2 1.89997 19.4 2.49997 20.4C3.09997 21.4 4.19997 22 5.29997 22H18.7C19.9 22 20.9 21.4 21.5 20.4C22.1 19.4 22.2 18.2 21.6 17.2ZM19.8 19.4C19.6 19.8 19.1 20 18.7 20H5.29997C4.79997 20 4.39997 19.8 4.19997 19.4C3.99997 19 3.89997 18.5 4.09997 18.1L10.8 4.7C11 4.3 11.5 4 12 4C12.5 4 13 4.3 13.2 4.7L19.9 18.1C20.1 18.5 20 19 19.8 19.4Z" fill="#545454"/>
</svg>
