<svg width="24" height="24" viewBox="0 0 24 24" fill="none" xmlns="http://www.w3.org/2000/svg">
<path d="M10 20H7C6.20435 20 5.44129 19.6839 4.87868 19.1213C4.31607 18.5587 4 17.7956 4 17V9H20V10C20 10.2652 20.1054 10.5196 20.2929 10.7071C20.4804 10.8946 20.7348 11 21 11C21.2652 11 21.5196 10.8946 21.7071 10.7071C21.8946 10.5196 22 10.2652 22 10V8V7C22 5.67392 21.4732 4.40215 20.5355 3.46447C19.5979 2.52678 18.3261 2 17 2H7C5.67392 2 4.40215 2.52678 3.46447 3.46447C2.52678 4.40215 2 5.67392 2 7V17C2 18.3261 2.52678 19.5979 3.46447 20.5355C4.40215 21.4732 5.67392 22 7 22H10C10.2652 22 10.5196 21.8946 10.7071 21.7071C10.8946 21.5196 11 21.2652 11 21C11 20.7348 10.8946 20.4804 10.7071 20.2929C10.5196 20.1054 10.2652 20 10 20ZM4 7C4 6.20435 4.31607 5.44129 4.87868 4.87868C5.44129 4.31607 6.20435 4 7 4H17C17.7956 4 18.5587 4.31607 19.1213 4.87868C19.6839 5.44129 20 6.20435 20 7H4ZM16.5 11C15.4122 11 14.3488 11.3226 13.4444 11.9269C12.5399 12.5313 11.8349 13.3902 11.4187 14.3952C11.0024 15.4002 10.8935 16.5061 11.1057 17.573C11.3179 18.6399 11.8417 19.6199 12.6109 20.3891C13.3801 21.1583 14.3601 21.6821 15.427 21.8943C16.4939 22.1065 17.5998 21.9976 18.6048 21.5813C19.6098 21.1651 20.4687 20.4601 21.0731 19.5556C21.6774 18.6512 22 17.5878 22 16.5C21.9974 15.0421 21.417 13.6447 20.3862 12.6138C19.3553 11.583 17.9579 11.0026 16.5 11ZM16.5 20C15.8078 20 15.1311 19.7947 14.5555 19.4101C13.9799 19.0256 13.5313 18.4789 13.2664 17.8394C13.0015 17.1999 12.9322 16.4961 13.0673 15.8172C13.2023 15.1383 13.5356 14.5146 14.0251 14.0251C14.5146 13.5356 15.1383 13.2023 15.8172 13.0673C16.4961 12.9322 17.1999 13.0015 17.8394 13.2664C18.4789 13.5313 19.0256 13.9799 19.4101 14.5555C19.7947 15.1311 20 15.8078 20 16.5C20 17.4283 19.6313 18.3185 18.9749 18.9749C18.3185 19.6313 17.4283 20 16.5 20ZM18 16H17V15C17 14.7348 16.8946 14.4804 16.7071 14.2929C16.5196 14.1054 16.2652 14 16 14C15.7348 14 15.4804 14.1054 15.2929 14.2929C15.1054 14.4804 15 14.7348 15 15V17C15 17.2652 15.1054 17.5196 15.2929 17.7071C15.4804 17.8946 15.7348 18 16 18H18C18.2652 18 18.5196 17.8946 18.7071 17.7071C18.8946 17.5196 19 17.2652 19 17C19 16.7348 18.8946 16.4804 18.7071 16.2929C18.5196 16.1054 18.2652 16 18 16Z" fill="#545454"/>
</svg>
