<svg width="24" height="24" viewBox="0 0 24 24" fill="none" xmlns="http://www.w3.org/2000/svg">
<path d="M17.0002 2.00049H7.00024C5.67464 2.00205 4.40378 2.52933 3.46643 3.46668C2.52909 4.40402 2.0018 5.67488 2.00024 7.00049V17.0005C2.00341 17.876 2.23531 18.7356 2.67297 19.4939C3.11062 20.2522 3.73884 20.883 4.49536 21.3237C4.72458 21.4571 4.9974 21.494 5.25379 21.4262C5.51019 21.3585 5.72917 21.1916 5.86255 20.9624C5.99594 20.7332 6.03281 20.4604 5.96504 20.204C5.89728 19.9476 5.73044 19.7286 5.50122 19.5952C5.04662 19.331 4.66896 18.9526 4.40567 18.4975C4.14239 18.0423 4.00262 17.5263 4.00022 17.0005V9.00149H20.0002V11.9907C20.0002 12.256 20.1056 12.5103 20.2931 12.6979C20.4807 12.8854 20.735 12.9907 21.0002 12.9907C21.2654 12.9907 21.5198 12.8854 21.7073 12.6979C21.8949 12.5103 22.0002 12.256 22.0002 11.9907V7.00049C21.9987 5.67489 21.4714 4.40403 20.534 3.46668C19.5967 2.52934 18.3258 2.00205 17.0002 2.00049ZM20.0002 7.00149H4.00024V7.00049C4.00111 6.20511 4.31746 5.44255 4.87988 4.88013C5.4423 4.31771 6.20486 4.00136 7.00024 4.00049H17.0002C17.7956 4.00136 18.5582 4.31771 19.1206 4.88013C19.683 5.44255 19.9994 6.20511 20.0002 7.00049V7.00149ZM13.9983 11.9907C12.3942 11.9677 10.8138 12.3786 9.4241 13.18C8.03442 13.9814 6.88719 15.1436 6.10376 16.5435C6.0344 16.6824 5.99829 16.8355 5.99829 16.9907C5.99829 17.146 6.0344 17.2991 6.10376 17.438C6.88719 18.8379 8.03442 20.0001 9.4241 20.8015C10.8138 21.6029 12.3942 22.0138 13.9983 21.9907C15.6023 22.0138 17.1828 21.6029 18.5725 20.8015C19.9622 20.0001 21.1094 18.8379 21.8928 17.438C21.9622 17.2991 21.9983 17.146 21.9983 16.9907C21.9983 16.8355 21.9622 16.6824 21.8928 16.5435C21.1094 15.1436 19.9622 13.9814 18.5725 13.18C17.1828 12.3786 15.6023 11.9677 13.9983 11.9907V11.9907ZM13.9983 19.9907C12.8543 20.0106 11.7231 19.7471 10.7057 19.2237C9.68826 18.7002 8.81618 17.9331 8.16723 16.9907C8.81628 16.0485 9.68837 15.2815 10.7058 14.758C11.7232 14.2346 12.8543 13.971 13.9983 13.9907C15.1422 13.971 16.2731 14.2345 17.2904 14.758C18.3076 15.2814 19.1796 16.0485 19.8284 16.9907C19.1796 17.933 18.3076 18.7 17.2904 19.2235C16.2731 19.7469 15.1422 20.0105 13.9983 19.9907V19.9907ZM13.9979 14.9906C13.6023 14.9906 13.2156 15.1079 12.8867 15.3276C12.5578 15.5474 12.3015 15.8597 12.1501 16.2252C11.9987 16.5907 11.9591 16.9928 12.0363 17.3807C12.1135 17.7687 12.3039 18.1251 12.5837 18.4048C12.8634 18.6845 13.2197 18.875 13.6077 18.9521C13.9956 19.0293 14.3978 18.9897 14.7632 18.8383C15.1287 18.687 15.441 18.4306 15.6608 18.1017C15.8806 17.7728 15.9979 17.3861 15.9979 16.9906C15.9979 16.7279 15.9461 16.4678 15.8456 16.2252C15.7451 15.9825 15.5978 15.7621 15.4121 15.5763C15.2264 15.3906 15.0059 15.2433 14.7632 15.1428C14.5206 15.0423 14.2605 14.9905 13.9979 14.9905V14.9906Z" fill="#545454"/>
</svg>
