<svg width="24" height="24" viewBox="0 0 24 24" fill="none" xmlns="http://www.w3.org/2000/svg">
<path d="M13.4993 4.99756C12.0598 5.00232 10.645 5.37167 9.38684 6.07114C8.12871 6.77061 7.06828 7.7774 6.30451 8.99756H2.99927C2.73405 8.99756 2.4797 9.10292 2.29216 9.29045C2.10462 9.47799 1.99927 9.73234 1.99927 9.99756C1.99927 10.2628 2.10462 10.5171 2.29216 10.7047C2.4797 10.8922 2.73405 10.9976 2.99927 10.9976H9.99927C10.2645 10.9976 10.5188 10.8922 10.7064 10.7047C10.8939 10.5171 10.9993 10.2628 10.9993 9.99756C10.9993 9.73234 10.8939 9.47799 10.7064 9.29045C10.5188 9.10292 10.2645 8.99756 9.99927 8.99756H8.82062C9.71854 8.06147 10.876 7.41542 12.1441 7.14252C13.4122 6.86962 14.7329 6.98235 15.9364 7.46621C17.1399 7.95007 18.1711 8.78293 18.8974 9.85766C19.6237 10.9324 20.0119 12.1998 20.0119 13.4969C20.012 14.7941 19.624 16.0616 18.8978 17.1364C18.1716 18.2112 17.1405 19.0441 15.9371 19.5281C14.7336 20.0121 13.4129 20.125 12.1448 19.8522C10.8766 19.5795 9.71913 18.9336 8.82111 17.9976H9.99927C10.2645 17.9976 10.5188 17.8922 10.7064 17.7047C10.8939 17.5171 10.9993 17.2628 10.9993 16.9976C10.9993 16.7323 10.8939 16.478 10.7064 16.2905C10.5188 16.1029 10.2645 15.9976 9.99927 15.9976H4.99927C4.73405 15.9976 4.4797 16.1029 4.29216 16.2905C4.10462 16.478 3.99927 16.7323 3.99927 16.9976C3.99927 17.2628 4.10462 17.5171 4.29216 17.7047C4.4797 17.8922 4.73405 17.9976 4.99927 17.9976H6.30451C7.08879 19.2509 8.18663 20.2778 9.48946 20.9768C10.7923 21.6757 12.255 22.0225 13.733 21.9828C15.2109 21.9432 16.6529 21.5184 17.9164 20.7506C19.1799 19.9828 20.2211 18.8984 20.937 17.6049C21.6529 16.3113 22.0188 14.8532 21.9985 13.3749C21.9781 11.8965 21.5723 10.4491 20.821 9.17568C20.0698 7.90227 18.9991 6.84701 17.715 6.11423C16.4309 5.38146 14.9778 4.99655 13.4993 4.99756ZM12.9993 8.99756C12.8679 8.99748 12.7379 9.0233 12.6165 9.07353C12.4951 9.12375 12.3849 9.19741 12.292 9.29029C12.1991 9.38316 12.1255 9.49343 12.0752 9.61479C12.025 9.73615 11.9992 9.86622 11.9993 9.99756V13.9976C11.9992 14.1289 12.025 14.259 12.0752 14.3803C12.1255 14.5017 12.1991 14.612 12.292 14.7048C12.3849 14.7977 12.4951 14.8714 12.6165 14.9216C12.7379 14.9718 12.8679 14.9976 12.9993 14.9976H16.9993C17.2645 14.9976 17.5188 14.8922 17.7064 14.7047C17.8939 14.5171 17.9993 14.2628 17.9993 13.9976C17.9993 13.7323 17.8939 13.478 17.7064 13.2905C17.5188 13.1029 17.2645 12.9976 16.9993 12.9976H13.9993V9.99756C13.9993 9.86622 13.9735 9.73615 13.9233 9.61479C13.8731 9.49343 13.7994 9.38316 13.7065 9.29028C13.6137 9.19741 13.5034 9.12375 13.382 9.07352C13.2607 9.0233 13.1306 8.99748 12.9993 8.99756ZM9.99927 14.4976C10.2645 14.4976 10.5188 14.3922 10.7064 14.2047C10.8939 14.0171 10.9993 13.7628 10.9993 13.4976C10.9993 13.2323 10.8939 12.978 10.7064 12.7905C10.5188 12.6029 10.2645 12.4976 9.99927 12.4976H3.99927C3.73405 12.4976 3.4797 12.6029 3.29216 12.7905C3.10462 12.978 2.99927 13.2323 2.99927 13.4976C2.99927 13.7628 3.10462 14.0171 3.29216 14.2047C3.4797 14.3922 3.73405 14.4976 3.99927 14.4976H9.99927ZM10.9993 3.99756H14.9993C15.2645 3.99756 15.5188 3.8922 15.7064 3.70467C15.8939 3.51713 15.9993 3.26277 15.9993 2.99756C15.9993 2.73234 15.8939 2.47799 15.7064 2.29045C15.5188 2.10292 15.2645 1.99756 14.9993 1.99756H10.9993C10.7341 1.99756 10.4797 2.10292 10.2922 2.29045C10.1046 2.47799 9.99927 2.73234 9.99927 2.99756C9.99927 3.26277 10.1046 3.51713 10.2922 3.70467C10.4797 3.8922 10.7341 3.99756 10.9993 3.99756Z" fill="#545454"/>
</svg>
