<svg width="24" height="24" viewBox="0 0 24 24" fill="none" xmlns="http://www.w3.org/2000/svg">
<path d="M17 2H7C5.6744 2.00156 4.40353 2.52884 3.46618 3.46618C2.52884 4.40353 2.00156 5.6744 2 7L2 21C2.0001 21.1809 2.04929 21.3584 2.14233 21.5135C2.23538 21.6686 2.36878 21.7956 2.52832 21.8809C2.67313 21.9593 2.83529 22.0003 3 22C3.19739 21.9997 3.39032 21.9413 3.55469 21.832C4.32031 21.3223 6.61328 20 8 20H17C18.3256 19.9984 19.5965 19.4712 20.5338 18.5338C21.4712 17.5965 21.9984 16.3256 22 15V7C21.9984 5.6744 21.4712 4.40353 20.5338 3.46618C19.5965 2.52884 18.3256 2.00156 17 2V2ZM20 15C19.9991 15.7954 19.6828 16.5579 19.1204 17.1204C18.5579 17.6828 17.7954 17.9991 17 18H8C6.59051 18.1193 5.22471 18.5481 4 19.2559V7C4.00087 6.20462 4.31722 5.44206 4.87964 4.87964C5.44206 4.31722 6.20462 4.00087 7 4H17C17.7954 4.00087 18.5579 4.31722 19.1204 4.87964C19.6828 5.44206 19.9991 6.20462 20 7V15ZM13.5332 6.14453C13.4241 6.07107 13.3015 6.01988 13.1726 5.99388C13.0436 5.96787 12.9108 5.96757 12.7817 5.993C12.6527 6.01842 12.5299 6.06907 12.4204 6.14203C12.311 6.215 12.217 6.30884 12.1439 6.4182C12.0708 6.52755 12.02 6.65026 11.9944 6.77929C11.9688 6.90832 11.9689 7.04113 11.9947 7.17012C12.0205 7.2991 12.0716 7.42172 12.1449 7.53095C12.2182 7.64018 12.3123 7.73386 12.4219 7.80664C12.9182 8.1696 13.319 8.64758 13.59 9.19954C13.861 9.75151 13.9939 10.361 13.9775 10.9756C13.9939 11.5903 13.861 12.1998 13.59 12.7517C13.319 13.3037 12.9182 13.7816 12.4219 14.1446C12.3123 14.2174 12.2182 14.311 12.1449 14.4203C12.0716 14.5295 12.0205 14.6521 11.9947 14.7811C11.9689 14.9101 11.9688 15.0429 11.9944 15.1719C12.02 15.301 12.0708 15.4237 12.1439 15.533C12.217 15.6424 12.311 15.7362 12.4204 15.8092C12.5299 15.8822 12.6527 15.9328 12.7817 15.9582C12.9108 15.9836 13.0436 15.9833 13.1726 15.9573C13.3015 15.9313 13.4241 15.8801 13.5332 15.8067C14.3018 15.26 14.926 14.5346 15.3518 13.693C15.7776 12.8513 15.9924 11.9188 15.9775 10.9757C15.9924 10.0326 15.7777 9.09997 15.3518 8.25833C14.926 7.41668 14.3019 6.69123 13.5332 6.14453ZM9.5332 8.14453C9.42407 8.07107 9.30152 8.01988 9.17257 7.99388C9.04363 7.96787 8.91081 7.96757 8.78175 7.993C8.65268 8.01842 8.5299 8.06907 8.42045 8.14203C8.311 8.215 8.21702 8.30884 8.1439 8.4182C8.07078 8.52755 8.01997 8.65026 7.99437 8.77929C7.96876 8.90832 7.96888 9.04113 7.9947 9.17012C8.02053 9.2991 8.07155 9.42172 8.14486 9.53095C8.21816 9.64018 8.3123 9.73386 8.42188 9.80664C8.60186 9.94228 8.74638 10.1194 8.84313 10.323C8.93989 10.5265 8.986 10.7504 8.97754 10.9756C8.98599 11.2008 8.93987 11.4247 8.84312 11.6283C8.74637 11.8318 8.60185 12.0089 8.42188 12.1446C8.31172 12.2171 8.217 12.3107 8.14318 12.42C8.06935 12.5293 8.01788 12.6521 7.99173 12.7814C7.96558 12.9106 7.96527 13.0438 7.99081 13.1732C8.01635 13.3026 8.06723 13.4256 8.14054 13.5353C8.21385 13.6449 8.30812 13.7389 8.41794 13.812C8.52775 13.885 8.65093 13.9356 8.78038 13.9608C8.90983 13.9861 9.043 13.9854 9.1722 13.959C9.3014 13.9325 9.42409 13.8807 9.5332 13.8066C9.98835 13.4901 10.3583 13.0661 10.6103 12.5722C10.8622 12.0784 10.9884 11.5299 10.9775 10.9756C10.9884 10.4213 10.8623 9.87288 10.6103 9.37901C10.3583 8.88514 9.98837 8.4611 9.5332 8.14453Z" fill="#545454"/>
</svg>
