<svg width="24" height="24" viewBox="0 0 24 24" fill="none" xmlns="http://www.w3.org/2000/svg">
<path d="M11 19H7C4.24 19 2 16.76 2 14V7C2 4.24 4.24 2 7 2H17C19.76 2 22 4.24 22 7V10C22 10.55 21.55 11 21 11C20.45 11 20 10.55 20 10V7C20 5.35 18.65 4 17 4H7C5.35 4 4 5.35 4 7V14C4 15.65 5.35 17 7 17H11C11.55 17 12 17.45 12 18C12 18.55 11.55 19 11 19Z" fill="#545454"/>
<path d="M21.47 13.54C21.13 13.19 20.67 13 20.18 13C19.69 13 19.23 13.19 18.88 13.54L13.89 18.53C13.78 18.64 13.7 18.77 13.65 18.92L13.06 20.69C12.94 21.05 13.03 21.45 13.3 21.71C13.49 21.9 13.75 22 14.01 22C14.12 22 14.22 21.98 14.33 21.95L16.1 21.36C16.25 21.31 16.38 21.23 16.49 21.12L21.48 16.13C21.83 15.78 22.02 15.32 22.02 14.83C22.02 14.34 21.83 13.88 21.49 13.54H21.47ZM17.49 12.52C17.97 12.25 18.13 11.65 17.87 11.17C17.61 10.69 17 10.51 16.52 10.77C16.33 10.87 14.62 11.68 12.74 9.58C11.81 8.53 10.74 8 9.58999 8C7.70999 8 6.38999 9.42 6.24999 9.58C5.87999 9.99 5.91998 10.62 6.32998 10.99C6.73998 11.36 7.36998 11.33 7.73998 10.92C7.73998 10.92 8.58999 10 9.58999 10C10.16 10 10.7 10.3 11.24 10.91C12.67 12.51 14.21 13 15.46 13C16.31 13 17.03 12.77 17.48 12.52H17.49Z" fill="#545454"/>
</svg>
